<svg class="bob" font-family="arial" font-size="14" height="64" width="248" xmlns="http://www.w3.org/2000/svg">
<defs>
<marker id="triangle" markerHeight="8" markerWidth="8" orient="auto" refX="4" refY="2" viewBox="0 0 8 4">
<polygon class="fg_fill" points="0,0 0,4 8,2 0,0"/>
</marker>
<marker id="clear_triangle" markerHeight="10" markerWidth="10" orient="auto" refX="1" refY="7" viewBox="0 0 20 14">
<polygon class="bg_fill" points="2,2 2,12 18,7 2,2"/>
</marker>
<marker id="circle" markerHeight="5" markerWidth="5" orient="auto" refX="10" refY="10" viewBox="0 0 20 20">
<circle class="fg_fill" cx="10" cy="10" r="8"/>
</marker>
<marker id="square" markerHeight="5" markerWidth="5" orient="auto" refX="10" refY="10" viewBox="0 0 20 20">
<rect class="fg_fill" height="20" width="20" x="0" y="0"/>
</marker>
<marker id="open_circle" markerHeight="10" markerWidth="10" orient="auto" refX="10" refY="10" viewBox="0 0 20 20">
<circle class="bg_fill" cx="10" cy="10" r="4"/>
</marker>
<marker id="big_open_circle" markerHeight="20" markerWidth="20" orient="auto" refX="20" refY="20" viewBox="0 0 40 40">
<circle class="bg_fill" cx="20" cy="20" r="6"/>
</marker>
</defs>
<style type="text/css">

rect.backdrop {
    fill: white;
}
text{
    fill: black;
}

circle {
    fill: none;
    stroke: black;
    stroke-width: 2;
}

line {
    stroke: black;
    stroke-width: 2;
    stroke-opacity: 1;
    fill-opacity: 1;
    stroke-linecap: round;
    stroke-linejoin: miter;
}

path {
    fill: none;
    stroke: black;
    stroke-width: 2;
    stroke-opacity: 1;
    fill-opacity: 1;
    stroke-linecap: round;
    stroke-linejoin: miter;
}

line.dashed {
    stroke-dasharray: 5;
}

.fg_fill {
    fill: black;
}


.bg_fill {
    fill: white;
    stroke: black;
    stroke-width: 2;
}

tspan.head{
    fill: none;
    stroke: none;
}
    
</style>
<rect class="backdrop" height="64" width="248" x="0" y="0"/>
<g>
<line x1="0" x2="8" y1="16" y2="32"/>
<line x1="12" x2="8" y1="40" y2="32"/>
<line x1="12" x2="12" y1="48" y2="40"/>
<line x1="12" x2="12" y1="56" y2="48"/>
<line x1="16" x2="12" y1="64" y2="56"/>
</g>
<g>
<line x1="4" x2="16" y1="24" y2="24"/>
<path d="M 22 28 A 8 8 0 0 0 16 24"/>
</g>
<g>
<line x1="22" x2="32" y1="28" y2="48"/>
<line x1="32" x2="40" y1="48" y2="64"/>
<line x1="40" x2="44" y1="64" y2="56"/>
<line x1="44" x2="44" y1="24" y2="56"/>
<line x1="44" x2="48" y1="24" y2="16"/>
</g>
<g>
<line x1="116" x2="116" y1="16" y2="32"/>
<line x1="116" x2="116" y1="32" y2="48"/>
<line x1="116" x2="116" y1="48" y2="64"/>
<line x1="128" x2="116" y1="64" y2="64"/>
</g>
<g>
<line x1="120" x2="136" y1="64" y2="64"/>
</g>
<g>
<line x1="148" x2="148" y1="28" y2="32"/>
<line x1="148" x2="148" y1="32" y2="48"/>
<line x1="148" x2="148" y1="52" y2="48"/>
<path d="M 148 52 A 4 4 0 0 0 152 56"/>
<path d="M 152 24 A 4 4 0 0 0 148 28"/>
</g>
<g>
<line x1="148" x2="160" y1="40" y2="40"/>
<path d="M 160 40 A 4 4 0 0 0 164 36"/>
</g>
<g>
<line x1="152" x2="160" y1="24" y2="24"/>
<path d="M 164 28 A 4 4 0 0 0 160 24"/>
</g>
<g>
<line x1="152" x2="168" y1="56" y2="56"/>
</g>
<g>
<line x1="164" x2="164" y1="28" y2="32"/>
<line x1="164" x2="164" y1="36" y2="32"/>
</g>
<g>
<line x1="184" x2="192" y1="16" y2="16"/>
<line x1="192" x2="194" y1="16" y2="20"/>
<path d="M 184 16 A 16 16 0 0 0 184 32"/>
</g>
<g>
<line x1="184" x2="192" y1="32" y2="48"/>
</g>
<g>
<line x1="188" x2="204" y1="40" y2="40"/>
</g>
<g>
<line x1="190" x2="192" y1="60" y2="64"/>
<line x1="192" x2="200" y1="64" y2="64"/>
<line x1="200" x2="208" y1="64" y2="48"/>
</g>
<g>
<line x1="200" x2="208" y1="32" y2="48"/>
</g>
<g>
<line x1="220" x2="220" y1="16" y2="32"/>
<line x1="220" x2="220" y1="32" y2="48"/>
<line x1="220" x2="220" y1="48" y2="64"/>
</g>
<g>
<line x1="224" x2="232" y1="32" y2="16"/>
<line x1="224" x2="232" y1="32" y2="48"/>
<line x1="232" x2="240" y1="48" y2="64"/>
</g>
<g>
<circle class="open" cx="84" cy="40" r="8"/>
</g>
<g>
<line marker-start="url(#open_circle)" x1="60" x2="60" y1="24" y2="64"/>
</g>
</svg>
