<svg aria-roledescription="er" role="graphics-document document" viewBox="0 0 377.8021240234375 308" height="308" xmlns="http://www.w3.org/2000/svg" width="377.8021240234375" id="container"><style>#container{font-family:"trebuchet ms",verdana,arial,sans-serif;font-size:16px;fill:#333;}#container .error-icon{fill:#552222;}#container .error-text{fill:#552222;stroke:#552222;}#container .edge-thickness-normal{stroke-width:2px;}#container .edge-thickness-thick{stroke-width:3.5px;}#container .edge-pattern-solid{stroke-dasharray:0;}#container .edge-pattern-dashed{stroke-dasharray:3;}#container .edge-pattern-dotted{stroke-dasharray:2;}#container .marker{fill:#333333;stroke:#333333;}#container .marker.cross{stroke:#333333;}#container svg{font-family:"trebuchet ms",verdana,arial,sans-serif;font-size:16px;}#container .entityBox{fill:#ECECFF;stroke:#9370DB;}#container .attributeBoxOdd{fill:#ffffff;stroke:#9370DB;}#container .attributeBoxEven{fill:#f2f2f2;stroke:#9370DB;}#container .relationshipLabelBox{fill:hsl(80, 100%, 96.2745098039%);opacity:0.7;background-color:hsl(80, 100%, 96.2745098039%);}#container .relationshipLabelBox rect{opacity:0.5;}#container .relationshipLine{stroke:#333333;}#container .entityTitleText{text-anchor:middle;font-size:18px;fill:#333;}#container :root{--mermaid-font-family:"trebuchet ms",verdana,arial,sans-serif;}</style><g></g><defs><marker orient="auto" markerHeight="18" markerWidth="18" refY="9" refX="0" id="ONLY_ONE_START"><path d="M9,0 L9,18 M15,0 L15,18" fill="none" stroke="gray"></path></marker></defs><defs><marker orient="auto" markerHeight="18" markerWidth="18" refY="9" refX="18" id="ONLY_ONE_END"><path d="M3,0 L3,18 M9,0 L9,18" fill="none" stroke="gray"></path></marker></defs><defs><marker orient="auto" markerHeight="18" markerWidth="30" refY="9" refX="0" id="ZERO_OR_ONE_START"><circle r="6" cy="9" cx="21" fill="white" stroke="gray"></circle><path d="M9,0 L9,18" fill="none" stroke="gray"></path></marker></defs><defs><marker orient="auto" markerHeight="18" markerWidth="30" refY="9" refX="30" id="ZERO_OR_ONE_END"><circle r="6" cy="9" cx="9" fill="white" stroke="gray"></circle><path d="M21,0 L21,18" fill="none" stroke="gray"></path></marker></defs><defs><marker orient="auto" markerHeight="36" markerWidth="45" refY="18" refX="18" id="ONE_OR_MORE_START"><path d="M0,18 Q 18,0 36,18 Q 18,36 0,18 M42,9 L42,27" fill="none" stroke="gray"></path></marker></defs><defs><marker orient="auto" markerHeight="36" markerWidth="45" refY="18" refX="27" id="ONE_OR_MORE_END"><path d="M3,9 L3,27 M9,18 Q27,0 45,18 Q27,36 9,18" fill="none" stroke="gray"></path></marker></defs><defs><marker orient="auto" markerHeight="36" markerWidth="57" refY="18" refX="18" id="ZERO_OR_MORE_START"><circle r="6" cy="18" cx="48" fill="white" stroke="gray"></circle><path d="M0,18 Q18,0 36,18 Q18,36 0,18" fill="none" stroke="gray"></path></marker></defs><defs><marker orient="auto" markerHeight="36" markerWidth="57" refY="18" refX="39" id="ZERO_OR_MORE_END"><circle r="6" cy="18" cx="9" fill="white" stroke="gray"></circle><path d="M21,18 Q39,0 57,18 Q39,36 21,18" fill="none" stroke="gray"></path></marker></defs><path style="stroke: gray; fill: none;" marker-start="url(#ONLY_ONE_START)" marker-end="url(#ZERO_OR_MORE_END)" d="M88.90105438232422,113L88.90105438232422,121.33333333333333C88.90105438232422,129.66666666666666,88.90105438232422,146.33333333333334,99.32491411481585,163C109.74877384730748,179.66666666666666,130.59649331229073,196.33333333333334,141.02035304478238,204.66666666666666L151.444212777274,213" class="er relationshipLine"></path><path style="stroke: gray; fill: none;" marker-start="url(#ONLY_ONE_START)" marker-end="url(#ZERO_OR_MORE_END)" d="M307.80210876464844,113L307.80210876464844,121.33333333333333C307.80210876464844,129.66666666666666,307.80210876464844,146.33333333333334,297.3782490321568,163C286.95438929966514,179.66666666666666,266.1066698346819,196.33333333333334,255.68281010219027,204.66666666666666L245.25895036969865,213" class="er relationshipLine"></path><g transform="translate(20,20 )" id="entity-CAR-d58c1c43-b180-5c15-ae3f-ebb2bacf180b"><rect height="93" width="137.80210876464844" y="0" x="0" class="er entityBox"></rect><text style="dominant-baseline: middle; text-anchor: middle; font-size: 12px;" transform="translate(68.90105438232422,12)" y="0" x="0" id="text-entity-CAR-d58c1c43-b180-5c15-ae3f-ebb2bacf180b" class="er entityLabel">CAR</text><rect height="23" width="37.21012878417969" y="24" x="0" class="er attributeBoxOdd"></rect><text style="dominant-baseline: middle; font-size: 10.2px;" transform="translate(5,35.5)" y="0" x="0" id="text-entity-CAR-d58c1c43-b180-5c15-ae3f-ebb2bacf180b-attr-1-type" class="er entityLabel">string</text><rect height="23" width="100.59197998046875" y="24" x="37.21012878417969" class="er attributeBoxOdd"></rect><text style="dominant-baseline: middle; font-size: 10.2px;" transform="translate(42.21012878417969,35.5)" y="0" x="0" id="text-entity-CAR-d58c1c43-b180-5c15-ae3f-ebb2bacf180b-attr-1-name" class="er entityLabel">registrationNumber</text><rect height="23" width="37.21012878417969" y="47" x="0" class="er attributeBoxEven"></rect><text style="dominant-baseline: middle; font-size: 10.2px;" transform="translate(5,58.5)" y="0" x="0" id="text-entity-CAR-d58c1c43-b180-5c15-ae3f-ebb2bacf180b-attr-2-type" class="er entityLabel">string</text><rect height="23" width="100.59197998046875" y="47" x="37.21012878417969" class="er attributeBoxEven"></rect><text style="dominant-baseline: middle; font-size: 10.2px;" transform="translate(42.21012878417969,58.5)" y="0" x="0" id="text-entity-CAR-d58c1c43-b180-5c15-ae3f-ebb2bacf180b-attr-2-name" class="er entityLabel">make</text><rect height="23" width="37.21012878417969" y="70" x="0" class="er attributeBoxOdd"></rect><text style="dominant-baseline: middle; font-size: 10.2px;" transform="translate(5,81.5)" y="0" x="0" id="text-entity-CAR-d58c1c43-b180-5c15-ae3f-ebb2bacf180b-attr-3-type" class="er entityLabel">string</text><rect height="23" width="100.59197998046875" y="70" x="37.21012878417969" class="er attributeBoxOdd"></rect><text style="dominant-baseline: middle; font-size: 10.2px;" transform="translate(42.21012878417969,81.5)" y="0" x="0" id="text-entity-CAR-d58c1c43-b180-5c15-ae3f-ebb2bacf180b-attr-3-name" class="er entityLabel">model</text></g><g transform="translate(142.21095657348633,213 )" id="entity-NAMEDDRIVER-d90e5e77-ef25-5d7a-a526-f279abbecadc"><rect height="75" width="112.28125" y="0" x="0" class="er entityBox"></rect><text style="dominant-baseline: middle; text-anchor: middle; font-size: 12px;" transform="translate(56.140625,37.5)" y="0" x="0" id="text-entity-NAMEDDRIVER-d90e5e77-ef25-5d7a-a526-f279abbecadc" class="er entityLabel">NAMED-DRIVER</text></g><g transform="translate(257.80210876464844,20 )" id="entity-PERSON-0411f458-596b-5e40-828e-dbef3c8360ea"><rect height="93" width="100" y="0" x="0" class="er entityBox"></rect><text style="dominant-baseline: middle; text-anchor: middle; font-size: 12px;" transform="translate(50,12)" y="0" x="0" id="text-entity-PERSON-0411f458-596b-5e40-828e-dbef3c8360ea" class="er entityLabel">PERSON</text><rect height="23" width="40.95368957519531" y="24" x="0" class="er attributeBoxOdd"></rect><text style="dominant-baseline: middle; font-size: 10.2px;" transform="translate(5,35.5)" y="0" x="0" id="text-entity-PERSON-0411f458-596b-5e40-828e-dbef3c8360ea-attr-1-type" class="er entityLabel">string</text><rect height="23" width="59.04631042480469" y="24" x="40.95368957519531" class="er attributeBoxOdd"></rect><text style="dominant-baseline: middle; font-size: 10.2px;" transform="translate(45.95368957519531,35.5)" y="0" x="0" id="text-entity-PERSON-0411f458-596b-5e40-828e-dbef3c8360ea-attr-1-name" class="er entityLabel">firstName</text><rect height="23" width="40.95368957519531" y="47" x="0" class="er attributeBoxEven"></rect><text style="dominant-baseline: middle; font-size: 10.2px;" transform="translate(5,58.5)" y="0" x="0" id="text-entity-PERSON-0411f458-596b-5e40-828e-dbef3c8360ea-attr-2-type" class="er entityLabel">string</text><rect height="23" width="59.04631042480469" y="47" x="40.95368957519531" class="er attributeBoxEven"></rect><text style="dominant-baseline: middle; font-size: 10.2px;" transform="translate(45.95368957519531,58.5)" y="0" x="0" id="text-entity-PERSON-0411f458-596b-5e40-828e-dbef3c8360ea-attr-2-name" class="er entityLabel">lastName</text><rect height="23" width="40.95368957519531" y="70" x="0" class="er attributeBoxOdd"></rect><text style="dominant-baseline: middle; font-size: 10.2px;" transform="translate(5,81.5)" y="0" x="0" id="text-entity-PERSON-0411f458-596b-5e40-828e-dbef3c8360ea-attr-3-type" class="er entityLabel">int</text><rect height="23" width="59.04631042480469" y="70" x="40.95368957519531" class="er attributeBoxOdd"></rect><text style="dominant-baseline: middle; font-size: 10.2px;" transform="translate(45.95368957519531,81.5)" y="0" x="0" id="text-entity-PERSON-0411f458-596b-5e40-828e-dbef3c8360ea-attr-3-name" class="er entityLabel">age</text></g><rect height="14" width="34.992218017578125" y="164.36148071289062" x="87.86735534667969" class="er relationshipLabelBox"></rect><text style="text-anchor: middle; dominant-baseline: middle; font-size: 12px;" y="171.36148071289062" x="105.36346435546875" id="rel1" class="er relationshipLabel">allows</text><rect height="14" width="9.384002685546875" y="164.36146545410156" x="286.64768981933594" class="er relationshipLabelBox"></rect><text style="text-anchor: middle; dominant-baseline: middle; font-size: 12px;" y="171.36146545410156" x="291.3396911621094" id="rel2" class="er relationshipLabel">is</text></svg>