<?xml version="1.0" encoding="UTF-8"?><svg xmlns="http://www.w3.org/2000/svg" width="330" height="308" version="1.0" shape-rendering="geometricPrecision"><defs><filter id="shadowBlur" x="0" y="0" width="200%" height="200%"><feOffset in="SourceGraphic" dx="3.0003002" dy="3.0003002" result="offOut"></feOffset><feGaussianBlur in="offOut" stdDeviation="3"></feGaussianBlur></filter></defs><g stroke-width="1" stroke-linecap="square" stroke-linejoin="round"><rect x="0" y="0" width="330" height="308" style="fill: #ffffff"></rect><path stroke="#969696" fill="#969696" filter="url(#shadowBlur)" d="M25.0 56.0 Q25.0 49.0 30.0 49.0 L163.0 49.0 L163.0 75.0 L25.0 75.0 z"></path><path stroke="#969696" fill="#969696" filter="url(#shadowBlur)" d="M167.0 49.0 L300.0 49.0 Q305.0 49.0 305.0 56.0 L305.0 75.0 L305.0 75.0 L167.0 75.0 z"></path><path stroke="#969696" fill="#969696" filter="url(#shadowBlur)" d="M25.0 107.0 L163.0 107.0 L163.0 133.0 L30.0 133.0 Q25.0 133.0 25.0 126.0 L25.0 107.0 z"></path><path stroke="#969696" fill="#969696" filter="url(#shadowBlur)" d="M167.0 107.0 L305.0 107.0 L305.0 126.0 Q305.0 133.0 300.0 133.0 L167.0 133.0 L167.0 133.0 z"></path><path stroke="#969696" fill="#969696" filter="url(#shadowBlur)" d="M25.0 79.0 L163.0 79.0 L163.0 103.0 L25.0 103.0 z"></path><path stroke="#969696" fill="#969696" filter="url(#shadowBlur)" d="M167.0 79.0 L305.0 79.0 L305.0 103.0 L167.0 103.0 z"></path><path stroke="#969696" fill="#969696" filter="url(#shadowBlur)" d="M25.0 168.0 Q25.0 161.0 30.0 161.0 L70.0 161.0 Q75.0 161.0 75.0 168.0 L75.0 196.0 L75.0 196.0 Q75.0 203.0 70.0 203.0 L30.0 203.0 L30.0 203.0 Q25.0 203.0 25.0 196.0 L25.0 168.0 z"></path><path stroke="#969696" fill="#969696" filter="url(#shadowBlur)" d="M95.0 168.0 Q95.0 161.0 100.0 161.0 L140.0 161.0 Q145.0 161.0 145.0 168.0 L145.0 196.0 L145.0 196.0 Q145.0 203.0 140.0 203.0 L100.0 203.0 L100.0 203.0 Q95.0 203.0 95.0 196.0 L95.0 168.0 z"></path><path stroke="#969696" fill="#969696" filter="url(#shadowBlur)" d="M25.0 238.0 Q25.0 231.0 30.0 231.0 L70.0 231.0 Q75.0 231.0 75.0 238.0 L75.0 266.0 L75.0 266.0 Q75.0 273.0 70.0 273.0 L30.0 273.0 L30.0 273.0 Q25.0 273.0 25.0 266.0 L25.0 238.0 z"></path><path stroke="#969696" fill="#969696" filter="url(#shadowBlur)" d="M95.0 238.0 Q95.0 231.0 100.0 231.0 L140.0 231.0 Q145.0 231.0 145.0 238.0 L145.0 266.0 L145.0 266.0 Q145.0 273.0 140.0 273.0 L100.0 273.0 L100.0 273.0 Q95.0 273.0 95.0 266.0 L95.0 238.0 z"></path><path stroke="#000000" stroke-width="1.0" stroke-linecap="round" stroke-linejoin="round" fill="#ee3322" d="M25.0 56.0 Q25.0 49.0 30.0 49.0 L163.0 49.0 L163.0 75.0 L25.0 75.0 z"></path><path stroke="#000000" stroke-width="1.0" stroke-linecap="round" stroke-linejoin="round" fill="#5555bb" d="M167.0 49.0 L300.0 49.0 Q305.0 49.0 305.0 56.0 L305.0 75.0 L305.0 75.0 L167.0 75.0 z"></path><path stroke="#000000" stroke-width="1.0" stroke-linecap="round" stroke-linejoin="round" fill="#000000" d="M25.0 107.0 L163.0 107.0 L163.0 133.0 L30.0 133.0 Q25.0 133.0 25.0 126.0 L25.0 107.0 z"></path><path stroke="#000000" stroke-width="1.0" stroke-linecap="round" stroke-linejoin="round" fill="#ffff33" d="M167.0 107.0 L305.0 107.0 L305.0 126.0 Q305.0 133.0 300.0 133.0 L167.0 133.0 L167.0 133.0 z"></path><path stroke="#000000" stroke-width="1.0" stroke-linecap="round" stroke-linejoin="round" fill="#99dd99" d="M25.0 79.0 L163.0 79.0 L163.0 103.0 L25.0 103.0 z"></path><path stroke="#000000" stroke-width="1.0" stroke-linecap="round" stroke-linejoin="round" fill="#ffaaaa" d="M167.0 79.0 L305.0 79.0 L305.0 103.0 L167.0 103.0 z"></path><path stroke="#000000" stroke-width="1.0" stroke-linecap="round" stroke-linejoin="round" fill="#3333ff" d="M25.0 168.0 Q25.0 161.0 30.0 161.0 L70.0 161.0 Q75.0 161.0 75.0 168.0 L75.0 196.0 L75.0 196.0 Q75.0 203.0 70.0 203.0 L30.0 203.0 L30.0 203.0 Q25.0 203.0 25.0 196.0 L25.0 168.0 z"></path><path stroke="#000000" stroke-width="1.0" stroke-linecap="round" stroke-linejoin="round" fill="#cc0022" d="M95.0 168.0 Q95.0 161.0 100.0 161.0 L140.0 161.0 Q145.0 161.0 145.0 168.0 L145.0 196.0 L145.0 196.0 Q145.0 203.0 140.0 203.0 L100.0 203.0 L100.0 203.0 Q95.0 203.0 95.0 196.0 L95.0 168.0 z"></path><path stroke="#000000" stroke-width="1.0" stroke-linecap="round" stroke-linejoin="round" fill="#11ffff" d="M25.0 238.0 Q25.0 231.0 30.0 231.0 L70.0 231.0 Q75.0 231.0 75.0 238.0 L75.0 266.0 L75.0 266.0 Q75.0 273.0 70.0 273.0 L30.0 273.0 L30.0 273.0 Q25.0 273.0 25.0 266.0 L25.0 238.0 z"></path><path stroke="#000000" stroke-width="1.0" stroke-linecap="round" stroke-linejoin="round" fill="#11aabb" d="M95.0 238.0 Q95.0 231.0 100.0 231.0 L140.0 231.0 Q145.0 231.0 145.0 238.0 L145.0 266.0 L145.0 266.0 Q145.0 273.0 140.0 273.0 L100.0 273.0 L100.0 273.0 Q95.0 273.0 95.0 266.0 L95.0 238.0 z"></path><text x="28" y="40" font-family="sans-serif" font-size="15" stroke="none" fill="#000000"><![CDATA[Color codes]]></text><text x="80" y="68" font-family="sans-serif" font-size="14" stroke="none" fill="#000000"><![CDATA[RED]]></text><text x="220" y="68" font-family="sans-serif" font-size="14" stroke="none" fill="#ffffff"><![CDATA[BLU]]></text><text x="80" y="96" font-family="sans-serif" font-size="13" stroke="none" fill="#000000"><![CDATA[GRE]]></text><text x="221" y="95" font-family="sans-serif" font-size="12" stroke="none" fill="#000000"><![CDATA[PNK]]></text><text x="80" y="124" font-family="sans-serif" font-size="14" stroke="none" fill="#ffffff"><![CDATA[BLK]]></text><text x="221" y="124" font-family="sans-serif" font-size="14" stroke="none" fill="#000000"><![CDATA[YEL]]></text></g></svg>