<?xml version="1.0" encoding="UTF-8"?><svg xmlns:svg="http://www.w3.org/2000/svg" xmlns="http://www.w3.org/2000/svg" xmlns:xlink="http://www.w3.org/1999/xlink" version="1.0" width="681" height="354" viewBox="0 0 681 354" ><text x="60" y="8" font-family="Courier New, monospace" font-size="11" dominant-baseline="middle" text-anchor="middle" >0</text><text x="100" y="8" font-family="Courier New, monospace" font-size="11" dominant-baseline="middle" text-anchor="middle" >1</text><text x="140" y="8" font-family="Courier New, monospace" font-size="11" dominant-baseline="middle" text-anchor="middle" >2</text><text x="180" y="8" font-family="Courier New, monospace" font-size="11" dominant-baseline="middle" text-anchor="middle" >3</text><text x="220" y="8" font-family="Courier New, monospace" font-size="11" dominant-baseline="middle" text-anchor="middle" >4</text><text x="260" y="8" font-family="Courier New, monospace" font-size="11" dominant-baseline="middle" text-anchor="middle" >5</text><text x="300" y="8" font-family="Courier New, monospace" font-size="11" dominant-baseline="middle" text-anchor="middle" >6</text><text x="340" y="8" font-family="Courier New, monospace" font-size="11" dominant-baseline="middle" text-anchor="middle" >7</text><text x="380" y="8" font-family="Courier New, monospace" font-size="11" dominant-baseline="middle" text-anchor="middle" >8</text><text x="420" y="8" font-family="Courier New, monospace" font-size="11" dominant-baseline="middle" text-anchor="middle" >9</text><text x="460" y="8" font-family="Courier New, monospace" font-size="11" dominant-baseline="middle" text-anchor="middle" >a</text><text x="500" y="8" font-family="Courier New, monospace" font-size="11" dominant-baseline="middle" text-anchor="middle" >b</text><text x="540" y="8" font-family="Courier New, monospace" font-size="11" dominant-baseline="middle" text-anchor="middle" >c</text><text x="580" y="8" font-family="Courier New, monospace" font-size="11" dominant-baseline="middle" text-anchor="middle" >d</text><text x="620" y="8" font-family="Courier New, monospace" font-size="11" dominant-baseline="middle" text-anchor="middle" >e</text><text x="660" y="8" font-family="Courier New, monospace" font-size="11" dominant-baseline="middle" text-anchor="middle" >f</text><text font-size="12" font-family="Palatino, Georgia, Times New Roman, serif" font-style="italic" x="140" y="23" text-anchor="middle" dominant-baseline="middle" >start</text><text font-size="12" font-family="Palatino, Georgia, Times New Roman, serif" font-style="italic" x="340" y="23" text-anchor="middle" dominant-baseline="middle" >TxID</text><text font-size="12" font-family="Palatino, Georgia, Times New Roman, serif" font-style="italic" x="500" y="23" text-anchor="middle" dominant-baseline="middle" >type</text><text font-size="12" font-family="Palatino, Georgia, Times New Roman, serif" font-style="italic" x="600" y="23" text-anchor="middle" dominant-baseline="middle" >args</text><text font-size="12" font-family="Palatino, Georgia, Times New Roman, serif" font-style="italic" x="660" y="23" text-anchor="middle" dominant-baseline="middle" >tags</text><rect x="40" y="33" height="30" width="40" fill="#a0ffa0" /><line x1="40" y1="33" x2="80" y2="33" stroke="#000000" stroke-width="1" /><line x1="40" y1="63" x2="80" y2="63" stroke="#000000" stroke-width="1" /><line x1="80" y1="33" x2="80" y2="63" stroke="#000000" stroke-width="1" /><line x1="40" y1="33" x2="40" y2="63" stroke="#000000" stroke-width="1" /><text font-size="18" font-family="Courier New, monospace" x="60" y="49" text-anchor="middle" dominant-baseline="middle" >11</text><rect x="80" y="33" height="30" width="160" fill="#a0ffa0" /><line x1="80" y1="33" x2="240" y2="33" stroke="#000000" stroke-width="1" /><line x1="80" y1="63" x2="240" y2="63" stroke="#000000" stroke-width="1" /><line x1="240" y1="33" x2="240" y2="63" stroke="#000000" stroke-width="1" /><line x1="80" y1="33" x2="80" y2="63" stroke="#000000" stroke-width="1" /><text font-size="18" font-family="Courier New, monospace" x="160" y="49" text-anchor="middle" dominant-baseline="middle" >872349ae</text><rect x="240" y="33" height="30" width="40" fill="#ffffa0" /><line x1="240" y1="33" x2="280" y2="33" stroke="#000000" stroke-width="1" /><line x1="240" y1="63" x2="280" y2="63" stroke="#000000" stroke-width="1" /><line x1="280" y1="33" x2="280" y2="63" stroke="#000000" stroke-width="1" /><line x1="240" y1="33" x2="240" y2="63" stroke="#000000" stroke-width="1" /><text font-size="18" font-family="Courier New, monospace" x="260" y="49" text-anchor="middle" dominant-baseline="middle" >11</text><rect x="280" y="33" height="30" width="160" fill="#ffffa0" /><line x1="280" y1="33" x2="440" y2="33" stroke="#000000" stroke-width="1" /><line x1="280" y1="63" x2="440" y2="63" stroke="#000000" stroke-width="1" /><line x1="440" y1="33" x2="440" y2="63" stroke="#000000" stroke-width="1" /><line x1="280" y1="33" x2="280" y2="63" stroke="#000000" stroke-width="1" /><text font-size="18" font-family="Palatino, Georgia, Times New Roman, serif" font-style="italic" x="360" y="49" text-anchor="middle" dominant-baseline="middle" >TxID</text><rect x="440" y="33" height="30" width="40" fill="#ffb0a0" /><line x1="440" y1="33" x2="480" y2="33" stroke="#000000" stroke-width="1" /><line x1="440" y1="63" x2="480" y2="63" stroke="#000000" stroke-width="1" /><line x1="480" y1="33" x2="480" y2="63" stroke="#000000" stroke-width="1" /><line x1="440" y1="33" x2="440" y2="63" stroke="#000000" stroke-width="1" /><text font-size="18" font-family="Courier New, monospace" x="460" y="49" text-anchor="middle" dominant-baseline="middle" >10</text><rect x="480" y="33" height="30" width="80" fill="#ffb0a0" /><line x1="480" y1="33" x2="560" y2="33" stroke="#000000" stroke-width="1" /><line x1="480" y1="63" x2="560" y2="63" stroke="#000000" stroke-width="1" /><line x1="560" y1="33" x2="560" y2="63" stroke="#000000" stroke-width="1" /><line x1="480" y1="33" x2="480" y2="63" stroke="#000000" stroke-width="1" /><text font-size="18" font-family="Courier New, monospace" font-weight="bold" x="520" y="49" text-anchor="middle" dominant-baseline="middle" >4702</text><rect x="560" y="33" height="30" width="40" fill="#a0fafa" /><line x1="560" y1="33" x2="600" y2="33" stroke="#000000" stroke-width="1" /><line x1="560" y1="63" x2="600" y2="63" stroke="#000000" stroke-width="1" /><line x1="600" y1="33" x2="600" y2="63" stroke="#000000" stroke-width="1" /><line x1="560" y1="33" x2="560" y2="63" stroke="#000000" stroke-width="1" /><text font-size="18" font-family="Courier New, monospace" x="580" y="49" text-anchor="middle" dominant-baseline="middle" >0f</text><rect x="600" y="33" height="30" width="40" fill="#a0fafa" /><line x1="600" y1="33" x2="640" y2="33" stroke="#000000" stroke-width="1" /><line x1="600" y1="63" x2="640" y2="63" stroke="#000000" stroke-width="1" /><line x1="640" y1="33" x2="640" y2="63" stroke="#000000" stroke-width="1" /><line x1="600" y1="33" x2="600" y2="63" stroke="#000000" stroke-width="1" /><text font-size="18" font-family="Courier New, monospace" font-weight="bold" x="620" y="49" text-anchor="middle" dominant-baseline="middle" >09</text><rect x="640" y="33" height="30" width="40" fill="#e4b5f7" /><line x1="640" y1="33" x2="680" y2="33" stroke="#000000" stroke-width="1" /><line x1="640" y1="63" x2="680" y2="63" stroke="#000000" stroke-width="1" /><line x1="680" y1="33" x2="680" y2="63" stroke="#000000" stroke-width="1" /><line x1="640" y1="33" x2="640" y2="63" stroke="#000000" stroke-width="1" /><text font-size="18" font-family="Courier New, monospace" x="660" y="49" text-anchor="middle" dominant-baseline="middle" >14</text><text font-size="11" font-family="Courier New, monospace" font-style="normal" dominant-baseline="middle" x="35" y="48" text-anchor="end" >00</text><text font-size="11" font-family="Courier New, monospace" font-style="normal" dominant-baseline="middle" x="35" y="78" text-anchor="end" >10</text><rect x="40" y="63" height="30" width="160" fill="#e4b5f7" /><line x1="40" y1="63" x2="200" y2="63" stroke="#000000" stroke-width="1" /><line x1="40" y1="93" x2="200" y2="93" stroke="#000000" stroke-width="1" /><line x1="200" y1="63" x2="200" y2="93" stroke="#000000" stroke-width="1" /><line x1="40" y1="63" x2="40" y2="93" stroke="#000000" stroke-width="1" /><text font-size="18" font-family="Courier New, monospace" x="120" y="79" text-anchor="middle" dominant-baseline="middle" >0000000c<tspan font-size="16" font-family="Palatino, Georgia, Times New Roman, serif" font-weight="light" dominant-baseline="middle" > (12)</tspan></text><rect x="200" y="63" height="30" width="40" fill="#e4b5f7" /><line x1="200" y1="63" x2="240" y2="63" stroke="#000000" stroke-width="1" /><line x1="200" y1="93" x2="240" y2="93" stroke="#000000" stroke-width="1" /><line stroke-dasharray="1,3" x1="240" y1="63" x2="240" y2="93" stroke="#000000" stroke-width="1" /><line x1="200" y1="63" x2="200" y2="93" stroke="#000000" stroke-width="1" /><text font-size="18" font-family="Courier New, monospace" font-weight="bold" x="220" y="79" text-anchor="middle" dominant-baseline="middle" >06</text><rect x="240" y="63" height="30" width="40" fill="#e4b5f7" /><line x1="240" y1="63" x2="280" y2="63" stroke="#000000" stroke-width="1" /><line x1="240" y1="93" x2="280" y2="93" stroke="#000000" stroke-width="1" /><line stroke-dasharray="1,3" x1="280" y1="63" x2="280" y2="93" stroke="#000000" stroke-width="1" /><line stroke-dasharray="1,3" x1="240" y1="63" x2="240" y2="93" stroke="#000000" stroke-width="1" /><text font-size="18" font-family="Courier New, monospace" font-weight="bold" x="260" y="79" text-anchor="middle" dominant-baseline="middle" >06</text><rect x="280" y="63" height="30" width="40" fill="#e4b5f7" /><line x1="280" y1="63" x2="320" y2="63" stroke="#000000" stroke-width="1" /><line x1="280" y1="93" x2="320" y2="93" stroke="#000000" stroke-width="1" /><line stroke-dasharray="1,3" x1="320" y1="63" x2="320" y2="93" stroke="#000000" stroke-width="1" /><line stroke-dasharray="1,3" x1="280" y1="63" x2="280" y2="93" stroke="#000000" stroke-width="1" /><text font-size="18" font-family="Courier New, monospace" font-weight="bold" x="300" y="79" text-anchor="middle" dominant-baseline="middle" >06</text><rect x="320" y="63" height="30" width="40" fill="#e4b5f7" /><line x1="320" y1="63" x2="360" y2="63" stroke="#000000" stroke-width="1" /><line x1="320" y1="93" x2="360" y2="93" stroke="#000000" stroke-width="1" /><line stroke-dasharray="1,3" x1="360" y1="63" x2="360" y2="93" stroke="#000000" stroke-width="1" /><line stroke-dasharray="1,3" x1="320" y1="63" x2="320" y2="93" stroke="#000000" stroke-width="1" /><text font-size="18" font-family="Courier New, monospace" font-weight="bold" x="340" y="79" text-anchor="middle" dominant-baseline="middle" >03</text><rect x="360" y="63" height="30" width="40" fill="#e4b5f7" /><line x1="360" y1="63" x2="400" y2="63" stroke="#000000" stroke-width="1" /><line x1="360" y1="93" x2="400" y2="93" stroke="#000000" stroke-width="1" /><line stroke-dasharray="1,3" x1="400" y1="63" x2="400" y2="93" stroke="#000000" stroke-width="1" /><line stroke-dasharray="1,3" x1="360" y1="63" x2="360" y2="93" stroke="#000000" stroke-width="1" /><text font-size="18" font-family="Courier New, monospace" font-weight="bold" x="380" y="79" text-anchor="middle" dominant-baseline="middle" >06</text><rect x="400" y="63" height="30" width="40" fill="#e4b5f7" /><line x1="400" y1="63" x2="440" y2="63" stroke="#000000" stroke-width="1" /><line x1="400" y1="93" x2="440" y2="93" stroke="#000000" stroke-width="1" /><line stroke-dasharray="1,3" x1="440" y1="63" x2="440" y2="93" stroke="#000000" stroke-width="1" /><line stroke-dasharray="1,3" x1="400" y1="63" x2="400" y2="93" stroke="#000000" stroke-width="1" /><text font-size="18" font-family="Courier New, monospace" font-weight="bold" x="420" y="79" text-anchor="middle" dominant-baseline="middle" >06</text><rect x="440" y="63" height="30" width="40" fill="#e4b5f7" /><line x1="440" y1="63" x2="480" y2="63" stroke="#000000" stroke-width="1" /><line x1="440" y1="93" x2="480" y2="93" stroke="#000000" stroke-width="1" /><line stroke-dasharray="1,3" x1="480" y1="63" x2="480" y2="93" stroke="#000000" stroke-width="1" /><line stroke-dasharray="1,3" x1="440" y1="63" x2="440" y2="93" stroke="#000000" stroke-width="1" /><text font-size="18" font-family="Courier New, monospace" font-weight="bold" x="460" y="79" text-anchor="middle" dominant-baseline="middle" >06</text><rect x="480" y="63" height="30" width="40" fill="#e4b5f7" /><line x1="480" y1="63" x2="520" y2="63" stroke="#000000" stroke-width="1" /><line x1="480" y1="93" x2="520" y2="93" stroke="#000000" stroke-width="1" /><line stroke-dasharray="1,3" x1="520" y1="63" x2="520" y2="93" stroke="#000000" stroke-width="1" /><line stroke-dasharray="1,3" x1="480" y1="63" x2="480" y2="93" stroke="#000000" stroke-width="1" /><text font-size="18" font-family="Courier New, monospace" font-weight="bold" x="500" y="79" text-anchor="middle" dominant-baseline="middle" >06</text><rect x="520" y="63" height="30" width="40" fill="#e4b5f7" /><line x1="520" y1="63" x2="560" y2="63" stroke="#000000" stroke-width="1" /><line x1="520" y1="93" x2="560" y2="93" stroke="#000000" stroke-width="1" /><line stroke-dasharray="1,3" x1="560" y1="63" x2="560" y2="93" stroke="#000000" stroke-width="1" /><line stroke-dasharray="1,3" x1="520" y1="63" x2="520" y2="93" stroke="#000000" stroke-width="1" /><text font-size="18" font-family="Courier New, monospace" font-weight="bold" x="540" y="79" text-anchor="middle" dominant-baseline="middle" >03</text><rect x="560" y="63" height="30" width="40" fill="#e4b5f7" /><line x1="560" y1="63" x2="600" y2="63" stroke="#000000" stroke-width="1" /><line x1="560" y1="93" x2="600" y2="93" stroke="#000000" stroke-width="1" /><line stroke-dasharray="1,3" x1="600" y1="63" x2="600" y2="93" stroke="#000000" stroke-width="1" /><line stroke-dasharray="1,3" x1="560" y1="63" x2="560" y2="93" stroke="#000000" stroke-width="1" /><text font-size="18" font-family="Courier New, monospace" x="580" y="79" text-anchor="middle" dominant-baseline="middle" >00</text><rect x="600" y="63" height="30" width="40" fill="#e4b5f7" /><line x1="600" y1="63" x2="640" y2="63" stroke="#000000" stroke-width="1" /><line x1="600" y1="93" x2="640" y2="93" stroke="#000000" stroke-width="1" /><line stroke-dasharray="1,3" x1="640" y1="63" x2="640" y2="93" stroke="#000000" stroke-width="1" /><line stroke-dasharray="1,3" x1="600" y1="63" x2="600" y2="93" stroke="#000000" stroke-width="1" /><text font-size="18" font-family="Courier New, monospace" x="620" y="79" text-anchor="middle" dominant-baseline="middle" >00</text><rect x="640" y="63" height="30" width="40" fill="#e4b5f7" /><line x1="640" y1="63" x2="680" y2="63" stroke="#000000" stroke-width="1" /><line x1="640" y1="93" x2="680" y2="93" stroke="#000000" stroke-width="1" /><line x1="680" y1="63" x2="680" y2="93" stroke="#000000" stroke-width="1" /><line stroke-dasharray="1,3" x1="640" y1="63" x2="640" y2="93" stroke="#000000" stroke-width="1" /><text font-size="18" font-family="Courier New, monospace" x="660" y="79" text-anchor="middle" dominant-baseline="middle" >00</text><text font-size="11" font-family="Courier New, monospace" font-style="normal" dominant-baseline="middle" x="35" y="108" text-anchor="end" >20</text><line x1="40" y1="93" x2="80" y2="93" stroke="#000000" stroke-width="1" /><line x1="40" y1="123" x2="80" y2="123" stroke="#000000" stroke-width="1" /><line x1="80" y1="93" x2="80" y2="123" stroke="#000000" stroke-width="1" /><line x1="40" y1="93" x2="40" y2="123" stroke="#000000" stroke-width="1" /><text font-size="18" font-family="Courier New, monospace" x="60" y="109" text-anchor="middle" dominant-baseline="middle" >11</text><line x1="80" y1="93" x2="240" y2="93" stroke="#000000" stroke-width="1" /><line x1="80" y1="123" x2="240" y2="123" stroke="#000000" stroke-width="1" /><line x1="240" y1="93" x2="240" y2="123" stroke="#000000" stroke-width="1" /><line x1="80" y1="93" x2="80" y2="123" stroke="#000000" stroke-width="1" /><text font-size="18" font-family="Courier New, monospace" x="160" y="109" text-anchor="middle" dominant-baseline="middle" >00002104</text><line x1="240" y1="93" x2="280" y2="93" stroke="#000000" stroke-width="1" /><line x1="240" y1="123" x2="280" y2="123" stroke="#000000" stroke-width="1" /><line x1="280" y1="93" x2="280" y2="123" stroke="#000000" stroke-width="1" /><line x1="240" y1="93" x2="240" y2="123" stroke="#000000" stroke-width="1" /><text font-size="18" font-family="Courier New, monospace" x="260" y="109" text-anchor="middle" dominant-baseline="middle" >11</text><line x1="280" y1="93" x2="440" y2="93" stroke="#000000" stroke-width="1" /><line x1="280" y1="123" x2="440" y2="123" stroke="#000000" stroke-width="1" /><line x1="440" y1="93" x2="440" y2="123" stroke="#000000" stroke-width="1" /><line x1="280" y1="93" x2="280" y2="123" stroke="#000000" stroke-width="1" /><text font-size="18" font-family="Courier New, monospace" x="360" y="109" text-anchor="middle" dominant-baseline="middle" >00000000</text><line x1="440" y1="93" x2="480" y2="93" stroke="#000000" stroke-width="1" /><line x1="440" y1="123" x2="480" y2="123" stroke="#000000" stroke-width="1" /><line x1="480" y1="93" x2="480" y2="123" stroke="#000000" stroke-width="1" /><line x1="440" y1="93" x2="440" y2="123" stroke="#000000" stroke-width="1" /><text font-size="18" font-family="Courier New, monospace" x="460" y="109" text-anchor="middle" dominant-baseline="middle" >11</text><line x1="480" y1="93" x2="640" y2="93" stroke="#000000" stroke-width="1" /><line x1="480" y1="123" x2="640" y2="123" stroke="#000000" stroke-width="1" /><line x1="640" y1="93" x2="640" y2="123" stroke="#000000" stroke-width="1" /><line x1="480" y1="93" x2="480" y2="123" stroke="#000000" stroke-width="1" /><text font-size="18" font-family="Palatino, Georgia, Times New Roman, serif" font-style="italic" x="560" y="109" text-anchor="middle" dominant-baseline="middle" >length<tspan font-size="70%" dy="0.5ex" dominant-baseline="middle" >1</tspan></text><line x1="640" y1="93" x2="680" y2="93" stroke="#000000" stroke-width="1" /><line x1="640" y1="123" x2="680" y2="123" stroke="#000000" stroke-width="1" /><line x1="680" y1="93" x2="680" y2="123" stroke="#000000" stroke-width="1" /><line x1="640" y1="93" x2="640" y2="123" stroke="#000000" stroke-width="1" /><text font-size="18" font-family="Courier New, monospace" x="660" y="109" text-anchor="middle" dominant-baseline="middle" >14</text><text font-size="11" font-family="Courier New, monospace" font-style="normal" dominant-baseline="middle" x="35" y="138" text-anchor="end" >30</text><line x1="40" y1="123" x2="200" y2="123" stroke="#000000" stroke-width="1" /><line x1="40" y1="153" x2="200" y2="153" stroke="#000000" stroke-width="1" /><line x1="200" y1="123" x2="200" y2="153" stroke="#000000" stroke-width="1" /><line x1="40" y1="123" x2="40" y2="153" stroke="#000000" stroke-width="1" /><text font-size="18" font-family="Palatino, Georgia, Times New Roman, serif" font-style="italic" x="120" y="139" text-anchor="middle" dominant-baseline="middle" >length<tspan font-size="70%" dy="0.5ex" dominant-baseline="middle" >1</tspan></text><line x1="200" y1="123" x2="680" y2="123" stroke="#000000" stroke-width="1" /><line x1="680" y1="123" x2="680" y2="153" stroke="#000000" stroke-width="1" /><line x1="200" y1="123" x2="200" y2="153" stroke="#000000" stroke-width="1" /><text font-size="18" font-family="Palatino, Georgia, Times New Roman, serif" x="440" y="139" text-anchor="middle" dominant-baseline="middle" >Cue and loop point bytes</text><text font-size="11" font-family="Courier New, monospace" font-style="normal" dominant-baseline="middle" x="35" y="168" text-anchor="end" >40</text><line x1="40" y1="153" x2="40" y2="168" stroke="#000000" stroke-width="1" /><line x1="680" y1="153" x2="680" y2="168" stroke="#000000" stroke-width="1" /><line stroke-dasharray="1,1" x1="40" y1="168" x2="680" y2="198" stroke="#000000" stroke-width="1" /><line x1="680" y1="153" x2="680" y2="198" stroke="#000000" stroke-width="1" /><line stroke-dasharray="1,1" x1="40" y1="178" x2="680" y2="208" stroke="#000000" stroke-width="1" /><line x1="40" y1="178" x2="40" y2="208" stroke="#000000" stroke-width="1" /><line x1="40" y1="208" x2="40" y2="223" stroke="#000000" stroke-width="1" /><line x1="680" y1="208" x2="680" y2="223" stroke="#000000" stroke-width="1" /><text font-size="11" font-family="Palatino, Georgia, Times New Roman, serif" font-style="italic" dominant-baseline="middle" x="35" y="238" text-anchor="end" >i+<tspan font-size="11" font-family="Courier New, monospace" font-style="normal" dominant-baseline="middle" >00</tspan></text><line x1="40" y1="253" x2="80" y2="253" stroke="#000000" stroke-width="1" /><line x1="80" y1="223" x2="80" y2="253" stroke="#000000" stroke-width="1" /><line x1="40" y1="223" x2="40" y2="253" stroke="#000000" stroke-width="1" /><line x1="80" y1="223" x2="120" y2="223" stroke="#000000" stroke-width="1" /><line x1="80" y1="253" x2="120" y2="253" stroke="#000000" stroke-width="1" /><line x1="120" y1="223" x2="120" y2="253" stroke="#000000" stroke-width="1" /><line x1="80" y1="223" x2="80" y2="253" stroke="#000000" stroke-width="1" /><text font-size="18" font-family="Courier New, monospace" x="100" y="239" text-anchor="middle" dominant-baseline="middle" >11</text><line x1="120" y1="223" x2="280" y2="223" stroke="#000000" stroke-width="1" /><line x1="120" y1="253" x2="280" y2="253" stroke="#000000" stroke-width="1" /><line x1="280" y1="223" x2="280" y2="253" stroke="#000000" stroke-width="1" /><line x1="120" y1="223" x2="120" y2="253" stroke="#000000" stroke-width="1" /><text font-size="18" font-family="Courier New, monospace" x="200" y="239" text-anchor="middle" dominant-baseline="middle" >00000036</text><line x1="280" y1="223" x2="320" y2="223" stroke="#000000" stroke-width="1" /><line x1="280" y1="253" x2="320" y2="253" stroke="#000000" stroke-width="1" /><line x1="320" y1="223" x2="320" y2="253" stroke="#000000" stroke-width="1" /><line x1="280" y1="223" x2="280" y2="253" stroke="#000000" stroke-width="1" /><text font-size="18" font-family="Courier New, monospace" x="300" y="239" text-anchor="middle" dominant-baseline="middle" >11</text><line x1="320" y1="223" x2="480" y2="223" stroke="#000000" stroke-width="1" /><line x1="320" y1="253" x2="480" y2="253" stroke="#000000" stroke-width="1" /><line x1="480" y1="223" x2="480" y2="253" stroke="#000000" stroke-width="1" /><line x1="320" y1="223" x2="320" y2="253" stroke="#000000" stroke-width="1" /><text font-size="18" font-family="Palatino, Georgia, Times New Roman, serif" font-style="italic" x="400" y="239" text-anchor="middle" dominant-baseline="middle" >num<tspan font-size="70%" dy="0.5ex" dominant-baseline="middle" >hot</tspan></text><line x1="480" y1="223" x2="520" y2="223" stroke="#000000" stroke-width="1" /><line x1="480" y1="253" x2="520" y2="253" stroke="#000000" stroke-width="1" /><line x1="520" y1="223" x2="520" y2="253" stroke="#000000" stroke-width="1" /><line x1="480" y1="223" x2="480" y2="253" stroke="#000000" stroke-width="1" /><text font-size="18" font-family="Courier New, monospace" x="500" y="239" text-anchor="middle" dominant-baseline="middle" >11</text><line x1="520" y1="223" x2="680" y2="223" stroke="#000000" stroke-width="1" /><line x1="520" y1="253" x2="680" y2="253" stroke="#000000" stroke-width="1" /><line x1="680" y1="223" x2="680" y2="253" stroke="#000000" stroke-width="1" /><line x1="520" y1="223" x2="520" y2="253" stroke="#000000" stroke-width="1" /><text font-size="18" font-family="Palatino, Georgia, Times New Roman, serif" font-style="italic" x="600" y="239" text-anchor="middle" dominant-baseline="middle" >num<tspan font-size="70%" dy="0.5ex" dominant-baseline="middle" >cue</tspan></text><text font-size="11" font-family="Palatino, Georgia, Times New Roman, serif" font-style="italic" dominant-baseline="middle" x="35" y="238" text-anchor="end" >i+<tspan font-size="11" font-family="Courier New, monospace" font-style="normal" dominant-baseline="middle" >00</tspan></text><text font-size="11" font-family="Palatino, Georgia, Times New Roman, serif" font-style="italic" dominant-baseline="middle" x="35" y="268" text-anchor="end" >i+<tspan font-size="11" font-family="Courier New, monospace" font-style="normal" dominant-baseline="middle" >10</tspan></text><line x1="40" y1="253" x2="80" y2="253" stroke="#000000" stroke-width="1" /><line x1="40" y1="283" x2="80" y2="283" stroke="#000000" stroke-width="1" /><line x1="80" y1="253" x2="80" y2="283" stroke="#000000" stroke-width="1" /><line x1="40" y1="253" x2="40" y2="283" stroke="#000000" stroke-width="1" /><text font-size="18" font-family="Courier New, monospace" x="60" y="269" text-anchor="middle" dominant-baseline="middle" >11</text><line x1="80" y1="253" x2="240" y2="253" stroke="#000000" stroke-width="1" /><line x1="80" y1="283" x2="240" y2="283" stroke="#000000" stroke-width="1" /><line x1="240" y1="253" x2="240" y2="283" stroke="#000000" stroke-width="1" /><line x1="80" y1="253" x2="80" y2="283" stroke="#000000" stroke-width="1" /><text font-size="18" font-family="Palatino, Georgia, Times New Roman, serif" font-style="italic" x="160" y="269" text-anchor="middle" dominant-baseline="middle" >length<tspan font-size="70%" dy="0.5ex" dominant-baseline="middle" >2</tspan></text><line x1="240" y1="253" x2="280" y2="253" stroke="#000000" stroke-width="1" /><line x1="240" y1="283" x2="280" y2="283" stroke="#000000" stroke-width="1" /><line x1="280" y1="253" x2="280" y2="283" stroke="#000000" stroke-width="1" /><line x1="240" y1="253" x2="240" y2="283" stroke="#000000" stroke-width="1" /><text font-size="18" font-family="Courier New, monospace" x="260" y="269" text-anchor="middle" dominant-baseline="middle" >14</text><line x1="280" y1="253" x2="440" y2="253" stroke="#000000" stroke-width="1" /><line x1="280" y1="283" x2="440" y2="283" stroke="#000000" stroke-width="1" /><line x1="440" y1="253" x2="440" y2="283" stroke="#000000" stroke-width="1" /><line x1="280" y1="253" x2="280" y2="283" stroke="#000000" stroke-width="1" /><text font-size="18" font-family="Palatino, Georgia, Times New Roman, serif" font-style="italic" x="360" y="269" text-anchor="middle" dominant-baseline="middle" >length<tspan font-size="70%" dy="0.5ex" dominant-baseline="middle" >2</tspan></text><line x1="440" y1="253" x2="680" y2="253" stroke="#000000" stroke-width="1" /><line x1="680" y1="253" x2="680" y2="283" stroke="#000000" stroke-width="1" /><line x1="440" y1="253" x2="440" y2="283" stroke="#000000" stroke-width="1" /><text font-size="18" font-family="Palatino, Georgia, Times New Roman, serif" x="560" y="269" text-anchor="middle" dominant-baseline="middle" >Unknown bytes</text><text font-size="11" font-family="Palatino, Georgia, Times New Roman, serif" font-style="italic" dominant-baseline="middle" x="35" y="298" text-anchor="end" >i+<tspan font-size="11" font-family="Courier New, monospace" font-style="normal" dominant-baseline="middle" >20</tspan></text><line x1="40" y1="283" x2="40" y2="298" stroke="#000000" stroke-width="1" /><line x1="680" y1="283" x2="680" y2="298" stroke="#000000" stroke-width="1" /><line stroke-dasharray="1,1" x1="40" y1="298" x2="680" y2="328" stroke="#000000" stroke-width="1" /><line x1="680" y1="283" x2="680" y2="328" stroke="#000000" stroke-width="1" /><line stroke-dasharray="1,1" x1="40" y1="308" x2="680" y2="338" stroke="#000000" stroke-width="1" /><line x1="40" y1="308" x2="40" y2="338" stroke="#000000" stroke-width="1" /><line x1="40" y1="338" x2="40" y2="353" stroke="#000000" stroke-width="1" /><line x1="680" y1="338" x2="680" y2="353" stroke="#000000" stroke-width="1" /><text font-size="11" font-family="Palatino, Georgia, Times New Roman, serif" font-style="italic" dominant-baseline="middle" x="35" y="368" text-anchor="end" >i+<tspan font-size="11" font-family="Courier New, monospace" font-style="normal" dominant-baseline="middle" >00</tspan></text><line x1="40" y1="353" x2="680" y2="353" stroke="#000000" stroke-width="1" /></svg>