<?xml version="1.0" encoding="us-ascii" standalone="no"?><svg xmlns="http://www.w3.org/2000/svg" xmlns:xlink="http://www.w3.org/1999/xlink" contentStyleType="text/css" height="571px" preserveAspectRatio="none" style="width:522px;height:571px;background:#FFFFFF;" version="1.1" viewBox="0 0 522 571" width="522px" zoomAndPan="magnify"><defs><filter height="300%" id="f16t8b0qmvyzcn" width="300%" x="-1" y="-1"><feGaussianBlur result="blurOut" stdDeviation="2.0"/><feColorMatrix in="blurOut" result="blurOut2" type="matrix" values="0 0 0 0 0 0 0 0 0 0 0 0 0 0 0 0 0 0 .4 0"/><feOffset dx="4.0" dy="4.0" in="blurOut2" result="blurOut3"/><feBlend in="SourceGraphic" in2="blurOut3" mode="normal"/></filter></defs><g><!--cluster Some Group--><g id="cluster_Some Group"><polygon fill="#FFFFFF" filter="url(#f16t8b0qmvyzcn)" points="16,6,120,6,127,28.2969,474,28.2969,474,103.3,16,103.3,16,6" style="stroke:#333333;stroke-width:1.5;"/><line style="stroke:#333333;stroke-width:1.5;" x1="16" x2="127" y1="28.2969" y2="28.2969"/><text fill="#000000" font-family="sans-serif" font-size="14" font-weight="bold" lengthAdjust="spacing" textLength="98" x="20" y="20.9951">Some Group</text></g><!--cluster Other Groups--><g id="cluster_Other Groups"><polygon fill="#FFFFFF" filter="url(#f16t8b0qmvyzcn)" points="48,137.3,58,127.3,311,127.3,311,219.6,301,229.6,48,229.6,48,137.3" style="stroke:#333333;stroke-width:1.5;"/><line style="stroke:#333333;stroke-width:1.5;" x1="301" x2="311" y1="137.3" y2="127.3"/><line style="stroke:#333333;stroke-width:1.5;" x1="48" x2="301" y1="137.3" y2="137.3"/><line style="stroke:#333333;stroke-width:1.5;" x1="301" x2="301" y1="137.3" y2="229.6"/><text fill="#000000" font-family="sans-serif" font-size="14" font-weight="bold" lengthAdjust="spacing" textLength="108" x="121.5" y="153.2951">Other Groups</text></g><g id="cluster_##12"><path d="M344.5727,161.449 C348.1927,155.4121 352.0335,155.1768 357.1481,159.6628 C359.5226,153.715 364.0592,152.0417 368.8193,157.1429 C373.1842,151.0365 377.0934,151.3085 381.6132,156.9746 C385.2979,149.9327 391.955,149.6318 396.0425,156.5585 C399.2976,150.7983 403.1366,149.7193 407.9725,154.8224 C412.8155,149.0605 418.8541,150.091 421.9379,156.7933 C425.8241,152.6256 429.496,151.4477 432.7209,157.4916 C436.8735,150.3297 442.8389,151.7385 446.6318,157.8681 C451.4616,151.4306 456.0048,152.1195 459.2513,159.3319 C463.8929,153.9356 468.5755,154.3169 471.6021,160.9852 C480.3371,164.8019 480.5633,170.1718 473.9975,176.3707 C481.3292,180.4854 480.4239,187.4452 473.9048,191.475 C480.4684,197.1923 480.5601,202.309 473.2287,207.4378 C480.9625,212.7232 478.3904,219.7133 471.1498,222.9982 C468.123,229.7628 462.5973,229.7863 458.9208,223.6123 C454.85,228.8974 449.2221,228.1286 446.3528,222.2586 C443.3186,228.491 438.4162,229.0093 434.3127,223.3404 C429.4189,230.8408 424.4757,230.0362 420.0145,222.9173 C417.9407,229.2941 412.7521,230.6743 408.3514,225.2091 C403.5858,230.7083 398.5263,230.8816 395.422,223.5367 C391.0632,230.3863 386.6756,229.8837 382.3179,223.5355 C378.9325,229.8371 373.6032,229.0152 369.8749,223.9096 C364.4188,230.98 359.424,228.235 355.8191,221.9599 C352.3349,228.2179 348.3215,227.716 344.2916,222.5085 C335.6006,218.9107 333.6945,212.7811 341.2772,206.1792 C333.5922,202.1876 332.7464,196.4608 339.3302,190.6771 C332.8682,185.4159 334.3897,179.7242 341.4669,176.5042 C334.0439,170.896 335.9977,163.7569 344.5727,161.449 " fill="#FFFFFF" filter="url(#f16t8b0qmvyzcn)" style="stroke:#333333;stroke-width:1.0;"/></g><!--cluster MySql--><g id="cluster_MySql"><path d="M310,263.6 C310,253.6 407.5,253.6 407.5,253.6 C407.5,253.6 505,253.6 505,263.6 L505,544.19 C505,554.19 407.5,554.19 407.5,554.19 C407.5,554.19 310,554.19 310,544.19 L310,263.6 " fill="#FFFFFF" filter="url(#f16t8b0qmvyzcn)" style="stroke:#333333;stroke-width:1.0;"/><path d="M310,263.6 C310,273.6 407.5,273.6 407.5,273.6 C407.5,273.6 505,273.6 505,263.6 " fill="none" style="stroke:#333333;stroke-width:1.0;"/><text fill="#000000" font-family="sans-serif" font-size="14" font-weight="bold" lengthAdjust="spacing" textLength="46" x="384.5" y="288.5951">MySql</text></g><!--cluster This is my folder--><g id="cluster_This is my folder"><polygon fill="#FFFFFF" filter="url(#f16t8b0qmvyzcn)" points="334,311.6,471,311.6,478,333.8969,481,333.8969,481,408.89,334,408.89,334,311.6" style="stroke:#333333;stroke-width:1.5;"/><line style="stroke:#333333;stroke-width:1.5;" x1="334" x2="478" y1="333.8969" y2="333.8969"/><text fill="#000000" font-family="sans-serif" font-size="14" font-weight="bold" lengthAdjust="spacing" textLength="131" x="338" y="326.5951">This is my folder</text></g><!--cluster Foo--><g id="cluster_Foo"><rect fill="#FFFFFF" filter="url(#f16t8b0qmvyzcn)" height="97.3" style="stroke:#333333;stroke-width:1.0;" width="128" x="343" y="432.89"/><path d="M382,432.89 L382,442.1869 L372,452.1869 L343,452.1869 " fill="none" style="stroke:#333333;stroke-width:1.0;"/><text fill="#000000" font-family="sans-serif" font-size="14" font-weight="bold" lengthAdjust="spacing" textLength="29" x="346" y="446.8851">Foo</text></g><!--entity HTTP--><g id="elem_HTTP"><ellipse cx="232" cy="64.15" fill="#FEFECE" filter="url(#f16t8b0qmvyzcn)" rx="8" ry="8" style="stroke:#A80036;stroke-width:1.0;"/><text fill="#000000" font-family="sans-serif" font-size="14" lengthAdjust="spacing" textLength="37" x="213.5" y="94.1451">HTTP</text></g><!--entity First Component--><g id="elem_First Component"><rect fill="#FEFECE" filter="url(#f16t8b0qmvyzcn)" height="46.2969" style="stroke:#A80036;stroke-width:1.0;" width="155" x="32.5" y="41"/><rect fill="#FEFECE" height="10" style="stroke:#A80036;stroke-width:1.0;" width="15" x="167.5" y="46"/><rect fill="#FEFECE" height="2" style="stroke:#A80036;stroke-width:1.0;" width="4" x="165.5" y="48"/><rect fill="#FEFECE" height="2" style="stroke:#A80036;stroke-width:1.0;" width="4" x="165.5" y="52"/><text fill="#000000" font-family="sans-serif" font-size="14" lengthAdjust="spacing" textLength="115" x="47.5" y="73.9951">First Component</text></g><!--entity Another Component--><g id="elem_Another Component"><rect fill="#FEFECE" filter="url(#f16t8b0qmvyzcn)" height="46.2969" style="stroke:#A80036;stroke-width:1.0;" width="181" x="276.5" y="41"/><rect fill="#FEFECE" height="10" style="stroke:#A80036;stroke-width:1.0;" width="15" x="437.5" y="46"/><rect fill="#FEFECE" height="2" style="stroke:#A80036;stroke-width:1.0;" width="4" x="435.5" y="48"/><rect fill="#FEFECE" height="2" style="stroke:#A80036;stroke-width:1.0;" width="4" x="435.5" y="52"/><text fill="#000000" font-family="sans-serif" font-size="14" lengthAdjust="spacing" textLength="141" x="291.5" y="73.9951">Another Component</text></g><!--entity FTP--><g id="elem_FTP"><ellipse cx="73" cy="190.45" fill="#FEFECE" filter="url(#f16t8b0qmvyzcn)" rx="8" ry="8" style="stroke:#A80036;stroke-width:1.0;"/><text fill="#000000" font-family="sans-serif" font-size="14" lengthAdjust="spacing" textLength="26" x="60" y="220.4451">FTP</text></g><!--entity Second Component--><g id="elem_Second Component"><rect fill="#FEFECE" filter="url(#f16t8b0qmvyzcn)" height="46.2969" style="stroke:#A80036;stroke-width:1.0;" width="179" x="116.5" y="167.3"/><rect fill="#FEFECE" height="10" style="stroke:#A80036;stroke-width:1.0;" width="15" x="275.5" y="172.3"/><rect fill="#FEFECE" height="2" style="stroke:#A80036;stroke-width:1.0;" width="4" x="273.5" y="174.3"/><rect fill="#FEFECE" height="2" style="stroke:#A80036;stroke-width:1.0;" width="4" x="273.5" y="178.3"/><text fill="#000000" font-family="sans-serif" font-size="14" lengthAdjust="spacing" textLength="139" x="131.5" y="200.2951">Second Component</text></g><!--entity Example 1--><g id="elem_Example 1"><rect fill="#FEFECE" filter="url(#f16t8b0qmvyzcn)" height="46.2969" style="stroke:#A80036;stroke-width:1.0;" width="111" x="351.5" y="167.3"/><rect fill="#FEFECE" height="10" style="stroke:#A80036;stroke-width:1.0;" width="15" x="442.5" y="172.3"/><rect fill="#FEFECE" height="2" style="stroke:#A80036;stroke-width:1.0;" width="4" x="440.5" y="174.3"/><rect fill="#FEFECE" height="2" style="stroke:#A80036;stroke-width:1.0;" width="4" x="440.5" y="178.3"/><text fill="#000000" font-family="sans-serif" font-size="14" lengthAdjust="spacing" textLength="71" x="366.5" y="200.2951">Example 1</text></g><!--entity Folder 3--><g id="elem_Folder 3"><rect fill="#FEFECE" filter="url(#f16t8b0qmvyzcn)" height="46.2969" style="stroke:#A80036;stroke-width:1.0;" width="96" x="359" y="346.6"/><rect fill="#FEFECE" height="10" style="stroke:#A80036;stroke-width:1.0;" width="15" x="435" y="351.6"/><rect fill="#FEFECE" height="2" style="stroke:#A80036;stroke-width:1.0;" width="4" x="433" y="353.6"/><rect fill="#FEFECE" height="2" style="stroke:#A80036;stroke-width:1.0;" width="4" x="433" y="357.6"/><text fill="#000000" font-family="sans-serif" font-size="14" lengthAdjust="spacing" textLength="56" x="374" y="379.5951">Folder 3</text></g><!--entity Frame 4--><g id="elem_Frame 4"><rect fill="#FEFECE" filter="url(#f16t8b0qmvyzcn)" height="46.2969" style="stroke:#A80036;stroke-width:1.0;" width="96" x="359" y="467.89"/><rect fill="#FEFECE" height="10" style="stroke:#A80036;stroke-width:1.0;" width="15" x="435" y="472.89"/><rect fill="#FEFECE" height="2" style="stroke:#A80036;stroke-width:1.0;" width="4" x="433" y="474.89"/><rect fill="#FEFECE" height="2" style="stroke:#A80036;stroke-width:1.0;" width="4" x="433" y="478.89"/><text fill="#000000" font-family="sans-serif" font-size="14" lengthAdjust="spacing" textLength="56" x="374" y="500.8851">Frame 4</text></g><!--link HTTP to First Component--><g id="link_HTTP_First Component"><path d="M222.65,64.15 C210.99,64.15 199.34,64.15 187.68,64.15 " fill="none" id="HTTP-First Component" style="stroke:#A80036;stroke-width:1.0;"/></g><!--link FTP to Second Component--><g id="link_FTP_Second Component"><path d="M82.35,190.45 C93.62,190.45 104.89,190.45 116.16,190.45 " fill="none" id="FTP-Second Component" style="stroke:#A80036;stroke-width:1.0;"/></g><!--link First Component to FTP--><g id="link_First Component_FTP"><path d="M103.3,87.66 C95.72,113.13 83.6,153.84 77.23,175.24 " fill="none" id="First Component-to-FTP" style="stroke:#A80036;stroke-width:1.0;"/><polygon fill="#A80036" points="75.52,179.98,81.9272,172.5002,76.9502,175.1889,74.2614,170.2119,75.52,179.98" style="stroke:#A80036;stroke-width:1.0;"/></g><!--link Another Component to Example 1--><g id="link_Another Component_Example 1"><path d="M374.24,87.66 C380.93,108.43 390.87,139.33 398.05,161.63 " fill="none" id="Another Component-to-Example 1" style="stroke:#A80036;stroke-width:1.0;"/><polygon fill="#A80036" points="399.81,166.11,400.865,156.3178,398.2804,161.3497,393.2485,158.7651,399.81,166.11" style="stroke:#A80036;stroke-width:1.0;"/></g><!--link Example 1 to Folder 3--><g id="link_Example 1_Folder 3"><path d="M407,213.9 C407,246.05 407,305.19 407,340.34 " fill="none" id="Example 1-to-Folder 3" style="stroke:#A80036;stroke-width:1.0;"/><polygon fill="#A80036" points="407,345.19,411,336.19,407,340.19,403,336.19,407,345.19" style="stroke:#A80036;stroke-width:1.0;"/></g><!--link Folder 3 to Frame 4--><g id="link_Folder 3_Frame 4"><path d="M407,393.18 C407,412.6 407,440.76 407,461.72 " fill="none" id="Folder 3-to-Frame 4" style="stroke:#A80036;stroke-width:1.0;"/><polygon fill="#A80036" points="407,466.7,411,457.7,407,461.7,403,457.7,407,466.7" style="stroke:#A80036;stroke-width:1.0;"/></g><!--SRC=[RP11Yy8m48Nl-HL3FVUmk6T1PRjU5eNsLZnacwZ591EJ2XRfVzz9qgL5384CyzvyBuc_jWOSUiayLPOxhi7ovihFSaF7sU7TY2qgTB0unVN6Y4v8DvgMSJ4sQf2Lg2Ly4yTcy6G0kwewG0vrqJhVmHQrHIDDToIfNXliBjBDkmDZ1WLnzb6989z8HGALia4ZNaYlTCZpLHW8l4RXNKH2_VNWsYe97p682TxnN-ufxQSlRoh5d53Hyo2hBgq7sheVMqaEOScn3Cb3cA3F8KQ1E5bYwpCvGjIRjyOxpgyqgvCs1KtbgFpp_m00]--></g></svg>