<svg xmlns="http://www.w3.org/2000/svg" xmlns:xlink="http://www.w3.org/1999/xlink" version="1.1" class="marks" width="631" height="111.25" viewBox="0 0 631 111.25"><g fill="none" stroke-miterlimit="10" transform="translate(9,6)"><g class="mark-group role-frame root" role="graphics-object" aria-roledescription="group mark container"><g transform="translate(0,0)"><path class="background" aria-hidden="true" d="M0,0h300v68.25h-300Z"/><g><g class="mark-group role-scope" role="graphics-object" aria-roledescription="group mark container"><g transform="translate(0,0)"><path class="background" aria-hidden="true" d="M0,0h300v68.25h-300Z"/><g><g class="mark-group role-axis" role="graphics-symbol" aria-roledescription="axis" aria-label="X-axis titled 'Density Dot Plot' for a linear scale with values from 0 to 20"><g transform="translate(0.5,68.75)"><path class="background" aria-hidden="true" d="M0,0h0v0h0Z" pointer-events="none"/><g><g class="mark-rule role-axis-tick" pointer-events="none"><line transform="translate(0,0)" x2="0" y2="5" stroke="#888" stroke-width="1" opacity="1"/><line transform="translate(75,0)" x2="0" y2="5" stroke="#888" stroke-width="1" opacity="1"/><line transform="translate(150,0)" x2="0" y2="5" stroke="#888" stroke-width="1" opacity="1"/><line transform="translate(225,0)" x2="0" y2="5" stroke="#888" stroke-width="1" opacity="1"/><line transform="translate(300,0)" x2="0" y2="5" stroke="#888" stroke-width="1" opacity="1"/></g><g class="mark-text role-axis-label" pointer-events="none"><text text-anchor="middle" transform="translate(0,15)" font-family="sans-serif" font-size="10px" fill="#000" opacity="1">0</text><text text-anchor="middle" transform="translate(75,15)" font-family="sans-serif" font-size="10px" fill="#000" opacity="1">5</text><text text-anchor="middle" transform="translate(150,15)" font-family="sans-serif" font-size="10px" fill="#000" opacity="1">10</text><text text-anchor="middle" transform="translate(225,15)" font-family="sans-serif" font-size="10px" fill="#000" opacity="1">15</text><text text-anchor="middle" transform="translate(300,15)" font-family="sans-serif" font-size="10px" fill="#000" opacity="1">20</text></g><g class="mark-rule role-axis-domain" pointer-events="none"><line transform="translate(0,0)" x2="300" y2="0" stroke="#888" stroke-width="1" opacity="1"/></g><g class="mark-text role-axis-title" pointer-events="none"><text text-anchor="middle" transform="translate(150,30)" font-family="sans-serif" font-size="11px" font-weight="bold" fill="#000" opacity="1">Density Dot Plot</text></g></g><path class="foreground" aria-hidden="true" d="" pointer-events="none" display="none"/></g></g><g class="mark-symbol role-mark" role="graphics-symbol" aria-roledescription="symbol mark container"><path transform="translate(90,63.375)" d="M4.875,0A4.875,4.875,0,1,1,-4.875,0A4.875,4.875,0,1,1,4.875,0" fill="steelblue"/><path transform="translate(31.500000000000004,63.375)" d="M4.875,0A4.875,4.875,0,1,1,-4.875,0A4.875,4.875,0,1,1,4.875,0" fill="steelblue"/><path transform="translate(140.99999999999997,63.375)" d="M4.875,0A4.875,4.875,0,1,1,-4.875,0A4.875,4.875,0,1,1,4.875,0" fill="steelblue"/><path transform="translate(232.5,63.375)" d="M4.875,0A4.875,4.875,0,1,1,-4.875,0A4.875,4.875,0,1,1,4.875,0" fill="steelblue"/><path transform="translate(74.25,63.375)" d="M4.875,0A4.875,4.875,0,1,1,-4.875,0A4.875,4.875,0,1,1,4.875,0" fill="steelblue"/><path transform="translate(154.5,63.375)" d="M4.875,0A4.875,4.875,0,1,1,-4.875,0A4.875,4.875,0,1,1,4.875,0" fill="steelblue"/><path transform="translate(125.25,63.375)" d="M4.875,0A4.875,4.875,0,1,1,-4.875,0A4.875,4.875,0,1,1,4.875,0" fill="steelblue"/><path transform="translate(163.5,63.375)" d="M4.875,0A4.875,4.875,0,1,1,-4.875,0A4.875,4.875,0,1,1,4.875,0" fill="steelblue"/><path transform="translate(48.75,63.375)" d="M4.875,0A4.875,4.875,0,1,1,-4.875,0A4.875,4.875,0,1,1,4.875,0" fill="steelblue"/><path transform="translate(113.25000000000001,63.375)" d="M4.875,0A4.875,4.875,0,1,1,-4.875,0A4.875,4.875,0,1,1,4.875,0" fill="steelblue"/><path transform="translate(98.25,63.375)" d="M4.875,0A4.875,4.875,0,1,1,-4.875,0A4.875,4.875,0,1,1,4.875,0" fill="steelblue"/><path transform="translate(125.25,53.625)" d="M4.875,0A4.875,4.875,0,1,1,-4.875,0A4.875,4.875,0,1,1,4.875,0" fill="steelblue"/><path transform="translate(98.25,53.625)" d="M4.875,0A4.875,4.875,0,1,1,-4.875,0A4.875,4.875,0,1,1,4.875,0" fill="steelblue"/><path transform="translate(140.99999999999997,53.625)" d="M4.875,0A4.875,4.875,0,1,1,-4.875,0A4.875,4.875,0,1,1,4.875,0" fill="steelblue"/><path transform="translate(74.25,53.625)" d="M4.875,0A4.875,4.875,0,1,1,-4.875,0A4.875,4.875,0,1,1,4.875,0" fill="steelblue"/><path transform="translate(179.24999999999997,63.375)" d="M4.875,0A4.875,4.875,0,1,1,-4.875,0A4.875,4.875,0,1,1,4.875,0" fill="steelblue"/><path transform="translate(48.75,53.625)" d="M4.875,0A4.875,4.875,0,1,1,-4.875,0A4.875,4.875,0,1,1,4.875,0" fill="steelblue"/><path transform="translate(163.5,53.625)" d="M4.875,0A4.875,4.875,0,1,1,-4.875,0A4.875,4.875,0,1,1,4.875,0" fill="steelblue"/><path transform="translate(74.25,43.87499999999999)" d="M4.875,0A4.875,4.875,0,1,1,-4.875,0A4.875,4.875,0,1,1,4.875,0" fill="steelblue"/><path transform="translate(154.5,53.625)" d="M4.875,0A4.875,4.875,0,1,1,-4.875,0A4.875,4.875,0,1,1,4.875,0" fill="steelblue"/><path transform="translate(113.25000000000001,53.625)" d="M4.875,0A4.875,4.875,0,1,1,-4.875,0A4.875,4.875,0,1,1,4.875,0" fill="steelblue"/><path transform="translate(31.500000000000004,53.625)" d="M4.875,0A4.875,4.875,0,1,1,-4.875,0A4.875,4.875,0,1,1,4.875,0" fill="steelblue"/><path transform="translate(113.25000000000001,43.87499999999999)" d="M4.875,0A4.875,4.875,0,1,1,-4.875,0A4.875,4.875,0,1,1,4.875,0" fill="steelblue"/><path transform="translate(268.5,63.375)" d="M4.875,0A4.875,4.875,0,1,1,-4.875,0A4.875,4.875,0,1,1,4.875,0" fill="steelblue"/><path transform="translate(90,53.625)" d="M4.875,0A4.875,4.875,0,1,1,-4.875,0A4.875,4.875,0,1,1,4.875,0" fill="steelblue"/><path transform="translate(125.25,43.87499999999999)" d="M4.875,0A4.875,4.875,0,1,1,-4.875,0A4.875,4.875,0,1,1,4.875,0" fill="steelblue"/><path transform="translate(125.25,34.125)" d="M4.875,0A4.875,4.875,0,1,1,-4.875,0A4.875,4.875,0,1,1,4.875,0" fill="steelblue"/><path transform="translate(179.24999999999997,53.625)" d="M4.875,0A4.875,4.875,0,1,1,-4.875,0A4.875,4.875,0,1,1,4.875,0" fill="steelblue"/><path transform="translate(163.5,43.87499999999999)" d="M4.875,0A4.875,4.875,0,1,1,-4.875,0A4.875,4.875,0,1,1,4.875,0" fill="steelblue"/><path transform="translate(210.75,63.375)" d="M4.875,0A4.875,4.875,0,1,1,-4.875,0A4.875,4.875,0,1,1,4.875,0" fill="steelblue"/><path transform="translate(210.75,53.625)" d="M4.875,0A4.875,4.875,0,1,1,-4.875,0A4.875,4.875,0,1,1,4.875,0" fill="steelblue"/><path transform="translate(232.5,53.625)" d="M4.875,0A4.875,4.875,0,1,1,-4.875,0A4.875,4.875,0,1,1,4.875,0" fill="steelblue"/><path transform="translate(154.5,43.87499999999999)" d="M4.875,0A4.875,4.875,0,1,1,-4.875,0A4.875,4.875,0,1,1,4.875,0" fill="steelblue"/><path transform="translate(179.24999999999997,43.87499999999999)" d="M4.875,0A4.875,4.875,0,1,1,-4.875,0A4.875,4.875,0,1,1,4.875,0" fill="steelblue"/><path transform="translate(98.25,43.87499999999999)" d="M4.875,0A4.875,4.875,0,1,1,-4.875,0A4.875,4.875,0,1,1,4.875,0" fill="steelblue"/><path transform="translate(113.25000000000001,34.125)" d="M4.875,0A4.875,4.875,0,1,1,-4.875,0A4.875,4.875,0,1,1,4.875,0" fill="steelblue"/><path transform="translate(154.5,34.125)" d="M4.875,0A4.875,4.875,0,1,1,-4.875,0A4.875,4.875,0,1,1,4.875,0" fill="steelblue"/><path transform="translate(113.25000000000001,24.375)" d="M4.875,0A4.875,4.875,0,1,1,-4.875,0A4.875,4.875,0,1,1,4.875,0" fill="steelblue"/><path transform="translate(125.25,24.375)" d="M4.875,0A4.875,4.875,0,1,1,-4.875,0A4.875,4.875,0,1,1,4.875,0" fill="steelblue"/><path transform="translate(90,43.87499999999999)" d="M4.875,0A4.875,4.875,0,1,1,-4.875,0A4.875,4.875,0,1,1,4.875,0" fill="steelblue"/><path transform="translate(74.25,34.125)" d="M4.875,0A4.875,4.875,0,1,1,-4.875,0A4.875,4.875,0,1,1,4.875,0" fill="steelblue"/><path transform="translate(48.75,43.87499999999999)" d="M4.875,0A4.875,4.875,0,1,1,-4.875,0A4.875,4.875,0,1,1,4.875,0" fill="steelblue"/><path transform="translate(125.25,14.625000000000004)" d="M4.875,0A4.875,4.875,0,1,1,-4.875,0A4.875,4.875,0,1,1,4.875,0" fill="steelblue"/><path transform="translate(163.5,34.125)" d="M4.875,0A4.875,4.875,0,1,1,-4.875,0A4.875,4.875,0,1,1,4.875,0" fill="steelblue"/><path transform="translate(74.25,24.375)" d="M4.875,0A4.875,4.875,0,1,1,-4.875,0A4.875,4.875,0,1,1,4.875,0" fill="steelblue"/><path transform="translate(195,63.375)" d="M4.875,0A4.875,4.875,0,1,1,-4.875,0A4.875,4.875,0,1,1,4.875,0" fill="steelblue"/><path transform="translate(140.99999999999997,43.87499999999999)" d="M4.875,0A4.875,4.875,0,1,1,-4.875,0A4.875,4.875,0,1,1,4.875,0" fill="steelblue"/><path transform="translate(195,53.625)" d="M4.875,0A4.875,4.875,0,1,1,-4.875,0A4.875,4.875,0,1,1,4.875,0" fill="steelblue"/></g></g><path class="foreground" aria-hidden="true" d="" display="none"/></g></g><g class="mark-group role-scope" role="graphics-object" aria-roledescription="group mark container"><g transform="translate(310,0)"><path class="background" aria-hidden="true" d="M0,0h300v68.25h-300Z"/><g><g class="mark-group role-axis" role="graphics-symbol" aria-roledescription="axis" aria-label="X-axis titled 'Histogram Dot Plot' for a linear scale with values from 0 to 20"><g transform="translate(0.5,68.75)"><path class="background" aria-hidden="true" d="M0,0h0v0h0Z" pointer-events="none"/><g><g class="mark-rule role-axis-tick" pointer-events="none"><line transform="translate(0,0)" x2="0" y2="5" stroke="#888" stroke-width="1" opacity="1"/><line transform="translate(75,0)" x2="0" y2="5" stroke="#888" stroke-width="1" opacity="1"/><line transform="translate(150,0)" x2="0" y2="5" stroke="#888" stroke-width="1" opacity="1"/><line transform="translate(225,0)" x2="0" y2="5" stroke="#888" stroke-width="1" opacity="1"/><line transform="translate(300,0)" x2="0" y2="5" stroke="#888" stroke-width="1" opacity="1"/></g><g class="mark-text role-axis-label" pointer-events="none"><text text-anchor="middle" transform="translate(0,15)" font-family="sans-serif" font-size="10px" fill="#000" opacity="1">0</text><text text-anchor="middle" transform="translate(75,15)" font-family="sans-serif" font-size="10px" fill="#000" opacity="1">5</text><text text-anchor="middle" transform="translate(150,15)" font-family="sans-serif" font-size="10px" fill="#000" opacity="1">10</text><text text-anchor="middle" transform="translate(225,15)" font-family="sans-serif" font-size="10px" fill="#000" opacity="1">15</text><text text-anchor="middle" transform="translate(300,15)" font-family="sans-serif" font-size="10px" fill="#000" opacity="1">20</text></g><g class="mark-rule role-axis-domain" pointer-events="none"><line transform="translate(0,0)" x2="300" y2="0" stroke="#888" stroke-width="1" opacity="1"/></g><g class="mark-text role-axis-title" pointer-events="none"><text text-anchor="middle" transform="translate(150,30)" font-family="sans-serif" font-size="11px" font-weight="bold" fill="#000" opacity="1">Histogram Dot Plot</text></g></g><path class="foreground" aria-hidden="true" d="" pointer-events="none" display="none"/></g></g><g class="mark-symbol role-mark" role="graphics-symbol" aria-roledescription="symbol mark container"><path transform="translate(92.62500000000001,63.375)" d="M4.875,0A4.875,4.875,0,1,1,-4.875,0A4.875,4.875,0,1,1,4.875,0" fill="steelblue"/><path transform="translate(34.12500000000001,63.375)" d="M4.875,0A4.875,4.875,0,1,1,-4.875,0A4.875,4.875,0,1,1,4.875,0" fill="steelblue"/><path transform="translate(141.37500000000003,63.375)" d="M4.875,0A4.875,4.875,0,1,1,-4.875,0A4.875,4.875,0,1,1,4.875,0" fill="steelblue"/><path transform="translate(238.87500000000003,63.375)" d="M4.875,0A4.875,4.875,0,1,1,-4.875,0A4.875,4.875,0,1,1,4.875,0" fill="steelblue"/><path transform="translate(82.875,63.375)" d="M4.875,0A4.875,4.875,0,1,1,-4.875,0A4.875,4.875,0,1,1,4.875,0" fill="steelblue"/><path transform="translate(160.87500000000003,63.375)" d="M4.875,0A4.875,4.875,0,1,1,-4.875,0A4.875,4.875,0,1,1,4.875,0" fill="steelblue"/><path transform="translate(121.875,63.375)" d="M4.875,0A4.875,4.875,0,1,1,-4.875,0A4.875,4.875,0,1,1,4.875,0" fill="steelblue"/><path transform="translate(160.87500000000003,53.625)" d="M4.875,0A4.875,4.875,0,1,1,-4.875,0A4.875,4.875,0,1,1,4.875,0" fill="steelblue"/><path transform="translate(43.875,63.375)" d="M4.875,0A4.875,4.875,0,1,1,-4.875,0A4.875,4.875,0,1,1,4.875,0" fill="steelblue"/><path transform="translate(112.12500000000001,63.375)" d="M4.875,0A4.875,4.875,0,1,1,-4.875,0A4.875,4.875,0,1,1,4.875,0" fill="steelblue"/><path transform="translate(92.62500000000001,53.625)" d="M4.875,0A4.875,4.875,0,1,1,-4.875,0A4.875,4.875,0,1,1,4.875,0" fill="steelblue"/><path transform="translate(131.62499999999997,63.375)" d="M4.875,0A4.875,4.875,0,1,1,-4.875,0A4.875,4.875,0,1,1,4.875,0" fill="steelblue"/><path transform="translate(102.37499999999999,63.375)" d="M4.875,0A4.875,4.875,0,1,1,-4.875,0A4.875,4.875,0,1,1,4.875,0" fill="steelblue"/><path transform="translate(141.37500000000003,53.625)" d="M4.875,0A4.875,4.875,0,1,1,-4.875,0A4.875,4.875,0,1,1,4.875,0" fill="steelblue"/><path transform="translate(73.12500000000001,63.375)" d="M4.875,0A4.875,4.875,0,1,1,-4.875,0A4.875,4.875,0,1,1,4.875,0" fill="steelblue"/><path transform="translate(180.37500000000003,63.375)" d="M4.875,0A4.875,4.875,0,1,1,-4.875,0A4.875,4.875,0,1,1,4.875,0" fill="steelblue"/><path transform="translate(53.62500000000001,63.375)" d="M4.875,0A4.875,4.875,0,1,1,-4.875,0A4.875,4.875,0,1,1,4.875,0" fill="steelblue"/><path transform="translate(160.87500000000003,43.87499999999999)" d="M4.875,0A4.875,4.875,0,1,1,-4.875,0A4.875,4.875,0,1,1,4.875,0" fill="steelblue"/><path transform="translate(73.12500000000001,53.625)" d="M4.875,0A4.875,4.875,0,1,1,-4.875,0A4.875,4.875,0,1,1,4.875,0" fill="steelblue"/><path transform="translate(160.87500000000003,34.125)" d="M4.875,0A4.875,4.875,0,1,1,-4.875,0A4.875,4.875,0,1,1,4.875,0" fill="steelblue"/><path transform="translate(112.12500000000001,53.625)" d="M4.875,0A4.875,4.875,0,1,1,-4.875,0A4.875,4.875,0,1,1,4.875,0" fill="steelblue"/><path transform="translate(34.12500000000001,53.625)" d="M4.875,0A4.875,4.875,0,1,1,-4.875,0A4.875,4.875,0,1,1,4.875,0" fill="steelblue"/><path transform="translate(112.12500000000001,43.87499999999999)" d="M4.875,0A4.875,4.875,0,1,1,-4.875,0A4.875,4.875,0,1,1,4.875,0" fill="steelblue"/><path transform="translate(268.125,63.375)" d="M4.875,0A4.875,4.875,0,1,1,-4.875,0A4.875,4.875,0,1,1,4.875,0" fill="steelblue"/><path transform="translate(92.62500000000001,43.87499999999999)" d="M4.875,0A4.875,4.875,0,1,1,-4.875,0A4.875,4.875,0,1,1,4.875,0" fill="steelblue"/><path transform="translate(121.875,53.625)" d="M4.875,0A4.875,4.875,0,1,1,-4.875,0A4.875,4.875,0,1,1,4.875,0" fill="steelblue"/><path transform="translate(121.875,43.87499999999999)" d="M4.875,0A4.875,4.875,0,1,1,-4.875,0A4.875,4.875,0,1,1,4.875,0" fill="steelblue"/><path transform="translate(180.37500000000003,53.625)" d="M4.875,0A4.875,4.875,0,1,1,-4.875,0A4.875,4.875,0,1,1,4.875,0" fill="steelblue"/><path transform="translate(160.87500000000003,24.374999999999996)" d="M4.875,0A4.875,4.875,0,1,1,-4.875,0A4.875,4.875,0,1,1,4.875,0" fill="steelblue"/><path transform="translate(209.62500000000006,63.375)" d="M4.875,0A4.875,4.875,0,1,1,-4.875,0A4.875,4.875,0,1,1,4.875,0" fill="steelblue"/><path transform="translate(219.375,63.375)" d="M4.875,0A4.875,4.875,0,1,1,-4.875,0A4.875,4.875,0,1,1,4.875,0" fill="steelblue"/><path transform="translate(229.125,63.375)" d="M4.875,0A4.875,4.875,0,1,1,-4.875,0A4.875,4.875,0,1,1,4.875,0" fill="steelblue"/><path transform="translate(151.125,63.375)" d="M4.875,0A4.875,4.875,0,1,1,-4.875,0A4.875,4.875,0,1,1,4.875,0" fill="steelblue"/><path transform="translate(180.37500000000003,43.87499999999999)" d="M4.875,0A4.875,4.875,0,1,1,-4.875,0A4.875,4.875,0,1,1,4.875,0" fill="steelblue"/><path transform="translate(102.37499999999999,53.625)" d="M4.875,0A4.875,4.875,0,1,1,-4.875,0A4.875,4.875,0,1,1,4.875,0" fill="steelblue"/><path transform="translate(112.12500000000001,34.125)" d="M4.875,0A4.875,4.875,0,1,1,-4.875,0A4.875,4.875,0,1,1,4.875,0" fill="steelblue"/><path transform="translate(160.87500000000003,14.625000000000002)" d="M4.875,0A4.875,4.875,0,1,1,-4.875,0A4.875,4.875,0,1,1,4.875,0" fill="steelblue"/><path transform="translate(112.12500000000001,24.374999999999996)" d="M4.875,0A4.875,4.875,0,1,1,-4.875,0A4.875,4.875,0,1,1,4.875,0" fill="steelblue"/><path transform="translate(121.875,34.125)" d="M4.875,0A4.875,4.875,0,1,1,-4.875,0A4.875,4.875,0,1,1,4.875,0" fill="steelblue"/><path transform="translate(82.875,53.625)" d="M4.875,0A4.875,4.875,0,1,1,-4.875,0A4.875,4.875,0,1,1,4.875,0" fill="steelblue"/><path transform="translate(73.12500000000001,43.87499999999999)" d="M4.875,0A4.875,4.875,0,1,1,-4.875,0A4.875,4.875,0,1,1,4.875,0" fill="steelblue"/><path transform="translate(43.875,53.625)" d="M4.875,0A4.875,4.875,0,1,1,-4.875,0A4.875,4.875,0,1,1,4.875,0" fill="steelblue"/><path transform="translate(121.875,24.374999999999996)" d="M4.875,0A4.875,4.875,0,1,1,-4.875,0A4.875,4.875,0,1,1,4.875,0" fill="steelblue"/><path transform="translate(160.87500000000003,4.874999999999998)" d="M4.875,0A4.875,4.875,0,1,1,-4.875,0A4.875,4.875,0,1,1,4.875,0" fill="steelblue"/><path transform="translate(73.12500000000001,34.125)" d="M4.875,0A4.875,4.875,0,1,1,-4.875,0A4.875,4.875,0,1,1,4.875,0" fill="steelblue"/><path transform="translate(199.875,63.375)" d="M4.875,0A4.875,4.875,0,1,1,-4.875,0A4.875,4.875,0,1,1,4.875,0" fill="steelblue"/><path transform="translate(141.37500000000003,43.87499999999999)" d="M4.875,0A4.875,4.875,0,1,1,-4.875,0A4.875,4.875,0,1,1,4.875,0" fill="steelblue"/><path transform="translate(190.12500000000006,63.375)" d="M4.875,0A4.875,4.875,0,1,1,-4.875,0A4.875,4.875,0,1,1,4.875,0" fill="steelblue"/></g></g><path class="foreground" aria-hidden="true" d="" display="none"/></g></g></g><path class="foreground" aria-hidden="true" d="" display="none"/></g></g></g></svg>