<?xml version="1.0" encoding="UTF-8" standalone="no"?>
<!DOCTYPE svg PUBLIC "-//W3C//DTD SVG 1.1//EN"
 "http://www.w3.org/Graphics/SVG/1.1/DTD/svg11.dtd">
<!-- Generated by graphviz version 2.47.0 (20210316.0004)
 -->
<!-- Title: dbml Pages: 1 -->
<svg width="1059pt" height="825pt"
 viewBox="0.00 0.00 1059.41 825.35" xmlns="http://www.w3.org/2000/svg" xmlns:xlink="http://www.w3.org/1999/xlink">
<g id="graph0" class="graph" transform="scale(1 1) rotate(0) translate(4 821.35)">
<title>dbml</title>
<!-- post_status -->
<g id="post_status" class="node">
<title>post_status</title>
<ellipse fill="none" stroke="black" stroke-width="0" cx="797.55" cy="-172.53" rx="222.06" ry="172.57"/>
<polygon fill="#29235c" stroke="transparent" points="642.55,-232.53 642.55,-292.53 952.55,-292.53 952.55,-232.53 642.55,-232.53"/>
<polygon fill="none" stroke="#29235c" points="642.55,-232.53 642.55,-292.53 952.55,-292.53 952.55,-232.53 642.55,-232.53"/>
<text text-anchor="start" x="653.49" y="-253.73" font-family="Helvetica,sans-Serif" font-weight="bold" font-size="32.00" fill="#ffffff"> &#160;&#160;&#160;&#160;&#160;&#160;post_status &#160;&#160;&#160;&#160;&#160;&#160;</text>
<polygon fill="#e7e2dd" stroke="transparent" points="642.55,-172.53 642.55,-232.53 952.55,-232.53 952.55,-172.53 642.55,-172.53"/>
<polygon fill="none" stroke="#29235c" points="642.55,-172.53 642.55,-232.53 952.55,-232.53 952.55,-172.53 642.55,-172.53"/>
<text text-anchor="start" x="729.97" y="-193.73" font-family="Helvetica,sans-Serif" font-style="italic" font-size="32.00" fill="#1d71b8"> &#160;&#160;&#160;draft &#160;&#160;&#160;</text>
<polygon fill="#e7e2dd" stroke="transparent" points="642.55,-112.53 642.55,-172.53 952.55,-172.53 952.55,-112.53 642.55,-112.53"/>
<polygon fill="none" stroke="#29235c" points="642.55,-112.53 642.55,-172.53 952.55,-172.53 952.55,-112.53 642.55,-112.53"/>
<text text-anchor="start" x="693.52" y="-133.73" font-family="Helvetica,sans-Serif" font-style="italic" font-size="32.00" fill="#1d71b8"> &#160;&#160;&#160;published &#160;&#160;&#160;</text>
<polygon fill="#e7e2dd" stroke="transparent" points="642.55,-52.53 642.55,-112.53 952.55,-112.53 952.55,-52.53 642.55,-52.53"/>
<polygon fill="none" stroke="#29235c" points="642.55,-52.53 642.55,-112.53 952.55,-112.53 952.55,-52.53 642.55,-52.53"/>
<text text-anchor="start" x="713.98" y="-73.73" font-family="Helvetica,sans-Serif" font-style="italic" font-size="32.00" fill="#1d71b8"> &#160;&#160;&#160;private &#160;&#160;&#160;</text>
<polygon fill="none" stroke="#29235c" stroke-width="2" points="641.55,-51.53 641.55,-293.53 953.55,-293.53 953.55,-51.53 641.55,-51.53"/>
</g>
<!-- users -->
<g id="users" class="node">
<title>users</title>
<ellipse fill="none" stroke="black" stroke-width="0" cx="797.55" cy="-577.53" rx="253.7" ry="214.92"/>
<polygon fill="#1d71b8" stroke="transparent" points="620.55,-667.53 620.55,-727.53 975.55,-727.53 975.55,-667.53 620.55,-667.53"/>
<polygon fill="none" stroke="#29235c" points="620.55,-667.53 620.55,-727.53 975.55,-727.53 975.55,-667.53 620.55,-667.53"/>
<text text-anchor="start" x="696.69" y="-688.73" font-family="Helvetica,sans-Serif" font-weight="bold" font-size="32.00" fill="#ffffff"> &#160;&#160;&#160;&#160;&#160;&#160;users &#160;&#160;&#160;&#160;&#160;&#160;</text>
<polygon fill="#e7e2dd" stroke="transparent" points="620.55,-607.53 620.55,-667.53 975.55,-667.53 975.55,-607.53 620.55,-607.53"/>
<polygon fill="none" stroke="#29235c" points="620.55,-607.53 620.55,-667.53 975.55,-667.53 975.55,-607.53 620.55,-607.53"/>
<text text-anchor="start" x="631.55" y="-628.73" font-family="Helvetica,sans-Serif" font-size="32.00" fill="#29235c">id</text>
<text text-anchor="start" x="656.44" y="-628.73" font-family="Helvetica,sans-Serif" font-size="32.00" fill="#29235c"> &#160;&#160;&#160;</text>
<text text-anchor="start" x="866.75" y="-628.73" font-family="Helvetica,sans-Serif" font-style="italic" font-size="32.00" fill="#29235c">integer</text>
<polygon fill="#e7e2dd" stroke="transparent" points="620.55,-547.53 620.55,-607.53 975.55,-607.53 975.55,-547.53 620.55,-547.53"/>
<polygon fill="none" stroke="#29235c" points="620.55,-547.53 620.55,-607.53 975.55,-607.53 975.55,-547.53 620.55,-547.53"/>
<text text-anchor="start" x="631.55" y="-568.73" font-family="Helvetica,sans-Serif" font-size="32.00" fill="#29235c">username</text>
<text text-anchor="start" x="773.8" y="-568.73" font-family="Helvetica,sans-Serif" font-size="32.00" fill="#29235c"> &#160;&#160;&#160;</text>
<text text-anchor="start" x="857.88" y="-568.73" font-family="Helvetica,sans-Serif" font-style="italic" font-size="32.00" fill="#29235c">varchar</text>
<polygon fill="#e7e2dd" stroke="transparent" points="620.55,-487.53 620.55,-547.53 975.55,-547.53 975.55,-487.53 620.55,-487.53"/>
<polygon fill="none" stroke="#29235c" points="620.55,-487.53 620.55,-547.53 975.55,-547.53 975.55,-487.53 620.55,-487.53"/>
<text text-anchor="start" x="631.55" y="-508.73" font-family="Helvetica,sans-Serif" font-size="32.00" fill="#29235c">role</text>
<text text-anchor="start" x="684.89" y="-508.73" font-family="Helvetica,sans-Serif" font-size="32.00" fill="#29235c"> &#160;&#160;&#160;</text>
<text text-anchor="start" x="857.88" y="-508.73" font-family="Helvetica,sans-Serif" font-style="italic" font-size="32.00" fill="#29235c">varchar</text>
<polygon fill="#e7e2dd" stroke="transparent" points="620.55,-427.53 620.55,-487.53 975.55,-487.53 975.55,-427.53 620.55,-427.53"/>
<polygon fill="none" stroke="#29235c" points="620.55,-427.53 620.55,-487.53 975.55,-487.53 975.55,-427.53 620.55,-427.53"/>
<text text-anchor="start" x="631.18" y="-448.73" font-family="Helvetica,sans-Serif" font-size="32.00" fill="#29235c">created_at</text>
<text text-anchor="start" x="782.35" y="-448.73" font-family="Helvetica,sans-Serif" font-size="32.00" fill="#29235c"> &#160;&#160;&#160;</text>
<text text-anchor="start" x="817.27" y="-448.73" font-family="Helvetica,sans-Serif" font-style="italic" font-size="32.00" fill="#29235c">timestamp</text>
<polygon fill="none" stroke="#29235c" stroke-width="2" points="619.05,-426.53 619.05,-728.53 976.05,-728.53 976.05,-426.53 619.05,-426.53"/>
</g>
<!-- posts -->
<g id="posts" class="node">
<title>posts</title>
<ellipse fill="none" stroke="black" stroke-width="0" cx="253.85" cy="-517.53" rx="253.7" ry="299.63"/>
<polygon fill="#1d71b8" stroke="transparent" points="76.85,-667.53 76.85,-727.53 431.85,-727.53 431.85,-667.53 76.85,-667.53"/>
<polygon fill="none" stroke="#29235c" points="76.85,-667.53 76.85,-727.53 431.85,-727.53 431.85,-667.53 76.85,-667.53"/>
<text text-anchor="start" x="153.87" y="-688.73" font-family="Helvetica,sans-Serif" font-weight="bold" font-size="32.00" fill="#ffffff"> &#160;&#160;&#160;&#160;&#160;&#160;posts &#160;&#160;&#160;&#160;&#160;&#160;</text>
<polygon fill="#e7e2dd" stroke="transparent" points="76.85,-607.53 76.85,-667.53 431.85,-667.53 431.85,-607.53 76.85,-607.53"/>
<polygon fill="none" stroke="#29235c" points="76.85,-607.53 76.85,-667.53 431.85,-667.53 431.85,-607.53 76.85,-607.53"/>
<text text-anchor="start" x="87.85" y="-628.73" font-family="Helvetica,sans-Serif" font-weight="bold" font-size="32.00" fill="#29235c">id</text>
<text text-anchor="start" x="112.74" y="-628.73" font-family="Helvetica,sans-Serif" font-size="32.00" fill="#29235c"> &#160;&#160;&#160;</text>
<text text-anchor="start" x="323.05" y="-628.73" font-family="Helvetica,sans-Serif" font-style="italic" font-size="32.00" fill="#29235c">integer</text>
<polygon fill="#e7e2dd" stroke="transparent" points="76.85,-547.53 76.85,-607.53 431.85,-607.53 431.85,-547.53 76.85,-547.53"/>
<polygon fill="none" stroke="#29235c" points="76.85,-547.53 76.85,-607.53 431.85,-607.53 431.85,-547.53 76.85,-547.53"/>
<text text-anchor="start" x="87.85" y="-568.73" font-family="Helvetica,sans-Serif" font-size="32.00" fill="#29235c">title</text>
<text text-anchor="start" x="137.63" y="-568.73" font-family="Helvetica,sans-Serif" font-size="32.00" fill="#29235c"> &#160;&#160;&#160;</text>
<text text-anchor="start" x="314.18" y="-568.73" font-family="Helvetica,sans-Serif" font-style="italic" font-size="32.00" fill="#29235c">varchar</text>
<polygon fill="#e7e2dd" stroke="transparent" points="76.85,-487.53 76.85,-547.53 431.85,-547.53 431.85,-487.53 76.85,-487.53"/>
<polygon fill="none" stroke="#29235c" points="76.85,-487.53 76.85,-547.53 431.85,-547.53 431.85,-487.53 76.85,-487.53"/>
<text text-anchor="start" x="87.85" y="-508.73" font-family="Helvetica,sans-Serif" font-size="32.00" fill="#29235c">body</text>
<text text-anchor="start" x="157.22" y="-508.73" font-family="Helvetica,sans-Serif" font-size="32.00" fill="#29235c"> &#160;&#160;&#160;</text>
<text text-anchor="start" x="369.28" y="-508.73" font-family="Helvetica,sans-Serif" font-style="italic" font-size="32.00" fill="#29235c">text</text>
<polygon fill="#e7e2dd" stroke="transparent" points="76.85,-427.53 76.85,-487.53 431.85,-487.53 431.85,-427.53 76.85,-427.53"/>
<polygon fill="none" stroke="#29235c" points="76.85,-427.53 76.85,-487.53 431.85,-487.53 431.85,-427.53 76.85,-427.53"/>
<text text-anchor="start" x="87.85" y="-448.73" font-family="Helvetica,sans-Serif" font-size="32.00" fill="#29235c">user_id</text>
<text text-anchor="start" x="192.76" y="-448.73" font-family="Helvetica,sans-Serif" font-size="32.00" fill="#29235c"> &#160;&#160;&#160;</text>
<text text-anchor="start" x="323.05" y="-448.73" font-family="Helvetica,sans-Serif" font-style="italic" font-size="32.00" fill="#29235c">integer</text>
<polygon fill="#e7e2dd" stroke="transparent" points="76.85,-367.53 76.85,-427.53 431.85,-427.53 431.85,-367.53 76.85,-367.53"/>
<polygon fill="none" stroke="#29235c" points="76.85,-367.53 76.85,-427.53 431.85,-427.53 431.85,-367.53 76.85,-367.53"/>
<text text-anchor="start" x="87.85" y="-388.73" font-family="Helvetica,sans-Serif" font-size="32.00" fill="#29235c">status</text>
<text text-anchor="start" x="173.21" y="-388.73" font-family="Helvetica,sans-Serif" font-size="32.00" fill="#29235c"> &#160;&#160;&#160;</text>
<text text-anchor="start" x="257.23" y="-388.73" font-family="Helvetica,sans-Serif" font-style="italic" font-size="32.00" fill="#29235c">post_status</text>
<polygon fill="#e7e2dd" stroke="transparent" points="76.85,-307.53 76.85,-367.53 431.85,-367.53 431.85,-307.53 76.85,-307.53"/>
<polygon fill="none" stroke="#29235c" points="76.85,-307.53 76.85,-367.53 431.85,-367.53 431.85,-307.53 76.85,-307.53"/>
<text text-anchor="start" x="87.48" y="-328.73" font-family="Helvetica,sans-Serif" font-size="32.00" fill="#29235c">created_at</text>
<text text-anchor="start" x="238.65" y="-328.73" font-family="Helvetica,sans-Serif" font-size="32.00" fill="#29235c"> &#160;&#160;&#160;</text>
<text text-anchor="start" x="273.57" y="-328.73" font-family="Helvetica,sans-Serif" font-style="italic" font-size="32.00" fill="#29235c">timestamp</text>
<polygon fill="none" stroke="#29235c" stroke-width="2" points="75.35,-306.53 75.35,-728.53 432.35,-728.53 432.35,-306.53 75.35,-306.53"/>
</g>
<!-- posts&#45;&gt;post_status -->
<g id="edge3" class="edge">
<title>posts:e&#45;&gt;post_status:w</title>
<path fill="none" stroke="#29235c" stroke-width="3" d="M432.85,-397.53C543.32,-397.53 531.08,-262.53 641.55,-262.53"/>
</g>
<!-- posts&#45;&gt;users -->
<!-- posts&#45;&gt;users -->
<g id="edge2" class="edge">
<title>posts:e&#45;&gt;users:w</title>
<path fill="none" stroke="#29235c" stroke-width="3" d="M432.85,-457.53C544.62,-457.53 506.8,-626.8 609.51,-637.05"/>
<polygon fill="#29235c" stroke="#29235c" stroke-width="3" points="609.4,-640.55 619.55,-637.53 609.73,-633.56 609.4,-640.55"/>
<text text-anchor="middle" x="628.45" y="-647.13" font-family="Helvetica,sans-Serif" font-size="32.00" fill="#29235c">1</text>
<text text-anchor="middle" x="426.63" y="-467.13" font-family="Helvetica,sans-Serif" font-size="32.00" fill="#29235c">*</text>
</g>
</g>
</svg>

