<svg xmlns="http://www.w3.org/2000/svg" xmlns:xlink="http://www.w3.org/1999/xlink" version="1.1" class="marks" width="329" height="267" viewBox="0 0 329 267"><g fill="none" stroke-miterlimit="10" transform="translate(16,5)"><g class="mark-group role-frame root" role="graphics-object" aria-roledescription="group mark container"><g transform="translate(0,0)"><path class="background" aria-hidden="true" d="M0,0h300v240h-300Z"/><g><g class="mark-group role-axis" role="graphics-symbol" aria-roledescription="axis" aria-label="X-axis for a linear scale with values from 0.0 to 1.1"><g transform="translate(0.5,240.5)"><path class="background" aria-hidden="true" d="M0,0h0v0h0Z" pointer-events="none"/><g><g class="mark-rule role-axis-tick" pointer-events="none"><line transform="translate(0,0)" x2="0" y2="5" stroke="#888" stroke-width="1" opacity="1"/><line transform="translate(27,0)" x2="0" y2="5" stroke="#888" stroke-width="1" opacity="1"/><line transform="translate(55,0)" x2="0" y2="5" stroke="#888" stroke-width="1" opacity="1"/><line transform="translate(82,0)" x2="0" y2="5" stroke="#888" stroke-width="1" opacity="1"/><line transform="translate(109,0)" x2="0" y2="5" stroke="#888" stroke-width="1" opacity="1"/><line transform="translate(136,0)" x2="0" y2="5" stroke="#888" stroke-width="1" opacity="1"/><line transform="translate(164,0)" x2="0" y2="5" stroke="#888" stroke-width="1" opacity="1"/><line transform="translate(191,0)" x2="0" y2="5" stroke="#888" stroke-width="1" opacity="1"/><line transform="translate(218,0)" x2="0" y2="5" stroke="#888" stroke-width="1" opacity="1"/><line transform="translate(245,0)" x2="0" y2="5" stroke="#888" stroke-width="1" opacity="1"/><line transform="translate(273,0)" x2="0" y2="5" stroke="#888" stroke-width="1" opacity="1"/><line transform="translate(300,0)" x2="0" y2="5" stroke="#888" stroke-width="1" opacity="1"/></g><g class="mark-text role-axis-label" pointer-events="none"><text text-anchor="middle" transform="translate(0,15)" font-family="sans-serif" font-size="10px" fill="#000" opacity="1">0.0</text><text text-anchor="middle" transform="translate(27,15)" font-family="sans-serif" font-size="10px" fill="#000" opacity="1">0.1</text><text text-anchor="middle" transform="translate(55,15)" font-family="sans-serif" font-size="10px" fill="#000" opacity="1">0.2</text><text text-anchor="middle" transform="translate(82,15)" font-family="sans-serif" font-size="10px" fill="#000" opacity="1">0.3</text><text text-anchor="middle" transform="translate(109,15)" font-family="sans-serif" font-size="10px" fill="#000" opacity="1">0.4</text><text text-anchor="middle" transform="translate(136,15)" font-family="sans-serif" font-size="10px" fill="#000" opacity="1">0.5</text><text text-anchor="middle" transform="translate(164,15)" font-family="sans-serif" font-size="10px" fill="#000" opacity="1">0.6</text><text text-anchor="middle" transform="translate(191,15)" font-family="sans-serif" font-size="10px" fill="#000" opacity="1">0.7</text><text text-anchor="middle" transform="translate(218,15)" font-family="sans-serif" font-size="10px" fill="#000" opacity="1">0.8</text><text text-anchor="middle" transform="translate(245,15)" font-family="sans-serif" font-size="10px" fill="#000" opacity="1">0.9</text><text text-anchor="middle" transform="translate(273,15)" font-family="sans-serif" font-size="10px" fill="#000" opacity="1">1.0</text><text text-anchor="middle" transform="translate(300,15)" font-family="sans-serif" font-size="10px" fill="#000" opacity="1">1.1</text></g><g class="mark-rule role-axis-domain" pointer-events="none"><line transform="translate(0,0)" x2="300" y2="0" stroke="#888" stroke-width="1" opacity="1"/></g></g><path class="foreground" aria-hidden="true" d="" pointer-events="none" display="none"/></g></g><g class="mark-group role-scope" role="graphics-object" aria-roledescription="group mark container"><g transform="translate(0,15)"><path class="background" aria-hidden="true" d="M0,0h0v0h0Z"/><g><g class="mark-rect role-mark bars" role="graphics-symbol" aria-roledescription="rect mark container"><path d="M0,0h27v15h-27Z" fill="#1f77b4"/><path d="M0,15h164v15h-164Z" fill="#aec7e8"/><path d="M0,30h245v15h-245Z" fill="#ff7f0e"/><path d="M0,45h109v15h-109Z" fill="#ffbb78"/></g><g class="mark-text role-mark" role="graphics-object" aria-roledescription="text mark container"><text text-anchor="end" transform="translate(22,10.5)" font-family="sans-serif" font-size="11px" fill="white">0.1</text><text text-anchor="end" transform="translate(159,25.5)" font-family="sans-serif" font-size="11px" fill="black">0.6</text><text text-anchor="end" transform="translate(240,40.5)" font-family="sans-serif" font-size="11px" fill="black">0.9</text><text text-anchor="end" transform="translate(104,55.5)" font-family="sans-serif" font-size="11px" fill="black">0.4</text></g></g><path class="foreground" aria-hidden="true" d="" display="none"/></g><g transform="translate(0,90)"><path class="background" aria-hidden="true" d="M0,0h0v0h0Z"/><g><g class="mark-rect role-mark bars" role="graphics-symbol" aria-roledescription="rect mark container"><path d="M0,0h191v15h-191Z" fill="#1f77b4"/><path d="M0,15h55v15h-55Z" fill="#aec7e8"/><path d="M0,30h300v15h-300Z" fill="#ff7f0e"/><path d="M0,45h218v15h-218Z" fill="#ffbb78"/></g><g class="mark-text role-mark" role="graphics-object" aria-roledescription="text mark container"><text text-anchor="end" transform="translate(186,10.5)" font-family="sans-serif" font-size="11px" fill="white">0.7</text><text text-anchor="end" transform="translate(50,25.5)" font-family="sans-serif" font-size="11px" fill="black">0.2</text><text text-anchor="end" transform="translate(295,40.5)" font-family="sans-serif" font-size="11px" fill="black">1.1</text><text text-anchor="end" transform="translate(213,55.5)" font-family="sans-serif" font-size="11px" fill="black">0.8</text></g></g><path class="foreground" aria-hidden="true" d="" display="none"/></g><g transform="translate(0,165)"><path class="background" aria-hidden="true" d="M0,0h0v0h0Z"/><g><g class="mark-rect role-mark bars" role="graphics-symbol" aria-roledescription="rect mark container"><path d="M0,0h164v15h-164Z" fill="#1f77b4"/><path d="M0,15h27v15h-27Z" fill="#aec7e8"/><path d="M0,30h55v15h-55Z" fill="#ff7f0e"/><path d="M0,45h191v15h-191Z" fill="#ffbb78"/></g><g class="mark-text role-mark" role="graphics-object" aria-roledescription="text mark container"><text text-anchor="end" transform="translate(159,10.5)" font-family="sans-serif" font-size="11px" fill="white">0.6</text><text text-anchor="end" transform="translate(22,25.5)" font-family="sans-serif" font-size="11px" fill="black">0.1</text><text text-anchor="end" transform="translate(50,40.5)" font-family="sans-serif" font-size="11px" fill="black">0.2</text><text text-anchor="end" transform="translate(186,55.5)" font-family="sans-serif" font-size="11px" fill="black">0.7</text></g></g><path class="foreground" aria-hidden="true" d="" display="none"/></g></g><g class="mark-group role-axis" role="graphics-symbol" aria-roledescription="axis" aria-label="Y-axis for a discrete scale with 3 values: A, B, C"><g transform="translate(0.5,0.5)"><path class="background" aria-hidden="true" d="M0,0h0v0h0Z" pointer-events="none"/><g><g class="mark-rule role-axis-tick" pointer-events="none"><line transform="translate(0,45)" x2="0" y2="0" stroke="#888" stroke-width="1" opacity="1"/><line transform="translate(0,120)" x2="0" y2="0" stroke="#888" stroke-width="1" opacity="1"/><line transform="translate(0,195)" x2="0" y2="0" stroke="#888" stroke-width="1" opacity="1"/></g><g class="mark-text role-axis-label" pointer-events="none"><text text-anchor="end" transform="translate(-4,47.5)" font-family="sans-serif" font-size="10px" fill="#000" opacity="1">A</text><text text-anchor="end" transform="translate(-4,122.5)" font-family="sans-serif" font-size="10px" fill="#000" opacity="1">B</text><text text-anchor="end" transform="translate(-4,197.5)" font-family="sans-serif" font-size="10px" fill="#000" opacity="1">C</text></g><g class="mark-rule role-axis-domain" pointer-events="none"><line transform="translate(0,0)" x2="0" y2="240" stroke="#888" stroke-width="1" opacity="1"/></g></g><path class="foreground" aria-hidden="true" d="" pointer-events="none" display="none"/></g></g></g><path class="foreground" aria-hidden="true" d="" display="none"/></g></g></g></svg>