<svg xmlns="http://www.w3.org/2000/svg" xmlns:xlink="http://www.w3.org/1999/xlink" version="1.1" class="marks" width="652" height="442" viewBox="0 0 652 442"><g fill="none" stroke-miterlimit="10" transform="translate(16,5)"><g class="mark-group role-frame root" role="graphics-object" aria-roledescription="group mark container"><g transform="translate(0,0)"><path class="background" aria-hidden="true" d="M0,0h620v400h-620Z"/><g><g class="mark-text role-mark" role="graphics-object" aria-roledescription="text mark container" pointer-events="none"><text text-anchor="middle" transform="translate(310,392.5)" font-family="sans-serif" font-size="11px" fill="#000">0</text><text text-anchor="middle" transform="translate(310,371.5)" font-family="sans-serif" font-size="11px" fill="#000">5</text><text text-anchor="middle" transform="translate(310,350.5)" font-family="sans-serif" font-size="11px" fill="#000">10</text><text text-anchor="middle" transform="translate(310,329.5)" font-family="sans-serif" font-size="11px" fill="#000">15</text><text text-anchor="middle" transform="translate(310,308.5)" font-family="sans-serif" font-size="11px" fill="#000">20</text><text text-anchor="middle" transform="translate(310,287.5)" font-family="sans-serif" font-size="11px" fill="#000">25</text><text text-anchor="middle" transform="translate(310,266.5)" font-family="sans-serif" font-size="11px" fill="#000">30</text><text text-anchor="middle" transform="translate(310,245.5)" font-family="sans-serif" font-size="11px" fill="#000">35</text><text text-anchor="middle" transform="translate(310,224.5)" font-family="sans-serif" font-size="11px" fill="#000">40</text><text text-anchor="middle" transform="translate(310,203.5)" font-family="sans-serif" font-size="11px" fill="#000">45</text><text text-anchor="middle" transform="translate(310,182.5)" font-family="sans-serif" font-size="11px" fill="#000">50</text><text text-anchor="middle" transform="translate(310,161.5)" font-family="sans-serif" font-size="11px" fill="#000">55</text><text text-anchor="middle" transform="translate(310,140.5)" font-family="sans-serif" font-size="11px" fill="#000">60</text><text text-anchor="middle" transform="translate(310,119.5)" font-family="sans-serif" font-size="11px" fill="#000">65</text><text text-anchor="middle" transform="translate(310,98.5)" font-family="sans-serif" font-size="11px" fill="#000">70</text><text text-anchor="middle" transform="translate(310,77.5)" font-family="sans-serif" font-size="11px" fill="#000">75</text><text text-anchor="middle" transform="translate(310,56.5)" font-family="sans-serif" font-size="11px" fill="#000">80</text><text text-anchor="middle" transform="translate(310,35.5)" font-family="sans-serif" font-size="11px" fill="#000">85</text><text text-anchor="middle" transform="translate(310,14.5)" font-family="sans-serif" font-size="11px" fill="#000">90</text></g><g class="mark-group role-scope" role="graphics-object" aria-roledescription="group mark container"><g transform="translate(0,0)"><path class="background" aria-hidden="true" d="M0,0h0v400h0Z"/><g><g class="mark-group role-axis" role="graphics-symbol" aria-roledescription="axis" aria-label="X-axis titled 'Females' for a linear scale with values from 0M to 12M"><g transform="translate(0.5,400.5)"><path class="background" aria-hidden="true" d="M0,0h0v0h0Z" pointer-events="none"/><g><g class="mark-rule role-axis-tick" pointer-events="none"><line transform="translate(300,0)" x2="0" y2="5" stroke="#888" stroke-width="1" opacity="1"/><line transform="translate(275,0)" x2="0" y2="5" stroke="#888" stroke-width="1" opacity="1"/><line transform="translate(250,0)" x2="0" y2="5" stroke="#888" stroke-width="1" opacity="1"/><line transform="translate(225,0)" x2="0" y2="5" stroke="#888" stroke-width="1" opacity="1"/><line transform="translate(200,0)" x2="0" y2="5" stroke="#888" stroke-width="1" opacity="1"/><line transform="translate(175,0)" x2="0" y2="5" stroke="#888" stroke-width="1" opacity="1"/><line transform="translate(150,0)" x2="0" y2="5" stroke="#888" stroke-width="1" opacity="1"/><line transform="translate(125,0)" x2="0" y2="5" stroke="#888" stroke-width="1" opacity="1"/><line transform="translate(100,0)" x2="0" y2="5" stroke="#888" stroke-width="1" opacity="1"/><line transform="translate(75,0)" x2="0" y2="5" stroke="#888" stroke-width="1" opacity="1"/><line transform="translate(50,0)" x2="0" y2="5" stroke="#888" stroke-width="1" opacity="1"/><line transform="translate(25,0)" x2="0" y2="5" stroke="#888" stroke-width="1" opacity="1"/><line transform="translate(0,0)" x2="0" y2="5" stroke="#888" stroke-width="1" opacity="1"/></g><g class="mark-text role-axis-label" pointer-events="none"><text text-anchor="middle" transform="translate(300,15)" font-family="sans-serif" font-size="10px" fill="#000" opacity="1">0M</text><text text-anchor="middle" transform="translate(275,15)" font-family="sans-serif" font-size="10px" fill="#000" opacity="1">1M</text><text text-anchor="middle" transform="translate(250,15)" font-family="sans-serif" font-size="10px" fill="#000" opacity="1">2M</text><text text-anchor="middle" transform="translate(225,15)" font-family="sans-serif" font-size="10px" fill="#000" opacity="1">3M</text><text text-anchor="middle" transform="translate(200.00000000000003,15)" font-family="sans-serif" font-size="10px" fill="#000" opacity="1">4M</text><text text-anchor="middle" transform="translate(174.99999999999997,15)" font-family="sans-serif" font-size="10px" fill="#000" opacity="1">5M</text><text text-anchor="middle" transform="translate(150,15)" font-family="sans-serif" font-size="10px" fill="#000" opacity="1">6M</text><text text-anchor="middle" transform="translate(124.99999999999999,15)" font-family="sans-serif" font-size="10px" fill="#000" opacity="1">7M</text><text text-anchor="middle" transform="translate(100.00000000000001,15)" font-family="sans-serif" font-size="10px" fill="#000" opacity="1">8M</text><text text-anchor="middle" transform="translate(75,15)" font-family="sans-serif" font-size="10px" fill="#000" opacity="1">9M</text><text text-anchor="middle" transform="translate(49.999999999999986,15)" font-family="sans-serif" font-size="10px" fill="#000" opacity="1">10M</text><text text-anchor="middle" transform="translate(25.00000000000001,15)" font-family="sans-serif" font-size="10px" fill="#000" opacity="1">11M</text><text text-anchor="middle" transform="translate(0,15)" font-family="sans-serif" font-size="10px" fill="#000" opacity="1">12M</text></g><g class="mark-rule role-axis-domain" pointer-events="none"><line transform="translate(300,0)" x2="-300" y2="0" stroke="#888" stroke-width="1" opacity="1"/></g><g class="mark-text role-axis-title" pointer-events="none"><text text-anchor="middle" transform="translate(150,30)" font-family="sans-serif" font-size="11px" font-weight="bold" fill="#000" opacity="1">Females</text></g></g><path class="foreground" aria-hidden="true" d="" pointer-events="none" display="none"/></g></g><g class="mark-rect role-mark" role="graphics-symbol" aria-roledescription="rect mark container"><path d="M67.23214999999999,379h232.76785v20h-232.76785Z" fill="#6c4e97" fill-opacity="0.6"/><path d="M48.26090000000001,358h251.7391v20h-251.7391Z" fill="#6c4e97" fill-opacity="0.6"/><path d="M49.43689999999998,337h250.56310000000002v20h-250.56310000000002Z" fill="#6c4e97" fill-opacity="0.6"/><path d="M57.683275,316h242.316725v20h-242.316725Z" fill="#6c4e97" fill-opacity="0.6"/><path d="M66.8939,295h233.1061v20h-233.1061Z" fill="#6c4e97" fill-opacity="0.6"/><path d="M62.03732499999999,274h237.96267500000002v20h-237.96267500000002Z" fill="#6c4e97" fill-opacity="0.6"/><path d="M47.017600000000016,253h252.98239999999998v20h-252.98239999999998Z" fill="#6c4e97" fill-opacity="0.6"/><path d="M9.108824999999998,232h290.891175v20h-290.891175Z" fill="#6c4e97" fill-opacity="0.6"/><path d="M12.78555,211h287.21445v20h-287.21445Z" fill="#6c4e97" fill-opacity="0.6"/><path d="M43.46867499999999,190h256.53132500000004v20h-256.53132500000004Z" fill="#6c4e97" fill-opacity="0.6"/><path d="M77.22167499999999,169h222.778325v20h-222.778325Z" fill="#6c4e97" fill-opacity="0.6"/><path d="M126.9683,148h173.0317v20h-173.0317Z" fill="#6c4e97" fill-opacity="0.6"/><path d="M158.275975,127h141.724025v20h-141.724025Z" fill="#6c4e97" fill-opacity="0.6"/><path d="M179.8804,106h120.11959999999999v20h-120.11959999999999Z" fill="#6c4e97" fill-opacity="0.6"/><path d="M170.378625,85h129.621375v20h-129.621375Z" fill="#6c4e97" fill-opacity="0.6"/><path d="M191.10889999999998,64h108.89110000000002v20h-108.89110000000002Z" fill="#6c4e97" fill-opacity="0.6"/><path d="M219.45255,43h80.54745v20h-80.54745Z" fill="#6c4e97" fill-opacity="0.6"/><path d="M250.4711,22h49.52889999999999v20h-49.52889999999999Z" fill="#6c4e97" fill-opacity="0.6"/><path d="M273.385475,1h26.614525000000015v20h-26.614525000000015Z" fill="#6c4e97" fill-opacity="0.6"/></g></g><path class="foreground" aria-hidden="true" d="" display="none"/></g></g><g class="mark-group role-scope" role="graphics-object" aria-roledescription="group mark container"><g transform="translate(320,0)"><path class="background" aria-hidden="true" d="M0,0h0v400h0Z"/><g><g class="mark-group role-axis" role="graphics-symbol" aria-roledescription="axis" aria-label="X-axis titled 'Males' for a linear scale with values from 0M to 12M"><g transform="translate(0.5,400.5)"><path class="background" aria-hidden="true" d="M0,0h0v0h0Z" pointer-events="none"/><g><g class="mark-rule role-axis-tick" pointer-events="none"><line transform="translate(0,0)" x2="0" y2="5" stroke="#888" stroke-width="1" opacity="1"/><line transform="translate(25,0)" x2="0" y2="5" stroke="#888" stroke-width="1" opacity="1"/><line transform="translate(50,0)" x2="0" y2="5" stroke="#888" stroke-width="1" opacity="1"/><line transform="translate(75,0)" x2="0" y2="5" stroke="#888" stroke-width="1" opacity="1"/><line transform="translate(100,0)" x2="0" y2="5" stroke="#888" stroke-width="1" opacity="1"/><line transform="translate(125,0)" x2="0" y2="5" stroke="#888" stroke-width="1" opacity="1"/><line transform="translate(150,0)" x2="0" y2="5" stroke="#888" stroke-width="1" opacity="1"/><line transform="translate(175,0)" x2="0" y2="5" stroke="#888" stroke-width="1" opacity="1"/><line transform="translate(200,0)" x2="0" y2="5" stroke="#888" stroke-width="1" opacity="1"/><line transform="translate(225,0)" x2="0" y2="5" stroke="#888" stroke-width="1" opacity="1"/><line transform="translate(250,0)" x2="0" y2="5" stroke="#888" stroke-width="1" opacity="1"/><line transform="translate(275,0)" x2="0" y2="5" stroke="#888" stroke-width="1" opacity="1"/><line transform="translate(300,0)" x2="0" y2="5" stroke="#888" stroke-width="1" opacity="1"/></g><g class="mark-text role-axis-label" pointer-events="none"><text text-anchor="middle" transform="translate(0,15)" font-family="sans-serif" font-size="10px" fill="#000" opacity="1">0M</text><text text-anchor="middle" transform="translate(25,15)" font-family="sans-serif" font-size="10px" fill="#000" opacity="1">1M</text><text text-anchor="middle" transform="translate(50,15)" font-family="sans-serif" font-size="10px" fill="#000" opacity="1">2M</text><text text-anchor="middle" transform="translate(75,15)" font-family="sans-serif" font-size="10px" fill="#000" opacity="1">3M</text><text text-anchor="middle" transform="translate(100,15)" font-family="sans-serif" font-size="10px" fill="#000" opacity="1">4M</text><text text-anchor="middle" transform="translate(125,15)" font-family="sans-serif" font-size="10px" fill="#000" opacity="1">5M</text><text text-anchor="middle" transform="translate(150,15)" font-family="sans-serif" font-size="10px" fill="#000" opacity="1">6M</text><text text-anchor="middle" transform="translate(175,15)" font-family="sans-serif" font-size="10px" fill="#000" opacity="1">7M</text><text text-anchor="middle" transform="translate(200,15)" font-family="sans-serif" font-size="10px" fill="#000" opacity="1">8M</text><text text-anchor="middle" transform="translate(225,15)" font-family="sans-serif" font-size="10px" fill="#000" opacity="1">9M</text><text text-anchor="middle" transform="translate(250,15)" font-family="sans-serif" font-size="10px" fill="#000" opacity="1">10M</text><text text-anchor="middle" transform="translate(275,15)" font-family="sans-serif" font-size="10px" fill="#000" opacity="1">11M</text><text text-anchor="middle" transform="translate(300,15)" font-family="sans-serif" font-size="10px" fill="#000" opacity="1">12M</text></g><g class="mark-rule role-axis-domain" pointer-events="none"><line transform="translate(0,0)" x2="300" y2="0" stroke="#888" stroke-width="1" opacity="1"/></g><g class="mark-text role-axis-title" pointer-events="none"><text text-anchor="middle" transform="translate(150,30)" font-family="sans-serif" font-size="11px" font-weight="bold" fill="#000" opacity="1">Males</text></g></g><path class="foreground" aria-hidden="true" d="" pointer-events="none" display="none"/></g></g><g class="mark-rect role-mark" role="graphics-symbol" aria-roledescription="rect mark container"><path d="M0,379h243.3845v20h-243.3845Z" fill="#d5855a" fill-opacity="0.6"/><path d="M0,358h263.80365v20h-263.80365Z" fill="#d5855a" fill-opacity="0.6"/><path d="M0,337h264.080825v20h-264.080825Z" fill="#d5855a" fill-opacity="0.6"/><path d="M0,316h255.935475v20h-255.935475Z" fill="#d5855a" fill-opacity="0.6"/><path d="M0,295h243.282875v20h-243.282875Z" fill="#d5855a" fill-opacity="0.6"/><path d="M0,274h241.487325v20h-241.487325Z" fill="#d5855a" fill-opacity="0.6"/><path d="M0,253h255.146975v20h-255.146975Z" fill="#d5855a" fill-opacity="0.6"/><path d="M0,232h286.87955v20h-286.87955Z" fill="#d5855a" fill-opacity="0.6"/><path d="M0,211h283.0063v20h-283.0063Z" fill="#d5855a" fill-opacity="0.6"/><path d="M0,190h248.12515000000002v20h-248.12515000000002Z" fill="#d5855a" fill-opacity="0.6"/><path d="M0,169h212.69835v20h-212.69835Z" fill="#d5855a" fill-opacity="0.6"/><path d="M0,148h161.47705v20h-161.47705Z" fill="#d5855a" fill-opacity="0.6"/><path d="M0,127h128.084975v20h-128.084975Z" fill="#d5855a" fill-opacity="0.6"/><path d="M0,106h111.340575v20h-111.340575Z" fill="#d5855a" fill-opacity="0.6"/><path d="M0,85h94.80362500000001v20h-94.80362500000001Z" fill="#d5855a" fill-opacity="0.6"/><path d="M0,64h72.816375v20h-72.816375Z" fill="#d5855a" fill-opacity="0.6"/><path d="M0,43h47.56595v20h-47.56595Z" fill="#d5855a" fill-opacity="0.6"/><path d="M0,22h24.258925v20h-24.258925Z" fill="#d5855a" fill-opacity="0.6"/><path d="M0,1h8.407575000000001v20h-8.407575000000001Z" fill="#d5855a" fill-opacity="0.6"/></g></g><path class="foreground" aria-hidden="true" d="" display="none"/></g></g></g><path class="foreground" aria-hidden="true" d="" display="none"/></g></g></g></svg>