<?xml version="1.0" encoding="UTF-8" standalone="no"?>
<!DOCTYPE svg PUBLIC "-//W3C//DTD SVG 1.1//EN"
 "http://www.w3.org/Graphics/SVG/1.1/DTD/svg11.dtd">
<!-- Generated by graphviz version 8.0.4 (20230422.2207)
 -->
<!-- Title: g Pages: 1 -->
<svg width="804pt" height="579pt"
 viewBox="0.00 0.00 804.00 578.62" xmlns="http://www.w3.org/2000/svg" xmlns:xlink="http://www.w3.org/1999/xlink">
<g id="graph0" class="graph" transform="scale(1 1) rotate(0) translate(4 574.62)">
<title>g</title>
<polygon fill="white" stroke="none" points="-4,4 -4,-574.62 800,-574.62 800,4 -4,4"/>
<!-- node0 -->
<g id="node1" class="node">
<title>node0</title>
<polygon fill="none" stroke="black" points="0,-455.7 0,-510.1 70,-510.1 70,-455.7 0,-455.7"/>
<text text-anchor="middle" x="35" y="-490.9" font-family="Times,serif" font-size="16.00">0x10ba8</text>
<polyline fill="none" stroke="black" points="0,-482.9 70,-482.9"/>
<text text-anchor="middle" x="35" y="-463.7" font-family="Times,serif" font-size="16.00"> </text>
</g>
<!-- node1 -->
<g id="node2" class="node">
<title>node1</title>
<polygon fill="none" stroke="black" points="106,-451.5 106,-560.3 195,-560.3 195,-451.5 106,-451.5"/>
<text text-anchor="middle" x="150.5" y="-541.1" font-family="Times,serif" font-size="16.00">0xf7fc4380</text>
<polyline fill="none" stroke="black" points="106,-533.1 195,-533.1"/>
<text text-anchor="middle" x="150.5" y="-513.9" font-family="Times,serif" font-size="16.00"> </text>
<polyline fill="none" stroke="black" points="106,-505.9 195,-505.9"/>
<text text-anchor="middle" x="150.5" y="-486.7" font-family="Times,serif" font-size="16.00"> </text>
<polyline fill="none" stroke="black" points="106,-478.7 195,-478.7"/>
<text text-anchor="middle" x="150.5" y="-459.5" font-family="Times,serif" font-size="16.00">&#45;1</text>
</g>
<!-- node0&#45;&gt;node1 -->
<g id="0" class="edge">
<title>node0:f0&#45;&gt;node1:f0</title>
<path fill="none" stroke="black" d="M70,-496.9C92.89,-496.9 83.53,-531.84 95.84,-543.3"/>
<polygon fill="black" stroke="black" points="94.41,-546.86 105,-546.9 96.74,-540.26 94.41,-546.86"/>
</g>
<!-- node2 -->
<g id="node3" class="node">
<title>node2</title>
<polygon fill="none" stroke="black" points="106,-323.5 106,-432.3 195,-432.3 195,-323.5 106,-323.5"/>
<text text-anchor="middle" x="150.5" y="-413.1" font-family="Times,serif" font-size="16.00">0xf7fc44b8</text>
<polyline fill="none" stroke="black" points="106,-405.1 195,-405.1"/>
<text text-anchor="middle" x="150.5" y="-385.9" font-family="Times,serif" font-size="16.00"> </text>
<polyline fill="none" stroke="black" points="106,-377.9 195,-377.9"/>
<text text-anchor="middle" x="150.5" y="-358.7" font-family="Times,serif" font-size="16.00"> </text>
<polyline fill="none" stroke="black" points="106,-350.7 195,-350.7"/>
<text text-anchor="middle" x="150.5" y="-331.5" font-family="Times,serif" font-size="16.00">2</text>
</g>
<!-- node0&#45;&gt;node2 -->
<g id="1" class="edge">
<title>node0:f1&#45;&gt;node2:f0</title>
<path fill="none" stroke="black" d="M70,-468.9C92.89,-468.9 83.53,-433.96 95.84,-422.5"/>
<polygon fill="black" stroke="black" points="96.74,-425.54 105,-418.9 94.41,-418.94 96.74,-425.54"/>
</g>
<!-- node3 -->
<g id="node4" class="node">
<title>node3</title>
<polygon fill="none" stroke="black" points="606,-474.1 606,-555.7 796,-555.7 796,-474.1 606,-474.1"/>
<text text-anchor="middle" x="701" y="-536.5" font-family="Times,serif" font-size="16.00">3.43322790286038071e&#45;06</text>
<polyline fill="none" stroke="black" points="606,-528.5 796,-528.5"/>
<text text-anchor="middle" x="701" y="-509.3" font-family="Times,serif" font-size="16.00">44.79998779296875</text>
<polyline fill="none" stroke="black" points="606,-501.3 796,-501.3"/>
<text text-anchor="middle" x="701" y="-482.1" font-family="Times,serif" font-size="16.00">0</text>
</g>
<!-- node1&#45;&gt;node3 -->
<g id="2" class="edge">
<title>node1:f0&#45;&gt;node3:f0</title>
<path fill="none" stroke="black" d="M195,-546.9C213.09,-546.9 213.44,-561.55 231,-565.9 269.4,-575.41 280.46,-567.09 320,-565.9 431.26,-562.57 459.98,-567.8 570,-550.9 581.97,-549.06 586.88,-545.07 595.18,-543.08"/>
<polygon fill="black" stroke="black" points="595.44,-546.46 605,-541.9 594.68,-539.5 595.44,-546.46"/>
</g>
<!-- node4 -->
<g id="node5" class="node">
<title>node4</title>
<polygon fill="none" stroke="black" points="231,-424.5 231,-533.3 320,-533.3 320,-424.5 231,-424.5"/>
<text text-anchor="middle" x="275.5" y="-514.1" font-family="Times,serif" font-size="16.00">0xf7fc4380</text>
<polyline fill="none" stroke="black" points="231,-506.1 320,-506.1"/>
<text text-anchor="middle" x="275.5" y="-486.9" font-family="Times,serif" font-size="16.00"> </text>
<polyline fill="none" stroke="black" points="231,-478.9 320,-478.9"/>
<text text-anchor="middle" x="275.5" y="-459.7" font-family="Times,serif" font-size="16.00"> </text>
<polyline fill="none" stroke="black" points="231,-451.7 320,-451.7"/>
<text text-anchor="middle" x="275.5" y="-432.5" font-family="Times,serif" font-size="16.00">2</text>
</g>
<!-- node1&#45;&gt;node4 -->
<g id="3" class="edge">
<title>node1:f1&#45;&gt;node4:f0</title>
<path fill="none" stroke="black" d="M195,-519.9C206.62,-519.9 211.92,-519.9 220.08,-519.9"/>
<polygon fill="black" stroke="black" points="220,-523.4 230,-519.9 220,-516.4 220,-523.4"/>
</g>
<!-- node5 -->
<g id="node6" class="node">
<title>node5</title>
<polygon fill="none" stroke="black" points="248.5,-74.5 248.5,-183.3 302.5,-183.3 302.5,-74.5 248.5,-74.5"/>
<text text-anchor="middle" x="275.5" y="-164.1" font-family="Times,serif" font-size="16.00">(nil)</text>
<polyline fill="none" stroke="black" points="248.5,-156.1 302.5,-156.1"/>
<text text-anchor="middle" x="275.5" y="-136.9" font-family="Times,serif" font-size="16.00"> </text>
<polyline fill="none" stroke="black" points="248.5,-128.9 302.5,-128.9"/>
<text text-anchor="middle" x="275.5" y="-109.7" font-family="Times,serif" font-size="16.00"> </text>
<polyline fill="none" stroke="black" points="248.5,-101.7 302.5,-101.7"/>
<text text-anchor="middle" x="275.5" y="-82.5" font-family="Times,serif" font-size="16.00">&#45;1</text>
</g>
<!-- node1&#45;&gt;node5 -->
<g id="4" class="edge">
<title>node1:f2&#45;&gt;node5:f0</title>
<path fill="none" stroke="black" d="M195,-491.9C260.82,-491.9 188.9,-248.5 231,-197.9 240.63,-186.32 259.76,-195.12 269.5,-192.85"/>
<polygon fill="black" stroke="black" points="272.84,-195.15 275.5,-184.9 267.02,-191.26 272.84,-195.15"/>
</g>
<!-- node4&#45;&gt;node3 -->
<g id="5" class="edge">
<title>node4:f0&#45;&gt;node3:f0</title>
<path fill="none" stroke="black" d="M320,-519.9C443.75,-519.9 476.61,-540.63 595.04,-541.84"/>
<polygon fill="black" stroke="black" points="594.98,-545.35 605,-541.9 595.02,-538.35 594.98,-545.35"/>
</g>
<!-- node6 -->
<g id="node7" class="node">
<title>node6</title>
<polygon fill="none" stroke="black" points="356,-397.5 356,-506.3 445,-506.3 445,-397.5 356,-397.5"/>
<text text-anchor="middle" x="400.5" y="-487.1" font-family="Times,serif" font-size="16.00">0xf7fc4380</text>
<polyline fill="none" stroke="black" points="356,-479.1 445,-479.1"/>
<text text-anchor="middle" x="400.5" y="-459.9" font-family="Times,serif" font-size="16.00"> </text>
<polyline fill="none" stroke="black" points="356,-451.9 445,-451.9"/>
<text text-anchor="middle" x="400.5" y="-432.7" font-family="Times,serif" font-size="16.00"> </text>
<polyline fill="none" stroke="black" points="356,-424.7 445,-424.7"/>
<text text-anchor="middle" x="400.5" y="-405.5" font-family="Times,serif" font-size="16.00">1</text>
</g>
<!-- node4&#45;&gt;node6 -->
<g id="6" class="edge">
<title>node4:f1&#45;&gt;node6:f0</title>
<path fill="none" stroke="black" d="M320,-492.9C331.62,-492.9 336.92,-492.9 345.08,-492.9"/>
<polygon fill="black" stroke="black" points="345,-496.4 355,-492.9 345,-489.4 345,-496.4"/>
</g>
<!-- node10 -->
<g id="node11" class="node">
<title>node10</title>
<polygon fill="none" stroke="black" points="373.5,-240.5 373.5,-349.3 427.5,-349.3 427.5,-240.5 373.5,-240.5"/>
<text text-anchor="middle" x="400.5" y="-330.1" font-family="Times,serif" font-size="16.00">(nil)</text>
<polyline fill="none" stroke="black" points="373.5,-322.1 427.5,-322.1"/>
<text text-anchor="middle" x="400.5" y="-302.9" font-family="Times,serif" font-size="16.00"> </text>
<polyline fill="none" stroke="black" points="373.5,-294.9 427.5,-294.9"/>
<text text-anchor="middle" x="400.5" y="-275.7" font-family="Times,serif" font-size="16.00"> </text>
<polyline fill="none" stroke="black" points="373.5,-267.7 427.5,-267.7"/>
<text text-anchor="middle" x="400.5" y="-248.5" font-family="Times,serif" font-size="16.00">&#45;1</text>
</g>
<!-- node4&#45;&gt;node10 -->
<g id="7" class="edge">
<title>node4:f2&#45;&gt;node10:f0</title>
<path fill="none" stroke="black" d="M320,-464.9C377.79,-464.9 319.48,-352.46 361.85,-337.53"/>
<polygon fill="black" stroke="black" points="362.15,-340.87 371.5,-335.9 361.09,-333.95 362.15,-340.87"/>
</g>
<!-- node6&#45;&gt;node3 -->
<g id="8" class="edge">
<title>node6:f0&#45;&gt;node3:f0</title>
<path fill="none" stroke="black" d="M445,-492.9C453.07,-492.9 560.23,-529.42 595.39,-539.4"/>
<polygon fill="black" stroke="black" points="594.46,-543.02 605,-541.9 596.07,-536.2 594.46,-543.02"/>
</g>
<!-- node7 -->
<g id="node8" class="node">
<title>node7</title>
<polygon fill="none" stroke="black" points="481,-384.5 481,-493.3 570,-493.3 570,-384.5 481,-384.5"/>
<text text-anchor="middle" x="525.5" y="-474.1" font-family="Times,serif" font-size="16.00">0xf7fc4380</text>
<polyline fill="none" stroke="black" points="481,-466.1 570,-466.1"/>
<text text-anchor="middle" x="525.5" y="-446.9" font-family="Times,serif" font-size="16.00"> </text>
<polyline fill="none" stroke="black" points="481,-438.9 570,-438.9"/>
<text text-anchor="middle" x="525.5" y="-419.7" font-family="Times,serif" font-size="16.00"> </text>
<polyline fill="none" stroke="black" points="481,-411.7 570,-411.7"/>
<text text-anchor="middle" x="525.5" y="-392.5" font-family="Times,serif" font-size="16.00">2</text>
</g>
<!-- node6&#45;&gt;node7 -->
<g id="9" class="edge">
<title>node6:f1&#45;&gt;node7:f0</title>
<path fill="none" stroke="black" d="M445,-465.9C457.74,-465.9 461.94,-473.61 470.28,-477.59"/>
<polygon fill="black" stroke="black" points="469.49,-481.21 480,-479.9 470.96,-474.37 469.49,-481.21"/>
</g>
<!-- node9 -->
<g id="node10" class="node">
<title>node9</title>
<polygon fill="none" stroke="black" points="498.5,-256.5 498.5,-365.3 552.5,-365.3 552.5,-256.5 498.5,-256.5"/>
<text text-anchor="middle" x="525.5" y="-346.1" font-family="Times,serif" font-size="16.00">(nil)</text>
<polyline fill="none" stroke="black" points="498.5,-338.1 552.5,-338.1"/>
<text text-anchor="middle" x="525.5" y="-318.9" font-family="Times,serif" font-size="16.00"> </text>
<polyline fill="none" stroke="black" points="498.5,-310.9 552.5,-310.9"/>
<text text-anchor="middle" x="525.5" y="-291.7" font-family="Times,serif" font-size="16.00"> </text>
<polyline fill="none" stroke="black" points="498.5,-283.7 552.5,-283.7"/>
<text text-anchor="middle" x="525.5" y="-264.5" font-family="Times,serif" font-size="16.00">&#45;1</text>
</g>
<!-- node6&#45;&gt;node9 -->
<g id="10" class="edge">
<title>node6:f2&#45;&gt;node9:f0</title>
<path fill="none" stroke="black" d="M445,-437.9C485.58,-437.9 458.95,-367.27 486.93,-354.03"/>
<polygon fill="black" stroke="black" points="487.39,-357.3 496.5,-351.9 486.01,-350.44 487.39,-357.3"/>
</g>
<!-- node7&#45;&gt;node1 -->
<g id="12" class="edge">
<title>node7:f1&#45;&gt;node1:f0</title>
<path fill="none" stroke="black" d="M481,-452.9C448.75,-452.9 471.02,-496.84 445,-515.9 357.68,-579.86 310.18,-549.12 205.94,-547.01"/>
<polygon fill="black" stroke="black" points="206.04,-543.5 196,-546.9 205.96,-550.5 206.04,-543.5"/>
</g>
<!-- node7&#45;&gt;node3 -->
<g id="11" class="edge">
<title>node7:f0&#45;&gt;node3:f0</title>
<path fill="none" stroke="black" d="M570,-479.9C597.38,-479.9 580.76,-525.69 595.76,-538.57"/>
<polygon fill="black" stroke="black" points="594.41,-542.13 605,-541.9 596.57,-535.48 594.41,-542.13"/>
</g>
<!-- node8 -->
<g id="node9" class="node">
<title>node8</title>
<polygon fill="none" stroke="black" points="674,-329.5 674,-438.3 728,-438.3 728,-329.5 674,-329.5"/>
<text text-anchor="middle" x="701" y="-419.1" font-family="Times,serif" font-size="16.00">(nil)</text>
<polyline fill="none" stroke="black" points="674,-411.1 728,-411.1"/>
<text text-anchor="middle" x="701" y="-391.9" font-family="Times,serif" font-size="16.00"> </text>
<polyline fill="none" stroke="black" points="674,-383.9 728,-383.9"/>
<text text-anchor="middle" x="701" y="-364.7" font-family="Times,serif" font-size="16.00"> </text>
<polyline fill="none" stroke="black" points="674,-356.7 728,-356.7"/>
<text text-anchor="middle" x="701" y="-337.5" font-family="Times,serif" font-size="16.00">&#45;1</text>
</g>
<!-- node7&#45;&gt;node8 -->
<g id="13" class="edge">
<title>node7:f2&#45;&gt;node8:f0</title>
<path fill="none" stroke="black" d="M570,-424.9C612.02,-424.9 625.11,-424.9 662.39,-424.9"/>
<polygon fill="black" stroke="black" points="662,-428.4 672,-424.9 662,-421.4 662,-428.4"/>
</g>
<!-- node11 -->
<g id="node12" class="node">
<title>node11</title>
<polygon fill="none" stroke="black" points="498.5,-128.5 498.5,-237.3 552.5,-237.3 552.5,-128.5 498.5,-128.5"/>
<text text-anchor="middle" x="525.5" y="-218.1" font-family="Times,serif" font-size="16.00">(nil)</text>
<polyline fill="none" stroke="black" points="498.5,-210.1 552.5,-210.1"/>
<text text-anchor="middle" x="525.5" y="-190.9" font-family="Times,serif" font-size="16.00"> </text>
<polyline fill="none" stroke="black" points="498.5,-182.9 552.5,-182.9"/>
<text text-anchor="middle" x="525.5" y="-163.7" font-family="Times,serif" font-size="16.00"> </text>
<polyline fill="none" stroke="black" points="498.5,-155.7 552.5,-155.7"/>
<text text-anchor="middle" x="525.5" y="-136.5" font-family="Times,serif" font-size="16.00">&#45;1</text>
</g>
<!-- node10&#45;&gt;node11 -->
<g id="14" class="edge">
<title>node10:f1&#45;&gt;node11:f0</title>
<path fill="none" stroke="black" d="M428.5,-308.9C473.17,-308.9 452.97,-237.27 486.99,-225.52"/>
<polygon fill="black" stroke="black" points="487.15,-228.89 496.5,-223.9 486.08,-221.97 487.15,-228.89"/>
</g>
<!-- node12 -->
<g id="node13" class="node">
<title>node12</title>
<polygon fill="none" stroke="black" points="481.5,-0.5 481.5,-109.3 569.5,-109.3 569.5,-0.5 481.5,-0.5"/>
<text text-anchor="middle" x="525.5" y="-90.1" font-family="Times,serif" font-size="16.00">0xf7fc43e0</text>
<polyline fill="none" stroke="black" points="481.5,-82.1 569.5,-82.1"/>
<text text-anchor="middle" x="525.5" y="-62.9" font-family="Times,serif" font-size="16.00"> </text>
<polyline fill="none" stroke="black" points="481.5,-54.9 569.5,-54.9"/>
<text text-anchor="middle" x="525.5" y="-35.7" font-family="Times,serif" font-size="16.00"> </text>
<polyline fill="none" stroke="black" points="481.5,-27.7 569.5,-27.7"/>
<text text-anchor="middle" x="525.5" y="-8.5" font-family="Times,serif" font-size="16.00">1</text>
</g>
<!-- node10&#45;&gt;node12 -->
<g id="15" class="edge">
<title>node10:f2&#45;&gt;node12:f0</title>
<path fill="none" stroke="black" d="M428.5,-280.9C509.96,-280.9 406.19,-112.84 470.28,-97.08"/>
<polygon fill="black" stroke="black" points="470.44,-100.47 480,-95.9 469.68,-93.52 470.44,-100.47"/>
</g>
<!-- node11&#45;&gt;node1 -->
<g id="16" class="edge">
<title>node11:f2&#45;&gt;node1:f0</title>
<path fill="none" stroke="black" d="M497.5,-168.9C336.31,-168.9 298.41,-268.48 231,-414.9 207.26,-466.47 249.47,-536.8 205.7,-545.91"/>
<polygon fill="black" stroke="black" points="205.64,-542.5 196,-546.9 206.28,-549.47 205.64,-542.5"/>
</g>
</g>
</svg>
