<?xml version="1.0" encoding="us-ascii" standalone="no"?><svg xmlns="http://www.w3.org/2000/svg" xmlns:xlink="http://www.w3.org/1999/xlink" contentStyleType="text/css" height="262px" preserveAspectRatio="none" style="width:270px;height:262px;background:#FFFFFF;" version="1.1" viewBox="0 0 270 262" width="270px" zoomAndPan="magnify"><defs><filter height="300%" id="f8ck1ndp102tm" width="300%" x="-1" y="-1"><feGaussianBlur result="blurOut" stdDeviation="2.0"/><feColorMatrix in="blurOut" result="blurOut2" type="matrix" values="0 0 0 0 0 0 0 0 0 0 0 0 0 0 0 0 0 0 .4 0"/><feOffset dx="4.0" dy="4.0" in="blurOut2" result="blurOut3"/><feBlend in="SourceGraphic" in2="blurOut3" mode="normal"/></filter></defs><g><rect fill="#FFBBBB" filter="url(#f8ck1ndp102tm)" height="129.5313" style="stroke:#A80036;stroke-width:1.0;" width="10" x="98" y="71.4297"/><rect fill="#E9967A" filter="url(#f8ck1ndp102tm)" height="63.2656" style="stroke:#A80036;stroke-width:1.0;" width="10" x="103" y="108.5625"/><rect fill="#FFFFFF" filter="url(#f8ck1ndp102tm)" height="29.1328" style="stroke:#A80036;stroke-width:1.0;" width="10" x="241" y="142.6953"/><line style="stroke:#A80036;stroke-width:1.0;stroke-dasharray:5.0,5.0;" x1="30" x2="30" y1="40.2969" y2="218.9609"/><line style="stroke:#A80036;stroke-width:1.0;stroke-dasharray:5.0,5.0;" x1="102.5" x2="102.5" y1="40.2969" y2="218.9609"/><line style="stroke:#A80036;stroke-width:1.0;stroke-dasharray:5.0,5.0;" x1="246" x2="246" y1="40.2969" y2="218.9609"/><rect fill="#FEFECE" filter="url(#f8ck1ndp102tm)" height="30.2969" style="stroke:#A80036;stroke-width:1.5;" width="46" x="5" y="5"/><text fill="#000000" font-family="sans-serif" font-size="14" lengthAdjust="spacing" textLength="32" x="12" y="24.9951">User</text><rect fill="#FEFECE" filter="url(#f8ck1ndp102tm)" height="30.2969" style="stroke:#A80036;stroke-width:1.5;" width="46" x="5" y="217.9609"/><text fill="#000000" font-family="sans-serif" font-size="14" lengthAdjust="spacing" textLength="32" x="12" y="237.9561">User</text><rect fill="#FEFECE" filter="url(#f8ck1ndp102tm)" height="30.2969" style="stroke:#A80036;stroke-width:1.5;" width="23" x="89.5" y="5"/><text fill="#000000" font-family="sans-serif" font-size="14" lengthAdjust="spacing" textLength="9" x="96.5" y="24.9951">A</text><rect fill="#FEFECE" filter="url(#f8ck1ndp102tm)" height="30.2969" style="stroke:#A80036;stroke-width:1.5;" width="23" x="89.5" y="217.9609"/><text fill="#000000" font-family="sans-serif" font-size="14" lengthAdjust="spacing" textLength="9" x="96.5" y="237.9561">A</text><rect fill="#FEFECE" filter="url(#f8ck1ndp102tm)" height="30.2969" style="stroke:#A80036;stroke-width:1.5;" width="24" x="232" y="5"/><text fill="#000000" font-family="sans-serif" font-size="14" lengthAdjust="spacing" textLength="10" x="239" y="24.9951">B</text><rect fill="#FEFECE" filter="url(#f8ck1ndp102tm)" height="30.2969" style="stroke:#A80036;stroke-width:1.5;" width="24" x="232" y="217.9609"/><text fill="#000000" font-family="sans-serif" font-size="14" lengthAdjust="spacing" textLength="10" x="239" y="237.9561">B</text><rect fill="#FFBBBB" filter="url(#f8ck1ndp102tm)" height="129.5313" style="stroke:#A80036;stroke-width:1.0;" width="10" x="98" y="71.4297"/><rect fill="#E9967A" filter="url(#f8ck1ndp102tm)" height="63.2656" style="stroke:#A80036;stroke-width:1.0;" width="10" x="103" y="108.5625"/><rect fill="#FFFFFF" filter="url(#f8ck1ndp102tm)" height="29.1328" style="stroke:#A80036;stroke-width:1.0;" width="10" x="241" y="142.6953"/><polygon fill="#A80036" points="86,67.4297,96,71.4297,86,75.4297,90,71.4297" style="stroke:#A80036;stroke-width:1.0;"/><line style="stroke:#A80036;stroke-width:1.0;" x1="30" x2="92" y1="71.4297" y2="71.4297"/><text fill="#000000" font-family="sans-serif" font-size="13" lengthAdjust="spacing" textLength="49" x="37" y="66.3638">DoWork</text><line style="stroke:#A80036;stroke-width:1.0;" x1="108" x2="155" y1="95.5625" y2="95.5625"/><line style="stroke:#A80036;stroke-width:1.0;" x1="155" x2="155" y1="95.5625" y2="108.5625"/><line style="stroke:#A80036;stroke-width:1.0;" x1="114" x2="155" y1="108.5625" y2="108.5625"/><polygon fill="#A80036" points="124,104.5625,114,108.5625,124,112.5625,120,108.5625" style="stroke:#A80036;stroke-width:1.0;"/><text fill="#000000" font-family="sans-serif" font-size="13" lengthAdjust="spacing" textLength="73" x="120" y="90.4966">Internal call</text><polygon fill="#A80036" points="229,138.6953,239,142.6953,229,146.6953,233,142.6953" style="stroke:#A80036;stroke-width:1.0;"/><line style="stroke:#A80036;stroke-width:1.0;" x1="113" x2="235" y1="142.6953" y2="142.6953"/><text fill="#000000" font-family="sans-serif" font-size="13" lengthAdjust="spacing" textLength="109" x="120" y="137.6294">&#171;createRequest&#187;</text><polygon fill="#A80036" points="119,167.8281,109,171.8281,119,175.8281,115,171.8281" style="stroke:#A80036;stroke-width:1.0;"/><line style="stroke:#A80036;stroke-width:1.0;stroke-dasharray:2.0,2.0;" x1="113" x2="245" y1="171.8281" y2="171.8281"/><text fill="#000000" font-family="sans-serif" font-size="13" lengthAdjust="spacing" textLength="103" x="125" y="166.7622">RequestCreated</text><polygon fill="#A80036" points="41,196.9609,31,200.9609,41,204.9609,37,200.9609" style="stroke:#A80036;stroke-width:1.0;"/><line style="stroke:#A80036;stroke-width:1.0;" x1="35" x2="102" y1="200.9609" y2="200.9609"/><text fill="#000000" font-family="sans-serif" font-size="13" lengthAdjust="spacing" textLength="34" x="47" y="195.895">Done</text><!--SRC=[LOx12i8m38RlUOg0vxt068FMCV2gYEVGvL1QsvbMdz_M5Tno28J_oyUVd0qeCJ6i9DaQkrB8U4yi07LZDwBgSOgFA0x8PFkXpAZmDC-w381go2Laba0U3Nb_82SIToF_ZA7HkiTXG2DSW2k_tfmoZkF_frWrTfksvUSVlC32EsftgCrSAzUsWG_X5m00]--></g></svg>