<svg xmlns="http://www.w3.org/2000/svg" xmlns:xlink="http://www.w3.org/1999/xlink" version="1.1" class="marks" width="938" height="432" viewBox="0 0 938 432"><rect width="938" height="432" fill="white"/><g fill="none" stroke-miterlimit="10" transform="translate(32,10)"><g class="mark-group role-frame root" role="graphics-object" aria-roledescription="group mark container"><g transform="translate(0,0)"><path class="background" aria-hidden="true" d="M0.5,0.5h900v400h-900Z"/><g><g class="mark-group role-axis" aria-hidden="true"><g transform="translate(0.5,400.5)"><path class="background" aria-hidden="true" d="M0,0h0v0h0Z" pointer-events="none"/><g><g class="mark-rule role-axis-grid" pointer-events="none"><line transform="translate(0,-400)" x2="0" y2="400" stroke="white" stroke-opacity="0.25" stroke-width="1" opacity="1"/><line transform="translate(225,-400)" x2="0" y2="400" stroke="white" stroke-opacity="0.25" stroke-width="1" opacity="1"/><line transform="translate(450,-400)" x2="0" y2="400" stroke="white" stroke-opacity="0.25" stroke-width="1" opacity="1"/><line transform="translate(675,-400)" x2="0" y2="400" stroke="white" stroke-opacity="0.25" stroke-width="1" opacity="1"/><line transform="translate(900,-400)" x2="0" y2="400" stroke="white" stroke-opacity="0.25" stroke-width="1" opacity="1"/></g></g><path class="foreground" aria-hidden="true" d="" pointer-events="none" display="none"/></g></g><g class="mark-group role-axis" role="graphics-symbol" aria-roledescription="axis" aria-label="X-axis for a linear scale with values from 0 to 2000"><g transform="translate(0.5,400.5)"><path class="background" aria-hidden="true" d="M0,0h0v0h0Z" pointer-events="none"/><g><g class="mark-rule role-axis-tick" pointer-events="none"><line transform="translate(0,0)" x2="0" y2="5" stroke="#888" stroke-width="1" opacity="1"/><line transform="translate(225,0)" x2="0" y2="5" stroke="#888" stroke-width="1" opacity="1"/><line transform="translate(450,0)" x2="0" y2="5" stroke="#888" stroke-width="1" opacity="1"/><line transform="translate(675,0)" x2="0" y2="5" stroke="#888" stroke-width="1" opacity="1"/><line transform="translate(900,0)" x2="0" y2="5" stroke="#888" stroke-width="1" opacity="1"/></g><g class="mark-text role-axis-label" pointer-events="none"><text text-anchor="start" transform="translate(0,15)" font-family="sans-serif" font-size="10px" fill="#000" opacity="1">0</text><text text-anchor="middle" transform="translate(225,15)" font-family="sans-serif" font-size="10px" fill="#000" opacity="1">500</text><text text-anchor="middle" transform="translate(450,15)" font-family="sans-serif" font-size="10px" fill="#000" opacity="1">1000</text><text text-anchor="middle" transform="translate(675,15)" font-family="sans-serif" font-size="10px" fill="#000" opacity="1">1500</text><text text-anchor="end" transform="translate(900,15)" font-family="sans-serif" font-size="10px" fill="#000" opacity="1">2000</text></g></g><path class="foreground" aria-hidden="true" d="" pointer-events="none" display="none"/></g></g><g class="mark-rect role-mark layer_0_marks" role="graphics-object" aria-roledescription="rect mark container"><path aria-label="year: 1565; wheat: 41; year_end: 1570" role="graphics-symbol" aria-roledescription="bar" d="M704.25,248.40909090909088h2.25v5h-2.25Z" fill="#aaa" stroke="#999"/><path aria-label="year: 1570; wheat: 45; year_end: 1575" role="graphics-symbol" aria-roledescription="bar" d="M706.5,233.86363636363632h2.25v5h-2.25Z" fill="#aaa" stroke="#999"/><path aria-label="year: 1575; wheat: 42; year_end: 1580" role="graphics-symbol" aria-roledescription="bar" d="M708.75,244.77272727272725h2.25v5h-2.25Z" fill="#aaa" stroke="#999"/><path aria-label="year: 1580; wheat: 49; year_end: 1585" role="graphics-symbol" aria-roledescription="bar" d="M711,219.3181818181818h2.25v5h-2.25Z" fill="#aaa" stroke="#999"/><path aria-label="year: 1585; wheat: 41.5; year_end: 1590" role="graphics-symbol" aria-roledescription="bar" d="M713.25,246.59090909090912h2.25v5h-2.25Z" fill="#aaa" stroke="#999"/><path aria-label="year: 1590; wheat: 47; year_end: 1595" role="graphics-symbol" aria-roledescription="bar" d="M715.5,226.5909090909091h2.25v5h-2.25Z" fill="#aaa" stroke="#999"/><path aria-label="year: 1595; wheat: 64; year_end: 1600" role="graphics-symbol" aria-roledescription="bar" d="M717.75,164.77272727272728h2.25v5h-2.25Z" fill="#aaa" stroke="#999"/><path aria-label="year: 1600; wheat: 27; year_end: 1605" role="graphics-symbol" aria-roledescription="bar" d="M720,299.3181818181818h2.25v5h-2.25Z" fill="#aaa" stroke="#999"/><path aria-label="year: 1605; wheat: 33; year_end: 1610" role="graphics-symbol" aria-roledescription="bar" d="M722.25,277.5h2.25v5h-2.25Z" fill="#aaa" stroke="#999"/><path aria-label="year: 1610; wheat: 32; year_end: 1615" role="graphics-symbol" aria-roledescription="bar" d="M724.5,281.1363636363636h2.25v5h-2.25Z" fill="#aaa" stroke="#999"/><path aria-label="year: 1615; wheat: 33; year_end: 1620" role="graphics-symbol" aria-roledescription="bar" d="M726.75,277.5h2.25v5h-2.25Z" fill="#aaa" stroke="#999"/><path aria-label="year: 1620; wheat: 35; year_end: 1625" role="graphics-symbol" aria-roledescription="bar" d="M729,270.22727272727275h2.25v5h-2.25Z" fill="#aaa" stroke="#999"/><path aria-label="year: 1625; wheat: 33; year_end: 1630" role="graphics-symbol" aria-roledescription="bar" d="M731.25,277.5h2.25v5h-2.25Z" fill="#aaa" stroke="#999"/><path aria-label="year: 1630; wheat: 45; year_end: 1635" role="graphics-symbol" aria-roledescription="bar" d="M733.5,233.86363636363632h2.25v5h-2.25Z" fill="#aaa" stroke="#999"/><path aria-label="year: 1635; wheat: 33; year_end: 1640" role="graphics-symbol" aria-roledescription="bar" d="M735.75,277.5h2.25v5h-2.25Z" fill="#aaa" stroke="#999"/><path aria-label="year: 1640; wheat: 39; year_end: 1645" role="graphics-symbol" aria-roledescription="bar" d="M738,255.6818181818182h2.25v5h-2.25Z" fill="#aaa" stroke="#999"/><path aria-label="year: 1645; wheat: 53; year_end: 1650" role="graphics-symbol" aria-roledescription="bar" d="M740.25,204.77272727272728h2.25v5h-2.25Z" fill="#aaa" stroke="#999"/><path aria-label="year: 1650; wheat: 42; year_end: 1655" role="graphics-symbol" aria-roledescription="bar" d="M742.5,244.77272727272725h2.25v5h-2.25Z" fill="#aaa" stroke="#999"/><path aria-label="year: 1655; wheat: 40.5; year_end: 1660" role="graphics-symbol" aria-roledescription="bar" d="M744.75,250.22727272727275h2.25v5h-2.25Z" fill="#aaa" stroke="#999"/><path aria-label="year: 1660; wheat: 46.5; year_end: 1665" role="graphics-symbol" aria-roledescription="bar" d="M747,228.4090909090909h2.25v5h-2.25Z" fill="#aaa" stroke="#999"/><path aria-label="year: 1665; wheat: 32; year_end: 1670" role="graphics-symbol" aria-roledescription="bar" d="M749.25,281.1363636363636h2.25v5h-2.25Z" fill="#aaa" stroke="#999"/><path aria-label="year: 1670; wheat: 37; year_end: 1675" role="graphics-symbol" aria-roledescription="bar" d="M751.5,262.95454545454544h2.25v5h-2.25Z" fill="#aaa" stroke="#999"/><path aria-label="year: 1675; wheat: 43; year_end: 1680" role="graphics-symbol" aria-roledescription="bar" d="M753.75,241.13636363636365h2.25v5h-2.25Z" fill="#aaa" stroke="#999"/><path aria-label="year: 1680; wheat: 35; year_end: 1685" role="graphics-symbol" aria-roledescription="bar" d="M756,270.22727272727275h2.25v5h-2.25Z" fill="#aaa" stroke="#999"/><path aria-label="year: 1685; wheat: 27; year_end: 1690" role="graphics-symbol" aria-roledescription="bar" d="M758.25,299.3181818181818h2.25v5h-2.25Z" fill="#aaa" stroke="#999"/><path aria-label="year: 1690; wheat: 40; year_end: 1695" role="graphics-symbol" aria-roledescription="bar" d="M760.5,252.04545454545453h2.25v5h-2.25Z" fill="#aaa" stroke="#999"/><path aria-label="year: 1695; wheat: 50; year_end: 1700" role="graphics-symbol" aria-roledescription="bar" d="M762.75,215.68181818181816h2.25v5h-2.25Z" fill="#aaa" stroke="#999"/><path aria-label="year: 1700; wheat: 30; year_end: 1705" role="graphics-symbol" aria-roledescription="bar" d="M765,288.40909090909093h2.25v5h-2.25Z" fill="#aaa" stroke="#999"/><path aria-label="year: 1705; wheat: 32; year_end: 1710" role="graphics-symbol" aria-roledescription="bar" d="M767.25,281.1363636363636h2.25v5h-2.25Z" fill="#aaa" stroke="#999"/><path aria-label="year: 1710; wheat: 44; year_end: 1715" role="graphics-symbol" aria-roledescription="bar" d="M769.5,237.5h2.25v5h-2.25Z" fill="#aaa" stroke="#999"/><path aria-label="year: 1715; wheat: 33; year_end: 1720" role="graphics-symbol" aria-roledescription="bar" d="M771.75,277.5h2.25v5h-2.25Z" fill="#aaa" stroke="#999"/><path aria-label="year: 1720; wheat: 29; year_end: 1725" role="graphics-symbol" aria-roledescription="bar" d="M774,292.0454545454545h2.25v5h-2.25Z" fill="#aaa" stroke="#999"/><path aria-label="year: 1725; wheat: 39; year_end: 1730" role="graphics-symbol" aria-roledescription="bar" d="M776.25,255.6818181818182h2.25v5h-2.25Z" fill="#aaa" stroke="#999"/><path aria-label="year: 1730; wheat: 26; year_end: 1735" role="graphics-symbol" aria-roledescription="bar" d="M778.5,302.9545454545455h2.25v5h-2.25Z" fill="#aaa" stroke="#999"/><path aria-label="year: 1735; wheat: 32; year_end: 1740" role="graphics-symbol" aria-roledescription="bar" d="M780.75,281.1363636363636h2.25v5h-2.25Z" fill="#aaa" stroke="#999"/><path aria-label="year: 1740; wheat: 27; year_end: 1745" role="graphics-symbol" aria-roledescription="bar" d="M783,299.3181818181818h2.25v5h-2.25Z" fill="#aaa" stroke="#999"/><path aria-label="year: 1745; wheat: 27.5; year_end: 1750" role="graphics-symbol" aria-roledescription="bar" d="M785.25,297.5h2.25v5h-2.25Z" fill="#aaa" stroke="#999"/><path aria-label="year: 1750; wheat: 31; year_end: 1755" role="graphics-symbol" aria-roledescription="bar" d="M787.5,284.7727272727273h2.25v5h-2.25Z" fill="#aaa" stroke="#999"/><path aria-label="year: 1755; wheat: 35.5; year_end: 1760" role="graphics-symbol" aria-roledescription="bar" d="M789.75,268.4090909090909h2.25v5h-2.25Z" fill="#aaa" stroke="#999"/><path aria-label="year: 1760; wheat: 31; year_end: 1765" role="graphics-symbol" aria-roledescription="bar" d="M792,284.7727272727273h2.25v5h-2.25Z" fill="#aaa" stroke="#999"/><path aria-label="year: 1765; wheat: 43; year_end: 1770" role="graphics-symbol" aria-roledescription="bar" d="M794.25,241.13636363636365h2.25v5h-2.25Z" fill="#aaa" stroke="#999"/><path aria-label="year: 1770; wheat: 47; year_end: 1775" role="graphics-symbol" aria-roledescription="bar" d="M796.5,226.5909090909091h2.25v5h-2.25Z" fill="#aaa" stroke="#999"/><path aria-label="year: 1775; wheat: 44; year_end: 1780" role="graphics-symbol" aria-roledescription="bar" d="M798.75,237.5h2.25v5h-2.25Z" fill="#aaa" stroke="#999"/><path aria-label="year: 1780; wheat: 46; year_end: 1785" role="graphics-symbol" aria-roledescription="bar" d="M801,230.22727272727272h2.25v5h-2.25Z" fill="#aaa" stroke="#999"/><path aria-label="year: 1785; wheat: 42; year_end: 1790" role="graphics-symbol" aria-roledescription="bar" d="M803.25,244.77272727272725h2.25v5h-2.25Z" fill="#aaa" stroke="#999"/><path aria-label="year: 1790; wheat: 47.5; year_end: 1795" role="graphics-symbol" aria-roledescription="bar" d="M805.5,224.77272727272725h2.25v5h-2.25Z" fill="#aaa" stroke="#999"/><path aria-label="year: 1795; wheat: 76; year_end: 1800" role="graphics-symbol" aria-roledescription="bar" d="M807.75,121.13636363636363h2.25v5h-2.25Z" fill="#aaa" stroke="#999"/><path aria-label="year: 1800; wheat: 79; year_end: 1805" role="graphics-symbol" aria-roledescription="bar" d="M810,110.22727272727275h2.25v5h-2.25Z" fill="#aaa" stroke="#999"/><path aria-label="year: 1805; wheat: 81; year_end: 1810" role="graphics-symbol" aria-roledescription="bar" d="M812.25,102.95454545454547h2.25v5h-2.25Z" fill="#aaa" stroke="#999"/><path aria-label="year: 1810; wheat: 99; year_end: 1815" role="graphics-symbol" aria-roledescription="bar" d="M814.5,37.49999999999999h2.25v5h-2.25Z" fill="#aaa" stroke="#999"/><path aria-label="year: 1815; wheat: 78; year_end: 1820" role="graphics-symbol" aria-roledescription="bar" d="M816.75,113.86363636363636h2.25v5h-2.25Z" fill="#aaa" stroke="#999"/><path aria-label="year: 1820; wheat: 54; year_end: 1825" role="graphics-symbol" aria-roledescription="bar" d="M819,201.13636363636363h2.25v5h-2.25Z" fill="#aaa" stroke="#999"/></g><g class="mark-rule role-mark layer_1_marks" role="graphics-object" aria-roledescription="rule mark container"><line aria-label="year: 1600" role="graphics-symbol" aria-roledescription="rule mark" transform="translate(720,0)" x2="0" y2="400" stroke="#000" stroke-width="0.6" opacity="0.5"/><line aria-label="year: 1650" role="graphics-symbol" aria-roledescription="rule mark" transform="translate(742.5,0)" x2="0" y2="400" stroke="#000" stroke-width="0.6" opacity="0.5"/><line aria-label="year: 1700" role="graphics-symbol" aria-roledescription="rule mark" transform="translate(765,0)" x2="0" y2="400" stroke="#000" stroke-width="0.6" opacity="0.5"/><line aria-label="year: 1750" role="graphics-symbol" aria-roledescription="rule mark" transform="translate(787.5,0)" x2="0" y2="400" stroke="#000" stroke-width="0.6" opacity="0.5"/><line aria-label="year: 1800" role="graphics-symbol" aria-roledescription="rule mark" transform="translate(810,0)" x2="0" y2="400" stroke="#000" stroke-width="0.6" opacity="0.5"/></g><g class="mark-area role-mark layer_2_marks" role="graphics-object" aria-roledescription="area mark container"><path aria-label="year: 1565; wages: 5" role="graphics-symbol" aria-roledescription="area mark" d="M704.25,381.818L706.5,381.636L708.75,381.527L711,381.382L713.25,381.273L715.5,380.909L717.75,379.855L720,379.6L722.25,379.309L724.5,378.982L726.75,378.4L729,378.145L731.25,377.745L733.5,377.382L735.75,377.091L738,376.836L740.25,376.545L742.5,376.364L744.75,376L747,375.455L749.25,375.273L751.5,374.909L753.75,374.545L756,373.455L758.25,372.364L760.5,370.909L762.75,369.091L765,367.273L767.25,363.636L769.5,360L771.75,357.273L774,354.545L776.25,352.727L778.5,351.636L780.75,350.545L783,349.091L785.25,347.273L787.5,345.455L789.75,342.909L792,340L794.25,336L796.5,332.727L798.75,329.091L801,323.636L803.25,316.364L805.5,307.273L807.75,300L810,296.364L812.25,292.727L814.5,290.909L814.5,400L812.25,400L810,400L807.75,400L805.5,400L803.25,400L801,400L798.75,400L796.5,400L794.25,400L792,400L789.75,400L787.5,400L785.25,400L783,400L780.75,400L778.5,400L776.25,400L774,400L771.75,400L769.5,400L767.25,400L765,400L762.75,400L760.5,400L758.25,400L756,400L753.75,400L751.5,400L749.25,400L747,400L744.75,400L742.5,400L740.25,400L738,400L735.75,400L733.5,400L731.25,400L729,400L726.75,400L724.5,400L722.25,400L720,400L717.75,400L715.5,400L713.25,400L711,400L708.75,400L706.5,400L704.25,400Z" fill="#a4cedb" opacity="0.7"/></g><g class="mark-line role-mark layer_3_marks" role="graphics-object" aria-roledescription="line mark container"><path aria-label="year: 1565; wages: 5" role="graphics-symbol" aria-roledescription="line mark" d="M704.25,381.818L706.5,381.636L708.75,381.527L711,381.382L713.25,381.273L715.5,380.909L717.75,379.855L720,379.6L722.25,379.309L724.5,378.982L726.75,378.4L729,378.145L731.25,377.745L733.5,377.382L735.75,377.091L738,376.836L740.25,376.545L742.5,376.364L744.75,376L747,375.455L749.25,375.273L751.5,374.909L753.75,374.545L756,373.455L758.25,372.364L760.5,370.909L762.75,369.091L765,367.273L767.25,363.636L769.5,360L771.75,357.273L774,354.545L776.25,352.727L778.5,351.636L780.75,350.545L783,349.091L785.25,347.273L787.5,345.455L789.75,342.909L792,340L794.25,336L796.5,332.727L798.75,329.091L801,323.636L803.25,316.364L805.5,307.273L807.75,300L810,296.364L812.25,292.727L814.5,290.909" stroke="#000" stroke-width="2" opacity="0.7"/></g><g class="mark-line role-mark layer_4_marks" role="graphics-object" aria-roledescription="line mark container"><path aria-label="year: 1565; wages: 5" role="graphics-symbol" aria-roledescription="line mark" d="M704.25,379.818L706.5,379.636L708.75,379.527L711,379.382L713.25,379.273L715.5,378.909L717.75,377.855L720,377.6L722.25,377.309L724.5,376.982L726.75,376.4L729,376.145L731.25,375.745L733.5,375.382L735.75,375.091L738,374.836L740.25,374.545L742.5,374.364L744.75,374L747,373.455L749.25,373.273L751.5,372.909L753.75,372.545L756,371.455L758.25,370.364L760.5,368.909L762.75,367.091L765,365.273L767.25,361.636L769.5,358L771.75,355.273L774,352.545L776.25,350.727L778.5,349.636L780.75,348.545L783,347.091L785.25,345.273L787.5,343.455L789.75,340.909L792,338L794.25,334L796.5,330.727L798.75,327.091L801,321.636L803.25,314.364L805.5,305.273L807.75,298L810,294.364L812.25,290.727L814.5,288.909" stroke="#EE8182" stroke-width="2"/></g><g class="mark-rect role-mark layer_5_marks" role="graphics-object" aria-roledescription="rect mark container"><path aria-label="start: 1565; y: 95; end: 1603; offset: 97; commonwealth: undefined" role="graphics-symbol" aria-roledescription="bar" d="M704.25,47.272727272727266h17.100000000000023v7.272727272727273h-17.100000000000023Z" fill="black" stroke="#000"/><path aria-label="start: 1603; y: 95; end: 1625; offset: 93; commonwealth: undefined" role="graphics-symbol" aria-roledescription="bar" d="M721.35,54.54545454545454h9.899999999999977v7.272727272727273h-9.899999999999977Z" fill="black" stroke="#000"/><path aria-label="start: 1625; y: 95; end: 1649; offset: 97; commonwealth: undefined" role="graphics-symbol" aria-roledescription="bar" d="M731.25,47.272727272727266h10.799999999999955v7.272727272727273h-10.799999999999955Z" fill="black" stroke="#000"/><path aria-label="start: 1649; y: 95; end: 1660; offset: 97; commonwealth: true" role="graphics-symbol" aria-roledescription="bar" d="M742.05,47.272727272727266h4.9500000000000455v7.272727272727273h-4.9500000000000455Z" fill="white" stroke="#000"/><path aria-label="start: 1660; y: 95; end: 1685; offset: 97; commonwealth: undefined" role="graphics-symbol" aria-roledescription="bar" d="M747,47.272727272727266h11.25v7.272727272727273h-11.25Z" fill="black" stroke="#000"/><path aria-label="start: 1685; y: 95; end: 1689; offset: 93; commonwealth: undefined" role="graphics-symbol" aria-roledescription="bar" d="M758.25,54.54545454545454h1.8000000000000682v7.272727272727273h-1.8000000000000682Z" fill="black" stroke="#000"/><path aria-label="start: 1689; y: 95; end: 1702; offset: 97; commonwealth: undefined" role="graphics-symbol" aria-roledescription="bar" d="M760.0500000000001,47.272727272727266h5.849999999999909v7.272727272727273h-5.849999999999909Z" fill="black" stroke="#000"/><path aria-label="start: 1702; y: 95; end: 1714; offset: 93; commonwealth: undefined" role="graphics-symbol" aria-roledescription="bar" d="M765.9,54.54545454545454h5.399999999999977v7.272727272727273h-5.399999999999977Z" fill="black" stroke="#000"/><path aria-label="start: 1714; y: 95; end: 1727; offset: 97; commonwealth: undefined" role="graphics-symbol" aria-roledescription="bar" d="M771.3,47.272727272727266h5.850000000000136v7.272727272727273h-5.850000000000136Z" fill="black" stroke="#000"/><path aria-label="start: 1727; y: 95; end: 1760; offset: 93; commonwealth: undefined" role="graphics-symbol" aria-roledescription="bar" d="M777.1500000000001,54.54545454545454h14.849999999999909v7.272727272727273h-14.849999999999909Z" fill="black" stroke="#000"/><path aria-label="start: 1760; y: 95; end: 1820; offset: 97; commonwealth: undefined" role="graphics-symbol" aria-roledescription="bar" d="M792,47.272727272727266h27v7.272727272727273h-27Z" fill="black" stroke="#000"/><path aria-label="start: 1820; y: 95; end: 1820; offset: 93; commonwealth: undefined" role="graphics-symbol" aria-roledescription="bar" d="M819,54.54545454545454h0v7.272727272727273h0Z" fill="black" stroke="#000"/></g><g class="mark-text role-mark layer_6_marks" role="graphics-object" aria-roledescription="text mark container"><text aria-label="x: 1584; off2: 96; name: Elizabeth" role="graphics-symbol" aria-roledescription="text mark" text-anchor="middle" transform="translate(712.8000000000001,64.90909090909093)" font-family="sans-serif" font-size="9px" font-style="italic" fill="black">Elizabeth</text><text aria-label="x: 1614; off2: 94; name: James I" role="graphics-symbol" aria-roledescription="text mark" text-anchor="middle" transform="translate(726.3000000000001,72.1818181818182)" font-family="sans-serif" font-size="9px" font-style="italic" fill="black">James I</text><text aria-label="x: 1637; off2: 96; name: Charles I" role="graphics-symbol" aria-roledescription="text mark" text-anchor="middle" transform="translate(736.65,64.90909090909093)" font-family="sans-serif" font-size="9px" font-style="italic" fill="black">Charles I</text><text aria-label="x: 1655; off2: 96; name: Cromwell" role="graphics-symbol" aria-roledescription="text mark" text-anchor="middle" transform="translate(744.5250000000001,64.90909090909093)" font-family="sans-serif" font-size="9px" font-style="italic" fill="black">Cromwell</text><text aria-label="x: 1673; off2: 96; name: Charles II" role="graphics-symbol" aria-roledescription="text mark" text-anchor="middle" transform="translate(752.625,64.90909090909093)" font-family="sans-serif" font-size="9px" font-style="italic" fill="black">Charles II</text><text aria-label="x: 1687; off2: 94; name: James II" role="graphics-symbol" aria-roledescription="text mark" text-anchor="middle" transform="translate(759.15,72.1818181818182)" font-family="sans-serif" font-size="9px" font-style="italic" fill="black">James II</text><text aria-label="x: 1696; off2: 96; name: W&amp;M" role="graphics-symbol" aria-roledescription="text mark" text-anchor="middle" transform="translate(762.975,64.90909090909093)" font-family="sans-serif" font-size="9px" font-style="italic" fill="black">W&amp;M</text><text aria-label="x: 1708; off2: 94; name: Anne" role="graphics-symbol" aria-roledescription="text mark" text-anchor="middle" transform="translate(768.6,72.1818181818182)" font-family="sans-serif" font-size="9px" font-style="italic" fill="black">Anne</text><text aria-label="x: 1721; off2: 96; name: George I" role="graphics-symbol" aria-roledescription="text mark" text-anchor="middle" transform="translate(774.2249999999999,64.90909090909093)" font-family="sans-serif" font-size="9px" font-style="italic" fill="black">George I</text><text aria-label="x: 1744; off2: 94; name: George II" role="graphics-symbol" aria-roledescription="text mark" text-anchor="middle" transform="translate(784.575,72.1818181818182)" font-family="sans-serif" font-size="9px" font-style="italic" fill="black">George II</text><text aria-label="x: 1790; off2: 96; name: George III" role="graphics-symbol" aria-roledescription="text mark" text-anchor="middle" transform="translate(805.5,64.90909090909093)" font-family="sans-serif" font-size="9px" font-style="italic" fill="black">George III</text><text aria-label="x: 1820; off2: 94; name: George IV" role="graphics-symbol" aria-roledescription="text mark" text-anchor="middle" transform="translate(819,72.1818181818182)" font-family="sans-serif" font-size="9px" font-style="italic" fill="black">George IV</text></g><g class="mark-group role-axis" aria-hidden="true"><g transform="translate(0.5,0.5)"><path class="background" aria-hidden="true" d="M0,0h0v0h0Z" pointer-events="none"/><g><g class="mark-rule role-axis-grid" pointer-events="none"><line transform="translate(0,400)" x2="900" y2="0" stroke="white" stroke-opacity="0.25" stroke-width="1" opacity="1"/><line transform="translate(0,364)" x2="900" y2="0" stroke="white" stroke-opacity="0.25" stroke-width="1" opacity="1"/><line transform="translate(0,327)" x2="900" y2="0" stroke="white" stroke-opacity="0.25" stroke-width="1" opacity="1"/><line transform="translate(0,291)" x2="900" y2="0" stroke="white" stroke-opacity="0.25" stroke-width="1" opacity="1"/><line transform="translate(0,255)" x2="900" y2="0" stroke="white" stroke-opacity="0.25" stroke-width="1" opacity="1"/><line transform="translate(0,218)" x2="900" y2="0" stroke="white" stroke-opacity="0.25" stroke-width="1" opacity="1"/><line transform="translate(0,182)" x2="900" y2="0" stroke="white" stroke-opacity="0.25" stroke-width="1" opacity="1"/><line transform="translate(0,145)" x2="900" y2="0" stroke="white" stroke-opacity="0.25" stroke-width="1" opacity="1"/><line transform="translate(0,109)" x2="900" y2="0" stroke="white" stroke-opacity="0.25" stroke-width="1" opacity="1"/><line transform="translate(0,73)" x2="900" y2="0" stroke="white" stroke-opacity="0.25" stroke-width="1" opacity="1"/><line transform="translate(0,36)" x2="900" y2="0" stroke="white" stroke-opacity="0.25" stroke-width="1" opacity="1"/><line transform="translate(0,0)" x2="900" y2="0" stroke="white" stroke-opacity="0.25" stroke-width="1" opacity="1"/></g></g><path class="foreground" aria-hidden="true" d="" pointer-events="none" display="none"/></g></g><g class="mark-group role-axis" role="graphics-symbol" aria-roledescription="axis" aria-label="Y-axis for a linear scale with values from 0 to 110"><g transform="translate(0.5,0.5)"><path class="background" aria-hidden="true" d="M0,0h0v0h0Z" pointer-events="none"/><g><g class="mark-rule role-axis-tick" pointer-events="none"><line transform="translate(0,400)" x2="-5" y2="0" stroke="#888" stroke-width="1" opacity="1"/><line transform="translate(0,364)" x2="-5" y2="0" stroke="#888" stroke-width="1" opacity="1"/><line transform="translate(0,327)" x2="-5" y2="0" stroke="#888" stroke-width="1" opacity="1"/><line transform="translate(0,291)" x2="-5" y2="0" stroke="#888" stroke-width="1" opacity="1"/><line transform="translate(0,255)" x2="-5" y2="0" stroke="#888" stroke-width="1" opacity="1"/><line transform="translate(0,218)" x2="-5" y2="0" stroke="#888" stroke-width="1" opacity="1"/><line transform="translate(0,182)" x2="-5" y2="0" stroke="#888" stroke-width="1" opacity="1"/><line transform="translate(0,145)" x2="-5" y2="0" stroke="#888" stroke-width="1" opacity="1"/><line transform="translate(0,109)" x2="-5" y2="0" stroke="#888" stroke-width="1" opacity="1"/><line transform="translate(0,73)" x2="-5" y2="0" stroke="#888" stroke-width="1" opacity="1"/><line transform="translate(0,36)" x2="-5" y2="0" stroke="#888" stroke-width="1" opacity="1"/><line transform="translate(0,0)" x2="-5" y2="0" stroke="#888" stroke-width="1" opacity="1"/></g><g class="mark-text role-axis-label" pointer-events="none"><text text-anchor="end" transform="translate(-7,403)" font-family="sans-serif" font-size="10px" fill="#000" opacity="1">0</text><text text-anchor="end" transform="translate(-7,366.6363636363636)" font-family="sans-serif" font-size="10px" fill="#000" opacity="1">10</text><text text-anchor="end" transform="translate(-7,330.27272727272725)" font-family="sans-serif" font-size="10px" fill="#000" opacity="1">20</text><text text-anchor="end" transform="translate(-7,293.90909090909093)" font-family="sans-serif" font-size="10px" fill="#000" opacity="1">30</text><text text-anchor="end" transform="translate(-7,257.5454545454545)" font-family="sans-serif" font-size="10px" fill="#000" opacity="1">40</text><text text-anchor="end" transform="translate(-7,221.18181818181816)" font-family="sans-serif" font-size="10px" fill="#000" opacity="1">50</text><text text-anchor="end" transform="translate(-7,184.81818181818184)" font-family="sans-serif" font-size="10px" fill="#000" opacity="1">60</text><text text-anchor="end" transform="translate(-7,148.45454545454547)" font-family="sans-serif" font-size="10px" fill="#000" opacity="1">70</text><text text-anchor="end" transform="translate(-7,112.09090909090908)" font-family="sans-serif" font-size="10px" fill="#000" opacity="1">80</text><text text-anchor="end" transform="translate(-7,75.7272727272727)" font-family="sans-serif" font-size="10px" fill="#000" opacity="1">90</text><text text-anchor="end" transform="translate(-7,39.363636363636374)" font-family="sans-serif" font-size="10px" fill="#000" opacity="1">100</text><text text-anchor="end" transform="translate(-7,3)" font-family="sans-serif" font-size="10px" fill="#000" opacity="1">110</text></g></g><path class="foreground" aria-hidden="true" d="" pointer-events="none" display="none"/></g></g></g><path class="foreground" aria-hidden="true" d="" display="none"/></g></g></g></svg>