<?xml version="1.0" encoding="UTF-8" standalone="no"?>
<!DOCTYPE svg PUBLIC "-//W3C//DTD SVG 1.1//EN"
 "http://www.w3.org/Graphics/SVG/1.1/DTD/svg11.dtd">
<!-- Generated by graphviz version 8.0.4 (20230422.2207)
 -->
<!-- Pages: 1 -->
<svg width="293pt" height="152pt"
 viewBox="0.00 0.00 293.00 152.40" xmlns="http://www.w3.org/2000/svg" xmlns:xlink="http://www.w3.org/1999/xlink">
<g id="graph0" class="graph" transform="scale(1 1) rotate(0) translate(4 148.4)">
<polygon fill="white" stroke="none" points="-4,4 -4,-148.4 289,-148.4 289,4 -4,4"/>
<!-- Person -->
<g id="node1" class="node">
<title>Person</title>
<polygon fill="none" stroke="black" points="8,-111.2 8,-140.4 119,-140.4 119,-111.2 8,-111.2"/>
<text text-anchor="start" x="39.5" y="-121.2" font-family="Helvetica,sans-Serif" font-weight="bold" font-size="16.00">Person</text>
<polygon fill="none" stroke="black" points="8,-84.4 8,-111.2 119,-111.2 119,-84.4 8,-84.4"/>
<text text-anchor="start" x="13" y="-93.9" font-family="Helvetica,sans-Serif" text-decoration="underline" font-size="14.00">name</text>
<polygon fill="none" stroke="black" points="8,-57.6 8,-84.4 119,-84.4 119,-57.6 8,-57.6"/>
<text text-anchor="start" x="13" y="-66.1" font-family="Helvetica,sans-Serif" font-size="14.00">height</text>
<polygon fill="none" stroke="black" points="8,-30.8 8,-57.6 119,-57.6 119,-30.8 8,-30.8"/>
<text text-anchor="start" x="13" y="-39.3" font-family="Helvetica,sans-Serif" font-size="14.00">weight</text>
<polygon fill="none" stroke="black" points="8,-4 8,-30.8 119,-30.8 119,-4 8,-4"/>
<text text-anchor="start" x="13" y="-13.5" font-family="Helvetica,sans-Serif" font-style="italic" font-size="14.00">birth_location_id</text>
</g>
<!-- Location -->
<g id="node2" class="node">
<title>Location</title>
<polygon fill="none" stroke="black" points="208,-111.2 208,-140.4 277,-140.4 277,-111.2 208,-111.2"/>
<text text-anchor="start" x="213" y="-121.2" font-family="Helvetica,sans-Serif" font-weight="bold" font-size="16.00">Location</text>
<polygon fill="none" stroke="black" points="208,-84.4 208,-111.2 277,-111.2 277,-84.4 208,-84.4"/>
<text text-anchor="start" x="213" y="-93.9" font-family="Helvetica,sans-Serif" text-decoration="underline" font-size="14.00">id</text>
<polygon fill="none" stroke="black" points="208,-57.6 208,-84.4 277,-84.4 277,-57.6 208,-57.6"/>
<text text-anchor="start" x="213" y="-66.1" font-family="Helvetica,sans-Serif" font-size="14.00">city</text>
<polygon fill="none" stroke="black" points="208,-30.8 208,-57.6 277,-57.6 277,-30.8 208,-30.8"/>
<text text-anchor="start" x="213" y="-39.3" font-family="Helvetica,sans-Serif" font-size="14.00">state</text>
<polygon fill="none" stroke="black" points="208,-4 208,-30.8 277,-30.8 277,-4 208,-4"/>
<text text-anchor="start" x="213" y="-12.5" font-family="Helvetica,sans-Serif" font-size="14.00">country</text>
</g>
<!-- Person&#45;&#45;Location -->
<g id="edge1" class="edge">
<title>Person&#45;&#45;Location</title>
<path fill="none" stroke="#7f7f7f" stroke-dasharray="5,2" d="M126.9,-72.2C151.19,-72.2 178.35,-72.2 200.14,-72.2"/>
<text text-anchor="start" x="195.14" y="-58.9" font-family="Times,serif" font-size="14.00">1</text>
<text text-anchor="start" x="126.9" y="-58.9" font-family="Times,serif" font-size="14.00">0..N</text>
</g>
</g>
</svg>
