<?xml version="1.0" encoding="us-ascii" standalone="no"?><svg xmlns="http://www.w3.org/2000/svg" xmlns:xlink="http://www.w3.org/1999/xlink" contentStyleType="text/css" height="228px" preserveAspectRatio="none" style="width:446px;height:228px;background:#FFFFFF;" version="1.1" viewBox="0 0 446 228" width="446px" zoomAndPan="magnify"><defs/><g><line style="stroke:#333333;stroke-width:0.5;" x1="10" x2="10" y1="10" y2="198.5313"/><line style="stroke:#333333;stroke-width:0.5;" x1="429" x2="429" y1="10" y2="198.5313"/><line style="stroke:#333333;stroke-width:0.5;stroke-dasharray:3.0,5.0;" x1="124" x2="124" y1="10" y2="198.5313"/><line style="stroke:#333333;stroke-width:0.5;stroke-dasharray:3.0,5.0;" x1="174" x2="174" y1="10" y2="198.5313"/><line style="stroke:#333333;stroke-width:0.5;stroke-dasharray:3.0,5.0;" x1="224" x2="224" y1="10" y2="198.5313"/><line style="stroke:#333333;stroke-width:0.5;stroke-dasharray:3.0,5.0;" x1="274" x2="274" y1="10" y2="198.5313"/><line style="stroke:#333333;stroke-width:0.5;stroke-dasharray:3.0,5.0;" x1="324" x2="324" y1="10" y2="198.5313"/><line style="stroke:#333333;stroke-width:0.5;stroke-dasharray:3.0,5.0;" x1="374" x2="374" y1="10" y2="198.5313"/><line style="stroke:#333333;stroke-width:0.5;stroke-dasharray:3.0,5.0;" x1="424" x2="424" y1="10" y2="198.5313"/><line style="stroke:#333333;stroke-width:0.5;" x1="10" x2="429" y1="10" y2="10"/><text fill="#333333" font-family="sans-serif" font-size="14" font-weight="bold" lengthAdjust="spacing" textLength="107" x="15" y="22.9951">Web Browser</text><line style="stroke:#333333;stroke-width:0.5;" x1="10" x2="123" y1="27.2969" y2="27.2969"/><line style="stroke:#333333;stroke-width:0.5;" x1="123" x2="133" y1="27.2969" y2="10"/><text fill="#333333" font-family="sans-serif" font-size="12" lengthAdjust="spacing" textLength="60" x="15" y="116.4199">Initializing</text><text fill="#333333" font-family="sans-serif" font-size="12" lengthAdjust="spacing" textLength="22" x="15" y="96.4199">idle</text><text fill="#333333" font-family="sans-serif" font-size="12" lengthAdjust="spacing" textLength="69" x="15" y="76.4199">Processing</text><text fill="#333333" font-family="sans-serif" font-size="12" lengthAdjust="spacing" textLength="46" x="15" y="56.4199">Waiting</text><line style="stroke:#006400;stroke-width:2.0;" x1="84" x2="124" y1="111.2656" y2="111.2656"/><line style="stroke:#006400;stroke-width:2.0;" x1="124" x2="224" y1="91.2656" y2="91.2656"/><line style="stroke:#006400;stroke-width:2.0;" x1="224" x2="274" y1="71.2656" y2="71.2656"/><line style="stroke:#006400;stroke-width:2.0;" x1="274" x2="424" y1="51.2656" y2="51.2656"/><line style="stroke:#006400;stroke-width:2.0;" x1="124" x2="124" y1="91.2656" y2="111.2656"/><line style="stroke:#006400;stroke-width:2.0;" x1="224" x2="224" y1="71.2656" y2="91.2656"/><line style="stroke:#006400;stroke-width:2.0;" x1="274" x2="274" y1="51.2656" y2="71.2656"/><line style="stroke:#8B0000;stroke-width:1.5;" x1="126.5" x2="146.5" y1="86.2656" y2="86.2656"/><polygon fill="#8B0000" points="134.5,90.2656,134.5,82.2656,126.5,86.2656" style="stroke:#8B0000;stroke-width:2.0;"/><polygon fill="#8B0000" points="138.5,90.2656,138.5,82.2656,146.5,86.2656" style="stroke:#8B0000;stroke-width:2.0;"/><text fill="#8B0000" font-family="sans-serif" font-size="12" lengthAdjust="spacing" textLength="77" x="98" y="78.4355">{50 ms lag}</text><line style="stroke:#333333;stroke-width:0.5;" x1="10" x2="429" y1="123.2656" y2="123.2656"/><text fill="#333333" font-family="sans-serif" font-size="14" font-weight="bold" lengthAdjust="spacing" textLength="77" x="15" y="136.2607">Web User</text><line style="stroke:#333333;stroke-width:0.5;" x1="10" x2="93" y1="140.5625" y2="140.5625"/><line style="stroke:#333333;stroke-width:0.5;" x1="93" x2="103" y1="140.5625" y2="123.2656"/><polygon fill="#E2E2F0" points="50,164.5313,112,164.5313,124,176.5313,112,188.5313,50,188.5313" style="stroke:#E2E2F0;stroke-width:1.5;"/><path d="M50,164.5313 L112,164.5313 L124,176.5313 L112,188.5313 L50,188.5313 " fill="#E2E2F0" style="stroke:#006400;stroke-width:1.5;"/><text fill="#333333" font-family="sans-serif" font-size="12" font-weight="bold" lengthAdjust="spacing" textLength="50" x="62" y="180.6855">Absent</text><polygon fill="#E2E2F0" points="136,164.5313,362,164.5313,374,176.5313,362,188.5313,136,188.5313,124,176.5313" style="stroke:#006400;stroke-width:1.5;"/><polygon fill="#E2E2F0" points="386,164.5313,424,164.5313,424,188.5313,386,188.5313,374,176.5313" style="stroke:#E2E2F0;stroke-width:1.5;"/><path d="M424,164.5313 L386,164.5313 L374,176.5313 L386,188.5313 L424,188.5313 " fill="#E2E2F0" style="stroke:#006400;stroke-width:1.5;"/><text fill="#333333" font-family="sans-serif" font-size="12" font-weight="bold" lengthAdjust="spacing" textLength="55" x="221.5" y="180.6855">Waiting</text><text fill="#333333" font-family="sans-serif" font-size="12" font-weight="bold" lengthAdjust="spacing" textLength="17" x="386" y="180.6855">ok</text><line style="stroke:#8B0000;stroke-width:1.5;" x1="225" x2="298" y1="155.0469" y2="155.0469"/><polygon fill="#8B0000" points="233,159.0469,233,151.0469,225,155.0469" style="stroke:#8B0000;stroke-width:1.0;"/><polygon fill="#8B0000" points="290,159.0469,290,151.0469,298,155.0469" style="stroke:#8B0000;stroke-width:1.0;"/><text fill="#8B0000" font-family="sans-serif" font-size="12" lengthAdjust="spacing" textLength="62" x="230.5" y="147.2168">{150 ms}</text><line style="stroke:#333333;stroke-width:2.0;" x1="124" x2="124" y1="198.5313" y2="203.5313"/><line style="stroke:#333333;stroke-width:2.0;" x1="174" x2="174" y1="198.5313" y2="203.5313"/><line style="stroke:#333333;stroke-width:2.0;" x1="224" x2="224" y1="198.5313" y2="203.5313"/><line style="stroke:#333333;stroke-width:2.0;" x1="274" x2="274" y1="198.5313" y2="203.5313"/><line style="stroke:#333333;stroke-width:2.0;" x1="324" x2="324" y1="198.5313" y2="203.5313"/><line style="stroke:#333333;stroke-width:2.0;" x1="374" x2="374" y1="198.5313" y2="203.5313"/><line style="stroke:#333333;stroke-width:2.0;" x1="424" x2="424" y1="198.5313" y2="203.5313"/><line style="stroke:#333333;stroke-width:2.0;" x1="124" x2="424" y1="198.5313" y2="198.5313"/><text fill="#333333" font-family="sans-serif" font-size="11" lengthAdjust="spacing" textLength="7" x="120.5" y="214.7417">0</text><text fill="#333333" font-family="sans-serif" font-size="11" lengthAdjust="spacing" textLength="21" x="213.5" y="214.7417">200</text><text fill="#333333" font-family="sans-serif" font-size="11" lengthAdjust="spacing" textLength="21" x="263.5" y="214.7417">300</text><text fill="#333333" font-family="sans-serif" font-size="11" lengthAdjust="spacing" textLength="21" x="363.5" y="214.7417">500</text><!--SRC=[LOmn2y8m48Nt-nL7ro2aGXSHYTdSN4Bcf8PoM1F8HGIb_zsc0S7buDvxtvUJVtB1pWQFEgSNXzoXOxGQnXH7uj0wyoiCWDL8Z9T8XTnCRueJM5EZi-SG2u1QSLa3kiq1n5vkppMdCJ3NkUXRPDtggBXM4e-x4wf1uW4_wtqmpcvQgip0trWC3KvtK5MzSQ9lPB-XonS0]--></g></svg>