<?xml version="1.0" encoding="UTF-8"?><svg xmlns="http://www.w3.org/2000/svg" width="290" height="420" version="1.0" shape-rendering="geometricPrecision"><defs><filter id="shadowBlur" x="0" y="0" width="200%" height="200%"><feOffset in="SourceGraphic" dx="3.0003002" dy="3.0003002" result="offOut"></feOffset><feGaussianBlur in="offOut" stdDeviation="3"></feGaussianBlur></filter></defs><g stroke-width="1" stroke-linecap="square" stroke-linejoin="round"><rect x="0" y="0" width="290" height="420" style="fill: #ffffff"></rect><path stroke="#969696" fill="#969696" filter="url(#shadowBlur)" d="M25.0 294.0 Q25.0 287.0 30.0 287.0 L200.0 287.0 Q205.0 287.0 205.0 294.0 L205.0 378.0 L205.0 378.0 Q205.0 385.0 200.0 385.0 L30.0 385.0 L30.0 385.0 Q25.0 385.0 25.0 378.0 L25.0 294.0 z"></path><path stroke="#969696" fill="#969696" filter="url(#shadowBlur)" d="M25.0 35.0 L85.0 35.0 L85.0 91.0 Q65.0 84.0 55.0 91.0 Q45.0 98.0 25.0 91.0 z"></path><path stroke="#969696" fill="#969696" filter="url(#shadowBlur)" d="M210.0 35.0 L270.0 35.0 L260.0 91.0 L200.0 91.0 z"></path><path stroke="#969696" fill="#969696" filter="url(#shadowBlur)" d="M25.0 203.0 L75.0 203.0 L75.0 259.0 L25.0 259.0 z"></path><path stroke="white" stroke-width="1.0" stroke-dasharray="5.0,5.0" stroke-miterlimit="0" stroke-linecap="butt" stroke-linejoin="round" fill="none" d="M195.0 119.0 C206.0 126.0 254.0 126.0 265.0 119.0 C254.0 112.0 206.0 112.0 195.0 119.0 M195.0 119.0 L195.0 175.0 C206.0 185.0 254.0 185.0 265.0 175.0 L265.0 119.0 "></path><path stroke="#000000" stroke-width="1.0" stroke-dasharray="5.0,5.0" stroke-miterlimit="0" stroke-linecap="butt" stroke-linejoin="round" fill="none" d="M195.0 119.0 C206.0 126.0 254.0 126.0 265.0 119.0 C254.0 112.0 206.0 112.0 195.0 119.0 M195.0 119.0 L195.0 175.0 C206.0 185.0 254.0 185.0 265.0 175.0 L265.0 119.0 "></path><path stroke="white" stroke-width="1.0" stroke-linecap="round" stroke-linejoin="round" fill="#ffffff" d="M115.0 35.0 C125.0 42.0 165.0 42.0 175.0 35.0 C165.0 28.0 125.0 28.0 115.0 35.0 M115.0 35.0 L115.0 91.0 C125.0 101.0 165.0 101.0 175.0 91.0 L175.0 35.0 "></path><path stroke="#000000" stroke-width="1.0" stroke-linecap="round" stroke-linejoin="round" fill="none" d="M115.0 35.0 C125.0 42.0 165.0 42.0 175.0 35.0 C165.0 28.0 125.0 28.0 115.0 35.0 M115.0 35.0 L115.0 91.0 C125.0 101.0 165.0 101.0 175.0 91.0 L175.0 35.0 "></path><path stroke="#000000" stroke-width="1.0" stroke-linecap="round" stroke-linejoin="round" fill="#99dd99" d="M25.0 294.0 Q25.0 287.0 30.0 287.0 L200.0 287.0 Q205.0 287.0 205.0 294.0 L205.0 378.0 L205.0 378.0 Q205.0 385.0 200.0 385.0 L30.0 385.0 L30.0 385.0 Q25.0 385.0 25.0 378.0 L25.0 294.0 z"></path><path stroke="#000000" stroke-width="1.0" stroke-linecap="round" stroke-linejoin="round" fill="white" d="M25.0 35.0 L85.0 35.0 L85.0 91.0 Q65.0 84.0 55.0 91.0 Q45.0 98.0 25.0 91.0 z"></path><path stroke="#000000" stroke-width="1.0" stroke-linecap="round" stroke-linejoin="round" fill="white" d="M210.0 35.0 L270.0 35.0 L260.0 91.0 L200.0 91.0 z"></path><path stroke="#000000" stroke-width="1.0" stroke-dasharray="5.0,5.0" stroke-miterlimit="0" stroke-linecap="butt" stroke-linejoin="round" fill="none" d="M105.0 126.0 Q105.0 119.0 110.0 119.0 L160.0 119.0 Q165.0 119.0 165.0 126.0 L165.0 175.0 L165.0 175.0 L110.0 175.0 Q105.0 175.0 105.0 168.0 L105.0 126.0 z"></path><path stroke="#000000" stroke-width="1.0" stroke-linecap="round" stroke-linejoin="round" fill="white" d="M25.0 203.0 L75.0 203.0 L75.0 259.0 L25.0 259.0 z"></path><path stroke="#000000" stroke-width="1.0" stroke-dasharray="5.0,5.0" stroke-miterlimit="0" stroke-linecap="butt" stroke-linejoin="round" fill="none" d="M25.0 119.0 L75.0 119.0 L75.0 175.0 "></path><path stroke="#000000" stroke-width="1.0" stroke-linecap="round" stroke-linejoin="round" fill="none" d="M175.0 217.0 L150.0 217.0 Q145.0 217.0 145.0 224.0 L145.0 245.0 L145.0 245.0 L105.0 245.0 "></path><path stroke="none" stroke-width="1.0" stroke-linecap="round" stroke-linejoin="round" fill="#000000" d="M70.0 168.0 L75.0 182.0 L80.0 168.0 z"></path><path stroke="#000000" stroke-width="1.0" stroke-linecap="round" stroke-linejoin="round" fill="#ffffff" d="M28.5 203.0 L28.380741 203.90587 L28.03109 204.75 L27.474874 205.47487 L26.75 206.03108 L25.905867 206.38074 L25.0 206.5 L24.094133 206.38074 L23.25 206.03108 L22.525126 205.47487 L21.96891 204.75 L21.619259 203.90587 L21.5 203.0 L21.619259 202.09413 L21.96891 201.25 L22.525126 200.52513 L23.25 199.96892 L24.094133 199.61926 L25.0 199.5 L25.905867 199.61926 L26.75 199.96892 L27.474874 200.52513 L28.03109 201.25 L28.380741 202.09413 L28.5 203.0 z"></path><path stroke="#000000" stroke-width="1.0" stroke-linecap="round" stroke-linejoin="round" fill="#ffffff" d="M78.5 203.0 L78.38074 203.90587 L78.03109 204.75 L77.47488 205.47487 L76.75 206.03108 L75.90587 206.38074 L75.0 206.5 L74.09413 206.38074 L73.25 206.03108 L72.52512 205.47487 L71.96891 204.75 L71.61926 203.90587 L71.5 203.0 L71.61926 202.09413 L71.96891 201.25 L72.52512 200.52513 L73.25 199.96892 L74.09413 199.61926 L75.0 199.5 L75.90587 199.61926 L76.75 199.96892 L77.47488 200.52513 L78.03109 201.25 L78.38074 202.09413 L78.5 203.0 z"></path><path stroke="#000000" stroke-width="1.0" stroke-linecap="round" stroke-linejoin="round" fill="#ffffff" d="M178.5 217.0 L178.38074 217.90587 L178.03108 218.75 L177.47487 219.47487 L176.75 220.03108 L175.90587 220.38074 L175.0 220.5 L174.09413 220.38074 L173.25 220.03108 L172.52513 219.47487 L171.96892 218.75 L171.61926 217.90587 L171.5 217.0 L171.61926 216.09413 L171.96892 215.25 L172.52513 214.52513 L173.25 213.96892 L174.09413 213.61926 L175.0 213.5 L175.90587 213.61926 L176.75 213.96892 L177.47487 214.52513 L178.03108 215.25 L178.38074 216.09413 L178.5 217.0 z"></path><path stroke="#000000" stroke-width="1.0" stroke-linecap="round" stroke-linejoin="round" fill="#ffffff" d="M28.5 231.0 L28.380741 231.90587 L28.03109 232.75 L27.474874 233.47487 L26.75 234.03108 L25.905867 234.38074 L25.0 234.5 L24.094133 234.38074 L23.25 234.03108 L22.525126 233.47487 L21.96891 232.75 L21.619259 231.90587 L21.5 231.0 L21.619259 230.09413 L21.96891 229.25 L22.525126 228.52513 L23.25 227.96892 L24.094133 227.61926 L25.0 227.5 L25.905867 227.61926 L26.75 227.96892 L27.474874 228.52513 L28.03109 229.25 L28.380741 230.09413 L28.5 231.0 z"></path><path stroke="#000000" stroke-width="1.0" stroke-linecap="round" stroke-linejoin="round" fill="#ffffff" d="M78.5 231.0 L78.38074 231.90587 L78.03109 232.75 L77.47488 233.47487 L76.75 234.03108 L75.90587 234.38074 L75.0 234.5 L74.09413 234.38074 L73.25 234.03108 L72.52512 233.47487 L71.96891 232.75 L71.61926 231.90587 L71.5 231.0 L71.61926 230.09413 L71.96891 229.25 L72.52512 228.52513 L73.25 227.96892 L74.09413 227.61926 L75.0 227.5 L75.90587 227.61926 L76.75 227.96892 L77.47488 228.52513 L78.03109 229.25 L78.38074 230.09413 L78.5 231.0 z"></path><path stroke="#000000" stroke-width="1.0" stroke-linecap="round" stroke-linejoin="round" fill="#ffffff" d="M118.5 245.0 L118.38074 245.90587 L118.03109 246.75 L117.47488 247.47487 L116.75 248.03108 L115.90587 248.38074 L115.0 248.5 L114.09413 248.38074 L113.25 248.03108 L112.52512 247.47487 L111.96891 246.75 L111.61926 245.90587 L111.5 245.0 L111.61926 244.09413 L111.96891 243.25 L112.52512 242.52513 L113.25 241.96892 L114.09413 241.61926 L115.0 241.5 L115.90587 241.61926 L116.75 241.96892 L117.47488 242.52513 L118.03109 243.25 L118.38074 244.09413 L118.5 245.0 z"></path><path stroke="#000000" stroke-width="1.0" stroke-linecap="round" stroke-linejoin="round" fill="#ffffff" d="M28.5 259.0 L28.380741 259.90585 L28.03109 260.75 L27.474874 261.47488 L26.75 262.0311 L25.905867 262.38074 L25.0 262.5 L24.094133 262.38074 L23.25 262.0311 L22.525126 261.47488 L21.96891 260.75 L21.619259 259.90585 L21.5 259.0 L21.619259 258.09415 L21.96891 257.25 L22.525126 256.52512 L23.25 255.96892 L24.094133 255.61926 L25.0 255.5 L25.905867 255.61926 L26.75 255.96892 L27.474874 256.52512 L28.03109 257.25 L28.380741 258.09415 L28.5 259.0 z"></path><path stroke="#000000" stroke-width="1.0" stroke-linecap="round" stroke-linejoin="round" fill="#ffffff" d="M78.5 259.0 L78.38074 259.90585 L78.03109 260.75 L77.47488 261.47488 L76.75 262.0311 L75.90587 262.38074 L75.0 262.5 L74.09413 262.38074 L73.25 262.0311 L72.52512 261.47488 L71.96891 260.75 L71.61926 259.90585 L71.5 259.0 L71.61926 258.09415 L71.96891 257.25 L72.52512 256.52512 L73.25 255.96892 L74.09413 255.61926 L75.0 255.5 L75.90587 255.61926 L76.75 255.96892 L77.47488 256.52512 L78.03109 257.25 L78.38074 258.09415 L78.5 259.0 z"></path><text x="50" y="306" font-family="sans-serif" font-size="15" stroke="none" fill="#000000"><![CDATA[Things to do]]></text><text x="50" y="334" font-family="sans-serif" font-size="15" stroke="none" fill="#000000"><![CDATA[•Cut the grass]]></text><text x="50" y="348" font-family="sans-serif" font-size="15" stroke="none" fill="#000000"><![CDATA[•Buy jam]]></text><text x="50" y="362" font-family="sans-serif" font-size="15" stroke="none" fill="#000000"><![CDATA[•Fix car]]></text><text x="50" y="376" font-family="sans-serif" font-size="15" stroke="none" fill="#000000"><![CDATA[•Make website]]></text></g></svg>