<?xml version="1.0" encoding="us-ascii" standalone="no"?><svg xmlns="http://www.w3.org/2000/svg" xmlns:xlink="http://www.w3.org/1999/xlink" contentStyleType="text/css" height="379px" preserveAspectRatio="none" style="width:1487px;height:379px;background:#FFFFFF;" version="1.1" viewBox="0 0 1487 379" width="1487px" zoomAndPan="magnify"><defs><filter height="300%" id="f3t5bhqdv0bml" width="300%" x="-1" y="-1"><feGaussianBlur result="blurOut" stdDeviation="2.0"/><feColorMatrix in="blurOut" result="blurOut2" type="matrix" values="0 0 0 0 0 0 0 0 0 0 0 0 0 0 0 0 0 0 .4 0"/><feOffset dx="4.0" dy="4.0" in="blurOut2" result="blurOut3"/><feBlend in="SourceGraphic" in2="blurOut3" mode="normal"/></filter></defs><g><!--entity foo1--><g id="elem_foo1"><ellipse cx="390" cy="14" fill="#FEFECE" filter="url(#f3t5bhqdv0bml)" rx="8" ry="8" style="stroke:#A80036;stroke-width:2.0;"/><path d="M390,22 L390,49 M377,30 L403,30 M390,49 L377,64 M390,49 L403,64 " fill="none" filter="url(#f3t5bhqdv0bml)" style="stroke:#A80036;stroke-width:2.0;"/><text fill="#000000" font-family="sans-serif" font-size="14" lengthAdjust="spacing" textLength="31" x="374.5" y="83.9951">foo1</text></g><!--entity foo2--><g id="elem_foo2"><ellipse cx="390" cy="157.3" fill="#FEFECE" filter="url(#f3t5bhqdv0bml)" rx="8" ry="8" style="stroke:#A80036;stroke-width:2.0;"/><path d="M390,165.3 L390,192.3 M377,173.3 L403,173.3 M390,192.3 L377,207.3 M390,192.3 L403,207.3 " fill="none" filter="url(#f3t5bhqdv0bml)" style="stroke:#A80036;stroke-width:2.0;"/><text fill="#000000" font-family="sans-serif" font-size="14" lengthAdjust="spacing" textLength="31" x="374.5" y="227.2951">foo2</text></g><g id="elem_ac1"><ellipse cx="100.003" cy="188.9436" fill="#FEFECE" filter="url(#f3t5bhqdv0bml)" rx="29.163" ry="14.5236" style="stroke:#A80036;stroke-width:1.0;"/><text fill="#000000" font-family="sans-serif" font-size="14" lengthAdjust="spacing" textLength="25" x="87.503" y="191.7903">ac1</text></g><!--entity left1--><g id="elem_left1"><ellipse cx="21" cy="157.3" fill="#FEFECE" filter="url(#f3t5bhqdv0bml)" rx="8" ry="8" style="stroke:#A80036;stroke-width:2.0;"/><path d="M21,165.3 L21,192.3 M8,173.3 L34,173.3 M21,192.3 L8,207.3 M21,192.3 L34,207.3 " fill="none" filter="url(#f3t5bhqdv0bml)" style="stroke:#A80036;stroke-width:2.0;"/><text fill="#000000" font-family="sans-serif" font-size="14" lengthAdjust="spacing" textLength="30" x="6" y="227.2951">left1</text></g><!--entity right1--><g id="elem_right1"><ellipse cx="184" cy="157.3" fill="#FEFECE" filter="url(#f3t5bhqdv0bml)" rx="8" ry="8" style="stroke:#A80036;stroke-width:2.0;"/><path d="M184,165.3 L184,192.3 M171,173.3 L197,173.3 M184,192.3 L171,207.3 M184,192.3 L197,207.3 " fill="none" filter="url(#f3t5bhqdv0bml)" style="stroke:#A80036;stroke-width:2.0;"/><text fill="#000000" font-family="sans-serif" font-size="14" lengthAdjust="spacing" textLength="40" x="164" y="227.2951">right1</text></g><!--entity up1--><g id="elem_up1"><ellipse cx="133" cy="14" fill="#FEFECE" filter="url(#f3t5bhqdv0bml)" rx="8" ry="8" style="stroke:#A80036;stroke-width:2.0;"/><path d="M133,22 L133,49 M120,30 L146,30 M133,49 L120,64 M133,49 L146,64 " fill="none" filter="url(#f3t5bhqdv0bml)" style="stroke:#A80036;stroke-width:2.0;"/><text fill="#000000" font-family="sans-serif" font-size="14" lengthAdjust="spacing" textLength="27" x="119.5" y="83.9951">up1</text></g><!--entity up2--><g id="elem_up2"><ellipse cx="68" cy="14" fill="#FEFECE" filter="url(#f3t5bhqdv0bml)" rx="8" ry="8" style="stroke:#A80036;stroke-width:2.0;"/><path d="M68,22 L68,49 M55,30 L81,30 M68,49 L55,64 M68,49 L81,64 " fill="none" filter="url(#f3t5bhqdv0bml)" style="stroke:#A80036;stroke-width:2.0;"/><text fill="#000000" font-family="sans-serif" font-size="14" lengthAdjust="spacing" textLength="27" x="54.5" y="83.9951">up2</text></g><!--entity down1--><g id="elem_down1"><ellipse cx="59" cy="300.59" fill="#FEFECE" filter="url(#f3t5bhqdv0bml)" rx="8" ry="8" style="stroke:#A80036;stroke-width:2.0;"/><path d="M59,308.59 L59,335.59 M46,316.59 L72,316.59 M59,335.59 L46,350.59 M59,335.59 L72,350.59 " fill="none" filter="url(#f3t5bhqdv0bml)" style="stroke:#A80036;stroke-width:2.0;"/><text fill="#000000" font-family="sans-serif" font-size="14" lengthAdjust="spacing" textLength="47" x="35.5" y="370.5851">down1</text></g><!--entity down2--><g id="elem_down2"><ellipse cx="141" cy="300.59" fill="#FEFECE" filter="url(#f3t5bhqdv0bml)" rx="8" ry="8" style="stroke:#A80036;stroke-width:2.0;"/><path d="M141,308.59 L141,335.59 M128,316.59 L154,316.59 M141,335.59 L128,350.59 M141,335.59 L154,350.59 " fill="none" filter="url(#f3t5bhqdv0bml)" style="stroke:#A80036;stroke-width:2.0;"/><text fill="#000000" font-family="sans-serif" font-size="14" lengthAdjust="spacing" textLength="47" x="117.5" y="370.5851">down2</text></g><!--entity actor1--><g id="elem_actor1"><ellipse cx="463" cy="14" fill="#FEFECE" filter="url(#f3t5bhqdv0bml)" rx="8" ry="8" style="stroke:#A80036;stroke-width:2.0;"/><path d="M463,22 L463,49 M450,30 L476,30 M463,49 L450,64 M463,49 L476,64 " fill="none" filter="url(#f3t5bhqdv0bml)" style="stroke:#A80036;stroke-width:2.0;"/><text fill="#000000" font-family="sans-serif" font-size="14" lengthAdjust="spacing" textLength="44" x="441" y="83.9951">actor1</text></g><!--entity actor2--><g id="elem_actor2"><ellipse cx="463" cy="157.3" fill="#FEFECE" filter="url(#f3t5bhqdv0bml)" rx="8" ry="8" style="stroke:#A80036;stroke-width:2.0;"/><path d="M463,165.3 L463,192.3 M450,173.3 L476,173.3 M463,192.3 L450,207.3 M463,192.3 L476,207.3 " fill="none" filter="url(#f3t5bhqdv0bml)" style="stroke:#A80036;stroke-width:2.0;"/><text fill="#000000" font-family="sans-serif" font-size="14" lengthAdjust="spacing" textLength="44" x="441" y="227.2951">actor2</text></g><!--entity comp1--><g id="elem_comp1"><rect fill="#FEFECE" filter="url(#f3t5bhqdv0bml)" height="46.2969" style="stroke:#A80036;stroke-width:1.0;" width="88" x="598" y="22.5"/><rect fill="#FEFECE" height="10" style="stroke:#A80036;stroke-width:1.0;" width="15" x="666" y="27.5"/><rect fill="#FEFECE" height="2" style="stroke:#A80036;stroke-width:1.0;" width="4" x="664" y="29.5"/><rect fill="#FEFECE" height="2" style="stroke:#A80036;stroke-width:1.0;" width="4" x="664" y="33.5"/><text fill="#000000" font-family="sans-serif" font-size="14" lengthAdjust="spacing" textLength="48" x="613" y="55.4951">comp1</text></g><!--entity comp2--><g id="elem_comp2"><rect fill="#FEFECE" filter="url(#f3t5bhqdv0bml)" height="46.2969" style="stroke:#A80036;stroke-width:1.0;" width="88" x="520" y="165.8"/><rect fill="#FEFECE" height="10" style="stroke:#A80036;stroke-width:1.0;" width="15" x="588" y="170.8"/><rect fill="#FEFECE" height="2" style="stroke:#A80036;stroke-width:1.0;" width="4" x="586" y="172.8"/><rect fill="#FEFECE" height="2" style="stroke:#A80036;stroke-width:1.0;" width="4" x="586" y="176.8"/><text fill="#000000" font-family="sans-serif" font-size="14" lengthAdjust="spacing" textLength="48" x="535" y="198.7951">comp2</text></g><!--entity comp3--><g id="elem_comp3"><rect fill="#FEFECE" filter="url(#f3t5bhqdv0bml)" height="46.2969" style="stroke:#A80036;stroke-width:1.0;" width="88" x="768" y="22.5"/><rect fill="#FEFECE" height="10" style="stroke:#A80036;stroke-width:1.0;" width="15" x="836" y="27.5"/><rect fill="#FEFECE" height="2" style="stroke:#A80036;stroke-width:1.0;" width="4" x="834" y="29.5"/><rect fill="#FEFECE" height="2" style="stroke:#A80036;stroke-width:1.0;" width="4" x="834" y="33.5"/><text fill="#000000" font-family="sans-serif" font-size="14" lengthAdjust="spacing" textLength="48" x="783" y="55.4951">comp3</text></g><!--entity comp4--><g id="elem_comp4"><rect fill="#FEFECE" filter="url(#f3t5bhqdv0bml)" height="46.2969" style="stroke:#A80036;stroke-width:1.0;" width="88" x="768" y="165.8"/><rect fill="#FEFECE" height="10" style="stroke:#A80036;stroke-width:1.0;" width="15" x="836" y="170.8"/><rect fill="#FEFECE" height="2" style="stroke:#A80036;stroke-width:1.0;" width="4" x="834" y="172.8"/><rect fill="#FEFECE" height="2" style="stroke:#A80036;stroke-width:1.0;" width="4" x="834" y="176.8"/><text fill="#000000" font-family="sans-serif" font-size="14" lengthAdjust="spacing" textLength="48" x="783" y="198.7951">comp4</text></g><!--entity b1--><g id="elem_b1"><path d="M895.5,25.5 L895.5,49.5 M895.5,37.5 L912.5,37.5 " fill="none" filter="url(#f3t5bhqdv0bml)" style="stroke:#A80036;stroke-width:2.0;"/><ellipse cx="924.5" cy="37.5" fill="#FEFECE" filter="url(#f3t5bhqdv0bml)" rx="12" ry="12" style="stroke:#A80036;stroke-width:2.0;"/><text fill="#000000" font-family="sans-serif" font-size="14" lengthAdjust="spacing" textLength="18" x="907" y="66.4951">b1</text></g><!--entity c1--><g id="elem_c1"><ellipse cx="916" cy="180.8" fill="#FEFECE" filter="url(#f3t5bhqdv0bml)" rx="12" ry="12" style="stroke:#A80036;stroke-width:2.0;"/><polygon fill="#A80036" points="912,168.8,918,163.8,916,168.8,918,173.8,912,168.8" style="stroke:#A80036;stroke-width:1.0;"/><text fill="#000000" font-family="sans-serif" font-size="14" lengthAdjust="spacing" textLength="17" x="907.5" y="209.7951">c1</text></g><!--entity interf1--><g id="elem_interf1"><ellipse cx="673" cy="188.94" fill="#FEFECE" filter="url(#f3t5bhqdv0bml)" rx="8" ry="8" style="stroke:#A80036;stroke-width:1.0;"/><text fill="#000000" font-family="sans-serif" font-size="14" lengthAdjust="spacing" textLength="44" x="651" y="218.9351">interf1</text></g><!--entity mode1actor--><g id="elem_mode1actor"><ellipse cx="1018" cy="14" fill="#FEFECE" filter="url(#f3t5bhqdv0bml)" rx="8" ry="8" style="stroke:#A80036;stroke-width:2.0;"/><path d="M1018,22 L1018,49 M1005,30 L1031,30 M1018,49 L1005,64 M1018,49 L1031,64 " fill="none" filter="url(#f3t5bhqdv0bml)" style="stroke:#A80036;stroke-width:2.0;"/><text fill="#000000" font-family="sans-serif" font-size="14" lengthAdjust="spacing" textLength="84" x="976" y="83.9951">mode1actor</text></g><!--entity fooa1--><g id="elem_fooa1"><ellipse cx="1018" cy="157.3" fill="#FEFECE" filter="url(#f3t5bhqdv0bml)" rx="8" ry="8" style="stroke:#A80036;stroke-width:2.0;"/><path d="M1018,165.3 L1018,192.3 M1005,173.3 L1031,173.3 M1018,192.3 L1005,207.3 M1018,192.3 L1031,207.3 " fill="none" filter="url(#f3t5bhqdv0bml)" style="stroke:#A80036;stroke-width:2.0;"/><text fill="#000000" font-family="sans-serif" font-size="14" lengthAdjust="spacing" textLength="39" x="998.5" y="227.2951">fooa1</text></g><!--entity mode1actorl--><g id="elem_mode1actorl"><ellipse cx="227" cy="14" fill="#FEFECE" filter="url(#f3t5bhqdv0bml)" rx="8" ry="8" style="stroke:#A80036;stroke-width:2.0;"/><path d="M227,22 L227,49 M214,30 L240,30 M227,49 L214,64 M227,49 L240,64 " fill="none" filter="url(#f3t5bhqdv0bml)" style="stroke:#A80036;stroke-width:2.0;"/><text fill="#000000" font-family="sans-serif" font-size="14" lengthAdjust="spacing" textLength="87" x="183.5" y="83.9951">mode1actorl</text></g><!--entity foo1l--><g id="elem_foo1l"><ellipse cx="322" cy="14" fill="#FEFECE" filter="url(#f3t5bhqdv0bml)" rx="8" ry="8" style="stroke:#A80036;stroke-width:2.0;"/><path d="M322,22 L322,49 M309,30 L335,30 M322,49 L309,64 M322,49 L335,64 " fill="none" filter="url(#f3t5bhqdv0bml)" style="stroke:#A80036;stroke-width:2.0;"/><text fill="#000000" font-family="sans-serif" font-size="14" lengthAdjust="spacing" textLength="34" x="305" y="83.9951">foo1l</text></g><!--entity component1--><g id="elem_component1"><rect fill="#FEFECE" filter="url(#f3t5bhqdv0bml)" height="46.2969" style="stroke:#A80036;stroke-width:1.0;" width="129" x="1095.5" y="22.5"/><rect fill="#FEFECE" height="10" style="stroke:#A80036;stroke-width:1.0;" width="15" x="1204.5" y="27.5"/><rect fill="#FEFECE" height="2" style="stroke:#A80036;stroke-width:1.0;" width="4" x="1202.5" y="29.5"/><rect fill="#FEFECE" height="2" style="stroke:#A80036;stroke-width:1.0;" width="4" x="1202.5" y="33.5"/><text fill="#000000" font-family="sans-serif" font-size="14" lengthAdjust="spacing" textLength="89" x="1110.5" y="55.4951">component1</text></g><!--entity componentC--><g id="elem_componentC"><rect fill="#FEFECE" filter="url(#f3t5bhqdv0bml)" height="46.2969" style="stroke:#A80036;stroke-width:1.0;" width="130" x="1164" y="165.8"/><rect fill="#FEFECE" height="10" style="stroke:#A80036;stroke-width:1.0;" width="15" x="1274" y="170.8"/><rect fill="#FEFECE" height="2" style="stroke:#A80036;stroke-width:1.0;" width="4" x="1272" y="172.8"/><rect fill="#FEFECE" height="2" style="stroke:#A80036;stroke-width:1.0;" width="4" x="1272" y="176.8"/><text fill="#000000" font-family="sans-serif" font-size="14" lengthAdjust="spacing" textLength="90" x="1179" y="198.7951">componentC</text></g><!--entity component3--><g id="elem_component3"><ellipse cx="1312" cy="45.65" fill="#FEFECE" filter="url(#f3t5bhqdv0bml)" rx="8" ry="8" style="stroke:#A80036;stroke-width:1.0;"/><text fill="#000000" font-family="sans-serif" font-size="14" lengthAdjust="spacing" textLength="89" x="1267.5" y="75.6451">component3</text></g><!--entity aze1--><g id="elem_aze1"><rect fill="#FEFECE" filter="url(#f3t5bhqdv0bml)" height="46.2969" style="stroke:#A80036;stroke-width:1.0;" width="74" x="1399" y="22.5"/><rect fill="#FEFECE" height="10" style="stroke:#A80036;stroke-width:1.0;" width="15" x="1453" y="27.5"/><rect fill="#FEFECE" height="2" style="stroke:#A80036;stroke-width:1.0;" width="4" x="1451" y="29.5"/><rect fill="#FEFECE" height="2" style="stroke:#A80036;stroke-width:1.0;" width="4" x="1451" y="33.5"/><text fill="#000000" font-family="sans-serif" font-size="14" lengthAdjust="spacing" textLength="34" x="1414" y="55.4951">aze1</text></g><!--entity aze2--><g id="elem_aze2"><rect fill="#FEFECE" filter="url(#f3t5bhqdv0bml)" height="46.2969" style="stroke:#A80036;stroke-width:1.0;" width="74" x="1399" y="165.8"/><rect fill="#FEFECE" height="10" style="stroke:#A80036;stroke-width:1.0;" width="15" x="1453" y="170.8"/><rect fill="#FEFECE" height="2" style="stroke:#A80036;stroke-width:1.0;" width="4" x="1451" y="172.8"/><rect fill="#FEFECE" height="2" style="stroke:#A80036;stroke-width:1.0;" width="4" x="1451" y="176.8"/><text fill="#000000" font-family="sans-serif" font-size="14" lengthAdjust="spacing" textLength="34" x="1414" y="198.7951">aze2</text></g><!--link foo1 to foo2--><g id="link_foo1_foo2"><path d="M377.93,93.33 C377.02,108.83 377.02,126.07 377.94,141.55 " fill="none" id="foo1-foo2" style="stroke:#A80036;stroke-width:1.0;"/><polygon fill="#A80036" points="378.32,88.52,373.7385,97.2383,377.9921,93.5092,381.7212,97.7629,378.32,88.52" style="stroke:#A80036;stroke-width:1.0;"/><polygon fill="#A80036" points="378.32,146.17,381.6931,136.9168,377.977,141.1818,373.712,137.4656,378.32,146.17" style="stroke:#A80036;stroke-width:1.0;"/><ellipse cx="377.2488" cy="117.4475" fill="#FFFFFF" rx="6" ry="6" style="stroke:#A80036;stroke-width:1.5;"/></g><!--link foo1 to foo2--><g id="link_foo1_foo2"><path d="M402.78,93.33 C403.74,108.83 403.74,126.07 402.77,141.55 " fill="none" id="foo1-foo2-1" style="stroke:#A80036;stroke-width:1.0;"/><polygon fill="#A80036" points="402.37,88.52,399.0233,97.7828,402.7273,93.5072,407.0028,97.2112,402.37,88.52" style="stroke:#A80036;stroke-width:1.0;"/><polygon fill="#A80036" points="402.36,146.17,406.9928,137.4788,402.7173,141.1828,399.0133,136.9072,402.36,146.17" style="stroke:#A80036;stroke-width:1.0;"/><ellipse cx="403.4988" cy="117.4475" fill="#FFFFFF" rx="10" ry="10" style="stroke:#FFFFFF;stroke-width:1.0;"/><path d="M396.4266,124.5175 A10,10 0 0 0 410.5687 124.5196" fill="none" style="stroke:#A80036;stroke-width:1.5;"/><path d="M410.5709,110.3775 A10,10 0 0 0 396.4288 110.3754" fill="none" style="stroke:#A80036;stroke-width:1.5;"/><ellipse cx="403.4988" cy="117.4475" fill="#FFFFFF" rx="6" ry="6" style="stroke:#A80036;stroke-width:1.5;"/></g><!--reverse link left1 to ac1--><g id="link_left1_ac1"><path d="M42.32,188.94 C51.78,188.94 61.24,188.94 70.7,188.94 " fill="none" id="left1-backto-ac1" style="stroke:#A80036;stroke-width:1.0;"/><polygon fill="#A80036" points="37.43,188.94,46.43,192.94,42.43,188.94,46.43,184.94,37.43,188.94" style="stroke:#A80036;stroke-width:1.0;"/><ellipse cx="56.51" cy="188.94" fill="#FFFFFF" rx="10" ry="10" style="stroke:#FFFFFF;stroke-width:1.0;"/><path d="M63.5811,196.0111 A10,10 0 0 0 63.5811 181.8689" fill="none" style="stroke:#A80036;stroke-width:1.5;"/><path d="M49.4389,181.8689 A10,10 0 0 0 49.4389 196.0111" fill="none" style="stroke:#A80036;stroke-width:1.5;"/><ellipse cx="56.51" cy="188.94" fill="#FFFFFF" rx="6" ry="6" style="stroke:#A80036;stroke-width:1.5;"/></g><!--link ac1 to right1--><g id="link_ac1_right1"><path d="M129.53,188.94 C138.93,188.94 148.33,188.94 157.72,188.94 " fill="none" id="ac1-to-right1" style="stroke:#A80036;stroke-width:1.0;"/><polygon fill="#A80036" points="162.57,188.94,153.57,184.94,157.57,188.94,153.57,192.94,162.57,188.94" style="stroke:#A80036;stroke-width:1.0;"/><ellipse cx="143.6288" cy="188.94" fill="#FFFFFF" rx="10" ry="10" style="stroke:#FFFFFF;stroke-width:1.0;"/><path d="M150.6998,196.0111 A10,10 0 0 0 150.6998 181.8689" fill="none" style="stroke:#A80036;stroke-width:1.5;"/><path d="M136.5577,181.8689 A10,10 0 0 0 136.5577 196.0111" fill="none" style="stroke:#A80036;stroke-width:1.5;"/><ellipse cx="143.6288" cy="188.94" fill="#FFFFFF" rx="6" ry="6" style="stroke:#A80036;stroke-width:1.5;"/></g><!--reverse link up1 to ac1--><g id="link_up1_ac1"><path d="M122.16,93.08 C115.56,121.31 107.6,155.41 103.24,174.07 " fill="none" id="up1-backto-ac1" style="stroke:#A80036;stroke-width:1.0;stroke-dasharray:7.0,7.0;"/><polygon fill="#A80036" points="123.46,88.52,117.532,96.385,122.3315,93.391,125.3255,98.1906,123.46,88.52" style="stroke:#A80036;stroke-width:1.0;"/><ellipse cx="111.86" cy="137.1638" fill="#FFFFFF" rx="10" ry="10" style="stroke:#FFFFFF;stroke-width:1.0;"/><path d="M103.366,142.4413 A10,10 0 0 0 117.1375 145.6577" fill="none" style="stroke:#A80036;stroke-width:1.5;"/><path d="M120.354,131.8862 A10,10 0 0 0 106.5825 128.6698" fill="none" style="stroke:#A80036;stroke-width:1.5;"/><ellipse cx="111.86" cy="137.1638" fill="#FFFFFF" rx="6" ry="6" style="stroke:#A80036;stroke-width:1.5;"/></g><!--reverse link up2 to ac1--><g id="link_up2_ac1"><path d="M78.52,93.08 C84.91,121.31 92.63,155.41 96.86,174.07 " fill="none" id="up2-backto-ac1" style="stroke:#A80036;stroke-width:1.0;stroke-dasharray:1.0,3.0;"/><polygon fill="#A80036" points="77.26,88.52,75.3345,98.1788,78.3582,93.3979,83.1391,96.4216,77.26,88.52" style="stroke:#A80036;stroke-width:1.0;"/><ellipse cx="88.5" cy="137.1638" fill="#FFFFFF" rx="10" ry="10" style="stroke:#FFFFFF;stroke-width:1.0;"/><path d="M83.1651,145.6218 A10,10 0 0 0 96.9581 142.4987" fill="none" style="stroke:#A80036;stroke-width:1.5;"/><path d="M93.8349,128.7057 A10,10 0 0 0 80.0419 131.8288" fill="none" style="stroke:#A80036;stroke-width:1.5;"/><ellipse cx="88.5" cy="137.1638" fill="#FFFFFF" rx="6" ry="6" style="stroke:#A80036;stroke-width:1.5;"/></g><!--link ac1 to down1--><g id="link_ac1_down1"><path d="M95.99,203.75 C90.59,222.37 80.7,256.45 72.51,284.69 " fill="none" id="ac1-to-down1" style="stroke:#A80036;stroke-width:1.0;"/><polygon fill="#A80036" points="70.89,289.26,77.2234,281.7176,72.273,284.4551,69.5355,279.5047,70.89,289.26" style="stroke:#A80036;stroke-width:1.0;"/><ellipse cx="85.2963" cy="240.6125" fill="#FFFFFF" rx="10" ry="10" style="stroke:#FFFFFF;stroke-width:1.0;"/><path d="M76.535,245.4333 A10,10 0 0 0 90.117 249.3738" fill="none" style="stroke:#A80036;stroke-width:1.5;"/><path d="M94.0575,235.7917 A10,10 0 0 0 80.4755 231.8512" fill="none" style="stroke:#A80036;stroke-width:1.5;"/><ellipse cx="85.2963" cy="240.6125" fill="#FFFFFF" rx="6" ry="6" style="stroke:#A80036;stroke-width:1.5;"/></g><!--link ac1 to down2--><g id="link_ac1_down2"><path d="M104.01,203.75 C109.41,222.37 119.3,256.45 127.49,284.69 " fill="none" id="ac1-to-down2" style="stroke:#A80036;stroke-width:1.0;"/><polygon fill="#A80036" points="129.11,289.26,130.4645,279.5047,127.727,284.4551,122.7766,281.7176,129.11,289.26" style="stroke:#A80036;stroke-width:1.0;"/><ellipse cx="114.7038" cy="240.6125" fill="#FFFFFF" rx="10" ry="10" style="stroke:#FFFFFF;stroke-width:1.0;"/><path d="M109.883,249.3738 A10,10 0 0 0 123.465 245.4333" fill="none" style="stroke:#A80036;stroke-width:1.5;"/><path d="M119.5245,231.8512 A10,10 0 0 0 105.9425 235.7917" fill="none" style="stroke:#A80036;stroke-width:1.5;"/><ellipse cx="114.7038" cy="240.6125" fill="#FFFFFF" rx="6" ry="6" style="stroke:#A80036;stroke-width:1.5;"/></g><!--link actor1 to actor2--><g id="link_actor1_actor2"><path d="M463,87.52 C463,106.26 463,128.43 463,147.17 " fill="none" id="actor1-actor2" style="stroke:#A80036;stroke-width:1.0;"/><path d="M455.9289,124.4161 A10,10 0 0 0 470.0711 124.4161" fill="none" style="stroke:#A80036;stroke-width:1.5;"/><ellipse cx="463" cy="117.345" fill="#FFFFFF" rx="6" ry="6" style="stroke:#A80036;stroke-width:1.5;"/></g><!--link comp1 to comp2--><g id="link_comp1_comp2"><path d="M621.97,82.94 C610.3,104.06 595.65,130.61 584,151.72 " fill="none" id="comp1-comp2" style="stroke:#A80036;stroke-width:1.0;"/><polygon fill="#A80036" points="629.64,70.04,623.2366,73.356,623.8346,80.5423,630.2381,77.2263,629.64,70.04" style="stroke:#A80036;stroke-width:1.0;"/><ellipse cx="580.167" cy="157.6567" fill="#FFFFFF" rx="8" ry="8" style="stroke:#A80036;stroke-width:1.0;"/><line style="stroke:#A80036;stroke-width:1.0;" x1="584.0341" x2="576.3" y1="150.6534" y2="164.66"/><line style="stroke:#A80036;stroke-width:1.0;" x1="587.1703" x2="573.1637" y1="161.5237" y2="153.7897"/><path d="M593.3698,120.1073 A10,10 0 0 0 605.751 126.9414" fill="none" style="stroke:#A80036;stroke-width:1.5;"/><ellipse cx="602.9775" cy="117.3338" fill="#FFFFFF" rx="6" ry="6" style="stroke:#A80036;stroke-width:1.5;"/></g><!--link comp3 to comp4--><g id="link_comp3_comp4"><path d="M812,77.94 C812,101.42 812,133.39 812,156.82 " fill="none" id="comp3-comp4" style="stroke:#A80036;stroke-width:1.0;"/><polygon fill="#A80036" points="812,70.04,808,79.04,812,75.04,816,79.04,812,70.04" style="stroke:#A80036;stroke-width:1.0;"/><line style="stroke:#A80036;stroke-width:1.0;" x1="812" x2="812" y1="75.04" y2="78.04"/><polygon fill="#A80036" points="812,164.66,815,156.66,809,156.66,812,164.66" style="stroke:#A80036;stroke-width:1.0;"/></g><!--link b1 to c1--><g id="link_b1_c1"><path d="M916,69.98 C916,96.16 916,138.38 916,164.58 " fill="none" id="b1-c1" style="stroke:#A80036;stroke-width:1.0;"/><ellipse cx="916" cy="117.2725" fill="#FFFFFF" rx="10" ry="10" style="stroke:#FFFFFF;stroke-width:1.0;"/><path d="M908.9289,124.3436 A10,10 0 0 0 923.0711 124.3436" fill="none" style="stroke:#A80036;stroke-width:1.5;"/><path d="M923.0711,110.2014 A10,10 0 0 0 908.9289 110.2014" fill="none" style="stroke:#A80036;stroke-width:1.5;"/><ellipse cx="916" cy="117.2725" fill="#FFFFFF" rx="6" ry="6" style="stroke:#A80036;stroke-width:1.5;"/></g><!--link comp1 to interf1--><g id="link_comp1_interf1"><path d="M649.23,79.58 C655.37,107.59 663.97,146.79 668.97,169.56 " fill="none" id="comp1-interf1" style="stroke:#A80036;stroke-width:1.0;stroke-dasharray:1.0,3.0;"/><rect fill="#FFFFFF" height="10" style="stroke:#A80036;stroke-width:1.5;" width="10" x="641.91" y="65.04"/><path d="M678.8816,174.2617 A9,9 0 0 0 662.3597 177.8849" fill="none" style="stroke:#A80036;stroke-width:1.5;"/></g><!--link mode1actor to fooa1--><g id="link_mode1actor_fooa1"><path d="M1018,87.52 C1018,106.26 1018,128.43 1018,147.17 " fill="none" id="mode1actor-fooa1" style="stroke:#A80036;stroke-width:1.0;"/><path d="M1010.9289,124.4161 A10,10 0 0 0 1025.0711 124.4161" fill="none" style="stroke:#A80036;stroke-width:1.5;"/><ellipse cx="1018" cy="117.345" fill="#FFFFFF" rx="6" ry="6" style="stroke:#A80036;stroke-width:1.5;"/></g><!--link mode1actorl to foo1l--><g id="link_mode1actorl_foo1l"><path d="M270.79,45.65 C282.12,45.65 293.46,45.65 304.8,45.65 " fill="none" id="mode1actorl-foo1l" style="stroke:#A80036;stroke-width:1.0;"/><path d="M294.8623,52.7211 A10,10 0 0 0 294.8623 38.5789" fill="none" style="stroke:#A80036;stroke-width:1.5;"/><ellipse cx="287.7913" cy="45.65" fill="#FFFFFF" rx="6" ry="6" style="stroke:#A80036;stroke-width:1.5;"/></g><!--link component1 to componentC--><g id="link_component1_componentC"><path d="M1173.45,74.19 C1185.63,99.12 1203.46,135.65 1215.61,160.53 " fill="none" id="component1-componentC" style="stroke:#A80036;stroke-width:1.0;"/><ellipse cx="1170.93" cy="70.04" fill="#FFFFFF" rx="6" ry="6" style="stroke:#A80036;stroke-width:1.5;"/><path d="M1167.6831,79.4982 A10,10 0 0 0 1180.3882 73.2869" fill="#FFFFFF" style="stroke:#A80036;stroke-width:1.5;"/><ellipse cx="1218.12" cy="164.66" fill="#FFFFFF" rx="6" ry="6" style="stroke:#A80036;stroke-width:1.5;"/><path d="M1221.3669,155.2018 A10,10 0 0 0 1208.6618 161.4131" fill="#FFFFFF" style="stroke:#A80036;stroke-width:1.5;"/><path d="M1197.7931,107.9222 A10,10 0 0 0 1185.0847 114.1269" fill="none" style="stroke:#A80036;stroke-width:1.5;"/><ellipse cx="1194.5413" cy="117.3788" fill="#FFFFFF" rx="6" ry="6" style="stroke:#A80036;stroke-width:1.5;"/></g><!--link component3 to componentC--><g id="link_component3_componentC"><path d="M1302.02,63.63 C1288.62,86.45 1264.53,127.46 1247.7,156.12 " fill="none" id="component3-componentC" style="stroke:#A80036;stroke-width:1.0;"/><path d="M1298.6891,53.6084 A9,9 0 0 0 1313.2714 62.1791" fill="none" style="stroke:#A80036;stroke-width:1.5;"/><ellipse cx="1242.29" cy="164.32" fill="#FFFFFF" rx="6" ry="6" style="stroke:#A80036;stroke-width:1.5;"/><path d="M1251.9691,161.8069 A10,10 0 0 0 1239.7769 154.6409" fill="#FFFFFF" style="stroke:#A80036;stroke-width:1.5;"/><text fill="#000000" font-family="sans-serif" font-size="13" lengthAdjust="spacing" textLength="20" x="1223.0919" y="154.8155">foo</text><ellipse cx="1276.1462" cy="107.685" fill="#FFFFFF" rx="6" ry="6" style="stroke:#A80036;stroke-width:1.5;"/></g><!--link aze1 to aze2--><g id="link_aze1_aze2"><path d="M1436,77.94 C1436,101.42 1436,133.39 1436,156.82 " fill="none" id="aze1-aze2" style="stroke:#A80036;stroke-width:1.0;"/><rect fill="#FFFFFF" height="10" style="stroke:#A80036;stroke-width:1.5;" width="10" x="1431" y="65.04"/><polygon fill="#A80036" points="1436,164.66,1439,156.66,1433,156.66,1436,164.66" style="stroke:#A80036;stroke-width:1.0;"/></g><!--SRC=[PP31ReCm38RlUGghlS2cL9ZkX2ekUuoAGu2meT4OfQ2gE_3iinFMhgiKAVw_nFx_vFpLE_1qjagPPY8F7H7Uoro9XeFETFcWaopz9Q0Iqs0AUh2H3hQRP0Q2zdr4ll_uNDbk7fdjIfZ729O05W5vx6efThLqSVYCn38aPCuGGYsmeTD8phe9fC9_EWyQuKMQNbTqb6rVyOjqMK9GRvLIDSskDVuAjKnnawS16bGrEqeEgP_SUZTPtvd6GgnmzTikIt93gZXHQp54Bc9y_aI3V_bGoCUjHpYe639OOGNCaumNtEbxfP8KRd8FgGutDjo_URodZkRRyfHjV2-BlFe1]--></g></svg>