<?xml version="1.0" encoding="us-ascii" standalone="no"?><svg xmlns="http://www.w3.org/2000/svg" xmlns:xlink="http://www.w3.org/1999/xlink" contentStyleType="text/css" height="415px" preserveAspectRatio="none" style="width:698px;height:415px;background:#FFFFFF;" version="1.1" viewBox="0 0 698 415" width="698px" zoomAndPan="magnify"><defs><filter height="300%" id="f12baskyyd42yo" width="300%" x="-1" y="-1"><feGaussianBlur result="blurOut" stdDeviation="2.0"/><feColorMatrix in="blurOut" result="blurOut2" type="matrix" values="0 0 0 0 0 0 0 0 0 0 0 0 0 0 0 0 0 0 .4 0"/><feOffset dx="4.0" dy="4.0" in="blurOut2" result="blurOut3"/><feBlend in="SourceGraphic" in2="blurOut3" mode="normal"/></filter></defs><g><!--class AbstractList--><g id="elem_AbstractList"><rect codeLine="3" fill="#FEFECE" filter="url(#f12baskyyd42yo)" height="48" id="AbstractList" style="stroke:#A80036;stroke-width:1.0;" width="112" x="199.5" y="188.34"/><ellipse cx="214.5" cy="204.34" fill="#A9DCDF" rx="11" ry="11" style="stroke:#A80036;stroke-width:1.0;"/><path d="M214.6094,199.6838 L213.4531,204.7619 L215.7813,204.7619 L214.6094,199.6838 Z M213.125,197.4494 L216.1094,197.4494 L219.4688,209.84 L217.0156,209.84 L216.25,206.7775 L212.9688,206.7775 L212.2188,209.84 L209.7813,209.84 L213.125,197.4494 Z " fill="#000000"/><text fill="#000000" font-family="sans-serif" font-size="14" font-style="italic" lengthAdjust="spacing" textLength="80" x="228.5" y="209.1867">AbstractList</text><line style="stroke:#A80036;stroke-width:1.0;" x1="200.5" x2="310.5" y1="220.34" y2="220.34"/><line style="stroke:#A80036;stroke-width:1.0;" x1="200.5" x2="310.5" y1="228.34" y2="228.34"/></g><!--class AbstractCollection--><g id="elem_AbstractCollection"><rect codeLine="4" fill="#FEFECE" filter="url(#f12baskyyd42yo)" height="48" id="AbstractCollection" style="stroke:#A80036;stroke-width:1.0;" width="157" x="7" y="188.34"/><ellipse cx="22" cy="204.34" fill="#A9DCDF" rx="11" ry="11" style="stroke:#A80036;stroke-width:1.0;"/><path d="M22.1094,199.6838 L20.9531,204.7619 L23.2813,204.7619 L22.1094,199.6838 Z M20.625,197.4494 L23.6094,197.4494 L26.9688,209.84 L24.5156,209.84 L23.75,206.7775 L20.4688,206.7775 L19.7188,209.84 L17.2813,209.84 L20.625,197.4494 Z " fill="#000000"/><text fill="#000000" font-family="sans-serif" font-size="14" font-style="italic" lengthAdjust="spacing" textLength="125" x="36" y="209.1867">AbstractCollection</text><line style="stroke:#A80036;stroke-width:1.0;" x1="8" x2="163" y1="220.34" y2="220.34"/><line style="stroke:#A80036;stroke-width:1.0;" x1="8" x2="163" y1="228.34" y2="228.34"/></g><!--class List--><g id="elem_List"><rect codeLine="5" fill="#FEFECE" filter="url(#f12baskyyd42yo)" height="48" id="List" style="stroke:#A80036;stroke-width:1.0;" width="55" x="200" y="31.45"/><ellipse cx="215" cy="47.45" fill="#B4A7E5" rx="11" ry="11" style="stroke:#A80036;stroke-width:1.0;"/><path d="M210.9219,43.2156 L210.9219,41.0594 L218.3125,41.0594 L218.3125,43.2156 L215.8438,43.2156 L215.8438,51.2937 L218.3125,51.2937 L218.3125,53.45 L210.9219,53.45 L210.9219,51.2937 L213.3906,51.2937 L213.3906,43.2156 L210.9219,43.2156 Z " fill="#000000"/><text fill="#000000" font-family="sans-serif" font-size="14" font-style="italic" lengthAdjust="spacing" textLength="23" x="229" y="52.2967">List</text><line style="stroke:#A80036;stroke-width:1.0;" x1="201" x2="254" y1="63.45" y2="63.45"/><line style="stroke:#A80036;stroke-width:1.0;" x1="201" x2="254" y1="71.45" y2="71.45"/></g><!--class Collection--><g id="elem_Collection"><rect codeLine="6" fill="#FEFECE" filter="url(#f12baskyyd42yo)" height="48" id="Collection" style="stroke:#A80036;stroke-width:1.0;" width="100" x="50.5" y="31.45"/><ellipse cx="65.5" cy="47.45" fill="#B4A7E5" rx="11" ry="11" style="stroke:#A80036;stroke-width:1.0;"/><path d="M61.4219,43.2156 L61.4219,41.0594 L68.8125,41.0594 L68.8125,43.2156 L66.3438,43.2156 L66.3438,51.2937 L68.8125,51.2937 L68.8125,53.45 L61.4219,53.45 L61.4219,51.2937 L63.8906,51.2937 L63.8906,43.2156 L61.4219,43.2156 Z " fill="#000000"/><text fill="#000000" font-family="sans-serif" font-size="14" font-style="italic" lengthAdjust="spacing" textLength="68" x="79.5" y="52.2967">Collection</text><line style="stroke:#A80036;stroke-width:1.0;" x1="51.5" x2="149.5" y1="63.45" y2="63.45"/><line style="stroke:#A80036;stroke-width:1.0;" x1="51.5" x2="149.5" y1="71.45" y2="71.45"/></g><!--class ArrayList--><g id="elem_ArrayList"><rect codeLine="15" fill="#FEFECE" filter="url(#f12baskyyd42yo)" height="80.5938" id="ArrayList" style="stroke:#A80036;stroke-width:1.0;" width="160" x="175.5" y="320.79"/><ellipse cx="222.75" cy="336.79" fill="#ADD1B2" rx="11" ry="11" style="stroke:#A80036;stroke-width:1.0;"/><path d="M225.7188,342.4306 Q225.1406,342.7275 224.5,342.8681 Q223.8594,343.0244 223.1563,343.0244 Q220.6563,343.0244 219.3281,341.3837 Q218.0156,339.7275 218.0156,336.6025 Q218.0156,333.4775 219.3281,331.8212 Q220.6563,330.165 223.1563,330.165 Q223.8594,330.165 224.5,330.3212 Q225.1563,330.4775 225.7188,330.7744 L225.7188,333.4931 Q225.0938,332.915 224.5,332.6494 Q223.9063,332.3681 223.2813,332.3681 Q221.9375,332.3681 221.25,333.4462 Q220.5625,334.5087 220.5625,336.6025 Q220.5625,338.6962 221.25,339.7744 Q221.9375,340.8369 223.2813,340.8369 Q223.9063,340.8369 224.5,340.5712 Q225.0938,340.29 225.7188,339.7119 L225.7188,342.4306 Z " fill="#000000"/><text fill="#000000" font-family="sans-serif" font-size="14" lengthAdjust="spacing" textLength="57" x="243.25" y="341.6367">ArrayList</text><line style="stroke:#A80036;stroke-width:1.0;" x1="176.5" x2="334.5" y1="352.79" y2="352.79"/><text fill="#000000" font-family="sans-serif" font-size="14" lengthAdjust="spacing" textLength="148" x="181.5" y="369.7851">Object[] elementData</text><line style="stroke:#A80036;stroke-width:1.0;" x1="176.5" x2="334.5" y1="377.0869" y2="377.0869"/><text fill="#000000" font-family="sans-serif" font-size="14" lengthAdjust="spacing" textLength="38" x="181.5" y="394.082">size()</text></g><!--class TimeUnit--><g id="elem_TimeUnit"><rect codeLine="20" fill="#FEFECE" filter="url(#f12baskyyd42yo)" height="96.8906" id="TimeUnit" style="stroke:#A80036;stroke-width:1.0;" width="93" x="394" y="7"/><ellipse cx="409" cy="23" fill="#EB937F" rx="11" ry="11" style="stroke:#A80036;stroke-width:1.0;"/><path d="M413.1094,29 L405.3906,29 L405.3906,16.6094 L413.1094,16.6094 L413.1094,18.7656 L407.8438,18.7656 L407.8438,21.4375 L412.6094,21.4375 L412.6094,23.5938 L407.8438,23.5938 L407.8438,26.8438 L413.1094,26.8438 L413.1094,29 Z " fill="#000000"/><text fill="#000000" font-family="sans-serif" font-size="14" lengthAdjust="spacing" textLength="61" x="423" y="27.8467">TimeUnit</text><line style="stroke:#A80036;stroke-width:1.0;" x1="395" x2="486" y1="39" y2="39"/><text fill="#000000" font-family="sans-serif" font-size="14" lengthAdjust="spacing" textLength="38" x="400" y="55.9951">DAYS</text><text fill="#000000" font-family="sans-serif" font-size="14" lengthAdjust="spacing" textLength="50" x="400" y="72.292">HOURS</text><text fill="#000000" font-family="sans-serif" font-size="14" lengthAdjust="spacing" textLength="62" x="400" y="88.5889">MINUTES</text><line style="stroke:#A80036;stroke-width:1.0;" x1="395" x2="486" y1="95.8906" y2="95.8906"/></g><!--class SuppressWarnings--><g id="elem_SuppressWarnings"><rect codeLine="26" fill="#FEFECE" filter="url(#f12baskyyd42yo)" height="48" id="SuppressWarnings" style="stroke:#A80036;stroke-width:1.0;" width="162" x="522.5" y="31.45"/><ellipse cx="537.5" cy="47.45" fill="#E3664A" rx="11" ry="11" style="stroke:#A80036;stroke-width:1.0;"/><path d="M539.5781,47.9187 Q539.5781,46.9812 539.1563,46.45 Q538.7344,45.9187 537.9844,45.9187 Q537.25,45.9187 536.8281,46.45 Q536.4219,46.9812 536.4219,47.9187 Q536.4219,48.8719 536.8281,49.4031 Q537.25,49.9344 537.9844,49.9344 Q538.7344,49.9344 539.1563,49.4031 Q539.5781,48.8719 539.5781,47.9187 Z M541.125,51.325 L539.5,51.325 L539.5,50.6531 Q539.1719,51.0906 538.75,51.2937 Q538.3281,51.4969 537.7188,51.4969 Q536.3594,51.4969 535.5313,50.5281 Q534.7031,49.5437 534.7031,47.9187 Q534.7031,46.325 535.5313,45.3562 Q536.3594,44.3719 537.7188,44.3719 Q538.3125,44.3719 538.7656,44.575 Q539.2188,44.7781 539.5,45.1687 L539.5,44.825 Q539.5,43.7 538.875,43.0906 Q538.25,42.4656 537.1094,42.4656 Q535.3906,42.4656 534.2969,43.9969 Q533.2031,45.5125 533.2031,47.95 Q533.2031,50.4969 534.4531,51.9969 Q535.7188,53.4969 537.8281,53.4969 Q538.4844,53.4969 539.1094,53.3094 Q539.7344,53.1219 540.3125,52.7312 L541.0781,54.1844 Q540.4063,54.6375 539.6094,54.8562 Q538.8125,55.0906 537.9063,55.0906 Q535,55.0906 533.2656,53.1531 Q531.5469,51.2312 531.5469,47.95 Q531.5469,44.7312 533.0938,42.8094 Q534.6563,40.8719 537.2188,40.8719 Q539.0156,40.8719 540.0625,41.9656 Q541.125,43.0594 541.125,44.9344 L541.125,51.325 Z " fill="#000000"/><text fill="#000000" font-family="sans-serif" font-size="14" lengthAdjust="spacing" textLength="130" x="551.5" y="52.2967">SuppressWarnings</text><line style="stroke:#A80036;stroke-width:1.0;" x1="523.5" x2="683.5" y1="63.45" y2="63.45"/><line style="stroke:#A80036;stroke-width:1.0;" x1="523.5" x2="683.5" y1="71.45" y2="71.45"/></g><!--class Annotation--><g id="elem_Annotation"><rect codeLine="28" fill="#FEFECE" filter="url(#f12baskyyd42yo)" height="96.8906" id="Annotation" style="stroke:#A80036;stroke-width:1.0;" width="188" x="346.5" y="163.9"/><ellipse cx="398.75" cy="179.9" fill="#E3664A" rx="11" ry="11" style="stroke:#A80036;stroke-width:1.0;"/><path d="M400.8281,180.3688 Q400.8281,179.4313 400.4063,178.9 Q399.9844,178.3688 399.2344,178.3688 Q398.5,178.3688 398.0781,178.9 Q397.6719,179.4313 397.6719,180.3688 Q397.6719,181.3219 398.0781,181.8531 Q398.5,182.3844 399.2344,182.3844 Q399.9844,182.3844 400.4063,181.8531 Q400.8281,181.3219 400.8281,180.3688 Z M402.375,183.775 L400.75,183.775 L400.75,183.1031 Q400.4219,183.5406 400,183.7438 Q399.5781,183.9469 398.9688,183.9469 Q397.6094,183.9469 396.7813,182.9781 Q395.9531,181.9938 395.9531,180.3688 Q395.9531,178.775 396.7813,177.8063 Q397.6094,176.8219 398.9688,176.8219 Q399.5625,176.8219 400.0156,177.025 Q400.4688,177.2281 400.75,177.6188 L400.75,177.275 Q400.75,176.15 400.125,175.5406 Q399.5,174.9156 398.3594,174.9156 Q396.6406,174.9156 395.5469,176.4469 Q394.4531,177.9625 394.4531,180.4 Q394.4531,182.9469 395.7031,184.4469 Q396.9688,185.9469 399.0781,185.9469 Q399.7344,185.9469 400.3594,185.7594 Q400.9844,185.5719 401.5625,185.1813 L402.3281,186.6344 Q401.6563,187.0875 400.8594,187.3063 Q400.0625,187.5406 399.1563,187.5406 Q396.25,187.5406 394.5156,185.6031 Q392.7969,183.6813 392.7969,180.4 Q392.7969,177.1813 394.3438,175.2594 Q395.9063,173.3219 398.4688,173.3219 Q400.2656,173.3219 401.3125,174.4156 Q402.375,175.5094 402.375,177.3844 L402.375,183.775 Z " fill="#000000"/><text fill="#000000" font-family="sans-serif" font-size="14" lengthAdjust="spacing" textLength="75" x="419.25" y="184.7467">Annotation</text><line style="stroke:#A80036;stroke-width:1.0;" x1="347.5" x2="533.5" y1="195.9" y2="195.9"/><text fill="#000000" font-family="sans-serif" font-size="14" lengthAdjust="spacing" textLength="176" x="352.5" y="212.8951">annotation with members</text><line style="stroke:#A80036;stroke-width:1.0;" x1="347.5" x2="533.5" y1="220.1969" y2="220.1969"/><text fill="#000000" font-family="sans-serif" font-size="14" lengthAdjust="spacing" textLength="76" x="352.5" y="237.192">String foo()</text><text fill="#000000" font-family="sans-serif" font-size="14" lengthAdjust="spacing" textLength="76" x="352.5" y="253.4889">String bar()</text></g><!--reverse link List to AbstractList--><g id="link_List_AbstractList"><path codeLine="8" d="M235.38,100.07 C240.54,128.61 247.08,164.78 251.28,187.99 " fill="none" id="List-backto-AbstractList" style="stroke:#A80036;stroke-width:1.0;"/><polygon fill="none" points="228.36,101.57,231.69,80.64,242.14,99.07,228.36,101.57" style="stroke:#A80036;stroke-width:1.0;"/></g><!--reverse link Collection to AbstractCollection--><g id="link_Collection_AbstractCollection"><path codeLine="9" d="M96.24,100.49 C93.48,128.97 90,164.89 87.76,187.99 " fill="none" id="Collection-backto-AbstractCollection" style="stroke:#A80036;stroke-width:1.0;"/><polygon fill="none" points="89.36,99.87,98.25,80.64,103.29,101.22,89.36,99.87" style="stroke:#A80036;stroke-width:1.0;"/></g><!--reverse link Collection to List--><g id="link_Collection_List"><path codeLine="11" d="M171.26,55.45 C180.7,55.45 190.13,55.45 199.57,55.45 " fill="none" id="Collection-backto-List" style="stroke:#A80036;stroke-width:1.0;"/><polygon fill="none" points="171.61,62.45,151.61,55.45,171.61,48.45,171.61,62.45" style="stroke:#A80036;stroke-width:1.0;"/></g><!--reverse link AbstractCollection to AbstractList--><g id="link_AbstractCollection_AbstractList"><path codeLine="12" d="M184.95,212.34 C189.68,212.34 194.41,212.34 199.15,212.34 " fill="none" id="AbstractCollection-backto-AbstractList" style="stroke:#A80036;stroke-width:1.0;"/><polygon fill="none" points="185.19,219.34,165.19,212.34,185.19,205.34,185.19,219.34" style="stroke:#A80036;stroke-width:1.0;"/></g><!--reverse link AbstractList to ArrayList--><g id="link_AbstractList_ArrayList"><path codeLine="13" d="M255.5,257.31 C255.5,277.34 255.5,300.87 255.5,320.36 " fill="none" id="AbstractList-backto-ArrayList" style="stroke:#A80036;stroke-width:1.0;"/><polygon fill="none" points="248.5,257.59,255.5,237.59,262.5,257.59,248.5,257.59" style="stroke:#A80036;stroke-width:1.0;"/></g><!--SRC=[POzDJiD038NtSmelOT4Ri8aeKf60IgGHGXKB9t9X8EEfR5S8QE_EvASa8rQUv-_vsQCVda6YadDOgmas1asBgb2CyiwhJUpSlOvjIutvoCwpaUom8UYjavnvN8VWwhXOvBcJ9OVpqTmpBFdlwrcMFHTZkWX-zSoDVpmtuCS1hEltbBLz0Mef4DiI3LDR_JTTNBgJSyI701iVg68_Z2oBvpALrRfwxEhzxKErkIaxBp97m_woyh3V2wa-eR3dLyrWCJsxm1dvzFO6WK9DeecK9caOTZ6cO_vaZJBSzWi0]--></g></svg>