<svg xmlns="http://www.w3.org/2000/svg" xmlns:xlink="http://www.w3.org/1999/xlink" version="1.1" class="marks" width="514" height="512" viewBox="0 0 514 512"><g fill="none" stroke-miterlimit="10" transform="translate(7,7)"><g class="mark-group role-frame root" role="graphics-object" aria-roledescription="group mark container"><g transform="translate(0,0)"><path class="background" aria-hidden="true" d="M0,0h500v500h-500Z"/><g><g class="mark-symbol role-mark" role="graphics-symbol" aria-roledescription="symbol mark container"><path transform="translate(319.58762886597935,297.61904761904765)" d="M2,0A2,2,0,1,1,-2,0A2,2,0,1,1,2,0" fill="#4c78a8" fill-opacity="0.5"/><path transform="translate(128.86597938144328,154.76190476190476)" d="M2,0A2,2,0,1,1,-2,0A2,2,0,1,1,2,0" fill="#4c78a8" fill-opacity="0.5"/><path transform="translate(443.29896907216494,83.33333333333337)" d="M2,0A2,2,0,1,1,-2,0A2,2,0,1,1,2,0" fill="#4c78a8" fill-opacity="0.5"/><path transform="translate(417.5257731958763,83.33333333333337)" d="M2,0A2,2,0,1,1,-2,0A2,2,0,1,1,2,0" fill="#4c78a8" fill-opacity="0.5"/><path transform="translate(432.9896907216495,53.571428571428605)" d="M2,0A2,2,0,1,1,-2,0A2,2,0,1,1,2,0" fill="#4c78a8" fill-opacity="0.5"/><path transform="translate(500,0)" d="M2,0A2,2,0,1,1,-2,0A2,2,0,1,1,2,0" fill="#4c78a8" fill-opacity="0.5"/><path transform="translate(448.4536082474227,95.23809523809528)" d="M2,0A2,2,0,1,1,-2,0A2,2,0,1,1,2,0" fill="#4c78a8" fill-opacity="0.5"/><path transform="translate(500,11.904761904761973)" d="M2,0A2,2,0,1,1,-2,0A2,2,0,1,1,2,0" fill="#4c78a8" fill-opacity="0.5"/><path transform="translate(118.55670103092783,309.5238095238095)" d="M2,0A2,2,0,1,1,-2,0A2,2,0,1,1,2,0" fill="#4c78a8" fill-opacity="0.5"/><path transform="translate(195.8762886597938,202.38095238095238)" d="M2,0A2,2,0,1,1,-2,0A2,2,0,1,1,2,0" fill="#4c78a8" fill-opacity="0.5"/><path transform="translate(206.18556701030926,214.2857142857143)" d="M2,0A2,2,0,1,1,-2,0A2,2,0,1,1,2,0" fill="#4c78a8" fill-opacity="0.5"/><path transform="translate(427.83505154639175,65.47619047619052)" d="M2,0A2,2,0,1,1,-2,0A2,2,0,1,1,2,0" fill="#4c78a8" fill-opacity="0.5"/><path transform="translate(237.11340206185565,136.90476190476193)" d="M2,0A2,2,0,1,1,-2,0A2,2,0,1,1,2,0" fill="#4c78a8" fill-opacity="0.5"/><path transform="translate(51.546391752577314,202.38095238095238)" d="M2,0A2,2,0,1,1,-2,0A2,2,0,1,1,2,0" fill="#4c78a8" fill-opacity="0.5"/></g><g class="mark-group role-scope" role="graphics-object" aria-roledescription="group mark container"><g transform="translate(0,0)"><path class="background" aria-hidden="true" d="M0,0h0v0h0Z"/><g><g class="mark-line role-mark" role="graphics-symbol" aria-roledescription="line mark container"><path d="M0,291.517L500,46.417" stroke="firebrick" stroke-width="2"/></g></g><path class="foreground" aria-hidden="true" d="" display="none"/></g></g></g><path class="foreground" aria-hidden="true" d="" display="none"/></g></g></g></svg>