<?xml version="1.0" encoding="us-ascii" standalone="no"?><svg xmlns="http://www.w3.org/2000/svg" xmlns:xlink="http://www.w3.org/1999/xlink" contentStyleType="text/css" height="912px" preserveAspectRatio="none" style="width:485px;height:912px;background:#FFFFFF;" version="1.1" viewBox="0 0 485 912" width="485px" zoomAndPan="magnify"><defs><filter height="300%" id="f19q2tpsc479e7" width="300%" x="-1" y="-1"><feGaussianBlur result="blurOut" stdDeviation="2.0"/><feColorMatrix in="blurOut" result="blurOut2" type="matrix" values="0 0 0 0 0 0 0 0 0 0 0 0 0 0 0 0 0 0 .4 0"/><feOffset dx="4.0" dy="4.0" in="blurOut2" result="blurOut3"/><feBlend in="SourceGraphic" in2="blurOut3" mode="normal"/></filter></defs><g><ellipse cx="189.5" cy="20" fill="#000000" filter="url(#f19q2tpsc479e7)" rx="10" ry="10" style="stroke:#000000;stroke-width:1.0;"/><rect fill="#FEFECE" filter="url(#f19q2tpsc479e7)" height="33.9688" rx="12.5" ry="12.5" style="stroke:#A80036;stroke-width:1.5;" width="200" x="89.5" y="50"/><text fill="#000000" font-family="sans-serif" font-size="12" lengthAdjust="spacing" textLength="180" x="99.5" y="71.1387">ClickServlet.handleRequest()</text><rect fill="#FEFECE" filter="url(#f19q2tpsc479e7)" height="33.9688" rx="12.5" ry="12.5" style="stroke:#A80036;stroke-width:1.5;" width="81" x="149" y="103.9688"/><text fill="#000000" font-family="sans-serif" font-size="12" lengthAdjust="spacing" textLength="61" x="159" y="125.1074">new page</text><rect fill="#FEFECE" filter="url(#f19q2tpsc479e7)" height="33.9688" rx="12.5" ry="12.5" style="stroke:#A80036;stroke-width:1.5;" width="101" x="139" y="206.3398"/><text fill="#000000" font-family="sans-serif" font-size="12" lengthAdjust="spacing" textLength="81" x="149" y="227.4785">Page.onInit()</text><rect fill="#FEFECE" filter="url(#f19q2tpsc479e7)" height="33.9688" rx="12.5" ry="12.5" style="stroke:#A80036;stroke-width:1.5;" width="125" x="127" y="308.7109"/><text fill="#000000" font-family="sans-serif" font-size="12" lengthAdjust="spacing" textLength="105" x="137" y="329.8496">Process controls</text><polygon fill="#FEFECE" filter="url(#f19q2tpsc479e7)" points="129,362.6797,250,362.6797,262,374.6797,250,386.6797,129,386.6797,117,374.6797,129,362.6797" style="stroke:#A80036;stroke-width:1.5;"/><text fill="#000000" font-family="sans-serif" font-size="11" lengthAdjust="spacing" textLength="121" x="129" y="378.4878">continue processing?</text><text fill="#000000" font-family="sans-serif" font-size="11" lengthAdjust="spacing" textLength="14" x="262" y="372.0854">no</text><ellipse cx="298" cy="374.6797" fill="#FFFFFF" filter="url(#f19q2tpsc479e7)" rx="11" ry="11" style="stroke:#000000;stroke-width:1.0;"/><ellipse cx="298" cy="374.6797" fill="#000000" rx="6" ry="6" style="stroke:#7F7F7F;stroke-width:1.0;"/><polygon fill="#FEFECE" filter="url(#f19q2tpsc479e7)" points="169,431.1953,210,431.1953,222,443.1953,210,455.1953,169,455.1953,157,443.1953,169,431.1953" style="stroke:#A80036;stroke-width:1.5;"/><text fill="#000000" font-family="sans-serif" font-size="11" lengthAdjust="spacing" textLength="41" x="169" y="447.0034">isPost?</text><text fill="#000000" font-family="sans-serif" font-size="11" lengthAdjust="spacing" textLength="20" x="137" y="440.6011">yes</text><text fill="#000000" font-family="sans-serif" font-size="11" lengthAdjust="spacing" textLength="14" x="222" y="440.6011">no</text><rect fill="#FEFECE" filter="url(#f19q2tpsc479e7)" height="33.9688" rx="12.5" ry="12.5" style="stroke:#A80036;stroke-width:1.5;" width="110" x="71" y="465.1953"/><text fill="#000000" font-family="sans-serif" font-size="12" lengthAdjust="spacing" textLength="90" x="81" y="486.334">Page.onPost()</text><rect fill="#FEFECE" filter="url(#f19q2tpsc479e7)" height="33.9688" rx="12.5" ry="12.5" style="stroke:#A80036;stroke-width:1.5;" width="104" x="201" y="465.1953"/><text fill="#000000" font-family="sans-serif" font-size="12" lengthAdjust="spacing" textLength="84" x="211" y="486.334">Page.onGet()</text><polygon fill="#FEFECE" filter="url(#f19q2tpsc479e7)" points="189.5,505.1641,201.5,517.1641,189.5,529.1641,177.5,517.1641,189.5,505.1641" style="stroke:#A80036;stroke-width:1.5;"/><rect fill="#FEFECE" filter="url(#f19q2tpsc479e7)" height="33.9688" rx="12.5" ry="12.5" style="stroke:#A80036;stroke-width:1.5;" width="127" x="126" y="549.1641"/><text fill="#000000" font-family="sans-serif" font-size="12" lengthAdjust="spacing" textLength="107" x="136" y="570.3027">Page.onRender()</text><polygon fill="#FEFECE" filter="url(#f19q2tpsc479e7)" points="158.5,260.3086,220.5,260.3086,232.5,272.3086,220.5,284.3086,158.5,284.3086,146.5,272.3086,158.5,260.3086" style="stroke:#A80036;stroke-width:1.5;"/><text fill="#000000" font-family="sans-serif" font-size="11" lengthAdjust="spacing" textLength="14" x="193.5" y="294.519">no</text><text fill="#000000" font-family="sans-serif" font-size="11" lengthAdjust="spacing" textLength="62" x="158.5" y="276.1167">isForward?</text><polygon fill="#FEFECE" filter="url(#f19q2tpsc479e7)" points="189.5,603.1328,201.5,615.1328,189.5,627.1328,177.5,615.1328,189.5,603.1328" style="stroke:#A80036;stroke-width:1.5;"/><polygon fill="#FEFECE" filter="url(#f19q2tpsc479e7)" points="126.5,157.9375,252.5,157.9375,264.5,169.9375,252.5,181.9375,126.5,181.9375,114.5,169.9375,126.5,157.9375" style="stroke:#A80036;stroke-width:1.5;"/><text fill="#000000" font-family="sans-serif" font-size="11" lengthAdjust="spacing" textLength="23" x="193.5" y="192.1479">true</text><text fill="#000000" font-family="sans-serif" font-size="11" lengthAdjust="spacing" textLength="126" x="126.5" y="173.7456">Page.onSecurityCheck</text><text fill="#000000" font-family="sans-serif" font-size="11" lengthAdjust="spacing" textLength="28" x="264.5" y="167.3433">false</text><polygon fill="#FEFECE" filter="url(#f19q2tpsc479e7)" points="189.5,647.1328,201.5,659.1328,189.5,671.1328,177.5,659.1328,189.5,647.1328" style="stroke:#A80036;stroke-width:1.5;"/><polygon fill="#FEFECE" filter="url(#f19q2tpsc479e7)" points="155.5,691.1328,223.5,691.1328,235.5,703.1328,223.5,715.1328,155.5,715.1328,143.5,703.1328,155.5,691.1328" style="stroke:#A80036;stroke-width:1.5;"/><text fill="#000000" font-family="sans-serif" font-size="11" lengthAdjust="spacing" textLength="68" x="155.5" y="706.9409">do redirect?</text><text fill="#000000" font-family="sans-serif" font-size="11" lengthAdjust="spacing" textLength="20" x="123.5" y="700.5386">yes</text><rect fill="#FEFECE" filter="url(#f19q2tpsc479e7)" height="33.9688" rx="12.5" ry="12.5" style="stroke:#A80036;stroke-width:1.5;" width="123" x="11" y="725.1328"/><text fill="#000000" font-family="sans-serif" font-size="12" lengthAdjust="spacing" textLength="103" x="21" y="746.2715">redirect process</text><polygon fill="#FEFECE" filter="url(#f19q2tpsc479e7)" points="272.5,725.1328,340.5,725.1328,352.5,737.1328,340.5,749.1328,272.5,749.1328,260.5,737.1328,272.5,725.1328" style="stroke:#A80036;stroke-width:1.5;"/><text fill="#000000" font-family="sans-serif" font-size="11" lengthAdjust="spacing" textLength="68" x="272.5" y="740.9409">do forward?</text><text fill="#000000" font-family="sans-serif" font-size="11" lengthAdjust="spacing" textLength="20" x="240.5" y="734.5386">yes</text><text fill="#000000" font-family="sans-serif" font-size="11" lengthAdjust="spacing" textLength="14" x="352.5" y="734.5386">no</text><rect fill="#FEFECE" filter="url(#f19q2tpsc479e7)" height="33.9688" rx="12.5" ry="12.5" style="stroke:#A80036;stroke-width:1.5;" width="123" x="164" y="759.1328"/><text fill="#000000" font-family="sans-serif" font-size="12" lengthAdjust="spacing" textLength="103" x="174" y="780.2715">Forward request</text><rect fill="#FEFECE" filter="url(#f19q2tpsc479e7)" height="33.9688" rx="12.5" ry="12.5" style="stroke:#A80036;stroke-width:1.5;" width="161" x="307" y="759.1328"/><text fill="#000000" font-family="sans-serif" font-size="12" lengthAdjust="spacing" textLength="141" x="317" y="780.2715">Render page template</text><polygon fill="#FEFECE" filter="url(#f19q2tpsc479e7)" points="306.5,799.1016,318.5,811.1016,306.5,823.1016,294.5,811.1016,306.5,799.1016" style="stroke:#A80036;stroke-width:1.5;"/><polygon fill="#FEFECE" filter="url(#f19q2tpsc479e7)" points="189.5,829.1016,201.5,841.1016,189.5,853.1016,177.5,841.1016,189.5,829.1016" style="stroke:#A80036;stroke-width:1.5;"/><ellipse cx="189.5" cy="884.1016" fill="#FFFFFF" filter="url(#f19q2tpsc479e7)" rx="11" ry="11" style="stroke:#000000;stroke-width:1.0;"/><ellipse cx="189.5" cy="884.1016" fill="#000000" rx="6" ry="6" style="stroke:#7F7F7F;stroke-width:1.0;"/><line style="stroke:#A80036;stroke-width:1.5;" x1="189.5" x2="189.5" y1="30" y2="50"/><polygon fill="#A80036" points="185.5,40,189.5,50,193.5,40,189.5,44" style="stroke:#A80036;stroke-width:1.0;"/><line style="stroke:#A80036;stroke-width:1.5;" x1="189.5" x2="189.5" y1="83.9688" y2="103.9688"/><polygon fill="#A80036" points="185.5,93.9688,189.5,103.9688,193.5,93.9688,189.5,97.9688" style="stroke:#A80036;stroke-width:1.0;"/><line style="stroke:#A80036;stroke-width:1.5;" x1="189.5" x2="189.5" y1="386.6797" y2="431.1953"/><polygon fill="#A80036" points="185.5,421.1953,189.5,431.1953,193.5,421.1953,189.5,425.1953" style="stroke:#A80036;stroke-width:1.0;"/><line style="stroke:#A80036;stroke-width:1.5;" x1="262" x2="287" y1="374.6797" y2="374.6797"/><polygon fill="#A80036" points="277,370.6797,287,374.6797,277,378.6797,281,374.6797" style="stroke:#A80036;stroke-width:1.0;"/><line style="stroke:#A80036;stroke-width:1.5;" x1="189.5" x2="189.5" y1="342.6797" y2="362.6797"/><polygon fill="#A80036" points="185.5,352.6797,189.5,362.6797,193.5,352.6797,189.5,356.6797" style="stroke:#A80036;stroke-width:1.0;"/><line style="stroke:#A80036;stroke-width:1.5;" x1="157" x2="126" y1="443.1953" y2="443.1953"/><line style="stroke:#A80036;stroke-width:1.5;" x1="126" x2="126" y1="443.1953" y2="465.1953"/><polygon fill="#A80036" points="122,455.1953,126,465.1953,130,455.1953,126,459.1953" style="stroke:#A80036;stroke-width:1.0;"/><line style="stroke:#A80036;stroke-width:1.5;" x1="222" x2="253" y1="443.1953" y2="443.1953"/><line style="stroke:#A80036;stroke-width:1.5;" x1="253" x2="253" y1="443.1953" y2="465.1953"/><polygon fill="#A80036" points="249,455.1953,253,465.1953,257,455.1953,253,459.1953" style="stroke:#A80036;stroke-width:1.0;"/><line style="stroke:#A80036;stroke-width:1.5;" x1="126" x2="126" y1="499.1641" y2="517.1641"/><line style="stroke:#A80036;stroke-width:1.5;" x1="126" x2="177.5" y1="517.1641" y2="517.1641"/><polygon fill="#A80036" points="167.5,513.1641,177.5,517.1641,167.5,521.1641,171.5,517.1641" style="stroke:#A80036;stroke-width:1.0;"/><line style="stroke:#A80036;stroke-width:1.5;" x1="253" x2="253" y1="499.1641" y2="517.1641"/><line style="stroke:#A80036;stroke-width:1.5;" x1="253" x2="201.5" y1="517.1641" y2="517.1641"/><polygon fill="#A80036" points="211.5,513.1641,201.5,517.1641,211.5,521.1641,207.5,517.1641" style="stroke:#A80036;stroke-width:1.0;"/><line style="stroke:#A80036;stroke-width:1.5;" x1="189.5" x2="189.5" y1="529.1641" y2="549.1641"/><polygon fill="#A80036" points="185.5,539.1641,189.5,549.1641,193.5,539.1641,189.5,543.1641" style="stroke:#A80036;stroke-width:1.0;"/><line style="stroke:#A80036;stroke-width:1.5;" x1="189.5" x2="189.5" y1="284.3086" y2="308.7109"/><polygon fill="#A80036" points="185.5,298.7109,189.5,308.7109,193.5,298.7109,189.5,302.7109" style="stroke:#A80036;stroke-width:1.0;"/><line style="stroke:#A80036;stroke-width:1.5;" x1="232.5" x2="331" y1="272.3086" y2="272.3086"/><polygon fill="#A80036" points="327,416.6797,331,426.6797,335,416.6797,331,420.6797" style="stroke:#A80036;stroke-width:1.5;"/><line style="stroke:#A80036;stroke-width:1.5;" x1="331" x2="331" y1="272.3086" y2="615.1328"/><line style="stroke:#A80036;stroke-width:1.5;" x1="331" x2="201.5" y1="615.1328" y2="615.1328"/><polygon fill="#A80036" points="211.5,611.1328,201.5,615.1328,211.5,619.1328,207.5,615.1328" style="stroke:#A80036;stroke-width:1.0;"/><line style="stroke:#A80036;stroke-width:1.5;" x1="189.5" x2="189.5" y1="583.1328" y2="603.1328"/><polygon fill="#A80036" points="185.5,593.1328,189.5,603.1328,193.5,593.1328,189.5,597.1328" style="stroke:#A80036;stroke-width:1.0;"/><line style="stroke:#A80036;stroke-width:1.5;" x1="189.5" x2="189.5" y1="240.3086" y2="260.3086"/><polygon fill="#A80036" points="185.5,250.3086,189.5,260.3086,193.5,250.3086,189.5,254.3086" style="stroke:#A80036;stroke-width:1.0;"/><line style="stroke:#A80036;stroke-width:1.5;" x1="189.5" x2="189.5" y1="181.9375" y2="206.3398"/><polygon fill="#A80036" points="185.5,196.3398,189.5,206.3398,193.5,196.3398,189.5,200.3398" style="stroke:#A80036;stroke-width:1.0;"/><line style="stroke:#A80036;stroke-width:1.5;" x1="264.5" x2="353" y1="169.9375" y2="169.9375"/><polygon fill="#A80036" points="349,396.6797,353,406.6797,357,396.6797,353,400.6797" style="stroke:#A80036;stroke-width:1.5;"/><line style="stroke:#A80036;stroke-width:1.5;" x1="353" x2="353" y1="169.9375" y2="659.1328"/><line style="stroke:#A80036;stroke-width:1.5;" x1="353" x2="201.5" y1="659.1328" y2="659.1328"/><polygon fill="#A80036" points="211.5,655.1328,201.5,659.1328,211.5,663.1328,207.5,659.1328" style="stroke:#A80036;stroke-width:1.0;"/><line style="stroke:#A80036;stroke-width:1.5;" x1="189.5" x2="189.5" y1="627.1328" y2="647.1328"/><polygon fill="#A80036" points="185.5,637.1328,189.5,647.1328,193.5,637.1328,189.5,641.1328" style="stroke:#A80036;stroke-width:1.0;"/><line style="stroke:#A80036;stroke-width:1.5;" x1="189.5" x2="189.5" y1="137.9375" y2="157.9375"/><polygon fill="#A80036" points="185.5,147.9375,189.5,157.9375,193.5,147.9375,189.5,151.9375" style="stroke:#A80036;stroke-width:1.0;"/><line style="stroke:#A80036;stroke-width:1.5;" x1="260.5" x2="225.5" y1="737.1328" y2="737.1328"/><line style="stroke:#A80036;stroke-width:1.5;" x1="225.5" x2="225.5" y1="737.1328" y2="759.1328"/><polygon fill="#A80036" points="221.5,749.1328,225.5,759.1328,229.5,749.1328,225.5,753.1328" style="stroke:#A80036;stroke-width:1.0;"/><line style="stroke:#A80036;stroke-width:1.5;" x1="352.5" x2="387.5" y1="737.1328" y2="737.1328"/><line style="stroke:#A80036;stroke-width:1.5;" x1="387.5" x2="387.5" y1="737.1328" y2="759.1328"/><polygon fill="#A80036" points="383.5,749.1328,387.5,759.1328,391.5,749.1328,387.5,753.1328" style="stroke:#A80036;stroke-width:1.0;"/><line style="stroke:#A80036;stroke-width:1.5;" x1="225.5" x2="225.5" y1="793.1016" y2="811.1016"/><line style="stroke:#A80036;stroke-width:1.5;" x1="225.5" x2="294.5" y1="811.1016" y2="811.1016"/><polygon fill="#A80036" points="284.5,807.1016,294.5,811.1016,284.5,815.1016,288.5,811.1016" style="stroke:#A80036;stroke-width:1.0;"/><line style="stroke:#A80036;stroke-width:1.5;" x1="387.5" x2="387.5" y1="793.1016" y2="811.1016"/><line style="stroke:#A80036;stroke-width:1.5;" x1="387.5" x2="318.5" y1="811.1016" y2="811.1016"/><polygon fill="#A80036" points="328.5,807.1016,318.5,811.1016,328.5,815.1016,324.5,811.1016" style="stroke:#A80036;stroke-width:1.0;"/><line style="stroke:#A80036;stroke-width:1.5;" x1="143.5" x2="72.5" y1="703.1328" y2="703.1328"/><line style="stroke:#A80036;stroke-width:1.5;" x1="72.5" x2="72.5" y1="703.1328" y2="725.1328"/><polygon fill="#A80036" points="68.5,715.1328,72.5,725.1328,76.5,715.1328,72.5,719.1328" style="stroke:#A80036;stroke-width:1.0;"/><line style="stroke:#A80036;stroke-width:1.5;" x1="235.5" x2="306.5" y1="703.1328" y2="703.1328"/><line style="stroke:#A80036;stroke-width:1.5;" x1="306.5" x2="306.5" y1="703.1328" y2="725.1328"/><polygon fill="#A80036" points="302.5,715.1328,306.5,725.1328,310.5,715.1328,306.5,719.1328" style="stroke:#A80036;stroke-width:1.0;"/><line style="stroke:#A80036;stroke-width:1.5;" x1="72.5" x2="72.5" y1="759.1016" y2="841.1016"/><line style="stroke:#A80036;stroke-width:1.5;" x1="72.5" x2="177.5" y1="841.1016" y2="841.1016"/><polygon fill="#A80036" points="167.5,837.1016,177.5,841.1016,167.5,845.1016,171.5,841.1016" style="stroke:#A80036;stroke-width:1.0;"/><line style="stroke:#A80036;stroke-width:1.5;" x1="306.5" x2="306.5" y1="823.1016" y2="841.1016"/><line style="stroke:#A80036;stroke-width:1.5;" x1="306.5" x2="201.5" y1="841.1016" y2="841.1016"/><polygon fill="#A80036" points="211.5,837.1016,201.5,841.1016,211.5,845.1016,207.5,841.1016" style="stroke:#A80036;stroke-width:1.0;"/><line style="stroke:#A80036;stroke-width:1.5;" x1="189.5" x2="189.5" y1="671.1328" y2="691.1328"/><polygon fill="#A80036" points="185.5,681.1328,189.5,691.1328,193.5,681.1328,189.5,685.1328" style="stroke:#A80036;stroke-width:1.0;"/><line style="stroke:#A80036;stroke-width:1.5;" x1="189.5" x2="189.5" y1="853.1016" y2="873.1016"/><polygon fill="#A80036" points="185.5,863.1016,189.5,873.1016,193.5,863.1016,189.5,867.1016" style="stroke:#A80036;stroke-width:1.0;"/><!--SRC=[PL4xRiCm3Drr2exnaWF8GuS0BRe5oGa4cuu5gv9BqWbo- -fZkMupIU3xuF6H9-k10gDIB8P4wPEptNH5kZkKusXyx_22tmko79fMQOyFcCqDMsK7E9pZxnZy5Rk5h3nF8tPJ0pAYXuFGWeq2q2lfqzji0P2Kbjy3FGprRvNlGs8dFeKEcQ4BNYWuRlCuYTB4-WLXBXJhRozo09Omvo_wtWvgKri-1vPDy4IkYXenuILY53l6lMlbVE0l9VllmKiS8HMyeCLcCF5fr1eeXUa34FQMi7j9f2jGrsoporfS50x_cjisqMkdqJfVBCVuiuSk2VC9GV1hTaPmbxO4J0t-0000]--></g></svg>