<?xml version="1.0" encoding="UTF-8" standalone="no"?>
<!DOCTYPE svg PUBLIC "-//W3C//DTD SVG 1.1//EN"
 "http://www.w3.org/Graphics/SVG/1.1/DTD/svg11.dtd">
<!-- Generated by graphviz version 8.0.4 (20230422.2207)
 -->
<!-- Pages: 1 -->
<svg width="1366pt" height="692pt"
 viewBox="0.00 0.00 1366.00 691.80" xmlns="http://www.w3.org/2000/svg" xmlns:xlink="http://www.w3.org/1999/xlink">
<g id="graph0" class="graph" transform="scale(1 1) rotate(0) translate(4 687.8)">
<polygon fill="white" stroke="none" points="-4,4 -4,-687.8 1362,-687.8 1362,4 -4,4"/>
<text text-anchor="start" x="8" y="-660.8" font-family="Times,serif" font-size="20.00">nfldb Entity&#45;Relationship diagram (condensed)</text>
<!-- player -->
<g id="node1" class="node">
<title>player</title>
<polygon fill="#d0e0d0" stroke="none" points="634,-340.4 634,-503.6 825,-503.6 825,-340.4 634,-340.4"/>
<polygon fill="none" stroke="black" points="634,-474.4 634,-503.6 825,-503.6 825,-474.4 634,-474.4"/>
<text text-anchor="start" x="708.5" y="-484.4" font-family="Helvetica,sans-Serif" font-weight="bold" font-size="16.00">player</text>
<polygon fill="none" stroke="black" points="634,-447.6 634,-474.4 825,-474.4 825,-447.6 634,-447.6"/>
<text text-anchor="start" x="639" y="-457.1" font-family="Helvetica,sans-Serif" text-decoration="underline" font-size="14.00">player_id</text>
<text text-anchor="start" x="694" y="-457.1" font-family="Helvetica,sans-Serif" font-size="14.00"> [varchar, not null]</text>
<polygon fill="none" stroke="black" points="634,-420.8 634,-447.6 825,-447.6 825,-420.8 634,-420.8"/>
<text text-anchor="start" x="639" y="-430.3" font-family="Helvetica,sans-Serif" font-size="14.00">full_name</text>
<text text-anchor="start" x="699" y="-430.3" font-family="Helvetica,sans-Serif" font-size="14.00"> [varchar, null]</text>
<polygon fill="none" stroke="black" points="634,-394 634,-420.8 825,-420.8 825,-394 634,-394"/>
<text text-anchor="start" x="639" y="-403.5" font-family="Helvetica,sans-Serif" font-size="14.00">team</text>
<text text-anchor="start" x="669" y="-403.5" font-family="Helvetica,sans-Serif" font-size="14.00"> [varchar, not null]</text>
<polygon fill="none" stroke="black" points="634,-367.2 634,-394 825,-394 825,-367.2 634,-367.2"/>
<text text-anchor="start" x="639" y="-376.7" font-family="Helvetica,sans-Serif" font-size="14.00">position</text>
<text text-anchor="start" x="686" y="-376.7" font-family="Helvetica,sans-Serif" font-size="14.00"> [player_pos, not null]</text>
<polygon fill="none" stroke="black" points="634,-340.4 634,-367.2 825,-367.2 825,-340.4 634,-340.4"/>
<text text-anchor="start" x="639" y="-349.9" font-family="Helvetica,sans-Serif" font-size="14.00">status</text>
<text text-anchor="start" x="675" y="-349.9" font-family="Helvetica,sans-Serif" font-size="14.00"> [player_status, not null]</text>
</g>
<!-- team -->
<g id="node2" class="node">
<title>team</title>
<polygon fill="#d0e0d0" stroke="none" points="1183,-452.2 1183,-561.8 1350,-561.8 1350,-452.2 1183,-452.2"/>
<polygon fill="none" stroke="black" points="1183,-532.6 1183,-561.8 1350,-561.8 1350,-532.6 1183,-532.6"/>
<text text-anchor="start" x="1249" y="-542.6" font-family="Helvetica,sans-Serif" font-weight="bold" font-size="16.00">team</text>
<polygon fill="none" stroke="black" points="1183,-505.8 1183,-532.6 1350,-532.6 1350,-505.8 1183,-505.8"/>
<text text-anchor="start" x="1188" y="-515.3" font-family="Helvetica,sans-Serif" text-decoration="underline" font-size="14.00">team_id</text>
<text text-anchor="start" x="1237" y="-515.3" font-family="Helvetica,sans-Serif" font-size="14.00"> [varchar, not null]</text>
<polygon fill="none" stroke="black" points="1183,-479 1183,-505.8 1350,-505.8 1350,-479 1183,-479"/>
<text text-anchor="start" x="1188" y="-488.5" font-family="Helvetica,sans-Serif" font-size="14.00">city</text>
<text text-anchor="start" x="1208" y="-488.5" font-family="Helvetica,sans-Serif" font-size="14.00"> [varchar, not null]</text>
<polygon fill="none" stroke="black" points="1183,-452.2 1183,-479 1350,-479 1350,-452.2 1183,-452.2"/>
<text text-anchor="start" x="1188" y="-461.7" font-family="Helvetica,sans-Serif" font-size="14.00">name</text>
<text text-anchor="start" x="1222" y="-461.7" font-family="Helvetica,sans-Serif" font-size="14.00"> [varchar, not null]</text>
</g>
<!-- player&#45;&#45;team -->
<g id="edge1" class="edge">
<title>player&#45;&#45;team</title>
<path fill="none" stroke="#7f7f7f" stroke-dasharray="5,2" d="M832.88,-447.32C845.31,-448.97 857.9,-450 870,-450 870,-450 870,-450 1138,-450 1150.49,-450 1163.11,-452.31 1175.31,-455.99"/>
<text text-anchor="start" x="1170.31" y="-442.69" font-family="Times,serif" font-size="14.00">1</text>
<text text-anchor="start" x="832.88" y="-434.02" font-family="Times,serif" font-size="14.00">0..N</text>
</g>
<!-- play_player -->
<g id="node6" class="node">
<title>play_player</title>
<polygon fill="#ececfc" stroke="none" points="916,-226.4 916,-389.6 1092,-389.6 1092,-226.4 916,-226.4"/>
<polygon fill="none" stroke="black" points="916,-360.4 916,-389.6 1092,-389.6 1092,-360.4 916,-360.4"/>
<text text-anchor="start" x="964" y="-370.4" font-family="Helvetica,sans-Serif" font-weight="bold" font-size="16.00">play_player</text>
<polygon fill="none" stroke="black" points="916,-333.6 916,-360.4 1092,-360.4 1092,-333.6 916,-333.6"/>
<text text-anchor="start" x="921" y="-343.1" font-family="Helvetica,sans-Serif" font-style="italic" text-decoration="underline" font-size="14.00">gsis_id</text>
<text text-anchor="start" x="964" y="-343.1" font-family="Helvetica,sans-Serif" font-size="14.00"> [gameid, not null]</text>
<polygon fill="none" stroke="black" points="916,-306.8 916,-333.6 1092,-333.6 1092,-306.8 916,-306.8"/>
<text text-anchor="start" x="921" y="-316.3" font-family="Helvetica,sans-Serif" font-style="italic" text-decoration="underline" font-size="14.00">drive_id</text>
<text text-anchor="start" x="969" y="-316.3" font-family="Helvetica,sans-Serif" font-size="14.00"> [usmallint, not null]</text>
<polygon fill="none" stroke="black" points="916,-280 916,-306.8 1092,-306.8 1092,-280 916,-280"/>
<text text-anchor="start" x="921" y="-289.5" font-family="Helvetica,sans-Serif" font-style="italic" text-decoration="underline" font-size="14.00">play_id</text>
<text text-anchor="start" x="964" y="-289.5" font-family="Helvetica,sans-Serif" font-size="14.00"> [usmallint, not null]</text>
<polygon fill="none" stroke="black" points="916,-253.2 916,-280 1092,-280 1092,-253.2 916,-253.2"/>
<text text-anchor="start" x="921" y="-262.7" font-family="Helvetica,sans-Serif" font-style="italic" text-decoration="underline" font-size="14.00">player_id</text>
<text text-anchor="start" x="976" y="-262.7" font-family="Helvetica,sans-Serif" font-size="14.00"> [varchar, not null]</text>
<polygon fill="none" stroke="black" points="916,-226.4 916,-253.2 1092,-253.2 1092,-226.4 916,-226.4"/>
<text text-anchor="start" x="921" y="-235.9" font-family="Helvetica,sans-Serif" font-size="14.00">team</text>
<text text-anchor="start" x="951" y="-235.9" font-family="Helvetica,sans-Serif" font-size="14.00"> [varchar, not null]</text>
</g>
<!-- player&#45;&#45;play_player -->
<g id="edge13" class="edge">
<title>player&#45;&#45;play_player</title>
<path fill="none" stroke="#7f7f7f" stroke-dasharray="5,2" d="M832.74,-379.23C857.51,-368.86 883.88,-357.83 908.28,-347.62"/>
<text text-anchor="start" x="884.28" y="-334.32" font-family="Times,serif" font-size="14.00">0..N</text>
<text text-anchor="start" x="832.74" y="-365.93" font-family="Times,serif" font-size="14.00">1</text>
</g>
<!-- game -->
<g id="node3" class="node">
<title>game</title>
<polygon fill="#ececfc" stroke="none" points="8,-159.4 8,-456.6 249,-456.6 249,-159.4 8,-159.4"/>
<polygon fill="none" stroke="black" points="8,-427.4 8,-456.6 249,-456.6 249,-427.4 8,-427.4"/>
<text text-anchor="start" x="108.5" y="-437.4" font-family="Helvetica,sans-Serif" font-weight="bold" font-size="16.00">game</text>
<polygon fill="none" stroke="black" points="8,-400.6 8,-427.4 249,-427.4 249,-400.6 8,-400.6"/>
<text text-anchor="start" x="13" y="-410.1" font-family="Helvetica,sans-Serif" text-decoration="underline" font-size="14.00">gsis_id</text>
<text text-anchor="start" x="56" y="-410.1" font-family="Helvetica,sans-Serif" font-size="14.00"> [gameid, not null]</text>
<polygon fill="none" stroke="black" points="8,-373.8 8,-400.6 249,-400.6 249,-373.8 8,-373.8"/>
<text text-anchor="start" x="13" y="-383.3" font-family="Helvetica,sans-Serif" font-size="14.00">start_time</text>
<text text-anchor="start" x="74" y="-383.3" font-family="Helvetica,sans-Serif" font-size="14.00"> [utctime, not null]</text>
<polygon fill="none" stroke="black" points="8,-347 8,-373.8 249,-373.8 249,-347 8,-347"/>
<text text-anchor="start" x="13" y="-356.5" font-family="Helvetica,sans-Serif" font-size="14.00">week</text>
<text text-anchor="start" x="45" y="-356.5" font-family="Helvetica,sans-Serif" font-size="14.00"> [usmallint, not null]</text>
<polygon fill="none" stroke="black" points="8,-320.2 8,-347 249,-347 249,-320.2 8,-320.2"/>
<text text-anchor="start" x="13" y="-329.7" font-family="Helvetica,sans-Serif" font-size="14.00">season_year</text>
<text text-anchor="start" x="91" y="-329.7" font-family="Helvetica,sans-Serif" font-size="14.00"> [usmallint, not null]</text>
<polygon fill="none" stroke="black" points="8,-293.4 8,-320.2 249,-320.2 249,-293.4 8,-293.4"/>
<text text-anchor="start" x="13" y="-302.9" font-family="Helvetica,sans-Serif" font-size="14.00">season_type</text>
<text text-anchor="start" x="91" y="-302.9" font-family="Helvetica,sans-Serif" font-size="14.00"> [season_phase, not null]</text>
<polygon fill="none" stroke="black" points="8,-266.6 8,-293.4 249,-293.4 249,-266.6 8,-266.6"/>
<text text-anchor="start" x="13" y="-276.1" font-family="Helvetica,sans-Serif" font-size="14.00">finished</text>
<text text-anchor="start" x="60" y="-276.1" font-family="Helvetica,sans-Serif" font-size="14.00"> [boolean, not null]</text>
<polygon fill="none" stroke="black" points="8,-239.8 8,-266.6 249,-266.6 249,-239.8 8,-239.8"/>
<text text-anchor="start" x="13" y="-249.3" font-family="Helvetica,sans-Serif" font-size="14.00">home_team</text>
<text text-anchor="start" x="86" y="-249.3" font-family="Helvetica,sans-Serif" font-size="14.00"> [varchar, not null]</text>
<polygon fill="none" stroke="black" points="8,-213 8,-239.8 249,-239.8 249,-213 8,-213"/>
<text text-anchor="start" x="13" y="-222.5" font-family="Helvetica,sans-Serif" font-size="14.00">home_score</text>
<text text-anchor="start" x="89" y="-222.5" font-family="Helvetica,sans-Serif" font-size="14.00"> [usmallint, not null]</text>
<polygon fill="none" stroke="black" points="8,-186.2 8,-213 249,-213 249,-186.2 8,-186.2"/>
<text text-anchor="start" x="13" y="-195.7" font-family="Helvetica,sans-Serif" font-size="14.00">away_team</text>
<text text-anchor="start" x="82" y="-195.7" font-family="Helvetica,sans-Serif" font-size="14.00"> [varchar, not null]</text>
<polygon fill="none" stroke="black" points="8,-159.4 8,-186.2 249,-186.2 249,-159.4 8,-159.4"/>
<text text-anchor="start" x="13" y="-168.9" font-family="Helvetica,sans-Serif" font-size="14.00">away_score</text>
<text text-anchor="start" x="85" y="-168.9" font-family="Helvetica,sans-Serif" font-size="14.00"> [usmallint, not null]</text>
</g>
<!-- game&#45;&#45;team -->
<g id="edge2" class="edge">
<title>game&#45;&#45;team</title>
<path fill="none" stroke="#7f7f7f" stroke-dasharray="5,2" d="M252.53,-460.16C254.1,-463.43 255.59,-466.71 257,-470 286.57,-539.09 218.85,-635 294,-635 294,-635 294,-635 1138,-635 1180.34,-635 1213.48,-599.4 1235.35,-565.76"/>
<text text-anchor="start" x="710.5" y="-638.5" font-family="Times,serif" font-size="14.00"> home </text>
<text text-anchor="start" x="1230.35" y="-569.26" font-family="Times,serif" font-size="14.00">1</text>
<text text-anchor="start" x="252.53" y="-463.66" font-family="Times,serif" font-size="14.00">0..N</text>
</g>
<!-- game&#45;&#45;team -->
<g id="edge3" class="edge">
<title>game&#45;&#45;team</title>
<path fill="none" stroke="#7f7f7f" stroke-dasharray="5,2" d="M251.74,-460.54C253.55,-463.69 255.31,-466.85 257,-470 281.81,-516.18 241.58,-582 294,-582 294,-582 294,-582 1138,-582 1157.77,-582 1177.19,-575.21 1194.67,-565.73"/>
<text text-anchor="start" x="711.5" y="-585.5" font-family="Times,serif" font-size="14.00"> away </text>
<text text-anchor="start" x="1189.67" y="-569.23" font-family="Times,serif" font-size="14.00">1</text>
<text text-anchor="start" x="227.74" y="-464.04" font-family="Times,serif" font-size="14.00">0..N</text>
</g>
<!-- drive -->
<g id="node4" class="node">
<title>drive</title>
<polygon fill="#ececfc" stroke="none" points="340,-186.2 340,-429.8 543,-429.8 543,-186.2 340,-186.2"/>
<polygon fill="none" stroke="black" points="340,-400.6 340,-429.8 543,-429.8 543,-400.6 340,-400.6"/>
<text text-anchor="start" x="424.5" y="-410.6" font-family="Helvetica,sans-Serif" font-weight="bold" font-size="16.00">drive</text>
<polygon fill="none" stroke="black" points="340,-373.8 340,-400.6 543,-400.6 543,-373.8 340,-373.8"/>
<text text-anchor="start" x="345" y="-383.3" font-family="Helvetica,sans-Serif" font-style="italic" text-decoration="underline" font-size="14.00">gsis_id</text>
<text text-anchor="start" x="388" y="-383.3" font-family="Helvetica,sans-Serif" font-size="14.00"> [gameid, not null]</text>
<polygon fill="none" stroke="black" points="340,-347 340,-373.8 543,-373.8 543,-347 340,-347"/>
<text text-anchor="start" x="345" y="-356.5" font-family="Helvetica,sans-Serif" text-decoration="underline" font-size="14.00">drive_id</text>
<text text-anchor="start" x="393" y="-356.5" font-family="Helvetica,sans-Serif" font-size="14.00"> [usmallint, not null]</text>
<polygon fill="none" stroke="black" points="340,-320.2 340,-347 543,-347 543,-320.2 340,-320.2"/>
<text text-anchor="start" x="345" y="-329.7" font-family="Helvetica,sans-Serif" font-size="14.00">start_field</text>
<text text-anchor="start" x="405" y="-329.7" font-family="Helvetica,sans-Serif" font-size="14.00"> [field_pos, null]</text>
<polygon fill="none" stroke="black" points="340,-293.4 340,-320.2 543,-320.2 543,-293.4 340,-293.4"/>
<text text-anchor="start" x="345" y="-302.9" font-family="Helvetica,sans-Serif" font-size="14.00">start_time</text>
<text text-anchor="start" x="406" y="-302.9" font-family="Helvetica,sans-Serif" font-size="14.00"> [game_time, not null]</text>
<polygon fill="none" stroke="black" points="340,-266.6 340,-293.4 543,-293.4 543,-266.6 340,-266.6"/>
<text text-anchor="start" x="345" y="-276.1" font-family="Helvetica,sans-Serif" font-size="14.00">end_field</text>
<text text-anchor="start" x="401" y="-276.1" font-family="Helvetica,sans-Serif" font-size="14.00"> [field_pos, null]</text>
<polygon fill="none" stroke="black" points="340,-239.8 340,-266.6 543,-266.6 543,-239.8 340,-239.8"/>
<text text-anchor="start" x="345" y="-249.3" font-family="Helvetica,sans-Serif" font-size="14.00">end_time</text>
<text text-anchor="start" x="402" y="-249.3" font-family="Helvetica,sans-Serif" font-size="14.00"> [game_time, not null]</text>
<polygon fill="none" stroke="black" points="340,-213 340,-239.8 543,-239.8 543,-213 340,-213"/>
<text text-anchor="start" x="345" y="-222.5" font-family="Helvetica,sans-Serif" font-size="14.00">pos_team</text>
<text text-anchor="start" x="405" y="-222.5" font-family="Helvetica,sans-Serif" font-size="14.00"> [varchar, not null]</text>
<polygon fill="none" stroke="black" points="340,-186.2 340,-213 543,-213 543,-186.2 340,-186.2"/>
<text text-anchor="start" x="345" y="-195.7" font-family="Helvetica,sans-Serif" font-size="14.00">pos_time</text>
<text text-anchor="start" x="401" y="-195.7" font-family="Helvetica,sans-Serif" font-size="14.00"> [pos_period, null]</text>
</g>
<!-- game&#45;&#45;drive -->
<g id="edge7" class="edge">
<title>game&#45;&#45;drive</title>
<path fill="none" stroke="#7f7f7f" stroke-dasharray="5,2" d="M256.89,-308C281.89,-308 307.88,-308 332.18,-308"/>
<text text-anchor="start" x="308.18" y="-311.5" font-family="Times,serif" font-size="14.00">0..N</text>
<text text-anchor="start" x="256.89" y="-294.7" font-family="Times,serif" font-size="14.00">1</text>
</g>
<!-- play -->
<g id="node5" class="node">
<title>play</title>
<polygon fill="#ececfc" stroke="none" points="640.5,-32.2 640.5,-275.8 818.5,-275.8 818.5,-32.2 640.5,-32.2"/>
<polygon fill="none" stroke="black" points="640.5,-246.6 640.5,-275.8 818.5,-275.8 818.5,-246.6 640.5,-246.6"/>
<text text-anchor="start" x="715.5" y="-256.6" font-family="Helvetica,sans-Serif" font-weight="bold" font-size="16.00">play</text>
<polygon fill="none" stroke="black" points="640.5,-219.8 640.5,-246.6 818.5,-246.6 818.5,-219.8 640.5,-219.8"/>
<text text-anchor="start" x="645.5" y="-229.3" font-family="Helvetica,sans-Serif" font-style="italic" text-decoration="underline" font-size="14.00">gsis_id</text>
<text text-anchor="start" x="688.5" y="-229.3" font-family="Helvetica,sans-Serif" font-size="14.00"> [gameid, not null]</text>
<polygon fill="none" stroke="black" points="640.5,-193 640.5,-219.8 818.5,-219.8 818.5,-193 640.5,-193"/>
<text text-anchor="start" x="645.5" y="-202.5" font-family="Helvetica,sans-Serif" font-style="italic" text-decoration="underline" font-size="14.00">drive_id</text>
<text text-anchor="start" x="693.5" y="-202.5" font-family="Helvetica,sans-Serif" font-size="14.00"> [usmallint, not null]</text>
<polygon fill="none" stroke="black" points="640.5,-166.2 640.5,-193 818.5,-193 818.5,-166.2 640.5,-166.2"/>
<text text-anchor="start" x="645.5" y="-175.7" font-family="Helvetica,sans-Serif" text-decoration="underline" font-size="14.00">play_id</text>
<text text-anchor="start" x="688.5" y="-175.7" font-family="Helvetica,sans-Serif" font-size="14.00"> [usmallint, not null]</text>
<polygon fill="none" stroke="black" points="640.5,-139.4 640.5,-166.2 818.5,-166.2 818.5,-139.4 640.5,-139.4"/>
<text text-anchor="start" x="645.5" y="-148.9" font-family="Helvetica,sans-Serif" font-size="14.00">time</text>
<text text-anchor="start" x="671.5" y="-148.9" font-family="Helvetica,sans-Serif" font-size="14.00"> [game_time, not null]</text>
<polygon fill="none" stroke="black" points="640.5,-112.6 640.5,-139.4 818.5,-139.4 818.5,-112.6 640.5,-112.6"/>
<text text-anchor="start" x="645.5" y="-122.1" font-family="Helvetica,sans-Serif" font-size="14.00">pos_team</text>
<text text-anchor="start" x="705.5" y="-122.1" font-family="Helvetica,sans-Serif" font-size="14.00"> [varchar, not null]</text>
<polygon fill="none" stroke="black" points="640.5,-85.8 640.5,-112.6 818.5,-112.6 818.5,-85.8 640.5,-85.8"/>
<text text-anchor="start" x="645.5" y="-95.3" font-family="Helvetica,sans-Serif" font-size="14.00">yardline</text>
<text text-anchor="start" x="693.5" y="-95.3" font-family="Helvetica,sans-Serif" font-size="14.00"> [field_pos, null]</text>
<polygon fill="none" stroke="black" points="640.5,-59 640.5,-85.8 818.5,-85.8 818.5,-59 640.5,-59"/>
<text text-anchor="start" x="645.5" y="-68.5" font-family="Helvetica,sans-Serif" font-size="14.00">down</text>
<text text-anchor="start" x="677.5" y="-68.5" font-family="Helvetica,sans-Serif" font-size="14.00"> [smallint, null]</text>
<polygon fill="none" stroke="black" points="640.5,-32.2 640.5,-59 818.5,-59 818.5,-32.2 640.5,-32.2"/>
<text text-anchor="start" x="645.5" y="-41.7" font-family="Helvetica,sans-Serif" font-size="14.00">yards_to_go</text>
<text text-anchor="start" x="720.5" y="-41.7" font-family="Helvetica,sans-Serif" font-size="14.00"> [smallint, null]</text>
</g>
<!-- game&#45;&#45;play -->
<g id="edge8" class="edge">
<title>game&#45;&#45;play</title>
<path fill="none" stroke="#7f7f7f" stroke-dasharray="5,2" d="M256.85,-161.12C268.59,-156.6 280.99,-154 294,-154 294,-154 294,-154 589,-154 603.17,-154 618.15,-154 632.82,-154"/>
<text text-anchor="start" x="608.82" y="-140.7" font-family="Times,serif" font-size="14.00">0..N</text>
<text text-anchor="start" x="256.85" y="-147.82" font-family="Times,serif" font-size="14.00">1</text>
</g>
<!-- game&#45;&#45;play_player -->
<g id="edge9" class="edge">
<title>game&#45;&#45;play_player</title>
<path fill="none" stroke="#7f7f7f" stroke-dasharray="5,2" d="M153.05,-155.8C174.64,-78.21 215.8,0 294,0 294,0 294,0 852,0 951.6,0 985.51,-131.46 997.05,-222.61"/>
<text text-anchor="start" x="973.05" y="-209.31" font-family="Times,serif" font-size="14.00">0..N</text>
<text text-anchor="start" x="148.05" y="-142.5" font-family="Times,serif" font-size="14.00">1</text>
</g>
<!-- drive&#45;&#45;team -->
<g id="edge4" class="edge">
<title>drive&#45;&#45;team</title>
<path fill="none" stroke="#7f7f7f" stroke-dasharray="5,2" d="M474.76,-433.67C496.6,-486.53 532,-536 588,-536 588,-536 588,-536 1138,-536 1150.14,-536 1162.78,-534.73 1175.18,-532.73"/>
<text text-anchor="start" x="1170.18" y="-519.43" font-family="Times,serif" font-size="14.00">1</text>
<text text-anchor="start" x="450.76" y="-437.17" font-family="Times,serif" font-size="14.00">0..N</text>
</g>
<!-- drive&#45;&#45;play -->
<g id="edge10" class="edge">
<title>drive&#45;&#45;play</title>
<path fill="none" stroke="#7f7f7f" stroke-dasharray="5,2" d="M550.62,-249.78C577.67,-235.21 606.5,-219.69 632.89,-205.48"/>
<text text-anchor="start" x="608.89" y="-192.18" font-family="Times,serif" font-size="14.00">0..N</text>
<text text-anchor="start" x="550.62" y="-236.48" font-family="Times,serif" font-size="14.00">1</text>
</g>
<!-- drive&#45;&#45;play_player -->
<g id="edge11" class="edge">
<title>drive&#45;&#45;play_player</title>
<path fill="none" stroke="#7f7f7f" stroke-dasharray="5,2" d="M550.95,-308C563.45,-308 576,-308 588,-308 588,-308 588,-308 871,-308 883.03,-308 895.68,-308 908.19,-308"/>
<text text-anchor="start" x="884.19" y="-311.5" font-family="Times,serif" font-size="14.00">0..N</text>
<text text-anchor="start" x="550.95" y="-294.7" font-family="Times,serif" font-size="14.00">1</text>
</g>
<!-- play&#45;&#45;team -->
<g id="edge5" class="edge">
<title>play&#45;&#45;team</title>
<path fill="none" stroke="#7f7f7f" stroke-dasharray="5,2" d="M826.35,-49.12C839.93,-42.25 854.57,-38 870,-38 870,-38 870,-38 1138,-38 1222.17,-38 1252.58,-322.83 1261.91,-448.55"/>
<text text-anchor="start" x="1256.91" y="-435.25" font-family="Times,serif" font-size="14.00">1</text>
<text text-anchor="start" x="826.35" y="-35.82" font-family="Times,serif" font-size="14.00">0..N</text>
</g>
<!-- play&#45;&#45;play_player -->
<g id="edge12" class="edge">
<title>play&#45;&#45;play_player</title>
<path fill="none" stroke="#7f7f7f" stroke-dasharray="5,2" d="M826.19,-208.08C852.87,-223.16 881.84,-239.53 908.46,-254.57"/>
<text text-anchor="start" x="884.46" y="-241.27" font-family="Times,serif" font-size="14.00">0..N</text>
<text text-anchor="start" x="826.19" y="-194.78" font-family="Times,serif" font-size="14.00">1</text>
</g>
<!-- play_player&#45;&#45;team -->
<g id="edge6" class="edge">
<title>play_player&#45;&#45;team</title>
<path fill="none" stroke="#7f7f7f" stroke-dasharray="5,2" d="M1099.78,-380.41C1129.02,-402.74 1160.85,-427.05 1188.72,-448.34"/>
<text text-anchor="start" x="1183.72" y="-435.04" font-family="Times,serif" font-size="14.00">1</text>
<text text-anchor="start" x="1099.78" y="-367.11" font-family="Times,serif" font-size="14.00">0..N</text>
</g>
<!-- meta -->
<g id="node7" class="node">
<title>meta</title>
<polygon fill="#fcecec" stroke="none" points="19.5,-482.8 19.5,-619.2 237.5,-619.2 237.5,-482.8 19.5,-482.8"/>
<polygon fill="none" stroke="black" points="19.5,-590 19.5,-619.2 237.5,-619.2 237.5,-590 19.5,-590"/>
<text text-anchor="start" x="111" y="-600" font-family="Helvetica,sans-Serif" font-weight="bold" font-size="16.00">meta</text>
<polygon fill="none" stroke="black" points="19.5,-563.2 19.5,-590 237.5,-590 237.5,-563.2 19.5,-563.2"/>
<text text-anchor="start" x="24.5" y="-572.7" font-family="Helvetica,sans-Serif" font-size="14.00">version</text>
<text text-anchor="start" x="68.5" y="-572.7" font-family="Helvetica,sans-Serif" font-size="14.00"> [smallint, null]</text>
<polygon fill="none" stroke="black" points="19.5,-536.4 19.5,-563.2 237.5,-563.2 237.5,-536.4 19.5,-536.4"/>
<text text-anchor="start" x="24.5" y="-545.9" font-family="Helvetica,sans-Serif" font-size="14.00">season_type</text>
<text text-anchor="start" x="102.5" y="-545.9" font-family="Helvetica,sans-Serif" font-size="14.00"> [season_phase, null]</text>
<polygon fill="none" stroke="black" points="19.5,-509.6 19.5,-536.4 237.5,-536.4 237.5,-509.6 19.5,-509.6"/>
<text text-anchor="start" x="24.5" y="-519.1" font-family="Helvetica,sans-Serif" font-size="14.00">season_year</text>
<text text-anchor="start" x="102.5" y="-519.1" font-family="Helvetica,sans-Serif" font-size="14.00"> [usmallint, null]</text>
<polygon fill="none" stroke="black" points="19.5,-482.8 19.5,-509.6 237.5,-509.6 237.5,-482.8 19.5,-482.8"/>
<text text-anchor="start" x="24.5" y="-492.3" font-family="Helvetica,sans-Serif" font-size="14.00">week</text>
<text text-anchor="start" x="56.5" y="-492.3" font-family="Helvetica,sans-Serif" font-size="14.00"> [usmallint, null]</text>
</g>
</g>
</svg>
