<?xml version="1.0" encoding="UTF-8" standalone="no"?>
<!DOCTYPE svg PUBLIC "-//W3C//DTD SVG 1.1//EN"
 "http://www.w3.org/Graphics/SVG/1.1/DTD/svg11.dtd">
<!-- Generated by graphviz version 8.0.4 (20230422.2207)
 -->
<!-- Title: regexp Pages: 1 -->
<svg width="813pt" height="476pt"
 viewBox="0.00 0.00 813.22 476.00" xmlns="http://www.w3.org/2000/svg" xmlns:xlink="http://www.w3.org/1999/xlink">
<g id="graph0" class="graph" transform="scale(1 1) rotate(0) translate(4 472)">
<title>regexp</title>
<polygon fill="white" stroke="none" points="-4,4 -4,-472 809.22,-472 809.22,4 -4,4"/>
<!-- n0 -->
<g id="node1" class="node">
<title>n0</title>
<g id="a_node1"><a xlink:href="https://godoc.org/regexp" xlink:title="Package regexp implements regular expression search.">
<ellipse fill="none" stroke="black" cx="293" cy="-450" rx="36.56" ry="18"/>
<text text-anchor="middle" x="293" y="-445.1" font-family="Times,serif" font-size="14.00">regexp</text>
</a>
</g>
</g>
<!-- n1 -->
<g id="node2" class="node">
<title>n1</title>
<g id="a_node2"><a xlink:href="https://godoc.org/bytes" xlink:title="Package bytes implements functions for the manipulation of byte slices.">
<ellipse fill="none" stroke="black" cx="141" cy="-306" rx="31.04" ry="18"/>
<text text-anchor="middle" x="141" y="-301.1" font-family="Times,serif" font-size="14.00">bytes</text>
</a>
</g>
</g>
<!-- n0&#45;&gt;n1 -->
<g id="edge1" class="edge">
<title>n0&#45;&gt;n1</title>
<path fill="none" stroke="black" d="M262.61,-439.86C239.27,-431.55 207.49,-417.31 186,-396 168.66,-378.8 156.76,-353.52 149.58,-334.3"/>
<polygon fill="black" stroke="black" points="152.59,-333.33 145.98,-325.06 145.99,-335.65 152.59,-333.33"/>
</g>
<!-- n2 -->
<g id="node3" class="node">
<title>n2</title>
<g id="a_node3"><a xlink:href="https://godoc.org/io" xlink:title="Package io provides basic interfaces to I/O primitives.">
<ellipse fill="none" stroke="black" cx="72" cy="-234" rx="27" ry="18"/>
<text text-anchor="middle" x="72" y="-229.1" font-family="Times,serif" font-size="14.00">io</text>
</a>
</g>
</g>
<!-- n0&#45;&gt;n2 -->
<g id="edge2" class="edge">
<title>n0&#45;&gt;n2</title>
<path fill="none" stroke="black" d="M260.33,-441.57C231.15,-433.77 188.29,-419.33 157,-396 124.5,-371.77 120.01,-359.81 101,-324 90.65,-304.51 83.12,-280.65 78.33,-262.54"/>
<polygon fill="black" stroke="black" points="81.54,-261.94 75.7,-253.1 74.75,-263.65 81.54,-261.94"/>
</g>
<!-- n3 -->
<g id="node4" class="node">
<title>n3</title>
<g id="a_node4"><a xlink:href="https://godoc.org/regexp/syntax" xlink:title="Package syntax parses regular expressions into parse trees and compiles parse trees into programs.">
<ellipse fill="none" stroke="black" cx="293" cy="-378" rx="64.84" ry="18"/>
<text text-anchor="middle" x="293" y="-373.1" font-family="Times,serif" font-size="14.00">regexp/syntax</text>
</a>
</g>
</g>
<!-- n0&#45;&gt;n3 -->
<g id="edge3" class="edge">
<title>n0&#45;&gt;n3</title>
<path fill="none" stroke="black" d="M293,-431.7C293,-424.24 293,-415.32 293,-406.97"/>
<polygon fill="black" stroke="black" points="296.5,-407.1 293,-397.1 289.5,-407.1 296.5,-407.1"/>
</g>
<!-- n4 -->
<g id="node5" class="node">
<title>n4</title>
<g id="a_node5"><a xlink:href="https://godoc.org/sort" xlink:title="Package sort provides primitives for sorting slices and user&#45;defined collections.">
<ellipse fill="none" stroke="black" cx="27" cy="-306" rx="27" ry="18"/>
<text text-anchor="middle" x="27" y="-301.1" font-family="Times,serif" font-size="14.00">sort</text>
</a>
</g>
</g>
<!-- n0&#45;&gt;n4 -->
<g id="edge4" class="edge">
<title>n0&#45;&gt;n4</title>
<path fill="none" stroke="black" d="M256.01,-449.79C207.55,-448.89 122.38,-440.44 68,-396 49.19,-380.63 38.61,-354.72 32.93,-334.81"/>
<polygon fill="black" stroke="black" points="36.08,-334 30.19,-325.19 29.3,-335.74 36.08,-334"/>
</g>
<!-- n5 -->
<g id="node6" class="node">
<title>n5</title>
<g id="a_node6"><a xlink:href="https://godoc.org/strconv" xlink:title="Package strconv implements conversions to and from string representations of basic data types.">
<ellipse fill="none" stroke="black" cx="550" cy="-306" rx="39.32" ry="18"/>
<text text-anchor="middle" x="550" y="-301.1" font-family="Times,serif" font-size="14.00">strconv</text>
</a>
</g>
</g>
<!-- n0&#45;&gt;n5 -->
<g id="edge5" class="edge">
<title>n0&#45;&gt;n5</title>
<path fill="none" stroke="black" d="M328.73,-445.26C368.08,-439.73 431.9,-426.52 478,-396 502.35,-379.88 522.47,-352.94 535.19,-332.91"/>
<polygon fill="black" stroke="black" points="538.59,-335.07 540.83,-324.71 532.62,-331.41 538.59,-335.07"/>
</g>
<!-- n6 -->
<g id="node7" class="node">
<title>n6</title>
<g id="a_node7"><a xlink:href="https://godoc.org/strings" xlink:title="Package strings implements simple functions to manipulate UTF&#45;8 encoded strings.">
<ellipse fill="none" stroke="black" cx="303" cy="-306" rx="36.56" ry="18"/>
<text text-anchor="middle" x="303" y="-301.1" font-family="Times,serif" font-size="14.00">strings</text>
</a>
</g>
</g>
<!-- n0&#45;&gt;n6 -->
<g id="edge6" class="edge">
<title>n0&#45;&gt;n6</title>
<path fill="none" stroke="black" d="M320.06,-437.58C336.91,-428.88 357.18,-415.12 367,-396 374.31,-381.77 373.81,-374.48 367,-360 360.44,-346.06 348.22,-334.53 336.2,-325.82"/>
<polygon fill="black" stroke="black" points="338.4,-322.4 328.15,-319.72 334.48,-328.21 338.4,-322.4"/>
</g>
<!-- n7 -->
<g id="node8" class="node">
<title>n7</title>
<g id="a_node8"><a xlink:href="https://godoc.org/sync" xlink:title="Package sync provides basic synchronization primitives such as mutual exclusion locks.">
<ellipse fill="none" stroke="black" cx="397" cy="-162" rx="28.28" ry="18"/>
<text text-anchor="middle" x="397" y="-157.1" font-family="Times,serif" font-size="14.00">sync</text>
</a>
</g>
</g>
<!-- n0&#45;&gt;n7 -->
<g id="edge7" class="edge">
<title>n0&#45;&gt;n7</title>
<path fill="none" stroke="black" d="M328.48,-445.24C372.87,-439.46 450.31,-425.77 510,-396 585.84,-358.18 615.07,-334.37 635,-252 638.76,-236.45 645.01,-228.48 635,-216 631.83,-212.05 500.43,-184.39 434.27,-170.68"/>
<polygon fill="black" stroke="black" points="435.36,-167.12 424.86,-168.52 433.94,-173.98 435.36,-167.12"/>
</g>
<!-- n8 -->
<g id="node9" class="node">
<title>n8</title>
<g id="a_node9"><a xlink:href="https://godoc.org/unicode" xlink:title="Package unicode provides data and functions to test some properties of Unicode code points.">
<ellipse fill="none" stroke="black" cx="158" cy="-234" rx="41.39" ry="18"/>
<text text-anchor="middle" x="158" y="-229.1" font-family="Times,serif" font-size="14.00">unicode</text>
</a>
</g>
</g>
<!-- n0&#45;&gt;n8 -->
<g id="edge8" class="edge">
<title>n0&#45;&gt;n8</title>
<path fill="none" stroke="black" d="M268.32,-436.51C252.27,-427.28 231.99,-413.32 219,-396 188.46,-355.3 199.58,-335.37 181,-288 177.65,-279.46 173.76,-270.27 170.14,-261.97"/>
<polygon fill="black" stroke="black" points="173.01,-260.79 165.77,-253.06 166.61,-263.62 173.01,-260.79"/>
</g>
<!-- n9 -->
<g id="node10" class="node">
<title>n9</title>
<g id="a_node10"><a xlink:href="https://godoc.org/unicode/utf8" xlink:title="Package utf8 implements functions and constants to support text encoded in UTF&#45;8.">
<ellipse fill="none" stroke="black" cx="550" cy="-234" rx="59.32" ry="18"/>
<text text-anchor="middle" x="550" y="-229.1" font-family="Times,serif" font-size="14.00">unicode/utf8</text>
</a>
</g>
</g>
<!-- n0&#45;&gt;n9 -->
<g id="edge9" class="edge">
<title>n0&#45;&gt;n9</title>
<path fill="none" stroke="black" d="M317.67,-436.51C336.33,-426.59 362.21,-411.8 383,-396 439.47,-353.1 497.26,-293.05 527.84,-259.74"/>
<polygon fill="black" stroke="black" points="529.86,-262.62 534.01,-252.87 524.69,-257.9 529.86,-262.62"/>
</g>
<!-- n1&#45;&gt;n2 -->
<g id="edge11" class="edge">
<title>n1&#45;&gt;n2</title>
<path fill="none" stroke="black" d="M126.03,-289.81C116.68,-280.33 104.48,-267.95 94.04,-257.35"/>
<polygon fill="black" stroke="black" points="96.98,-255.34 87.47,-250.68 92,-260.26 96.98,-255.34"/>
</g>
<!-- n1&#45;&gt;n8 -->
<g id="edge12" class="edge">
<title>n1&#45;&gt;n8</title>
<path fill="none" stroke="black" d="M145.2,-287.7C147.03,-280.15 149.23,-271.12 151.28,-262.68"/>
<polygon fill="black" stroke="black" points="154.89,-263.65 153.85,-253.1 148.08,-262 154.89,-263.65"/>
</g>
<!-- n1&#45;&gt;n9 -->
<g id="edge13" class="edge">
<title>n1&#45;&gt;n9</title>
<path fill="none" stroke="black" d="M170.92,-300.51C248.4,-288.86 451.68,-258.13 482,-252 486.43,-251.1 491,-250.11 495.59,-249.07"/>
<polygon fill="black" stroke="black" points="496.3,-252.26 505.24,-246.56 494.7,-245.44 496.3,-252.26"/>
</g>
<!-- n10 -->
<g id="node11" class="node">
<title>n10</title>
<g id="a_node11"><a xlink:href="https://godoc.org/internal/bytealg" xlink:title="internal/bytealg">
<ellipse fill="none" stroke="black" cx="402" cy="-234" rx="71.05" ry="18"/>
<text text-anchor="middle" x="402" y="-229.1" font-family="Times,serif" font-size="14.00">internal/bytealg</text>
</a>
</g>
</g>
<!-- n1&#45;&gt;n10 -->
<g id="edge10" class="edge">
<title>n1&#45;&gt;n10</title>
<path fill="none" stroke="black" d="M168.93,-297.51C210.48,-286.37 289.5,-265.17 343.92,-250.58"/>
<polygon fill="black" stroke="black" points="344.71,-253.72 353.46,-247.75 342.9,-246.96 344.71,-253.72"/>
</g>
<!-- n11 -->
<g id="node12" class="node">
<title>n11</title>
<g id="a_node12"><a xlink:href="https://godoc.org/errors" xlink:title="Package errors implements functions to manipulate errors.">
<ellipse fill="none" stroke="black" cx="158" cy="-162" rx="33.11" ry="18"/>
<text text-anchor="middle" x="158" y="-157.1" font-family="Times,serif" font-size="14.00">errors</text>
</a>
</g>
</g>
<!-- n1&#45;&gt;n11 -->
<g id="edge14" class="edge">
<title>n1&#45;&gt;n11</title>
<path fill="none" stroke="black" d="M112.13,-299.22C87.13,-292.52 52.48,-278.78 36,-252 27.61,-238.37 27.23,-229.38 36,-216 53.44,-189.41 87.42,-176.09 115.1,-169.46"/>
<polygon fill="black" stroke="black" points="115.71,-172.69 124.74,-167.15 114.23,-165.85 115.71,-172.69"/>
</g>
<!-- n2&#45;&gt;n7 -->
<g id="edge16" class="edge">
<title>n2&#45;&gt;n7</title>
<path fill="none" stroke="black" d="M92.57,-222.17C97.52,-219.87 102.87,-217.65 108,-216 195,-188.01 301.77,-173.24 358.03,-166.89"/>
<polygon fill="black" stroke="black" points="358.36,-170.27 367.92,-165.7 357.59,-163.31 358.36,-170.27"/>
</g>
<!-- n2&#45;&gt;n11 -->
<g id="edge15" class="edge">
<title>n2&#45;&gt;n11</title>
<path fill="none" stroke="black" d="M88.58,-219.5C100.87,-209.5 117.86,-195.67 131.95,-184.2"/>
<polygon fill="black" stroke="black" points="133.74,-186.45 139.29,-177.42 129.32,-181.02 133.74,-186.45"/>
</g>
<!-- n3&#45;&gt;n4 -->
<g id="edge17" class="edge">
<title>n3&#45;&gt;n4</title>
<path fill="none" stroke="black" d="M246.97,-364.89C194.55,-351.09 110.03,-328.85 62.47,-316.33"/>
<polygon fill="black" stroke="black" points="63.62,-312.75 53.06,-313.59 61.84,-319.52 63.62,-312.75"/>
</g>
<!-- n3&#45;&gt;n5 -->
<g id="edge18" class="edge">
<title>n3&#45;&gt;n5</title>
<path fill="none" stroke="black" d="M338.06,-364.73C385.47,-351.81 459.58,-331.63 506.43,-318.87"/>
<polygon fill="black" stroke="black" points="507.12,-322.03 515.85,-316.03 505.28,-315.28 507.12,-322.03"/>
</g>
<!-- n3&#45;&gt;n6 -->
<g id="edge19" class="edge">
<title>n3&#45;&gt;n6</title>
<path fill="none" stroke="black" d="M295.47,-359.7C296.54,-352.24 297.81,-343.32 299,-334.97"/>
<polygon fill="black" stroke="black" points="302.61,-335.5 300.56,-325.1 295.68,-334.51 302.61,-335.5"/>
</g>
<!-- n3&#45;&gt;n8 -->
<g id="edge20" class="edge">
<title>n3&#45;&gt;n8</title>
<path fill="none" stroke="black" d="M278.86,-360.21C263.36,-342.02 237.57,-312.34 214,-288 204.18,-277.86 192.94,-267.08 183.13,-257.91"/>
<polygon fill="black" stroke="black" points="185.99,-255.86 176.28,-251.63 181.23,-260.99 185.99,-255.86"/>
</g>
<!-- n3&#45;&gt;n9 -->
<g id="edge21" class="edge">
<title>n3&#45;&gt;n9</title>
<path fill="none" stroke="black" d="M320.1,-361.33C351.29,-343.37 404.12,-313.16 450,-288 470.15,-276.95 492.77,-264.93 511.39,-255.14"/>
<polygon fill="black" stroke="black" points="512.77,-257.84 520,-250.09 509.52,-251.64 512.77,-257.84"/>
</g>
<!-- n12 -->
<g id="node13" class="node">
<title>n12</title>
<g id="a_node13"><a xlink:href="https://godoc.org/internal/reflectlite" xlink:title="Package reflectlite implements lightweight version of reflect, not using any package except for &quot;runtime&quot; and &quot;unsafe&quot;.">
<ellipse fill="none" stroke="black" cx="158" cy="-90" rx="79.32" ry="18"/>
<text text-anchor="middle" x="158" y="-85.1" font-family="Times,serif" font-size="14.00">internal/reflectlite</text>
</a>
</g>
</g>
<!-- n4&#45;&gt;n12 -->
<g id="edge22" class="edge">
<title>n4&#45;&gt;n12</title>
<path fill="none" stroke="black" d="M22.82,-287.8C19.21,-269.26 15.98,-239.28 26,-216 45.24,-171.27 89.23,-135.06 121.15,-113.34"/>
<polygon fill="black" stroke="black" points="122.81,-115.78 129.21,-107.34 118.94,-109.94 122.81,-115.78"/>
</g>
<!-- n5&#45;&gt;n9 -->
<g id="edge25" class="edge">
<title>n5&#45;&gt;n9</title>
<path fill="none" stroke="black" d="M550,-287.7C550,-280.24 550,-271.32 550,-262.97"/>
<polygon fill="black" stroke="black" points="553.5,-263.1 550,-253.1 546.5,-263.1 553.5,-263.1"/>
</g>
<!-- n5&#45;&gt;n10 -->
<g id="edge23" class="edge">
<title>n5&#45;&gt;n10</title>
<path fill="none" stroke="black" d="M523.2,-292.32C501.21,-281.92 469.68,-267.01 444.29,-255"/>
<polygon fill="black" stroke="black" points="446.08,-251.5 435.54,-250.39 443.09,-257.83 446.08,-251.5"/>
</g>
<!-- n5&#45;&gt;n11 -->
<g id="edge26" class="edge">
<title>n5&#45;&gt;n11</title>
<path fill="none" stroke="black" d="M576.3,-292.24C591.52,-283.29 609.33,-269.75 618,-252 625.02,-237.62 628.65,-227.94 618,-216 604.2,-200.52 313.6,-175.55 201.54,-166.45"/>
<polygon fill="black" stroke="black" points="201.89,-162.89 191.64,-165.57 201.33,-169.87 201.89,-162.89"/>
</g>
<!-- n13 -->
<g id="node14" class="node">
<title>n13</title>
<g id="a_node14"><a xlink:href="https://godoc.org/math" xlink:title="Package math provides basic constants and mathematical functions.">
<ellipse fill="none" stroke="black" cx="733" cy="-234" rx="29.66" ry="18"/>
<text text-anchor="middle" x="733" y="-229.1" font-family="Times,serif" font-size="14.00">math</text>
</a>
</g>
</g>
<!-- n5&#45;&gt;n13 -->
<g id="edge24" class="edge">
<title>n5&#45;&gt;n13</title>
<path fill="none" stroke="black" d="M579.4,-293.75C611.82,-281.35 663.91,-261.43 698.3,-248.27"/>
<polygon fill="black" stroke="black" points="699.27,-251.27 707.36,-244.42 696.77,-244.73 699.27,-251.27"/>
</g>
<!-- n14 -->
<g id="node15" class="node">
<title>n14</title>
<g id="a_node15"><a xlink:href="https://godoc.org/math/bits" xlink:title="Package bits implements bit counting and manipulation functions for the predeclared unsigned integer types.">
<ellipse fill="none" stroke="black" cx="759" cy="-162" rx="46.22" ry="18"/>
<text text-anchor="middle" x="759" y="-157.1" font-family="Times,serif" font-size="14.00">math/bits</text>
</a>
</g>
</g>
<!-- n5&#45;&gt;n14 -->
<g id="edge27" class="edge">
<title>n5&#45;&gt;n14</title>
<path fill="none" stroke="black" d="M588.38,-301.47C645.75,-295.31 749.54,-280.46 772,-252 785.71,-234.63 780.26,-209.21 772.65,-189.98"/>
<polygon fill="black" stroke="black" points="775.52,-188.79 768.31,-181.02 769.1,-191.59 775.52,-188.79"/>
</g>
<!-- n6&#45;&gt;n2 -->
<g id="edge28" class="edge">
<title>n6&#45;&gt;n2</title>
<path fill="none" stroke="black" d="M270.02,-297.9C230.79,-289.04 163.63,-272.51 108,-252 106.31,-251.38 104.58,-250.7 102.85,-249.99"/>
<polygon fill="black" stroke="black" points="104.62,-246.51 94.06,-245.7 101.81,-252.92 104.62,-246.51"/>
</g>
<!-- n6&#45;&gt;n7 -->
<g id="edge29" class="edge">
<title>n6&#45;&gt;n7</title>
<path fill="none" stroke="black" d="M303.06,-287.51C303.9,-268.44 307.65,-237.76 322,-216 332.61,-199.91 349.93,-187.19 365.25,-178.26"/>
<polygon fill="black" stroke="black" points="366.39,-181.08 373.46,-173.18 363.01,-174.94 366.39,-181.08"/>
</g>
<!-- n6&#45;&gt;n8 -->
<g id="edge33" class="edge">
<title>n6&#45;&gt;n8</title>
<path fill="none" stroke="black" d="M277.41,-292.65C254.51,-281.59 220.68,-265.26 194.87,-252.8"/>
<polygon fill="black" stroke="black" points="196.58,-249.26 186.05,-248.06 193.54,-255.56 196.58,-249.26"/>
</g>
<!-- n6&#45;&gt;n9 -->
<g id="edge34" class="edge">
<title>n6&#45;&gt;n9</title>
<path fill="none" stroke="black" d="M334.28,-296.13C375.28,-284.52 447.78,-263.97 497.32,-249.93"/>
<polygon fill="black" stroke="black" points="498.16,-253.04 506.83,-246.95 496.26,-246.31 498.16,-253.04"/>
</g>
<!-- n6&#45;&gt;n10 -->
<g id="edge32" class="edge">
<title>n6&#45;&gt;n10</title>
<path fill="none" stroke="black" d="M323.03,-290.83C336.54,-281.28 354.65,-268.48 370.12,-257.54"/>
<polygon fill="black" stroke="black" points="371.73,-259.99 377.87,-251.35 367.69,-254.27 371.73,-259.99"/>
</g>
<!-- n6&#45;&gt;n11 -->
<g id="edge31" class="edge">
<title>n6&#45;&gt;n11</title>
<path fill="none" stroke="black" d="M287.21,-289.53C261.58,-264.43 210.81,-214.72 181.12,-185.64"/>
<polygon fill="black" stroke="black" points="183.93,-183.52 174.34,-179.02 179.03,-188.52 183.93,-183.52"/>
</g>
<!-- n15 -->
<g id="node16" class="node">
<title>n15</title>
<g id="a_node16"><a xlink:href="https://godoc.org/unsafe" xlink:title="Package unsafe contains operations that step around the type safety of Go programs.">
<ellipse fill="none" stroke="black" cx="420" cy="-18" rx="35.87" ry="18"/>
<text text-anchor="middle" x="420" y="-13.1" font-family="Times,serif" font-size="14.00">unsafe</text>
</a>
</g>
</g>
<!-- n6&#45;&gt;n15 -->
<g id="edge30" class="edge">
<title>n6&#45;&gt;n15</title>
<path fill="none" stroke="black" d="M301.21,-287.72C299.79,-269.62 298.81,-240.49 304,-216 318.45,-147.83 326.62,-129.48 366,-72 373.69,-60.77 384.01,-49.94 393.56,-41.04"/>
<polygon fill="black" stroke="black" points="395.58,-44.03 400.68,-34.74 390.9,-38.83 395.58,-44.03"/>
</g>
<!-- n7&#45;&gt;n15 -->
<g id="edge38" class="edge">
<title>n7&#45;&gt;n15</title>
<path fill="none" stroke="black" d="M395.27,-143.73C393.91,-125.65 392.97,-96.52 398,-72 399.83,-63.08 403.16,-53.77 406.68,-45.49"/>
<polygon fill="black" stroke="black" points="410.2,-47.21 411.15,-36.66 403.83,-44.31 410.2,-47.21"/>
</g>
<!-- n16 -->
<g id="node17" class="node">
<title>n16</title>
<g id="a_node17"><a xlink:href="https://godoc.org/internal/race" xlink:title="Package race contains helper functions for manually instrumenting code for the race detector.">
<ellipse fill="none" stroke="black" cx="466" cy="-90" rx="58.63" ry="18"/>
<text text-anchor="middle" x="466" y="-85.1" font-family="Times,serif" font-size="14.00">internal/race</text>
</a>
</g>
</g>
<!-- n7&#45;&gt;n16 -->
<g id="edge35" class="edge">
<title>n7&#45;&gt;n16</title>
<path fill="none" stroke="black" d="M411.63,-146.15C420.59,-137.07 432.25,-125.24 442.47,-114.87"/>
<polygon fill="black" stroke="black" points="444.41,-117.87 448.94,-108.29 439.43,-112.96 444.41,-117.87"/>
</g>
<!-- n17 -->
<g id="node18" class="node">
<title>n17</title>
<g id="a_node18"><a xlink:href="https://godoc.org/runtime" xlink:title="runtime">
<ellipse fill="none" stroke="black" cx="262" cy="-18" rx="40.7" ry="18"/>
<text text-anchor="middle" x="262" y="-13.1" font-family="Times,serif" font-size="14.00">runtime</text>
</a>
</g>
</g>
<!-- n7&#45;&gt;n17 -->
<g id="edge36" class="edge">
<title>n7&#45;&gt;n17</title>
<path fill="none" stroke="black" d="M382.81,-146.07C359.42,-121.47 312.58,-72.2 284.59,-42.77"/>
<polygon fill="black" stroke="black" points="287.66,-40.86 278.24,-36.02 282.59,-45.68 287.66,-40.86"/>
</g>
<!-- n18 -->
<g id="node19" class="node">
<title>n18</title>
<g id="a_node19"><a xlink:href="https://godoc.org/sync/atomic" xlink:title="Package atomic provides low&#45;level atomic memory primitives useful for implementing synchronization algorithms.">
<ellipse fill="none" stroke="black" cx="600" cy="-90" rx="57.25" ry="18"/>
<text text-anchor="middle" x="600" y="-85.1" font-family="Times,serif" font-size="14.00">sync/atomic</text>
</a>
</g>
</g>
<!-- n7&#45;&gt;n18 -->
<g id="edge37" class="edge">
<title>n7&#45;&gt;n18</title>
<path fill="none" stroke="black" d="M421.49,-152.56C453.69,-141.45 511,-121.69 552,-107.55"/>
<polygon fill="black" stroke="black" points="552.99,-110.57 561.3,-104 550.71,-103.95 552.99,-110.57"/>
</g>
<!-- n10&#45;&gt;n15 -->
<g id="edge40" class="edge">
<title>n10&#45;&gt;n15</title>
<path fill="none" stroke="black" d="M383.83,-216.22C374.79,-206.61 364.79,-193.75 360,-180 354.74,-164.89 356.86,-159.69 360,-144 367.34,-107.28 387.92,-69.03 402.93,-44.67"/>
<polygon fill="black" stroke="black" points="406.39,-46.75 408.77,-36.43 400.47,-43.01 406.39,-46.75"/>
</g>
<!-- n19 -->
<g id="node20" class="node">
<title>n19</title>
<g id="a_node20"><a xlink:href="https://godoc.org/internal/cpu" xlink:title="Package cpu implements processor feature detection used by the Go standard library.">
<ellipse fill="none" stroke="black" cx="550" cy="-162" rx="56.56" ry="18"/>
<text text-anchor="middle" x="550" y="-157.1" font-family="Times,serif" font-size="14.00">internal/cpu</text>
</a>
</g>
</g>
<!-- n10&#45;&gt;n19 -->
<g id="edge39" class="edge">
<title>n10&#45;&gt;n19</title>
<path fill="none" stroke="black" d="M434.48,-217.64C456.67,-207.14 486.22,-193.17 509.88,-181.98"/>
<polygon fill="black" stroke="black" points="511.07,-184.81 518.62,-177.37 508.08,-178.48 511.07,-184.81"/>
</g>
<!-- n11&#45;&gt;n12 -->
<g id="edge41" class="edge">
<title>n11&#45;&gt;n12</title>
<path fill="none" stroke="black" d="M158,-143.7C158,-136.24 158,-127.32 158,-118.97"/>
<polygon fill="black" stroke="black" points="161.5,-119.1 158,-109.1 154.5,-119.1 161.5,-119.1"/>
</g>
<!-- n12&#45;&gt;n15 -->
<g id="edge43" class="edge">
<title>n12&#45;&gt;n15</title>
<path fill="none" stroke="black" d="M207.9,-75.67C257.24,-62.48 331.9,-42.54 378.21,-30.16"/>
<polygon fill="black" stroke="black" points="379.02,-33.3 387.78,-27.34 377.21,-26.54 379.02,-33.3"/>
</g>
<!-- n12&#45;&gt;n17 -->
<g id="edge42" class="edge">
<title>n12&#45;&gt;n17</title>
<path fill="none" stroke="black" d="M182.65,-72.41C197.31,-62.54 216.03,-49.94 231.6,-39.46"/>
<polygon fill="black" stroke="black" points="233.01,-42.06 239.35,-33.57 229.1,-36.25 233.01,-42.06"/>
</g>
<!-- n13&#45;&gt;n14 -->
<g id="edge46" class="edge">
<title>n13&#45;&gt;n14</title>
<path fill="none" stroke="black" d="M739.29,-216.05C742.16,-208.35 745.62,-199.03 748.84,-190.36"/>
<polygon fill="black" stroke="black" points="752.38,-191.87 752.58,-181.28 745.82,-189.43 752.38,-191.87"/>
</g>
<!-- n13&#45;&gt;n15 -->
<g id="edge44" class="edge">
<title>n13&#45;&gt;n15</title>
<path fill="none" stroke="black" d="M723.15,-216.64C717.17,-206.34 709.64,-192.64 704,-180 683.27,-133.53 704.18,-105.64 666,-72 636.7,-46.18 528.36,-30.58 465.66,-23.51"/>
<polygon fill="black" stroke="black" points="466.21,-19.94 455.89,-22.33 465.45,-26.9 466.21,-19.94"/>
</g>
<!-- n13&#45;&gt;n19 -->
<g id="edge45" class="edge">
<title>n13&#45;&gt;n19</title>
<path fill="none" stroke="black" d="M708.34,-223.45C702.04,-221.02 695.27,-218.41 689,-216 657.78,-204.02 622.59,-190.6 595.43,-180.26"/>
<polygon fill="black" stroke="black" points="597.03,-176.75 586.44,-176.46 594.54,-183.29 597.03,-176.75"/>
</g>
<!-- n14&#45;&gt;n15 -->
<g id="edge47" class="edge">
<title>n14&#45;&gt;n15</title>
<path fill="none" stroke="black" d="M752.35,-143.88C743.44,-123.35 725.61,-89.53 699,-72 661.29,-47.15 534.67,-30.72 465.71,-23.39"/>
<polygon fill="black" stroke="black" points="466.46,-19.85 456.16,-22.29 465.74,-26.81 466.46,-19.85"/>
</g>
<!-- n16&#45;&gt;n15 -->
<g id="edge48" class="edge">
<title>n16&#45;&gt;n15</title>
<path fill="none" stroke="black" d="M454.86,-72.05C449.42,-63.77 442.75,-53.62 436.71,-44.42"/>
<polygon fill="black" stroke="black" points="439.13,-42.74 430.72,-36.31 433.28,-46.59 439.13,-42.74"/>
</g>
<!-- n18&#45;&gt;n15 -->
<g id="edge49" class="edge">
<title>n18&#45;&gt;n15</title>
<path fill="none" stroke="black" d="M564.87,-75.34C534.07,-63.36 489.42,-46 457.85,-33.72"/>
<polygon fill="black" stroke="black" points="459.27,-30.13 448.68,-29.76 456.73,-36.65 459.27,-30.13"/>
</g>
</g>
</svg>
