<svg version="1.1" xmlns="http://www.w3.org/2000/svg" viewBox="0 0 840 560" width="840" height="560">
  <!-- svg-source:excalidraw -->
  
  <defs>
    <style class="style-fonts">
      @font-face {
        font-family: "Virgil";
        src: url("https://unpkg.com/@excalidraw/excalidraw@0.15.2/dist/excalidraw-assets/Virgil.woff2");
      }
      @font-face {
        font-family: "Cascadia";
        src: url("https://unpkg.com/@excalidraw/excalidraw@0.15.2/dist/excalidraw-assets/Cascadia.woff2");
      }
    </style>
  </defs>
  <rect x="0" y="0" width="840" height="560" fill="#ffffff"></rect><g stroke-linecap="round" transform="translate(70 210) rotate(0 40 10)"><path d="M0 0 C0 0, 0 0, 0 0 M0 0 C0 0, 0 0, 0 0 M0.32 6.96 C1.62 4.8, 2.93 1.6, 5.48 0.96 M0.02 6.47 C1.12 4.83, 1.97 3.79, 4.98 0.76 M0.94 11.44 C2.83 9.31, 6.57 6.94, 9.74 0.52 M-0.07 11.89 C2.65 9.78, 6.01 5.35, 11.06 0.28 M-0.5 20.22 C7.67 10.43, 10.78 4.15, 16.49 -0.26 M-0.5 18.07 C4.59 12.33, 10.38 5.25, 16.27 0.95 M3.72 20.7 C7.8 18.56, 8.66 10.57, 20.77 -0.43 M1.99 20.93 C8.4 15.21, 13.91 8.36, 20.33 -0.33 M8.5 22.33 C11.18 18.65, 16.34 12.93, 26.37 0.87 M7.93 21.67 C13.33 16.38, 18.01 8.89, 26.64 1.09 M11.55 22.21 C20.67 14.58, 27.98 6.47, 31.43 0.09 M13.77 22.78 C18.99 14.3, 25.85 8.04, 31.76 -1.01 M18.79 23.42 C23.04 15.74, 29.96 8.83, 37.52 0.91 M17.24 22.29 C24.55 14.2, 30.92 7.57, 36.96 -0.29 M24.77 22.25 C32.34 12.97, 37.87 6.9, 41.31 1.73 M24.06 22.68 C31.42 13.2, 39.05 4.48, 42.28 -0.68 M29.9 23.77 C32.47 15.35, 38.14 11.02, 47.87 -0.78 M29.45 22.23 C35.59 14.15, 43.65 5.24, 47.98 0.92 M32.29 21.22 C38.49 16.83, 45.43 9.31, 54.44 -0.25 M34.12 22.21 C37.15 17.08, 41.47 12.16, 52.58 -0.17 M40.88 23.64 C45.13 11.85, 53.68 3.97, 59.6 -1.04 M39.77 22.16 C45.86 15.55, 52.14 8.2, 58.33 0.91 M43.3 23.25 C52.32 15.74, 58.92 5.57, 63.12 1.17 M45.08 21.09 C51.85 14.29, 56.77 6.92, 63.23 -0.22 M51.03 23.05 C55.71 17.11, 62.77 7.13, 67.14 -1 M49.25 22.83 C53.18 17.21, 58.78 13.53, 68.52 0.04 M55.22 20.23 C61.66 13.26, 69.32 2.55, 75.92 0.75 M55.95 21.16 C61.01 14.43, 67.6 7.48, 74.68 0.57 M59.9 21.75 C63.19 17.21, 71.03 9.25, 81.15 1.98 M60.86 21.15 C64.86 16.49, 69.5 10.27, 78.93 0.76 M65.74 19.79 C70.99 17.33, 75.41 12.51, 83.01 4.01 M65.62 22.37 C69.79 15.93, 75.2 10.86, 82.62 2.76 M71.26 23.14 C71.98 17.33, 75.8 16.45, 81.5 6.78 M71.35 22.13 C75.06 16.82, 79.16 12.84, 82.62 8 M76.7 21.46 C78.19 19.94, 79.61 17.27, 83.28 15 M76.73 21.23 C77.82 19.91, 79.37 18.64, 82.3 14.44" stroke="#15aabf" stroke-width="0.5" fill="none"></path><path d="M0.79 1.61 C26.5 -0.17, 49.58 -0.48, 79.19 -1.34 M0.85 0.65 C30.78 0.4, 60.15 -0.24, 80.52 -0.08 M78.52 -1.69 C77.89 9.17, 81.23 14.72, 79.29 19.67 M80.86 -0.52 C80.64 5.25, 80.61 13.35, 79.67 20.07 M80.7 21.87 C54.92 19.92, 33.55 19.69, 1.9 20.34 M80.99 19.73 C52.28 21.01, 22.6 21.04, 0.39 20.19 M0.43 22 C-0.85 11.1, -0.43 4.02, -0.24 -1.03 M0.34 20.84 C-0.82 14.15, -0.97 6.24, -0.64 0.04" stroke="#000000" stroke-width="1" fill="none"></path></g><g stroke-linecap="round" transform="translate(150 210) rotate(0 60 10)"><path d="M0 0 C0 0, 0 0, 0 0 M0 0 C0 0, 0 0, 0 0 M0.3 6.47 C1.67 4.26, 2 3.47, 5.59 -0.39 M-0.19 6.76 C1.46 4.13, 3.72 1.63, 5.38 0.12 M-0.47 12.29 C4.14 9.03, 8.51 2.25, 11.19 -0.77 M-0.02 11.83 C3.51 9.6, 4.7 6.6, 10.94 0.76 M1.66 19.89 C3.25 11.94, 8.38 9.72, 15.03 1.07 M-0.5 17.94 C5.35 12.15, 9.86 6.52, 16.24 -0.53 M1.12 23.15 C8.15 14.66, 9.32 10.94, 20.9 0.41 M1.35 21.8 C8.23 14.87, 13.97 8.3, 21 -0.84 M7.38 21.85 C13.85 16.54, 18.31 9.98, 26.83 0.44 M6.71 22.51 C14.53 13.89, 20.13 7.79, 27.04 0.99 M13.29 22.5 C19.11 16.73, 24.47 9.11, 32.08 0.54 M13.86 21.63 C18.73 15.01, 25.81 7.51, 30.98 -0.21 M19.13 21.9 C23.99 16.05, 29.65 8.35, 37.53 0.63 M18 22.81 C22.8 16.42, 29.07 8.71, 36.33 1.01 M24 23.29 C27.19 16.63, 33.62 10.56, 44.39 1.61 M24.43 22.29 C28.98 16.03, 34.31 8.59, 41.98 -0.54 M30.14 21 C31.87 16.45, 37.68 12.08, 46.51 1.94 M28.61 21.72 C33.35 17.22, 37.27 12.33, 48.2 0.1 M33.63 20.81 C42.99 13.9, 49.21 6.06, 53.08 -1.95 M34.62 20.84 C40.86 13.42, 47.28 5.68, 53.15 0.7 M40.68 20.57 C41.74 16.52, 46.75 13.22, 56.91 0.92 M39.19 22.26 C44.32 17.01, 48.68 12.15, 58.86 0.7 M46.33 22.61 C52.6 15.67, 56.2 7.17, 65.16 0.53 M44.17 22.22 C49.17 15.57, 53.6 10.88, 63.76 -0.13 M50.75 22.3 C58.52 15.35, 62.26 4.22, 67.61 -1.62 M50.53 21.31 C53.92 17.91, 59.27 11.74, 68.65 1.13 M53.97 20.5 C62.63 12.65, 67.55 7.27, 75.4 -0.03 M54.9 21.25 C59.75 16.32, 64.37 10.82, 75.22 -0.76 M60.12 20.11 C66.66 16.76, 69.8 10.74, 81.26 -0.64 M59.52 21.62 C67.32 13.45, 73.57 5.97, 80.04 -0.41 M64.2 22.52 C71.89 16.63, 77.2 9.64, 86.31 -0.44 M66.77 20.62 C71.8 14.44, 78.23 8.13, 85.05 -1.08 M72.3 20.16 C74.9 15, 82.9 7.48, 88.24 1.16 M71.18 21.83 C76.2 15.23, 82.73 8.79, 89.6 0.13 M76.39 20.97 C82.78 14.2, 86.57 11.4, 96.15 -1.28 M75.88 20.92 C82.83 14.08, 89.84 7.09, 94.91 -1.06 M82.55 20.9 C87.09 17.78, 90.81 11.06, 98.69 1.34 M80.67 22.44 C88.83 15.12, 93.7 7.61, 100.06 0.72 M85.7 20.4 C93.93 16.7, 97.73 10.45, 106.93 1.12 M86.44 20.56 C93.14 13.98, 100.25 6.46, 106.56 -0.82 M93.88 20.99 C96.62 15.66, 100.41 12.29, 110.5 1.7 M93.26 21.83 C99.27 13.95, 107.36 5.76, 112.25 -0.84 M98.34 22.38 C102.89 15.76, 111.9 4.76, 115.75 -0.55 M98.13 22.64 C101.73 16.16, 107.17 10.93, 117.25 0.13 M101.06 23.35 C111.36 12.54, 116.97 3.4, 120.63 1.04 M102.35 22.26 C106.87 16.88, 111.48 11.41, 120.48 -0.1 M106.27 22.44 C112.35 15.66, 117.94 11.23, 119.55 7.16 M108.73 21.83 C112.34 17.27, 116.51 11.51, 120.42 6.72 M114.16 22.64 C114.69 18.54, 116.57 17.01, 121.34 12.44 M113.49 21.84 C115.43 19.29, 116.38 18.04, 120.95 12.96" stroke="#4c6ef5" stroke-width="0.5" fill="none"></path><path d="M1.61 0.79 C32.87 -2.32, 66.19 -1.29, 118.66 1.45 M0.65 0.97 C33.48 -0.48, 65.39 -0.51, 119.92 0.61 M118.31 -1.95 C121.86 5.74, 120.2 7.98, 119.67 20.21 M119.48 0.75 C119.23 5.61, 121.13 9.43, 120.07 19.94 M121.87 18.47 C75.42 21.08, 30.42 22.32, 0.34 21.12 M119.73 20.74 C93.78 20.71, 66.97 21.58, 0.19 20.62 M2 19.2 C-1.66 13.12, -1.49 6.76, -1.03 0.45 M0.84 19.15 C0.52 13.3, -0.94 7.94, 0.04 0.65" stroke="#000000" stroke-width="1" fill="none"></path></g><g stroke-linecap="round" transform="translate(270 210) rotate(0 90 10)"><path d="M0 0 C0 0, 0 0, 0 0 M0 0 C0 0, 0 0, 0 0 M-0.19 6.87 C0.95 3.78, 3.52 3.13, 4.23 1.09 M0.1 6.07 C1.42 4.44, 2.88 3.11, 4.75 0.62 M0.38 12.31 C5.6 8.21, 7.3 3.29, 9.89 -0.93 M-0.08 12.84 C3.68 8, 6.66 5.39, 11.42 -0.31 M1.33 17.8 C4.31 11.57, 13.01 3.64, 16.36 1.3 M-0.63 18.58 C5.97 10.69, 12.7 5.19, 14.77 -0.33 M3.56 23.13 C4.56 14.91, 10.33 11.5, 21.74 -0.3 M2.21 22.18 C6.11 17.42, 10.35 11.39, 20.49 -0.28 M6.89 23.69 C14.92 14.48, 21.72 6.04, 26.4 0.98 M7.56 23.1 C11.75 16.08, 18.5 10.37, 26.95 0.11 M13.59 22.77 C20.67 15.06, 25.87 6.61, 32.54 0.28 M12.71 21.61 C19.1 15.48, 24.63 6.77, 31.78 0.17 M17.61 22.17 C25.65 13.72, 31.85 7.19, 37.25 0.49 M18.51 21.25 C25.47 14.09, 31.09 6.6, 37.63 -0.49 M25.04 21.37 C30.85 14.76, 37.28 6.16, 44.27 -0.29 M24.03 21.8 C31.04 13.48, 36.87 5.22, 42.12 -0.79 M27.37 21.14 C34.57 14.7, 41.97 5.67, 49.22 -1.18 M28.09 22.54 C33.82 16.06, 39.18 10.78, 47.38 1.13 M33.22 22.95 C38.91 17.15, 43.64 12.45, 51.37 0.89 M33.25 21.52 C37.48 16.61, 41.4 12.59, 54.02 -0.85 M37.61 20.51 C46.2 12.21, 55.58 3.21, 58.87 -1.25 M39.3 22.8 C43.46 17.7, 48.02 12.59, 58.65 0.38 M45.69 23.26 C49.87 15.91, 52.46 13.47, 64.52 -1.55 M45.29 21.67 C49.55 15.1, 55.77 8.4, 63.86 0.46 M50 23.89 C57.23 13.46, 60.3 6.61, 66.99 -1.21 M49.01 21.98 C57.87 14.52, 63.94 5.29, 69.74 0.79 M54.24 21.81 C58.62 15.03, 65.46 12.94, 74.63 -1.22 M54.99 21.28 C61.71 14.13, 67.87 8.35, 73.89 -0.26 M58.47 22.69 C67.93 12.95, 74.72 9.46, 78.64 1.19 M59.99 22.18 C64.82 15.79, 70.35 10.67, 78.86 -0.01 M66.92 21.88 C71.86 16.68, 75.71 12.62, 84.88 0.01 M65.03 21.5 C72.2 14.36, 79.24 6.6, 84.24 -0.3 M69.19 20.02 C74.54 17.63, 77.54 10.83, 91.11 -0.03 M70.86 21.61 C76.74 15.54, 82.81 7.59, 90.08 -0.22 M76.04 22.46 C79.83 15.79, 87.59 11.35, 94.7 0.03 M75.98 21.6 C80.71 17.41, 85.27 10.34, 94.93 -0.84 M80.59 22.8 C89.55 14.08, 94.89 4.58, 101.95 0.9 M82.13 22.61 C87.94 14.68, 93.54 8.59, 101.33 0.04 M86.14 22.33 C93.19 15.76, 97.69 12.67, 107.77 0.49 M86.3 20.99 C93.53 14.43, 99.85 7.31, 105.82 -0.9 M91.35 21.64 C97.35 13.72, 105.33 7.17, 112.97 1.47 M92.19 21.63 C96.64 17.66, 100.77 13.11, 110.43 0.81 M97.37 20.75 C105.29 15.26, 108.83 7.3, 115.35 -0.49 M97.63 21.93 C103.06 15.07, 109.75 8.57, 116.03 1.36 M104.38 22.93 C107.03 15.61, 111.33 9.86, 122.22 -1.03 M103.28 21.28 C109.04 14.68, 114.7 7.7, 121.09 0.23 M108.09 22.46 C112.27 17, 118.78 7.06, 126.93 0.73 M107.48 22.59 C114.51 14.53, 120.42 5.72, 126.49 -0.35 M114.87 20.82 C117.93 13.37, 125.35 6.74, 132 -1.62 M113.54 22.26 C120.27 12.21, 129.12 3.67, 132.86 0.58 M118.95 22.24 C123.9 15.38, 130.31 6.93, 138.29 1.78 M119.27 21.47 C124.36 13.74, 133.02 6.2, 138.05 0.04 M122.24 21.18 C127.52 15.3, 134.1 11.59, 144.85 0.49 M124.97 21.4 C130.75 14.1, 137.34 7.39, 143.18 0.27 M127.5 21.85 C134.34 14.34, 138.54 8.12, 150.09 -0.69 M128.94 22.49 C135.42 16.31, 139.26 9.82, 148.1 0.02 M134.17 21.67 C143.77 11.48, 150.03 3.13, 155.58 1.79 M135.46 21.68 C141.52 12.88, 149.13 4.93, 153.39 -0.19 M139.54 22.8 C145.98 15.6, 150.39 9.5, 159.27 1.71 M140.31 21.68 C146.03 16.05, 150.43 8, 157.89 1.16 M146.58 23.65 C154.8 12.8, 162.06 6.29, 163.25 -1.44 M144.76 22.18 C153.27 13.27, 160.56 5.02, 164.67 -0.15 M149.12 22.36 C153.83 14.84, 161.34 8.53, 171 1.1 M151.08 21.17 C157.73 13, 165.47 4.43, 168.55 1.18 M155.65 20.27 C161.63 14.56, 171.36 5.94, 175.14 -1.2 M156.5 22.11 C161.72 14.98, 166.93 9.1, 174.09 -0.82 M162.53 21.52 C167.81 15.01, 173.38 9.87, 178.7 1.38 M160.8 21.25 C167.96 15.39, 173.63 7.14, 179.09 -0.09 M165.8 20.42 C171.28 17.27, 171.81 14.28, 180.92 5.06 M166.19 20.82 C171.64 17.07, 174.61 11.05, 180.69 7.48 M170.8 21.4 C172.57 20.71, 175.95 16.41, 181.08 10.94 M171.18 22.21 C174.19 19.35, 176.76 15.35, 179.99 11.68 M177.38 21.45 C178.07 20.69, 178.97 19.48, 180.28 18.76 M177.28 21.65 C177.71 21.02, 178.33 20.22, 180.06 18.54" stroke="#fab005" stroke-width="0.5" fill="none"></path><path d="M0.79 -0.76 C38.81 -2.53, 80.5 -2.79, 181.45 -0.57 M0.97 0.92 C66.12 -0.89, 131.68 -1.25, 180.61 -0.83 M178.05 1.95 C181.25 5.31, 179.14 9.7, 180.21 18.88 M180.75 -0.96 C180.9 8.86, 179.84 15.91, 179.94 20.73 M178.47 20.19 C132.66 21.64, 85.92 22.02, 1.12 18.47 M180.74 20.62 C116.65 20.15, 54.65 19.7, 0.62 20.25 M-0.8 18.34 C-0.42 12.54, -0.28 7.03, 0.45 -0.29 M-0.85 20.6 C-1.06 12.34, -0.71 6.43, 0.65 0.76" stroke="#000000" stroke-width="1" fill="none"></path></g><g stroke-linecap="round" transform="translate(450 210) rotate(0 40 10)"><path d="M0 0 C0 0, 0 0, 0 0 M0 0 C0 0, 0 0, 0 0 M0.21 5.99 C0.98 4.64, 4.21 1.14, 5.71 0.39 M-0.59 6.52 C1.55 4.11, 4 1.66, 5.25 0.71 M0.4 13.5 C4.65 6.9, 8.09 2.83, 9.74 -0.21 M0.93 12.52 C2.47 9.18, 6.24 6.22, 10.35 0.67 M-0.77 16.72 C4.44 14.1, 7.98 8.88, 16.59 2.02 M0.01 18.41 C3.24 14.41, 8.84 8.15, 14.96 -0.37 M3.55 19.93 C7.5 13.01, 16.25 5.78, 21.03 -1.34 M2.59 21.14 C8.29 14.85, 12.67 8.97, 21.05 0.75 M8.73 22.76 C14.79 14.37, 21.63 6.43, 26.94 0.09 M8.14 21.35 C14.55 14.39, 22.25 6.57, 26.07 0.79 M13.85 22.78 C18.26 16.13, 21.93 12.1, 32.27 0.25 M12.69 22.17 C20.91 13.14, 26.59 4.62, 32.17 0.43 M17.87 23.32 C23.76 15.21, 31.57 7.35, 37.11 1.1 M16.96 23.12 C21.81 16.88, 26.35 12.33, 36.13 1.23 M23.12 21.68 C32.12 12.43, 39.14 7.44, 42.37 1.08 M23.55 22.54 C29.89 13.61, 36.31 5.65, 41.86 0.35 M27.52 21.72 C35.76 14.46, 41.42 7.68, 46.11 -0.29 M28.92 22.44 C35.98 13.97, 44.25 4.69, 48.42 -0.67 M35.36 22.28 C38.15 18.53, 42.03 10.91, 54.21 -2.05 M33.93 21.15 C39.22 14.76, 45.41 9.65, 52.47 0.82 M37.54 21.76 C45.36 15.18, 52.5 5.94, 56.7 -1.16 M39.83 22.13 C46.78 14.24, 53.72 6.55, 58.33 -0.66 M46.33 22.53 C48 15.96, 54.61 12.38, 62.44 -0.1 M44.75 20.73 C51.21 13.75, 57.53 7.09, 64.45 0.03 M51.59 23.5 C55.17 12.41, 62.35 4.28, 67.4 1.69 M49.68 22.89 C55.23 16.44, 59.01 12.16, 69.4 -0.6 M55.55 20.59 C59.26 16.88, 67.64 9.19, 73.43 0.25 M55.02 21.93 C61.77 14.18, 69.89 5.57, 74.39 0.06 M61.05 23.24 C63.8 17.89, 72.78 9.32, 80.47 -0.34 M60.55 21.28 C66.87 13.99, 74.46 6.3, 79.27 -0.5 M66.28 22.89 C70.99 16.73, 76.84 10.58, 82.7 3.54 M65.91 21.24 C70.48 17.07, 74.42 11.16, 82.39 1.85 M69.25 21.57 C74.98 16.49, 76.73 14.51, 82.71 8.71 M70.68 21.77 C75.48 17.19, 78.6 12.83, 82.54 7.89 M77.04 20.92 C78.26 20.25, 80.48 17, 82.7 14.27 M76.66 21.34 C79.02 19.2, 80.11 16.96, 82.31 15.01" stroke="#fa5252" stroke-width="0.5" fill="none"></path><path d="M-0.76 -1.84 C26.07 -1.13, 52.96 1.14, 79.43 1.29 M0.92 0.54 C31.09 -0.26, 61.54 -0.17, 79.17 -0.49 M81.95 1.4 C80.13 3.81, 79.5 9.25, 78.88 21.92 M79.04 0.72 C80.83 7.4, 79.96 15.4, 80.73 19.67 M80.19 20.66 C53.15 21.29, 26.72 20.5, -1.53 20.99 M80.62 19.53 C48.72 20.98, 16.34 21.21, 0.25 19.98 M-1.66 19.62 C-1.7 13.33, -1.23 7.6, -0.29 0.8 M0.6 19 C-1.03 12.69, -0.13 7.31, 0.76 0.58" stroke="#000000" stroke-width="1" fill="none"></path></g><g stroke-linecap="round" transform="translate(530 210) rotate(0 90 10)"><path d="M0 0 C0 0, 0 0, 0 0 M0 0 C0 0, 0 0, 0 0 M-0.67 5.73 C2.17 4.73, 2.86 2.63, 5.02 0.91 M-0.14 6.28 C1.34 4.92, 2.78 2.87, 5.33 0.56 M1.6 12.84 C1.97 9.41, 4.88 4.8, 10.45 -0.43 M0.61 11.47 C3.55 8.86, 6.86 4.88, 11.34 -0.18 M-1.84 18.74 C6.74 10.85, 12.74 5.37, 17.31 -0.42 M-0.16 17.6 C4.76 14.28, 7.4 8.23, 14.92 1.07 M0.34 19.84 C6.25 15.99, 11.86 10.77, 19.99 -0.55 M1.56 22.43 C5.33 16.87, 9.51 12.29, 22.08 0.57 M7.8 22.85 C13.23 15.88, 19.12 9.26, 26.05 1.71 M6.39 22.33 C12.28 17.35, 17.32 10.93, 26.75 -0.37 M13.86 22.77 C18.44 14.85, 25.66 8.01, 32.25 1.7 M13.25 22.62 C20.38 12.16, 28.01 4.59, 32.43 0.37 M19.02 21.59 C25.44 14.83, 32.09 6.45, 37.72 -0.98 M18.83 21.6 C23.77 14.88, 30.42 7.8, 37.86 0.89 M23.42 23.51 C28.3 16.53, 37.45 7.4, 43.74 0.99 M24.29 21.57 C30.62 12.59, 37.94 3.87, 43.01 0.57 M28.09 22.5 C36.25 12.82, 44.89 4.04, 46.99 2.16 M28.81 22.09 C34.99 15.88, 40.33 9.26, 46.62 -0.7 M34.69 21.72 C40.75 15.49, 42.93 10.6, 51.27 -0.18 M33.56 21.22 C40.4 14.09, 48.5 5.76, 54.14 0.71 M38.8 21.1 C47.94 12.71, 54.4 4.23, 56.79 1.5 M39.17 22.81 C45.13 15.92, 51.3 8.65, 57.29 -0.54 M45.6 20.78 C51.2 14.62, 59.8 3.61, 63.89 0.45 M43.8 21.67 C48.68 16.38, 53.89 11.79, 64.02 0.44 M51.2 20.64 C54.75 13.04, 61.27 5.16, 70.3 -0.82 M50.59 22.92 C56.86 13.65, 65.29 6.11, 68.01 0.07 M54.33 19.81 C61.38 17.6, 64.45 10.62, 74.9 0.9 M55.67 21.14 C60.52 17.03, 64.5 10.71, 74.71 -0.48 M61.61 20.15 C67.8 17.52, 70.76 10.43, 78.94 1.09 M59.65 21.69 C64.07 17.92, 68.08 12.46, 78.78 -0.02 M67.3 21.72 C70.48 18.28, 73.71 12.72, 85.84 -1.07 M65.65 21.95 C73.58 13.42, 79.72 5.16, 84.15 -0.13 M70.56 22.37 C76.68 12.39, 86.16 6.07, 90.39 0.86 M70.78 22.53 C76.86 14.67, 83.17 7.83, 89.48 0.14 M75.18 21.13 C83.81 15.68, 86.68 9.26, 94.52 0.04 M76.13 22.57 C80.48 15.91, 84.56 11.25, 96.17 -0.5 M82.85 21.82 C88.23 12.32, 96.2 7.56, 100.57 -0.11 M82.3 20.96 C86.04 16.76, 89.94 12.89, 99.86 -0.35 M88.91 20.44 C93.54 17.25, 97.28 12.62, 106.99 1.52 M87.37 21.59 C91.66 17.16, 95.26 11.61, 106.45 0.56 M91.55 20.76 C100.89 12.8, 108.54 6.71, 109.66 -0.7 M92.41 22.63 C100 14.17, 106.63 5.26, 111.56 -0.28 M98.99 22.53 C103.03 14.12, 109.81 6.02, 116.9 1.1 M96.84 22.49 C104.53 14.8, 111.7 6.31, 115.91 0.09 M101.95 21.21 C105.03 16.58, 110.96 11.63, 122.08 0 M103.18 21.32 C107.57 15.82, 111.33 11.47, 122.09 -0.32 M106.18 23.78 C110.82 15.95, 116.25 12.97, 128.1 2.06 M107.85 22.57 C114.33 13.15, 122.2 4.61, 127.31 0.98 M111.6 20.93 C119.1 14.11, 126.27 4.9, 134.51 -1.4 M112.54 20.92 C119.42 14.56, 125.05 9.48, 132.81 -1 M117.49 22.59 C124.02 13.94, 131.99 8.97, 138.75 1.66 M117.64 21.57 C124.32 16.25, 128.96 10.45, 137.3 0.51 M122.29 21.42 C130.08 16.61, 138.57 8.01, 143.88 -0.49 M124.32 21.47 C130.29 15.34, 135.85 8.58, 143 -0.73 M128.84 20.33 C131.84 15.73, 139.21 12.07, 147.89 0.16 M129.97 22.57 C134.12 15.7, 140.56 8.68, 149.09 -0.68 M136.1 19.95 C139.47 15.01, 145.64 13.32, 155.37 -1.15 M134.21 21.1 C139.71 15.44, 144.65 9.71, 153.77 0.19 M140.42 22.15 C145.58 15.14, 153.02 8.86, 158.82 1.56 M140.45 22.79 C146.13 13.21, 153.01 6.72, 159.73 0.2 M147.3 21.53 C153.87 15.5, 157.94 4.34, 166.39 0.51 M145.78 22.11 C152.73 14.33, 159.93 5.38, 164.14 -0.38 M148.64 20.94 C158.65 11.89, 167.13 5.68, 171.09 1.64 M150.59 21.56 C158.2 13.15, 163.99 6.43, 170.18 0.03 M154.46 22.93 C164.44 14.21, 170.85 3.92, 174.62 0.13 M156.48 20.88 C160.25 16.45, 162.85 11.91, 174.99 -0.5 M162.18 21.32 C166.93 17, 169.31 12.04, 180.52 -0.1 M161.79 22.34 C165.88 16.12, 169.14 11.57, 179.24 -0.14 M168.37 20.65 C170.9 15.52, 177.48 9.18, 180.08 7.89 M167.61 21.94 C171.72 14.81, 178.02 10.74, 179.17 6.73 M170.56 23.11 C175.23 17.44, 179.11 13.32, 180.48 11.87 M171.42 22.48 C173.49 19.11, 175.89 16.46, 180.8 12.66 M177.06 21.89 C177.85 20.81, 179.51 19.64, 179.6 18.37 M177.12 21.69 C178.13 20.44, 179.35 19.35, 180.06 18.49" stroke="#be4bdb" stroke-width="0.5" fill="none"></path><path d="M-1.84 -1.08 C67.69 -0.66, 138.46 0.11, 181.29 1.7 M0.54 0.28 C66.15 -1.74, 131.87 -2.48, 179.51 -0.74 M181.4 0.3 C179.09 3.98, 180.01 7.5, 181.92 21.73 M180.72 0.93 C179.82 5.02, 180.09 10.63, 179.67 20.35 M180.66 19.96 C111.07 20.51, 39.46 18.64, 0.99 21.98 M179.53 20.65 C131.31 21.3, 82.45 21.36, -0.02 20.21 M-0.38 18.5 C-0.16 10.97, 0.53 3.71, 0.8 0.67 M-1 19.14 C-0.47 12.36, 0.82 5.41, 0.58 0.4" stroke="#000000" stroke-width="1" fill="none"></path></g><g stroke-linecap="round" transform="translate(710 210) rotate(0 30 10)"><path d="M0 0 C0 0, 0 0, 0 0 M0 0 C0 0, 0 0, 0 0 M-0.93 6.89 C1.93 3.8, 3.68 2.72, 5.54 0.5 M-0.38 6.39 C2.23 3.79, 4.14 2.02, 5.19 0.21 M0.93 11.15 C3.98 7.4, 5.85 4.14, 10.23 -0.34 M-0.44 12.47 C3.2 9.47, 5.48 6.08, 10.48 0.68 M0.17 19.31 C5.21 12.57, 12.64 6.76, 14.87 -0.41 M-0.97 19.09 C4.41 13.07, 7.06 8.69, 16.36 -0.23 M0.26 21.33 C8.7 14.46, 15.81 4.68, 20.78 -1.84 M2.84 20.89 C7.57 14.66, 13.27 9.73, 21.9 0.01 M7.89 22.3 C13.03 16.07, 18.53 9.52, 27.67 -0.73 M7.38 22.57 C14.16 15.74, 19.53 8.24, 25.59 0.5 M13.85 21.33 C19.34 14.98, 25.93 7.33, 33.7 1.89 M13.7 21.65 C17.41 15.37, 24.02 9.78, 32.36 0.53 M17.3 22.78 C23.97 16.11, 29.03 10.28, 35.65 0.55 M17.31 22.23 C24.47 14.69, 31.23 6.9, 37.51 0.51 M25.26 20.53 C32.58 15.25, 37.74 6.47, 43.65 1.73 M23.31 21.51 C29.68 13.45, 36.3 6.59, 43.23 0.69 M28.87 22.47 C32.24 18.51, 36.49 10.93, 49.44 0.47 M28.46 22.58 C34.05 16.21, 39.23 9.73, 46.59 -0.02 M34.13 23 C38.77 14.3, 44.76 8.62, 53.14 0.82 M33.63 21.15 C38.2 18.05, 41.56 13.53, 54.04 0.61 M38.14 23.54 C42.33 17.91, 46.41 10.91, 59.45 0.35 M39.84 22.27 C45.74 15.6, 51.27 7.27, 57.41 0.97 M43.85 21.02 C51.89 15.54, 55.09 8.11, 62.47 0.88 M44.75 21.13 C50.77 14.98, 57.49 8.2, 62.46 2.56 M48.42 20.49 C52.41 15.77, 56.12 14.43, 61.28 9.2 M50.58 21.81 C52.47 19.61, 56.01 14.71, 62.13 7.03 M54.47 22.4 C57.46 19.96, 58.07 18.26, 62.52 13.61 M55.13 21.78 C57.53 19.4, 58.82 17.85, 61.83 14.04" stroke="#868e96" stroke-width="0.5" fill="none"></path><path d="M-1.08 -0.81 C19.03 2, 40.18 1.84, 61.7 1.29 M0.28 0.52 C23.74 0.28, 46.82 -0.82, 59.26 -0.85 M60.3 -0.71 C59.87 4.26, 59.08 10.02, 61.73 18.95 M60.93 -0.33 C59.88 7.44, 60.54 14.66, 60.35 20.93 M59.96 21.9 C46.92 21.31, 31.64 21.18, 1.98 19.45 M60.65 20.39 C37.76 20.34, 15.39 19.7, 0.21 21 M-1.5 19.76 C-0.86 15.26, -0.13 10.41, 0.67 1.68 M-0.86 19.36 C-0.08 16.35, 0.64 11.98, 0.4 0.31" stroke="#000000" stroke-width="1" fill="none"></path></g><g transform="translate(330 10) rotate(0 95 22.5)"><text x="0" y="0" font-family="Virgil, Segoe UI Emoji" font-size="36px" fill="#000000" text-anchor="start" style="white-space: pre;" direction="ltr" dominant-baseline="text-before-edge">JavaScript</text></g><g stroke-linecap="round"><g transform="translate(87.50753338232744 369) rotate(0 2.4924666176725623 -69.5)"><path d="M-0.49 -0.81 C-3.08 -10.59, -20.59 -36.48, -16.64 -59.34 C-12.68 -82.21, 16.61 -124.9, 23.26 -137.98 M1.46 1.38 C-1.12 -8.17, -20.7 -34.46, -17.13 -57.99 C-13.55 -81.52, 16.06 -126.15, 22.9 -139.78" stroke="#000000" stroke-width="1" fill="none"></path></g><g transform="translate(87.50753338232744 369) rotate(0 2.4924666176725623 -69.5)"><path d="M16.48 -108.76 C18.47 -115.06, 21.8 -121.2, 24.84 -137.95 M17.74 -109.61 C18.72 -121.2, 20.6 -132.01, 21.93 -138.81" stroke="#000000" stroke-width="1" fill="none"></path></g><g transform="translate(87.50753338232744 369) rotate(0 2.4924666176725623 -69.5)"><path d="M-1.33 -118.94 C4.3 -123.05, 11.34 -127.07, 24.84 -137.95 M-0.07 -119.79 C7.23 -127.87, 15.42 -135.08, 21.93 -138.81" stroke="#000000" stroke-width="1" fill="none"></path></g></g><mask></mask><g transform="translate(70 370) rotate(0 47 22.5)"><text x="0" y="0" font-family="Virgil, Segoe UI Emoji" font-size="36px" fill="#000000" text-anchor="start" style="white-space: pre;" direction="ltr" dominant-baseline="text-before-edge">Fetch</text></g><g stroke-linecap="round" transform="translate(10 10) rotate(0 410 270)"><path d="M-0.23 0.51 C213.37 -1.86, 426.16 -1.65, 820.43 0.22 M-0.33 -0.2 C287.95 -2.33, 576.11 -1.6, 820.28 0.06 M819.55 0.77 C820.34 142.3, 820.24 284.67, 820.58 540.75 M820.29 -0.13 C820.29 144.34, 819.84 287.97, 820.13 539.99 M819.39 540.39 C496.96 541.61, 172.92 542.32, -0.38 540.52 M820.1 539.99 C541.86 542.44, 263.38 541.71, -0.08 539.7 M-0.12 540.32 C1.38 385.2, 0.43 229.53, -0.8 -0.69 M0.3 540.23 C0.08 412.84, -0.31 285.74, -0.2 0.35" stroke="#000000" stroke-width="1" fill="none"></path></g><g stroke-linecap="round"><g transform="translate(211.05885999910515 130.17790458606555) rotate(0 -0.5294299995525762 39.911047706967224)"><path d="M-0.34 0.77 C-0.22 7.39, -0.11 27.24, -0.04 40.6 C0.04 53.96, 0.17 74.33, 0.11 80.92 M1.68 0.13 C1.81 6.34, -0.16 25.71, -0.45 38.88 C-0.74 52.05, -0.15 72.07, -0.05 79.16" stroke="#000000" stroke-width="1" fill="none"></path></g><g transform="translate(211.05885999910515 130.17790458606555) rotate(0 -0.5294299995525762 39.911047706967224)"><path d="M-5.98 62.21 C-4.16 66.81, -1.93 70.29, 0.5 80.19 M-7.76 59.77 C-5.89 65.03, -1.97 72.14, 0.1 78.8" stroke="#000000" stroke-width="1" fill="none"></path></g><g transform="translate(211.05885999910515 130.17790458606555) rotate(0 -0.5294299995525762 39.911047706967224)"><path d="M7.7 61.94 C6.34 66.56, 5.38 70.1, 0.5 80.19 M5.92 59.49 C3.8 64.72, 3.74 71.92, 0.1 78.8" stroke="#000000" stroke-width="1" fill="none"></path></g></g><mask></mask><g transform="translate(150 90) rotate(0 51.5 22.5)"><text x="0" y="0" font-family="Virgil, Segoe UI Emoji" font-size="36px" fill="#000000" text-anchor="start" style="white-space: pre;" direction="ltr" dominant-baseline="text-before-edge">Parse</text></g><g stroke-linecap="round"><g transform="translate(331.6574209245741 289) rotate(0 19.91822394092742 -28.587494814954653)"><path d="M1.02 0.78 C1 1, -7.35 11.87, -0.49 2.1 C6.36 -7.67, 35.04 -47.78, 42.14 -57.84 M0.1 0.14 C0.05 -0.02, -7.77 9.97, -0.83 0.56 C6.11 -8.86, 34.46 -46.72, 41.71 -56.35" stroke="#000000" stroke-width="1" fill="none"></path></g><g transform="translate(331.6574209245741 289) rotate(0 19.91822394092742 -28.587494814954653)"><path d="M34.29 -25.71 C37.01 -34.44, 38.09 -42.27, 41.54 -55.14 M32.15 -28.62 C36.01 -33.12, 37.08 -40.42, 41.55 -56.25" stroke="#000000" stroke-width="1" fill="none"></path></g><g transform="translate(331.6574209245741 289) rotate(0 19.91822394092742 -28.587494814954653)"><path d="M17.88 -38.02 C25.13 -43.55, 30.66 -48.04, 41.54 -55.14 M15.74 -40.94 C23.1 -42.64, 27.74 -47.26, 41.55 -56.25" stroke="#000000" stroke-width="1" fill="none"></path></g></g><mask></mask><g transform="translate(130 290) rotate(0 183 22.5)"><text x="0" y="0" font-family="Virgil, Segoe UI Emoji" font-size="36px" fill="#000000" text-anchor="start" style="white-space: pre;" direction="ltr" dominant-baseline="text-before-edge">Compile and Optimize</text></g><g stroke-linecap="round"><g transform="translate(450 390) rotate(0 40 -80)"><path d="M1.16 1.1 C14.43 -5.64, 74.07 -12.8, 80.65 -39.67 C87.22 -66.54, 47.27 -139.88, 40.62 -160.1 M0.32 0.63 C13.4 -6.55, 73.39 -15.04, 80.04 -41.62 C86.68 -68.2, 46.62 -139.04, 40.18 -158.84" stroke="#000000" stroke-width="1" fill="none"></path></g><g transform="translate(450 390) rotate(0 40 -80)"><path d="M62.72 -136.05 C53.32 -144.26, 44.62 -152.44, 38.52 -159.82 M61.86 -136.43 C56.54 -142.59, 51.54 -147.04, 39.62 -157.87" stroke="#000000" stroke-width="1" fill="none"></path></g><g transform="translate(450 390) rotate(0 40 -80)"><path d="M43.92 -127.82 C41.71 -139.38, 40.25 -150.73, 38.52 -159.82 M43.06 -128.2 C42.06 -136.04, 41.31 -142.34, 39.62 -157.87" stroke="#000000" stroke-width="1" fill="none"></path></g></g><mask></mask><g transform="translate(210 390) rotate(0 242 22.5)"><text x="0" y="0" font-family="Virgil, Segoe UI Emoji" font-size="36px" fill="#000000" text-anchor="start" style="white-space: pre;" direction="ltr" dominant-baseline="text-before-edge">Re-optimize and Deoptimize</text></g><g stroke-linecap="round"><g transform="translate(630 150) rotate(0 -10 30)"><path d="M0.65 0.33 C-2.78 3.46, -19.4 10.12, -19.38 19.9 C-19.37 29.68, -2.4 52.47, 0.73 59.01 M-0.48 -0.54 C-4.11 3.3, -20.14 11.33, -20.01 21.38 C-19.87 31.44, -2.88 53.41, 0.34 59.8" stroke="#000000" stroke-width="1" fill="none"></path></g><g transform="translate(630 150) rotate(0 -10 30)"><path d="M-16.76 47.11 C-10.34 52.65, -4.82 55.9, -1.14 58.11 M-17.16 45.72 C-13.77 48.84, -10.58 52.48, 1.21 59.28" stroke="#000000" stroke-width="1" fill="none"></path></g><g transform="translate(630 150) rotate(0 -10 30)"><path d="M-3.81 38.97 C-2.46 47.81, -2.08 54.29, -1.14 58.11 M-4.21 37.59 C-3.36 42.44, -2.8 47.73, 1.21 59.28" stroke="#000000" stroke-width="1" fill="none"></path></g></g><mask></mask><g transform="translate(570 90.19958426021026) rotate(0 69.5 22.5)"><text x="0" y="0" font-family="Virgil, Segoe UI Emoji" font-size="36px" fill="#000000" text-anchor="start" style="white-space: pre;" direction="ltr" dominant-baseline="text-before-edge">Execute</text></g><g stroke-linecap="round"><g transform="translate(710 310) rotate(0 10 -40)"><path d="M0.62 -0.1 C3.97 -6.99, 17.6 -27.53, 20.73 -40.99 C23.86 -54.46, 19.7 -74.19, 19.41 -80.89 M-0.52 -1.2 C2.68 -8, 17.02 -26.84, 20.16 -39.98 C23.3 -53.12, 18.58 -73.25, 18.33 -80.04" stroke="#000000" stroke-width="1" fill="none"></path></g><g transform="translate(710 310) rotate(0 10 -40)"><path d="M27.19 -60.98 C22.46 -69.44, 19.44 -76.46, 16.38 -78.08 M27.19 -62.08 C23.43 -67.86, 21.52 -75.95, 19.08 -81" stroke="#000000" stroke-width="1" fill="none"></path></g><g transform="translate(710 310) rotate(0 10 -40)"><path d="M13.61 -59.35 C13.68 -68.46, 15.46 -76.06, 16.38 -78.08 M13.61 -60.46 C14.87 -66.79, 17.98 -75.48, 19.08 -81" stroke="#000000" stroke-width="1" fill="none"></path></g></g><mask></mask><g transform="translate(650 290) rotate(0 29 22.5)"><text x="0" y="0" font-family="Virgil, Segoe UI Emoji" font-size="36px" fill="#000000" text-anchor="start" style="white-space: pre;" direction="ltr" dominant-baseline="text-before-edge">GC</text></g></svg>