<svg xmlns="http://www.w3.org/2000/svg" xmlns:xlink="http://www.w3.org/1999/xlink" version="1.1" class="marks" width="200" height="200" viewBox="0 0 200 200"><g fill="none" stroke-miterlimit="10" transform="translate(0,0)"><g class="mark-group role-frame root" role="graphics-object" aria-roledescription="group mark container"><g transform="translate(0,0)"><path class="background" aria-hidden="true" d="M0,0h200v200h-200Z"/><g><g class="mark-arc role-mark" role="graphics-symbol" aria-roledescription="arc mark container"><path transform="translate(100,100)" d="M1.25,-94.794A5,5,0,0,1,6.579,-99.783A100,100,0,0,1,56.156,-82.744A5,5,0,0,1,57.292,-75.533L48.046,-63.672A5,5,0,0,1,41.346,-62.574A75,75,0,0,0,5.859,-74.771A5,5,0,0,1,1.25,-79.755Z" fill="#1f77b4"/><path transform="translate(100,100)" d="M59.263,-73.996A5,5,0,0,1,66.533,-74.655A100,100,0,0,1,99.983,1.863A5,5,0,0,1,94.562,6.752L79.577,5.483A5,5,0,0,1,74.999,0.47A75,75,0,0,0,50.589,-55.369A5,5,0,0,1,50.018,-62.135Z" fill="#aec7e8"/><path transform="translate(100,100)" d="M94.351,9.243A5,5,0,0,1,98.873,14.974A100,100,0,0,1,-10.291,99.469A5,5,0,0,1,-14.706,93.655L-12.177,78.83A5,5,0,0,1,-6.795,74.692A75,75,0,0,0,74.01,12.147A5,5,0,0,1,79.366,7.974Z" fill="#ff7f0e"/><path transform="translate(100,100)" d="M-17.17,93.235A5,5,0,0,1,-23.262,97.257A100,100,0,0,1,-56.437,82.552A5,5,0,0,1,-57.549,75.337L-48.263,63.508A5,5,0,0,1,-41.559,62.433A75,75,0,0,0,-18.347,72.721A5,5,0,0,1,-14.642,78.41Z" fill="#ffbb78"/><path transform="translate(100,100)" d="M-59.515,73.793A5,5,0,0,1,-66.787,74.427A100,100,0,0,1,-98.246,-18.647A5,5,0,0,1,-92.08,-22.555L-77.522,-18.784A5,5,0,0,1,-73.852,-13.073A75,75,0,0,0,-50.777,55.197A5,5,0,0,1,-50.229,61.964Z" fill="#2ca02c"/><path transform="translate(100,100)" d="M-91.454,-24.975A5,5,0,0,1,-94.948,-31.384A100,100,0,0,1,-5.899,-99.826A5,5,0,0,1,-0.604,-94.801L-0.706,-79.762A5,5,0,0,1,-5.35,-74.809A75,75,0,0,0,-70.914,-24.417A5,5,0,0,1,-76.895,-21.205Z" fill="#98df8a"/></g></g><path class="foreground" aria-hidden="true" d="" display="none"/></g></g></g></svg>