<svg xmlns="http://www.w3.org/2000/svg" xmlns:xlink="http://www.w3.org/1999/xlink" version="1.1" class="marks" width="865" height="540" viewBox="0 0 865 540"><g fill="none" stroke-miterlimit="10" transform="translate(45,20)"><g class="mark-group role-frame root" role="graphics-object" aria-roledescription="group mark container"><g transform="translate(0,0)"><path class="background" aria-hidden="true" d="M0,0h800v500h-800Z"/><g><g class="mark-group role-axis" role="graphics-symbol" aria-roledescription="axis" aria-label="X-axis for a linear scale with values from 3,500 to 10,500"><g transform="translate(0.5,0.5)"><path class="background" aria-hidden="true" d="M0,0h0v0h0Z" pointer-events="none"/><g><g class="mark-rule role-axis-grid" pointer-events="none"><line transform="translate(57,0)" x2="0" y2="500" stroke="#ddd" stroke-width="1" opacity="1"/><line transform="translate(171,0)" x2="0" y2="500" stroke="#ddd" stroke-width="1" opacity="1"/><line transform="translate(286,0)" x2="0" y2="500" stroke="#ddd" stroke-width="1" opacity="1"/><line transform="translate(400,0)" x2="0" y2="500" stroke="#ddd" stroke-width="1" opacity="1"/><line transform="translate(514,0)" x2="0" y2="500" stroke="#ddd" stroke-width="1" opacity="1"/><line transform="translate(629,0)" x2="0" y2="500" stroke="#ddd" stroke-width="1" opacity="1"/><line transform="translate(743,0)" x2="0" y2="500" stroke="#ddd" stroke-width="1" opacity="1"/></g><g class="mark-rule role-axis-tick" pointer-events="none"><line transform="translate(57,0)" x2="0" y2="0" stroke="#888" stroke-width="1" opacity="1"/><line transform="translate(171,0)" x2="0" y2="0" stroke="#888" stroke-width="1" opacity="1"/><line transform="translate(286,0)" x2="0" y2="0" stroke="#888" stroke-width="1" opacity="1"/><line transform="translate(400,0)" x2="0" y2="0" stroke="#888" stroke-width="1" opacity="1"/><line transform="translate(514,0)" x2="0" y2="0" stroke="#888" stroke-width="1" opacity="1"/><line transform="translate(629,0)" x2="0" y2="0" stroke="#888" stroke-width="1" opacity="1"/><line transform="translate(743,0)" x2="0" y2="0" stroke="#888" stroke-width="1" opacity="1"/></g><g class="mark-text role-axis-label" pointer-events="none"><text text-anchor="middle" transform="translate(57,-5)" font-family="sans-serif" font-size="12px" font-weight="bold" fill="#000" opacity="1">4,000</text><text text-anchor="middle" transform="translate(171,-5)" font-family="sans-serif" font-size="12px" font-weight="bold" fill="#000" opacity="1">5,000</text><text text-anchor="middle" transform="translate(286,-5)" font-family="sans-serif" font-size="12px" font-weight="bold" fill="#000" opacity="1">6,000</text><text text-anchor="middle" transform="translate(400,-5)" font-family="sans-serif" font-size="12px" font-weight="bold" fill="#000" opacity="1">7,000</text><text text-anchor="middle" transform="translate(514,-5)" font-family="sans-serif" font-size="12px" font-weight="bold" fill="#000" opacity="1">8,000</text><text text-anchor="middle" transform="translate(629,-5)" font-family="sans-serif" font-size="12px" font-weight="bold" fill="#000" opacity="1">9,000</text><text text-anchor="middle" transform="translate(743,-5)" font-family="sans-serif" font-size="12px" font-weight="bold" fill="#000" opacity="1">10,000</text></g></g><path class="foreground" aria-hidden="true" d="" pointer-events="none" display="none"/></g></g><g class="mark-group role-axis" role="graphics-symbol" aria-roledescription="axis" aria-label="X-axis titled 'Miles driven per capita each year' for a linear scale with values from 3,500 to 10,500"><g transform="translate(0.5,500.5)"><path class="background" aria-hidden="true" d="M0,0h0v0h0Z" pointer-events="none"/><g><g class="mark-text role-axis-title" pointer-events="none"><text text-anchor="middle" transform="translate(400,13)" font-family="sans-serif" font-size="11px" font-weight="bold" fill="#000" opacity="1">Miles driven per capita each year</text></g></g><path class="foreground" aria-hidden="true" d="" pointer-events="none" display="none"/></g></g><g class="mark-group role-axis" role="graphics-symbol" aria-roledescription="axis" aria-label="Y-axis for a linear scale with values from $1.20 to $3.40"><g transform="translate(0.5,0.5)"><path class="background" aria-hidden="true" d="M0,0h0v0h0Z" pointer-events="none"/><g><g class="mark-rule role-axis-grid" pointer-events="none"><line transform="translate(0,432)" x2="800" y2="0" stroke="#ddd" stroke-width="1" opacity="1"/><line transform="translate(0,318)" x2="800" y2="0" stroke="#ddd" stroke-width="1" opacity="1"/><line transform="translate(0,205)" x2="800" y2="0" stroke="#ddd" stroke-width="1" opacity="1"/><line transform="translate(0,91)" x2="800" y2="0" stroke="#ddd" stroke-width="1" opacity="1"/></g><g class="mark-rule role-axis-tick" pointer-events="none"><line transform="translate(0,432)" x2="0" y2="0" stroke="#888" stroke-width="1" opacity="1"/><line transform="translate(0,318)" x2="0" y2="0" stroke="#888" stroke-width="1" opacity="1"/><line transform="translate(0,205)" x2="0" y2="0" stroke="#888" stroke-width="1" opacity="1"/><line transform="translate(0,91)" x2="0" y2="0" stroke="#888" stroke-width="1" opacity="1"/></g><g class="mark-text role-axis-label" pointer-events="none"><text text-anchor="end" transform="translate(-2,436)" font-family="sans-serif" font-size="12px" font-weight="bold" fill="#000" opacity="1">$1.50</text><text text-anchor="end" transform="translate(-2,322)" font-family="sans-serif" font-size="12px" font-weight="bold" fill="#000" opacity="1">$2.00</text><text text-anchor="end" transform="translate(-2,209)" font-family="sans-serif" font-size="12px" font-weight="bold" fill="#000" opacity="1">$2.50</text><text text-anchor="end" transform="translate(-2,95)" font-family="sans-serif" font-size="12px" font-weight="bold" fill="#000" opacity="1">$3.00</text></g></g><path class="foreground" aria-hidden="true" d="" pointer-events="none" display="none"/></g></g><g class="mark-group role-axis" role="graphics-symbol" aria-roledescription="axis" aria-label="Y-axis titled 'Price of a gallon of gasoline (adjusted for inflation)' for a linear scale with values from 1.2 to 3.4"><g transform="translate(800.5,0.5)"><path class="background" aria-hidden="true" d="M0,0h0v0h0Z" pointer-events="none"/><g><g class="mark-text role-axis-title" pointer-events="none"><text text-anchor="middle" transform="translate(4,250) rotate(90) translate(0,-2)" font-family="sans-serif" font-size="11px" font-weight="bold" fill="#000" opacity="1">Price of a gallon of gasoline (adjusted for inflation)</text></g></g><path class="foreground" aria-hidden="true" d="" pointer-events="none" display="none"/></g></g><g class="mark-line role-mark" role="graphics-symbol" aria-roledescription="line mark container"><path d="M20,232C20,232,22.333,222.5,24,227C25.667,231.5,26.333,255.5,30,259C33.667,262.5,42.667,248.333,46,248C49.333,247.667,48.5,254.833,50,257C51.5,259.167,52.167,259.167,55,261C57.833,262.833,62.5,263,67,268C71.5,273,76.667,286.833,82,291C87.333,295.167,92.833,293.833,99,293C105.167,292.167,113.167,287.167,119,286C124.833,284.833,128.5,286,134,286C139.5,286,145,285.5,152,286C159,286.5,168.833,286.333,176,289C183.167,291.667,188.667,297.5,195,302C201.333,306.5,206.167,310.667,214,316C221.833,321.333,230.5,328.667,242,334C253.5,339.333,272.833,346.833,283,348C293.167,349.167,303.667,358.833,303,341C302.333,323.167,279.833,256.5,279,241C278.167,225.5,289.5,247.333,298,248C306.5,248.667,320,247,330,245C340,243,348.5,232.5,358,236C367.5,239.5,384.833,278,387,266C389.167,254,375,204.5,371,164C367,123.5,363.333,46.5,363,23C362.667,-0.5,366,8.667,369,23C372,37.333,377,84.833,381,109C385,133.167,387.333,151.333,393,168C398.667,184.667,407.667,197.667,415,209C422.333,220.333,428.833,208.667,437,236C445.167,263.333,455.5,350.167,464,373C472.5,395.833,478,370,488,373C498,376,512,390.667,524,391C536,391.333,551.5,382.667,560,375C568.5,367.333,572.5,346.167,575,345C577.5,343.833,572.5,360.667,575,368C577.5,375.333,583.833,382.167,590,389C596.167,395.833,607.333,405.333,612,409C616.667,412.667,612.333,411,618,411C623.667,411,640.5,412,646,409C651.5,406,646,394.833,651,393C656,391.167,668.5,387.333,676,398C683.5,408.667,690.833,451.333,696,457C701.167,462.667,704.5,451,707,432C709.5,413,710.833,353.333,711,343C711.167,332.667,706.167,360.5,708,370C709.833,379.5,718.667,403.333,722,400C725.333,396.667,724.667,369,728,350C731.333,331,738.167,311.333,742,286C745.833,260.667,750.167,222.5,751,198C751.833,173.5,747.833,155,747,139C746.167,123,749,121.833,746,102C743,82.167,736,-1.667,729,20C722,41.667,709.333,205.333,704,232C698.667,258.667,697,180,697,180" stroke="#000" stroke-width="3"/></g><g class="mark-symbol role-mark" role="graphics-symbol" aria-roledescription="symbol mark container"><path transform="translate(20,232)" d="M3.5,0A3.5,3.5,0,1,1,-3.5,0A3.5,3.5,0,1,1,3.5,0" fill="#fff" stroke="#000" stroke-width="1"/><path transform="translate(24,227)" d="M3.5,0A3.5,3.5,0,1,1,-3.5,0A3.5,3.5,0,1,1,3.5,0" fill="#fff" stroke="#000" stroke-width="1"/><path transform="translate(30,259)" d="M3.5,0A3.5,3.5,0,1,1,-3.5,0A3.5,3.5,0,1,1,3.5,0" fill="#fff" stroke="#000" stroke-width="1"/><path transform="translate(46,248)" d="M3.5,0A3.5,3.5,0,1,1,-3.5,0A3.5,3.5,0,1,1,3.5,0" fill="#fff" stroke="#000" stroke-width="1"/><path transform="translate(50,257)" d="M3.5,0A3.5,3.5,0,1,1,-3.5,0A3.5,3.5,0,1,1,3.5,0" fill="#fff" stroke="#000" stroke-width="1"/><path transform="translate(55,261)" d="M3.5,0A3.5,3.5,0,1,1,-3.5,0A3.5,3.5,0,1,1,3.5,0" fill="#fff" stroke="#000" stroke-width="1"/><path transform="translate(67,268)" d="M3.5,0A3.5,3.5,0,1,1,-3.5,0A3.5,3.5,0,1,1,3.5,0" fill="#fff" stroke="#000" stroke-width="1"/><path transform="translate(82,291)" d="M3.5,0A3.5,3.5,0,1,1,-3.5,0A3.5,3.5,0,1,1,3.5,0" fill="#fff" stroke="#000" stroke-width="1"/><path transform="translate(99,293)" d="M3.5,0A3.5,3.5,0,1,1,-3.5,0A3.5,3.5,0,1,1,3.5,0" fill="#fff" stroke="#000" stroke-width="1"/><path transform="translate(119,286)" d="M3.5,0A3.5,3.5,0,1,1,-3.5,0A3.5,3.5,0,1,1,3.5,0" fill="#fff" stroke="#000" stroke-width="1"/><path transform="translate(134,286)" d="M3.5,0A3.5,3.5,0,1,1,-3.5,0A3.5,3.5,0,1,1,3.5,0" fill="#fff" stroke="#000" stroke-width="1"/><path transform="translate(152,286)" d="M3.5,0A3.5,3.5,0,1,1,-3.5,0A3.5,3.5,0,1,1,3.5,0" fill="#fff" stroke="#000" stroke-width="1"/><path transform="translate(176,289)" d="M3.5,0A3.5,3.5,0,1,1,-3.5,0A3.5,3.5,0,1,1,3.5,0" fill="#fff" stroke="#000" stroke-width="1"/><path transform="translate(195,302)" d="M3.5,0A3.5,3.5,0,1,1,-3.5,0A3.5,3.5,0,1,1,3.5,0" fill="#fff" stroke="#000" stroke-width="1"/><path transform="translate(214,316)" d="M3.5,0A3.5,3.5,0,1,1,-3.5,0A3.5,3.5,0,1,1,3.5,0" fill="#fff" stroke="#000" stroke-width="1"/><path transform="translate(242,334)" d="M3.5,0A3.5,3.5,0,1,1,-3.5,0A3.5,3.5,0,1,1,3.5,0" fill="#fff" stroke="#000" stroke-width="1"/><path transform="translate(283,348)" d="M3.5,0A3.5,3.5,0,1,1,-3.5,0A3.5,3.5,0,1,1,3.5,0" fill="#fff" stroke="#000" stroke-width="1"/><path transform="translate(303,341)" d="M3.5,0A3.5,3.5,0,1,1,-3.5,0A3.5,3.5,0,1,1,3.5,0" fill="#fff" stroke="#000" stroke-width="1"/><path transform="translate(279,241)" d="M3.5,0A3.5,3.5,0,1,1,-3.5,0A3.5,3.5,0,1,1,3.5,0" fill="#fff" stroke="#000" stroke-width="1"/><path transform="translate(298,248)" d="M3.5,0A3.5,3.5,0,1,1,-3.5,0A3.5,3.5,0,1,1,3.5,0" fill="#fff" stroke="#000" stroke-width="1"/><path transform="translate(330,245)" d="M3.5,0A3.5,3.5,0,1,1,-3.5,0A3.5,3.5,0,1,1,3.5,0" fill="#fff" stroke="#000" stroke-width="1"/><path transform="translate(358,236)" d="M3.5,0A3.5,3.5,0,1,1,-3.5,0A3.5,3.5,0,1,1,3.5,0" fill="#fff" stroke="#000" stroke-width="1"/><path transform="translate(387,266)" d="M3.5,0A3.5,3.5,0,1,1,-3.5,0A3.5,3.5,0,1,1,3.5,0" fill="#fff" stroke="#000" stroke-width="1"/><path transform="translate(371,164)" d="M3.5,0A3.5,3.5,0,1,1,-3.5,0A3.5,3.5,0,1,1,3.5,0" fill="#fff" stroke="#000" stroke-width="1"/><path transform="translate(363,23)" d="M3.5,0A3.5,3.5,0,1,1,-3.5,0A3.5,3.5,0,1,1,3.5,0" fill="#fff" stroke="#000" stroke-width="1"/><path transform="translate(369,23)" d="M3.5,0A3.5,3.5,0,1,1,-3.5,0A3.5,3.5,0,1,1,3.5,0" fill="#fff" stroke="#000" stroke-width="1"/><path transform="translate(381,109)" d="M3.5,0A3.5,3.5,0,1,1,-3.5,0A3.5,3.5,0,1,1,3.5,0" fill="#fff" stroke="#000" stroke-width="1"/><path transform="translate(393,168)" d="M3.5,0A3.5,3.5,0,1,1,-3.5,0A3.5,3.5,0,1,1,3.5,0" fill="#fff" stroke="#000" stroke-width="1"/><path transform="translate(415,209)" d="M3.5,0A3.5,3.5,0,1,1,-3.5,0A3.5,3.5,0,1,1,3.5,0" fill="#fff" stroke="#000" stroke-width="1"/><path transform="translate(437,236)" d="M3.5,0A3.5,3.5,0,1,1,-3.5,0A3.5,3.5,0,1,1,3.5,0" fill="#fff" stroke="#000" stroke-width="1"/><path transform="translate(464,373)" d="M3.5,0A3.5,3.5,0,1,1,-3.5,0A3.5,3.5,0,1,1,3.5,0" fill="#fff" stroke="#000" stroke-width="1"/><path transform="translate(488,373)" d="M3.5,0A3.5,3.5,0,1,1,-3.5,0A3.5,3.5,0,1,1,3.5,0" fill="#fff" stroke="#000" stroke-width="1"/><path transform="translate(524,391)" d="M3.5,0A3.5,3.5,0,1,1,-3.5,0A3.5,3.5,0,1,1,3.5,0" fill="#fff" stroke="#000" stroke-width="1"/><path transform="translate(560,375)" d="M3.5,0A3.5,3.5,0,1,1,-3.5,0A3.5,3.5,0,1,1,3.5,0" fill="#fff" stroke="#000" stroke-width="1"/><path transform="translate(575,345)" d="M3.5,0A3.5,3.5,0,1,1,-3.5,0A3.5,3.5,0,1,1,3.5,0" fill="#fff" stroke="#000" stroke-width="1"/><path transform="translate(575,368)" d="M3.5,0A3.5,3.5,0,1,1,-3.5,0A3.5,3.5,0,1,1,3.5,0" fill="#fff" stroke="#000" stroke-width="1"/><path transform="translate(590,389)" d="M3.5,0A3.5,3.5,0,1,1,-3.5,0A3.5,3.5,0,1,1,3.5,0" fill="#fff" stroke="#000" stroke-width="1"/><path transform="translate(612,409)" d="M3.5,0A3.5,3.5,0,1,1,-3.5,0A3.5,3.5,0,1,1,3.5,0" fill="#fff" stroke="#000" stroke-width="1"/><path transform="translate(618,411)" d="M3.5,0A3.5,3.5,0,1,1,-3.5,0A3.5,3.5,0,1,1,3.5,0" fill="#fff" stroke="#000" stroke-width="1"/><path transform="translate(646,409)" d="M3.5,0A3.5,3.5,0,1,1,-3.5,0A3.5,3.5,0,1,1,3.5,0" fill="#fff" stroke="#000" stroke-width="1"/><path transform="translate(651,393)" d="M3.5,0A3.5,3.5,0,1,1,-3.5,0A3.5,3.5,0,1,1,3.5,0" fill="#fff" stroke="#000" stroke-width="1"/><path transform="translate(676,398)" d="M3.5,0A3.5,3.5,0,1,1,-3.5,0A3.5,3.5,0,1,1,3.5,0" fill="#fff" stroke="#000" stroke-width="1"/><path transform="translate(696,457)" d="M3.5,0A3.5,3.5,0,1,1,-3.5,0A3.5,3.5,0,1,1,3.5,0" fill="#fff" stroke="#000" stroke-width="1"/><path transform="translate(707,432)" d="M3.5,0A3.5,3.5,0,1,1,-3.5,0A3.5,3.5,0,1,1,3.5,0" fill="#fff" stroke="#000" stroke-width="1"/><path transform="translate(711,343)" d="M3.5,0A3.5,3.5,0,1,1,-3.5,0A3.5,3.5,0,1,1,3.5,0" fill="#fff" stroke="#000" stroke-width="1"/><path transform="translate(708,370)" d="M3.5,0A3.5,3.5,0,1,1,-3.5,0A3.5,3.5,0,1,1,3.5,0" fill="#fff" stroke="#000" stroke-width="1"/><path transform="translate(722,400)" d="M3.5,0A3.5,3.5,0,1,1,-3.5,0A3.5,3.5,0,1,1,3.5,0" fill="#fff" stroke="#000" stroke-width="1"/><path transform="translate(728,350)" d="M3.5,0A3.5,3.5,0,1,1,-3.5,0A3.5,3.5,0,1,1,3.5,0" fill="#fff" stroke="#000" stroke-width="1"/><path transform="translate(742,286)" d="M3.5,0A3.5,3.5,0,1,1,-3.5,0A3.5,3.5,0,1,1,3.5,0" fill="#fff" stroke="#000" stroke-width="1"/><path transform="translate(751,198)" d="M3.5,0A3.5,3.5,0,1,1,-3.5,0A3.5,3.5,0,1,1,3.5,0" fill="#fff" stroke="#000" stroke-width="1"/><path transform="translate(747,139)" d="M3.5,0A3.5,3.5,0,1,1,-3.5,0A3.5,3.5,0,1,1,3.5,0" fill="#fff" stroke="#000" stroke-width="1"/><path transform="translate(746,102)" d="M3.5,0A3.5,3.5,0,1,1,-3.5,0A3.5,3.5,0,1,1,3.5,0" fill="#fff" stroke="#000" stroke-width="1"/><path transform="translate(729,20)" d="M3.5,0A3.5,3.5,0,1,1,-3.5,0A3.5,3.5,0,1,1,3.5,0" fill="#fff" stroke="#000" stroke-width="1"/><path transform="translate(704,232)" d="M3.5,0A3.5,3.5,0,1,1,-3.5,0A3.5,3.5,0,1,1,3.5,0" fill="#fff" stroke="#000" stroke-width="1"/><path transform="translate(697,180)" d="M3.5,0A3.5,3.5,0,1,1,-3.5,0A3.5,3.5,0,1,1,3.5,0" fill="#fff" stroke="#000" stroke-width="1"/></g><g class="mark-text role-mark" role="graphics-object" aria-roledescription="text mark container"><text text-anchor="end" transform="translate(13,236)" font-family="sans-serif" font-size="11px" fill="#000">1956</text><text text-anchor="start" transform="translate(30,231)" font-family="sans-serif" font-size="11px" fill="#000">1957</text><text text-anchor="middle" transform="translate(30,274)" font-family="sans-serif" font-size="11px" fill="#000">1958</text><text text-anchor="middle" transform="translate(46,241)" font-family="sans-serif" font-size="11px" fill="#000">1959</text><text text-anchor="start" transform="translate(56,261)" font-family="sans-serif" font-size="11px" fill="#000">1960</text><text text-anchor="middle" transform="translate(55,276)" font-family="sans-serif" font-size="11px" fill="#000">1961</text><text text-anchor="start" transform="translate(73,272)" font-family="sans-serif" font-size="11px" fill="#000">1962</text><text text-anchor="middle" transform="translate(82,306)" font-family="sans-serif" font-size="11px" fill="#000">1963</text><text text-anchor="middle" transform="translate(99,308)" font-family="sans-serif" font-size="11px" fill="#000">1964</text><text text-anchor="middle" transform="translate(119,301)" font-family="sans-serif" font-size="11px" fill="#000">1965</text><text text-anchor="middle" transform="translate(134,279)" font-family="sans-serif" font-size="11px" fill="#000">1966</text><text text-anchor="middle" transform="translate(152,301)" font-family="sans-serif" font-size="11px" fill="#000">1967</text><text text-anchor="start" transform="translate(182,293)" font-family="sans-serif" font-size="11px" fill="#000">1968</text><text text-anchor="start" transform="translate(201,306)" font-family="sans-serif" font-size="11px" fill="#000">1969</text><text text-anchor="start" transform="translate(220,320)" font-family="sans-serif" font-size="11px" fill="#000">1970</text><text text-anchor="middle" transform="translate(242,349)" font-family="sans-serif" font-size="11px" fill="#000">1971</text><text text-anchor="middle" transform="translate(283,363)" font-family="sans-serif" font-size="11px" fill="#000">1972</text><text text-anchor="start" transform="translate(309,345)" font-family="sans-serif" font-size="11px" fill="#000">1973</text><text text-anchor="end" transform="translate(272,245)" font-family="sans-serif" font-size="11px" fill="#000">1974</text><text text-anchor="middle" transform="translate(298,263)" font-family="sans-serif" font-size="11px" fill="#000">1975</text><text text-anchor="middle" transform="translate(330,260)" font-family="sans-serif" font-size="11px" fill="#000">1976</text><text text-anchor="middle" transform="translate(358,229)" font-family="sans-serif" font-size="11px" fill="#000">1977</text><text text-anchor="middle" transform="translate(387,281)" font-family="sans-serif" font-size="11px" fill="#000">1978</text><text text-anchor="end" transform="translate(364,168)" font-family="sans-serif" font-size="11px" fill="#000">1979</text><text text-anchor="end" transform="translate(356,27)" font-family="sans-serif" font-size="11px" fill="#000">1980</text><text text-anchor="start" transform="translate(375,27)" font-family="sans-serif" font-size="11px" fill="#000">1981</text><text text-anchor="start" transform="translate(387,113)" font-family="sans-serif" font-size="11px" fill="#000">1982</text><text text-anchor="start" transform="translate(399,172)" font-family="sans-serif" font-size="11px" fill="#000">1983</text><text text-anchor="start" transform="translate(421,213)" font-family="sans-serif" font-size="11px" fill="#000">1984</text><text text-anchor="start" transform="translate(443,240)" font-family="sans-serif" font-size="11px" fill="#000">1985</text><text text-anchor="end" transform="translate(457,377)" font-family="sans-serif" font-size="11px" fill="#000">1986</text><text text-anchor="middle" transform="translate(488,366)" font-family="sans-serif" font-size="11px" fill="#000">1987</text><text text-anchor="middle" transform="translate(524,406)" font-family="sans-serif" font-size="11px" fill="#000">1988</text><text text-anchor="end" transform="translate(553,379)" font-family="sans-serif" font-size="11px" fill="#000">1989</text><text text-anchor="middle" transform="translate(575,338)" font-family="sans-serif" font-size="11px" fill="#000">1990</text><text text-anchor="start" transform="translate(581,372)" font-family="sans-serif" font-size="11px" fill="#000">1991</text><text text-anchor="start" transform="translate(596,393)" font-family="sans-serif" font-size="11px" fill="#000">1992</text><text text-anchor="end" transform="translate(605,413)" font-family="sans-serif" font-size="11px" fill="#000">1993</text><text text-anchor="middle" transform="translate(618,426)" font-family="sans-serif" font-size="11px" fill="#000">1994</text><text text-anchor="middle" transform="translate(646,424)" font-family="sans-serif" font-size="11px" fill="#000">1995</text><text text-anchor="middle" transform="translate(651,386)" font-family="sans-serif" font-size="11px" fill="#000">1996</text><text text-anchor="start" transform="translate(682,402)" font-family="sans-serif" font-size="11px" fill="#000">1997</text><text text-anchor="middle" transform="translate(696,472)" font-family="sans-serif" font-size="11px" fill="#000">1998</text><text text-anchor="start" transform="translate(713,436)" font-family="sans-serif" font-size="11px" fill="#000">1999</text><text text-anchor="middle" transform="translate(711,336)" font-family="sans-serif" font-size="11px" fill="#000">2000</text><text text-anchor="end" transform="translate(701,374)" font-family="sans-serif" font-size="11px" fill="#000">2001</text><text text-anchor="middle" transform="translate(722,415)" font-family="sans-serif" font-size="11px" fill="#000">2002</text><text text-anchor="start" transform="translate(734,354)" font-family="sans-serif" font-size="11px" fill="#000">2003</text><text text-anchor="end" transform="translate(735,290)" font-family="sans-serif" font-size="11px" fill="#000">2004</text><text text-anchor="end" transform="translate(744,202)" font-family="sans-serif" font-size="11px" fill="#000">2005</text><text text-anchor="start" transform="translate(753,143)" font-family="sans-serif" font-size="11px" fill="#000">2006</text><text text-anchor="start" transform="translate(752,106)" font-family="sans-serif" font-size="11px" fill="#000">2007</text><text text-anchor="end" transform="translate(722,24)" font-family="sans-serif" font-size="11px" fill="#000">2008</text><text text-anchor="middle" transform="translate(704,247)" font-family="sans-serif" font-size="11px" fill="#000">2009</text><text text-anchor="end" transform="translate(690,184)" font-family="sans-serif" font-size="11px" fill="#000">2010</text></g></g><path class="foreground" aria-hidden="true" d="" display="none"/></g></g></g></svg>