<?xml version="1.0" encoding="us-ascii" standalone="no"?><svg xmlns="http://www.w3.org/2000/svg" xmlns:xlink="http://www.w3.org/1999/xlink" contentStyleType="text/css" height="398px" preserveAspectRatio="none" style="width:271px;height:398px;background:#FFFFFF;" version="1.1" viewBox="0 0 271 398" width="271px" zoomAndPan="magnify"><defs><filter height="300%" id="f1w3slwa4q5vu5" width="300%" x="-1" y="-1"><feGaussianBlur result="blurOut" stdDeviation="2.0"/><feColorMatrix in="blurOut" result="blurOut2" type="matrix" values="0 0 0 0 0 0 0 0 0 0 0 0 0 0 0 0 0 0 .4 0"/><feOffset dx="4.0" dy="4.0" in="blurOut2" result="blurOut3"/><feBlend in="SourceGraphic" in2="blurOut3" mode="normal"/></filter></defs><g><g id="elem_London"><rect fill="#FEFECE" filter="url(#f1w3slwa4q5vu5)" height="36.2969" style="stroke:#A80036;stroke-width:1.0;" width="66" x="191" y="129.65"/><text fill="#000000" font-family="sans-serif" font-size="14" lengthAdjust="spacing" textLength="52" x="198" y="144.6451">London</text><line style="stroke:#A80036;stroke-width:1.0;" x1="192" x2="256" y1="149.9469" y2="149.9469"/></g><g id="elem_Washington"><rect fill="#FEFECE" filter="url(#f1w3slwa4q5vu5)" height="36.2969" style="stroke:#A80036;stroke-width:1.0;" width="96" x="7" y="252.3"/><text fill="#000000" font-family="sans-serif" font-size="14" lengthAdjust="spacing" textLength="82" x="14" y="267.2951">Washington</text><line style="stroke:#A80036;stroke-width:1.0;" x1="8" x2="102" y1="272.5969" y2="272.5969"/></g><g id="elem_Berlin"><rect fill="#FEFECE" filter="url(#f1w3slwa4q5vu5)" height="36.2969" style="stroke:#A80036;stroke-width:1.0;" width="53" x="129.5" y="348.59"/><text fill="#000000" font-family="sans-serif" font-size="14" lengthAdjust="spacing" textLength="39" x="136.5" y="363.5851">Berlin</text><line style="stroke:#A80036;stroke-width:1.0;" x1="130.5" x2="181.5" y1="368.8869" y2="368.8869"/></g><g id="elem_NewYork"><rect fill="#FEFECE" filter="url(#f1w3slwa4q5vu5)" height="36.2969" style="stroke:#A80036;stroke-width:1.0;" width="75" x="67.5" y="7"/><text fill="#000000" font-family="sans-serif" font-size="14" lengthAdjust="spacing" textLength="61" x="74.5" y="21.9951">NewYork</text><line style="stroke:#A80036;stroke-width:1.0;" x1="68.5" x2="141.5" y1="27.2969" y2="27.2969"/></g><g id="elem_CapitalCity"><rect fill="#FEFECE" filter="url(#f1w3slwa4q5vu5)" height="81.1875" style="stroke:#A80036;stroke-width:1.0;" width="85" x="62.5" y="107.3"/><text fill="#000000" font-family="sans-serif" font-size="14" lengthAdjust="spacing" textLength="71" x="69.5" y="122.2951">CapitalCity</text><line style="stroke:#A80036;stroke-width:1.0;" x1="62.5" x2="147.5" y1="127.5969" y2="127.5969"/><text fill="#000000" font-family="sans-serif" font-size="14" lengthAdjust="spacing" textLength="19" x="95.5" y="142.592">UK</text><line style="stroke:#A80036;stroke-width:1.0;" x1="62.5" x2="147.5" y1="147.8938" y2="147.8938"/><text fill="#000000" font-family="sans-serif" font-size="14" lengthAdjust="spacing" textLength="28" x="91" y="162.8889">USA</text><line style="stroke:#A80036;stroke-width:1.0;" x1="62.5" x2="147.5" y1="168.1906" y2="168.1906"/><text fill="#000000" font-family="sans-serif" font-size="14" lengthAdjust="spacing" textLength="62" x="74" y="183.1857">Germany</text></g><!--link CapitalCity to London--><g id="link_CapitalCity_London"><path d="M149,136.8 C160.83,142.85 173.61,148.13 185.17,151.67 " fill="none" id="CapitalCity-to-London" style="stroke:#A80036;stroke-width:1.0;"/><polygon fill="#A80036" points="189.74,153.27,182.1852,146.9514,184.9324,151.8964,179.9874,154.6436,189.74,153.27" style="stroke:#A80036;stroke-width:1.0;"/></g><!--link CapitalCity to Washington--><g id="link_CapitalCity_Washington"><path d="M61,157.8 C25.77,157.8 37.48,213.92 47.28,246.58 " fill="none" id="CapitalCity-to-Washington" style="stroke:#A80036;stroke-width:1.0;"/><polygon fill="#A80036" points="48.95,251,50.1284,241.2219,47.4806,246.2208,42.4817,243.573,48.95,251" style="stroke:#A80036;stroke-width:1.0;"/></g><!--link CapitalCity to Berlin--><g id="link_CapitalCity_Berlin"><path d="M149,177.8 C181.63,177.8 167.58,292.37 159.84,342.6 " fill="none" id="CapitalCity-to-Berlin" style="stroke:#A80036;stroke-width:1.0;"/><polygon fill="#A80036" points="158.94,347.4,164.28,339.1245,159.711,342.4598,156.3757,337.8908,158.94,347.4" style="stroke:#A80036;stroke-width:1.0;"/></g><!--link NewYork to CapitalCity--><g id="link_NewYork_CapitalCity"><path codeLine="14" d="M118.3,43.63 C143.44,77.9 192.17,151.14 154.59,157.37 " fill="none" id="NewYork-to-CapitalCity" style="stroke:#A80036;stroke-width:1.0;"/><polygon fill="#A80036" points="150,157.8,159.2817,161.0939,154.9851,157.4143,158.6647,153.1177,150,157.8" style="stroke:#A80036;stroke-width:1.0;"/></g><!--SRC=[AyxEp5CeoYzEvUBAJyfAJIvHyCdFIydFW_724uipClFIIn0YJgb5EPbmdbzgUMH-KJONLsvYWO9pOa5cIMAESsP9fK8rbqAejuAMhXtCG8NGO4SW7oY0PAQ2UsfHRc9U9KW2A0CrkvQB2sgk0aWKoLWhAw0f0000]--></g></svg>