<?xml version="1.0" encoding="UTF-8" standalone="no"?>
<!DOCTYPE svg PUBLIC "-//W3C//DTD SVG 1.1//EN"
 "http://www.w3.org/Graphics/SVG/1.1/DTD/svg11.dtd">
<!-- Generated by graphviz version 8.0.4 (20230422.2207)
 -->
<!-- Title: D Pages: 1 -->
<svg width="670pt" height="182pt"
 viewBox="0.00 0.00 670.00 182.40" xmlns="http://www.w3.org/2000/svg" xmlns:xlink="http://www.w3.org/1999/xlink">
<g id="graph0" class="graph" transform="scale(1 1) rotate(0) translate(4 178.4)">
<title>D</title>
<polygon fill="white" stroke="none" points="-4,4 -4,-178.4 666,-178.4 666,4 -4,4"/>
<g id="clust1" class="cluster">
<title>cluster_p</title>
<polygon fill="none" stroke="black" points="8,-8 8,-166.4 654,-166.4 654,-8 8,-8"/>
<text text-anchor="middle" x="331" y="-149.1" font-family="Times,serif" font-size="14.00">Kroki</text>
</g>
<g id="clust2" class="cluster">
<title>cluster_c1</title>
<polygon fill="none" stroke="black" points="118,-16 118,-133.6 646,-133.6 646,-16 118,-16"/>
<text text-anchor="middle" x="382" y="-116.3" font-family="Times,serif" font-size="14.00">Server</text>
</g>
<g id="clust3" class="cluster">
<title>cluster_gc_1</title>
<polygon fill="none" stroke="black" points="541,-24 541,-100.8 638,-100.8 638,-24 541,-24"/>
<text text-anchor="middle" x="589.5" y="-83.5" font-family="Times,serif" font-size="14.00">Docker/Server</text>
</g>
<g id="clust4" class="cluster">
<title>cluster_gc_2</title>
<polygon fill="none" stroke="black" points="219,-24 219,-100.8 533,-100.8 533,-24 219,-24"/>
<text text-anchor="middle" x="376" y="-83.5" font-family="Times,serif" font-size="14.00">Docker/Mermaid</text>
</g>
<g id="clust5" class="cluster">
<title>cluster_c2</title>
<polygon fill="none" stroke="black" points="16,-24 16,-100.8 110,-100.8 110,-24 16,-24"/>
<text text-anchor="middle" x="63" y="-83.5" font-family="Times,serif" font-size="14.00">CLI</text>
</g>
<!-- Filebeat -->
<g id="node1" class="node">
<title>Filebeat</title>
<ellipse fill="none" stroke="black" cx="167" cy="-50" rx="41.39" ry="18"/>
<text text-anchor="middle" x="167" y="-45.1" font-family="Times,serif" font-size="14.00">Filebeat</text>
</g>
<!-- Java -->
<g id="node2" class="node">
<title>Java</title>
<ellipse fill="none" stroke="black" cx="589" cy="-50" rx="27.59" ry="18"/>
<text text-anchor="middle" x="589" y="-45.1" font-family="Times,serif" font-size="14.00">Java</text>
</g>
<!-- Node.js -->
<g id="node3" class="node">
<title>Node.js</title>
<ellipse fill="none" stroke="black" cx="484" cy="-50" rx="40.7" ry="18"/>
<text text-anchor="middle" x="484" y="-45.1" font-family="Times,serif" font-size="14.00">Node.js</text>
</g>
<!-- Puppeteer -->
<g id="node4" class="node">
<title>Puppeteer</title>
<ellipse fill="none" stroke="black" cx="376" cy="-50" rx="48.97" ry="18"/>
<text text-anchor="middle" x="376" y="-45.1" font-family="Times,serif" font-size="14.00">Puppeteer</text>
</g>
<!-- Chrome -->
<g id="node5" class="node">
<title>Chrome</title>
<ellipse fill="none" stroke="black" cx="268" cy="-50" rx="41.39" ry="18"/>
<text text-anchor="middle" x="268" y="-45.1" font-family="Times,serif" font-size="14.00">Chrome</text>
</g>
<!-- Golang -->
<g id="node6" class="node">
<title>Golang</title>
<ellipse fill="none" stroke="black" cx="63" cy="-50" rx="39.32" ry="18"/>
<text text-anchor="middle" x="63" y="-45.1" font-family="Times,serif" font-size="14.00">Golang</text>
</g>
</g>
</svg>
