<?xml version="1.0" encoding="UTF-8" standalone="no"?>
<!DOCTYPE svg PUBLIC "-//W3C//DTD SVG 1.1//EN"
 "http://www.w3.org/Graphics/SVG/1.1/DTD/svg11.dtd">
<!-- Generated by graphviz version 8.0.4 (20230422.2207)
 -->
<!-- Title: G Pages: 1 -->
<svg width="224pt" height="409pt"
 viewBox="0.00 0.00 224.00 408.80" xmlns="http://www.w3.org/2000/svg" xmlns:xlink="http://www.w3.org/1999/xlink">
<g id="graph0" class="graph" transform="scale(1 1) rotate(0) translate(4 404.8)">
<title>G</title>
<polygon fill="white" stroke="none" points="-4,4 -4,-404.8 220,-404.8 220,4 -4,4"/>
<g id="clust1" class="cluster">
<title>cluster_0</title>
<polygon fill="lightgrey" stroke="lightgrey" points="8,-64 8,-356.8 98,-356.8 98,-64 8,-64"/>
<text text-anchor="middle" x="53" y="-339.5" font-family="Times,serif" font-size="14.00">process #1</text>
</g>
<g id="clust2" class="cluster">
<title>cluster_1</title>
<polygon fill="none" stroke="blue" points="133,-64 133,-356.8 208,-356.8 208,-64 133,-64"/>
<text text-anchor="middle" x="170.5" y="-339.5" font-family="Times,serif" font-size="14.00">process #2</text>
</g>
<!-- a0 -->
<g id="node1" class="node">
<title>a0</title>
<ellipse fill="white" stroke="white" cx="63" cy="-306" rx="27" ry="18"/>
<text text-anchor="middle" x="63" y="-301.1" font-family="Times,serif" font-size="14.00">a0</text>
</g>
<!-- a1 -->
<g id="node2" class="node">
<title>a1</title>
<ellipse fill="white" stroke="white" cx="63" cy="-234" rx="27" ry="18"/>
<text text-anchor="middle" x="63" y="-229.1" font-family="Times,serif" font-size="14.00">a1</text>
</g>
<!-- a0&#45;&gt;a1 -->
<g id="edge1" class="edge">
<title>a0&#45;&gt;a1</title>
<path fill="none" stroke="black" d="M63,-287.7C63,-280.24 63,-271.32 63,-262.97"/>
<polygon fill="black" stroke="black" points="66.5,-263.1 63,-253.1 59.5,-263.1 66.5,-263.1"/>
</g>
<!-- a2 -->
<g id="node3" class="node">
<title>a2</title>
<ellipse fill="white" stroke="white" cx="63" cy="-162" rx="27" ry="18"/>
<text text-anchor="middle" x="63" y="-157.1" font-family="Times,serif" font-size="14.00">a2</text>
</g>
<!-- a1&#45;&gt;a2 -->
<g id="edge2" class="edge">
<title>a1&#45;&gt;a2</title>
<path fill="none" stroke="black" d="M63,-215.7C63,-208.24 63,-199.32 63,-190.97"/>
<polygon fill="black" stroke="black" points="66.5,-191.1 63,-181.1 59.5,-191.1 66.5,-191.1"/>
</g>
<!-- b3 -->
<g id="node8" class="node">
<title>b3</title>
<ellipse fill="lightgrey" stroke="black" cx="168" cy="-90" rx="27" ry="18"/>
<text text-anchor="middle" x="168" y="-85.1" font-family="Times,serif" font-size="14.00">b3</text>
</g>
<!-- a1&#45;&gt;b3 -->
<g id="edge9" class="edge">
<title>a1&#45;&gt;b3</title>
<path fill="none" stroke="black" d="M74.64,-217.26C92.95,-192.5 128.61,-144.28 150.16,-115.12"/>
<polygon fill="black" stroke="black" points="153.5,-117.5 156.63,-107.38 147.87,-113.34 153.5,-117.5"/>
</g>
<!-- a3 -->
<g id="node4" class="node">
<title>a3</title>
<ellipse fill="white" stroke="white" cx="63" cy="-90" rx="27" ry="18"/>
<text text-anchor="middle" x="63" y="-85.1" font-family="Times,serif" font-size="14.00">a3</text>
</g>
<!-- a2&#45;&gt;a3 -->
<g id="edge3" class="edge">
<title>a2&#45;&gt;a3</title>
<path fill="none" stroke="black" d="M63,-143.7C63,-136.24 63,-127.32 63,-118.97"/>
<polygon fill="black" stroke="black" points="66.5,-119.1 63,-109.1 59.5,-119.1 66.5,-119.1"/>
</g>
<!-- a3&#45;&gt;a0 -->
<g id="edge11" class="edge">
<title>a3&#45;&gt;a0</title>
<path fill="none" stroke="black" d="M49.25,-105.93C41.04,-115.9 31.38,-129.75 27,-144 12.89,-189.88 12.89,-206.12 27,-252 30.22,-262.46 36.28,-272.71 42.53,-281.37"/>
<polygon fill="black" stroke="black" points="40.37,-283.3 49.25,-289.07 45.9,-279.02 40.37,-283.3"/>
</g>
<!-- end -->
<g id="node10" class="node">
<title>end</title>
<polygon fill="none" stroke="black" points="133,-36 97,-36 97,0 133,0 133,-36"/>
<polyline fill="none" stroke="black" points="109,-36 97,-24"/>
<polyline fill="none" stroke="black" points="97,-12 109,0"/>
<polyline fill="none" stroke="black" points="121,0 133,-12"/>
<polyline fill="none" stroke="black" points="133,-24 121,-36"/>
<text text-anchor="middle" x="115" y="-13.1" font-family="Times,serif" font-size="14.00">end</text>
</g>
<!-- a3&#45;&gt;end -->
<g id="edge12" class="edge">
<title>a3&#45;&gt;end</title>
<path fill="none" stroke="black" d="M74.54,-73.46C80.71,-65.16 88.47,-54.72 95.54,-45.2"/>
<polygon fill="black" stroke="black" points="98.88,-47.58 102.03,-37.46 93.26,-43.4 98.88,-47.58"/>
</g>
<!-- b0 -->
<g id="node5" class="node">
<title>b0</title>
<ellipse fill="lightgrey" stroke="black" cx="168" cy="-306" rx="27" ry="18"/>
<text text-anchor="middle" x="168" y="-301.1" font-family="Times,serif" font-size="14.00">b0</text>
</g>
<!-- b1 -->
<g id="node6" class="node">
<title>b1</title>
<ellipse fill="lightgrey" stroke="black" cx="170" cy="-234" rx="27" ry="18"/>
<text text-anchor="middle" x="170" y="-229.1" font-family="Times,serif" font-size="14.00">b1</text>
</g>
<!-- b0&#45;&gt;b1 -->
<g id="edge4" class="edge">
<title>b0&#45;&gt;b1</title>
<path fill="none" stroke="black" d="M168.49,-287.7C168.71,-280.24 168.96,-271.32 169.2,-262.97"/>
<polygon fill="black" stroke="black" points="172.72,-263.2 169.51,-253.1 165.73,-263 172.72,-263.2"/>
</g>
<!-- b2 -->
<g id="node7" class="node">
<title>b2</title>
<ellipse fill="lightgrey" stroke="black" cx="173" cy="-162" rx="27" ry="18"/>
<text text-anchor="middle" x="173" y="-157.1" font-family="Times,serif" font-size="14.00">b2</text>
</g>
<!-- b1&#45;&gt;b2 -->
<g id="edge5" class="edge">
<title>b1&#45;&gt;b2</title>
<path fill="none" stroke="black" d="M170.74,-215.7C171.06,-208.24 171.44,-199.32 171.8,-190.97"/>
<polygon fill="black" stroke="black" points="175.34,-191.25 172.27,-181.1 168.34,-190.95 175.34,-191.25"/>
</g>
<!-- b2&#45;&gt;a3 -->
<g id="edge10" class="edge">
<title>b2&#45;&gt;a3</title>
<path fill="none" stroke="black" d="M153.84,-148.81C136.49,-137.77 110.71,-121.36 91.04,-108.84"/>
<polygon fill="black" stroke="black" points="93.26,-105.47 82.94,-103.05 89.5,-111.37 93.26,-105.47"/>
</g>
<!-- b2&#45;&gt;b3 -->
<g id="edge6" class="edge">
<title>b2&#45;&gt;b3</title>
<path fill="none" stroke="black" d="M171.76,-143.7C171.23,-136.24 170.59,-127.32 170,-118.97"/>
<polygon fill="black" stroke="black" points="173.43,-118.83 169.22,-109.1 166.44,-119.33 173.43,-118.83"/>
</g>
<!-- b3&#45;&gt;end -->
<g id="edge13" class="edge">
<title>b3&#45;&gt;end</title>
<path fill="none" stroke="black" d="M156.24,-73.46C149.95,-65.16 142.04,-54.72 134.84,-45.2"/>
<polygon fill="black" stroke="black" points="137.05,-43.32 128.22,-37.46 131.47,-47.55 137.05,-43.32"/>
</g>
<!-- start -->
<g id="node9" class="node">
<title>start</title>
<polygon fill="none" stroke="black" points="115,-400.8 75.98,-382.8 115,-364.8 154.02,-382.8 115,-400.8"/>
<polyline fill="none" stroke="black" points="86.88,-387.83 86.88,-377.77"/>
<polyline fill="none" stroke="black" points="104.1,-369.83 125.9,-369.83"/>
<polyline fill="none" stroke="black" points="143.12,-377.77 143.12,-387.83"/>
<polyline fill="none" stroke="black" points="125.9,-395.77 104.1,-395.77"/>
<text text-anchor="middle" x="115" y="-377.9" font-family="Times,serif" font-size="14.00">start</text>
</g>
<!-- start&#45;&gt;a0 -->
<g id="edge7" class="edge">
<title>start&#45;&gt;a0</title>
<path fill="none" stroke="black" d="M105.94,-368.77C98.85,-358.56 88.77,-344.07 80.16,-331.68"/>
<polygon fill="black" stroke="black" points="82.52,-329.94 73.94,-323.73 76.77,-333.94 82.52,-329.94"/>
</g>
<!-- start&#45;&gt;b0 -->
<g id="edge8" class="edge">
<title>start&#45;&gt;b0</title>
<path fill="none" stroke="black" d="M124.23,-368.77C131.46,-358.56 141.73,-344.07 150.51,-331.68"/>
<polygon fill="black" stroke="black" points="153.93,-333.91 156.85,-323.73 148.22,-329.87 153.93,-333.91"/>
</g>
</g>
</svg>
