<svg xmlns="http://www.w3.org/2000/svg" xmlns:xlink="http://www.w3.org/1999/xlink" version="1.1" class="marks" width="842" height="648" viewBox="0 0 842 648"><g fill="none" stroke-miterlimit="10" transform="translate(34,11)"><g class="mark-group role-frame root" role="graphics-object" aria-roledescription="group mark container"><g transform="translate(0,0)"><path class="background" aria-hidden="true" d="M0,0h800v600h-800Z"/><g><g class="mark-group role-axis" role="graphics-symbol" aria-roledescription="axis" aria-label="Y-axis titled 'IMDB Rating' for a linear scale with values from 0 to 8"><g transform="translate(0.5,0.5)"><path class="background" aria-hidden="true" d="M0,0h0v0h0Z" pointer-events="none"/><g><g class="mark-rule role-axis-tick" pointer-events="none"><line transform="translate(0,600)" x2="-5" y2="0" stroke="#888" stroke-width="1" opacity="1"/><line transform="translate(0,529)" x2="-5" y2="0" stroke="#888" stroke-width="1" opacity="1"/><line transform="translate(0,457)" x2="-5" y2="0" stroke="#888" stroke-width="1" opacity="1"/><line transform="translate(0,386)" x2="-5" y2="0" stroke="#888" stroke-width="1" opacity="1"/><line transform="translate(0,314)" x2="-5" y2="0" stroke="#888" stroke-width="1" opacity="1"/><line transform="translate(0,243)" x2="-5" y2="0" stroke="#888" stroke-width="1" opacity="1"/><line transform="translate(0,171)" x2="-5" y2="0" stroke="#888" stroke-width="1" opacity="1"/><line transform="translate(0,100)" x2="-5" y2="0" stroke="#888" stroke-width="1" opacity="1"/><line transform="translate(0,29)" x2="-5" y2="0" stroke="#888" stroke-width="1" opacity="1"/></g><g class="mark-text role-axis-label" pointer-events="none"><text text-anchor="end" transform="translate(-7,603)" font-family="sans-serif" font-size="10px" fill="#000" opacity="1">0</text><text text-anchor="end" transform="translate(-7,531.5714285714286)" font-family="sans-serif" font-size="10px" fill="#000" opacity="1">1</text><text text-anchor="end" transform="translate(-7,460.1428571428571)" font-family="sans-serif" font-size="10px" fill="#000" opacity="1">2</text><text text-anchor="end" transform="translate(-7,388.71428571428567)" font-family="sans-serif" font-size="10px" fill="#000" opacity="1">3</text><text text-anchor="end" transform="translate(-7,317.2857142857143)" font-family="sans-serif" font-size="10px" fill="#000" opacity="1">4</text><text text-anchor="end" transform="translate(-7,245.85714285714286)" font-family="sans-serif" font-size="10px" fill="#000" opacity="1">5</text><text text-anchor="end" transform="translate(-7,174.42857142857142)" font-family="sans-serif" font-size="10px" fill="#000" opacity="1">6</text><text text-anchor="end" transform="translate(-7,103.00000000000004)" font-family="sans-serif" font-size="10px" fill="#000" opacity="1">7</text><text text-anchor="end" transform="translate(-7,31.571428571428605)" font-family="sans-serif" font-size="10px" fill="#000" opacity="1">8</text></g><g class="mark-rule role-axis-domain" pointer-events="none"><line transform="translate(0,600)" x2="0" y2="-600" stroke="#888" stroke-width="1" opacity="1"/></g><g class="mark-text role-axis-title" pointer-events="none"><text text-anchor="middle" transform="translate(-17.3623046875,300) rotate(-90) translate(0,-2)" font-family="sans-serif" font-size="11px" font-weight="bold" fill="#000" opacity="1">IMDB Rating</text></g></g><path class="foreground" aria-hidden="true" d="" pointer-events="none" display="none"/></g></g><g class="mark-group role-axis" role="graphics-symbol" aria-roledescription="axis" aria-label="X-axis titled 'Rotten Tomatoes Rating' for a linear scale with values from 0 to 97"><g transform="translate(0.5,600.5)"><path class="background" aria-hidden="true" d="M0,0h0v0h0Z" pointer-events="none"/><g><g class="mark-rule role-axis-tick" pointer-events="none"><line transform="translate(0,0)" x2="0" y2="5" stroke="#888" stroke-width="1" opacity="1"/><line transform="translate(82,0)" x2="0" y2="5" stroke="#888" stroke-width="1" opacity="1"/><line transform="translate(165,0)" x2="0" y2="5" stroke="#888" stroke-width="1" opacity="1"/><line transform="translate(247,0)" x2="0" y2="5" stroke="#888" stroke-width="1" opacity="1"/><line transform="translate(330,0)" x2="0" y2="5" stroke="#888" stroke-width="1" opacity="1"/><line transform="translate(412,0)" x2="0" y2="5" stroke="#888" stroke-width="1" opacity="1"/><line transform="translate(495,0)" x2="0" y2="5" stroke="#888" stroke-width="1" opacity="1"/><line transform="translate(577,0)" x2="0" y2="5" stroke="#888" stroke-width="1" opacity="1"/><line transform="translate(660,0)" x2="0" y2="5" stroke="#888" stroke-width="1" opacity="1"/><line transform="translate(742,0)" x2="0" y2="5" stroke="#888" stroke-width="1" opacity="1"/></g><g class="mark-text role-axis-label" pointer-events="none"><text text-anchor="middle" transform="translate(0,15)" font-family="sans-serif" font-size="10px" fill="#000" opacity="1">0</text><text text-anchor="middle" transform="translate(82.4742268041237,15)" font-family="sans-serif" font-size="10px" fill="#000" opacity="1">10</text><text text-anchor="middle" transform="translate(164.9484536082474,15)" font-family="sans-serif" font-size="10px" fill="#000" opacity="1">20</text><text text-anchor="middle" transform="translate(247.42268041237114,15)" font-family="sans-serif" font-size="10px" fill="#000" opacity="1">30</text><text text-anchor="middle" transform="translate(329.8969072164948,15)" font-family="sans-serif" font-size="10px" fill="#000" opacity="1">40</text><text text-anchor="middle" transform="translate(412.3711340206185,15)" font-family="sans-serif" font-size="10px" fill="#000" opacity="1">50</text><text text-anchor="middle" transform="translate(494.8453608247423,15)" font-family="sans-serif" font-size="10px" fill="#000" opacity="1">60</text><text text-anchor="middle" transform="translate(577.319587628866,15)" font-family="sans-serif" font-size="10px" fill="#000" opacity="1">70</text><text text-anchor="middle" transform="translate(659.7938144329896,15)" font-family="sans-serif" font-size="10px" fill="#000" opacity="1">80</text><text text-anchor="middle" transform="translate(742.2680412371134,15)" font-family="sans-serif" font-size="10px" fill="#000" opacity="1">90</text></g><g class="mark-rule role-axis-domain" pointer-events="none"><line transform="translate(0,0)" x2="800" y2="0" stroke="#888" stroke-width="1" opacity="1"/></g><g class="mark-text role-axis-title" pointer-events="none"><text text-anchor="middle" transform="translate(400,30)" font-family="sans-serif" font-size="11px" font-weight="bold" fill="#000" opacity="1">Rotten Tomatoes Rating</text></g></g><path class="foreground" aria-hidden="true" d="" pointer-events="none" display="none"/></g></g><g class="mark-symbol role-mark points" role="graphics-symbol" aria-roledescription="symbol mark container"><path transform="translate(511.34020618556696,357.1428571428572)" d="M2.5,0A2.5,2.5,0,1,1,-2.5,0A2.5,2.5,0,1,1,2.5,0" fill="#4c78a8" fill-opacity="0.5"/><path transform="translate(206.18556701030926,185.71428571428572)" d="M2.5,0A2.5,2.5,0,1,1,-2.5,0A2.5,2.5,0,1,1,2.5,0" fill="#4c78a8" fill-opacity="0.5"/><path transform="translate(709.2783505154639,100.00000000000004)" d="M2.5,0A2.5,2.5,0,1,1,-2.5,0A2.5,2.5,0,1,1,2.5,0" fill="#4c78a8" fill-opacity="0.5"/><path transform="translate(668.0412371134021,100.00000000000004)" d="M2.5,0A2.5,2.5,0,1,1,-2.5,0A2.5,2.5,0,1,1,2.5,0" fill="#4c78a8" fill-opacity="0.5"/><path transform="translate(692.7835051546392,64.28571428571432)" d="M2.5,0A2.5,2.5,0,1,1,-2.5,0A2.5,2.5,0,1,1,2.5,0" fill="#4c78a8" fill-opacity="0.5"/><path transform="translate(800,0)" d="M2.5,0A2.5,2.5,0,1,1,-2.5,0A2.5,2.5,0,1,1,2.5,0" fill="#4c78a8" fill-opacity="0.5"/><path transform="translate(717.5257731958764,114.28571428571435)" d="M2.5,0A2.5,2.5,0,1,1,-2.5,0A2.5,2.5,0,1,1,2.5,0" fill="#4c78a8" fill-opacity="0.5"/><path transform="translate(800,14.285714285714368)" d="M2.5,0A2.5,2.5,0,1,1,-2.5,0A2.5,2.5,0,1,1,2.5,0" fill="#4c78a8" fill-opacity="0.5"/><path transform="translate(189.69072164948452,371.42857142857144)" d="M2.5,0A2.5,2.5,0,1,1,-2.5,0A2.5,2.5,0,1,1,2.5,0" fill="#4c78a8" fill-opacity="0.5"/><path transform="translate(313.4020618556701,242.85714285714286)" d="M2.5,0A2.5,2.5,0,1,1,-2.5,0A2.5,2.5,0,1,1,2.5,0" fill="#4c78a8" fill-opacity="0.5"/><path transform="translate(329.8969072164948,257.14285714285717)" d="M2.5,0A2.5,2.5,0,1,1,-2.5,0A2.5,2.5,0,1,1,2.5,0" fill="#4c78a8" fill-opacity="0.5"/><path transform="translate(684.5360824742268,78.57142857142863)" d="M2.5,0A2.5,2.5,0,1,1,-2.5,0A2.5,2.5,0,1,1,2.5,0" fill="#4c78a8" fill-opacity="0.5"/><path transform="translate(379.38144329896903,164.2857142857143)" d="M2.5,0A2.5,2.5,0,1,1,-2.5,0A2.5,2.5,0,1,1,2.5,0" fill="#4c78a8" fill-opacity="0.5"/><path transform="translate(82.4742268041237,242.85714285714286)" d="M2.5,0A2.5,2.5,0,1,1,-2.5,0A2.5,2.5,0,1,1,2.5,0" fill="#4c78a8" fill-opacity="0.5"/></g><g class="mark-line role-mark trend" role="graphics-symbol" aria-roledescription="line mark container"><path d="M82.474,240.652L89.649,242.894L96.825,245.044L104,247.102L111.175,249.068L118.351,250.942L125.526,252.723L132.701,254.413L139.876,256.01L147.052,257.515L154.227,258.928L161.402,260.249L168.577,261.478L175.753,262.615L182.928,263.66L190.103,264.612L197.278,265.473L204.454,266.241L211.629,266.917L218.804,267.501L225.979,267.993L233.155,268.393L240.33,268.701L247.505,268.917L251.093,268.99L254.68,269.04L261.856,269.072L265.443,269.053L269.031,269.011L276.206,268.858L279.794,268.748L283.381,268.614L290.557,268.277L297.732,267.848L304.907,267.326L312.082,266.713L319.258,266.008L326.433,265.21L333.608,264.321L340.784,263.339L347.959,262.265L355.134,261.099L362.309,259.841L369.485,258.491L376.66,257.049L383.835,255.514L391.01,253.888L398.186,252.169L405.361,250.358L412.536,248.456L419.711,246.461L426.887,244.374L434.062,242.195L441.237,239.923L448.412,237.56L455.588,235.105L462.763,232.557L469.938,229.917L484.289,224.362L498.639,218.438L512.99,212.145L527.34,205.484L541.691,198.455L556.041,191.057L570.392,183.29L584.742,175.156L599.093,166.653L613.443,157.781L627.794,148.541L656.495,128.956L685.196,107.897L713.897,85.364L742.598,61.357L771.299,35.877L800,8.923" stroke="firebrick" stroke-width="2"/></g><g class="mark-text role-mark" role="graphics-object" aria-roledescription="text mark container"><text text-anchor="middle" transform="translate(511.340206185567,351.6428571428572)" font-family="sans-serif" font-size="8px" fill="#000" opacity="1">Slam</text><text text-anchor="middle" transform="translate(206.18556701030926,180.21428571428572)" font-family="sans-serif" font-size="8px" fill="#000" opacity="1">Pirates</text><text text-anchor="start" transform="translate(712.7783505154639,102.00000000000004)" font-family="sans-serif" font-size="8px" fill="#000" opacity="1">Duel in the Sun</text><text text-anchor="middle" transform="translate(668.0412371134021,94.50000000000004)" font-family="sans-serif" font-size="8px" fill="#000" opacity="1">Tom Jones</text><text text-anchor="middle" transform="translate(692.7835051546392,58.78571428571432)" font-family="sans-serif" font-size="8px" fill="#000" opacity="1">Oliver!</text><text text-anchor="start" transform="translate(0,0)" font-family="sans-serif" font-size="8px" fill="#000" opacity="0">To Kill A Mockingbird</text><text text-anchor="middle" transform="translate(717.5257731958764,123.78571428571435)" font-family="sans-serif" font-size="8px" fill="#000" opacity="1">Hollywood Shuffle</text><text text-anchor="start" transform="translate(0,0)" font-family="sans-serif" font-size="8px" fill="#000" opacity="0">The Best Years of Our Lives</text><text text-anchor="middle" transform="translate(189.69072164948452,365.92857142857144)" font-family="sans-serif" font-size="8px" fill="#000" opacity="1">My Big Fat Independent Movie</text><text text-anchor="middle" transform="translate(313.4020618556701,237.35714285714286)" font-family="sans-serif" font-size="8px" fill="#000" opacity="1">Battle for the Planet of the Apes</text><text text-anchor="middle" transform="translate(329.8969072164948,251.64285714285717)" font-family="sans-serif" font-size="8px" fill="#000" opacity="1">Bogus</text><text text-anchor="middle" transform="translate(684.5360824742268,73.07142857142863)" font-family="sans-serif" font-size="8px" fill="#000" opacity="1">Beverly Hills Cop</text><text text-anchor="middle" transform="translate(379.38144329896903,158.7857142857143)" font-family="sans-serif" font-size="8px" fill="#000" opacity="1">Beverly Hills Cop II</text><text text-anchor="end" transform="translate(78.9742268041237,244.85714285714286)" font-family="sans-serif" font-size="8px" fill="#000" opacity="1">Beverly Hills Cop III</text></g></g><path class="foreground" aria-hidden="true" d="" display="none"/></g></g></g></svg>