<?xml version="1.0" encoding="us-ascii" standalone="no"?><svg xmlns="http://www.w3.org/2000/svg" xmlns:xlink="http://www.w3.org/1999/xlink" contentStyleType="text/css" height="194px" preserveAspectRatio="none" style="width:691px;height:194px;background:#FFFFFF;" version="1.1" viewBox="0 0 691 194" width="691px" zoomAndPan="magnify"><defs/><g><rect fill="#F1F1F1" height="162.375" rx="5" ry="5" style="stroke:#F1F1F1;stroke-width:1.5;" width="186" x="10" y="18.4063"/><text fill="#000000" font-family="sans-serif" font-size="14" font-weight="bold" lengthAdjust="spacing" textLength="76" x="15" y="33.4014">firstName</text><text fill="#000000" font-family="sans-serif" font-size="14" lengthAdjust="spacing" textLength="30" x="146" y="33.4014">John</text><line style="stroke:#000000;stroke-width:1.0;" x1="141" x2="141" y1="18.4063" y2="38.7031"/><line style="stroke:#000000;stroke-width:1.0;" x1="10" x2="196" y1="38.7031" y2="38.7031"/><text fill="#000000" font-family="sans-serif" font-size="14" font-weight="bold" lengthAdjust="spacing" textLength="72" x="15" y="53.6982">lastName</text><text fill="#000000" font-family="sans-serif" font-size="14" lengthAdjust="spacing" textLength="39" x="146" y="53.6982">Smith</text><line style="stroke:#000000;stroke-width:1.0;" x1="141" x2="141" y1="38.7031" y2="59"/><line style="stroke:#000000;stroke-width:1.0;" x1="10" x2="196" y1="59" y2="59"/><text fill="#000000" font-family="sans-serif" font-size="14" font-weight="bold" lengthAdjust="spacing" textLength="51" x="15" y="73.9951">isAlive</text><text fill="#000000" font-family="sans-serif" font-size="14" lengthAdjust="spacing" textLength="45" x="146" y="73.9951">&#9745; true</text><line style="stroke:#000000;stroke-width:1.0;" x1="141" x2="141" y1="59" y2="79.2969"/><line style="stroke:#000000;stroke-width:1.0;" x1="10" x2="196" y1="79.2969" y2="79.2969"/><text fill="#000000" font-family="sans-serif" font-size="14" font-weight="bold" lengthAdjust="spacing" textLength="29" x="15" y="94.292">age</text><text fill="#000000" font-family="sans-serif" font-size="14" lengthAdjust="spacing" textLength="18" x="146" y="94.292">27</text><line style="stroke:#000000;stroke-width:1.0;" x1="141" x2="141" y1="79.2969" y2="99.5938"/><line style="stroke:#000000;stroke-width:1.0;" x1="10" x2="196" y1="99.5938" y2="99.5938"/><text fill="#000000" font-family="sans-serif" font-size="14" font-weight="bold" lengthAdjust="spacing" textLength="64" x="15" y="114.5889">address</text><text fill="#000000" font-family="sans-serif" font-size="14" lengthAdjust="spacing" textLength="12" x="146" y="114.5889">&#160;&#160;&#160;</text><line style="stroke:#000000;stroke-width:1.0;" x1="141" x2="141" y1="99.5938" y2="119.8906"/><line style="stroke:#000000;stroke-width:1.0;" x1="10" x2="196" y1="119.8906" y2="119.8906"/><text fill="#000000" font-family="sans-serif" font-size="14" font-weight="bold" lengthAdjust="spacing" textLength="121" x="15" y="134.8857">phoneNumbers</text><text fill="#000000" font-family="sans-serif" font-size="14" lengthAdjust="spacing" textLength="12" x="146" y="134.8857">&#160;&#160;&#160;</text><line style="stroke:#000000;stroke-width:1.0;" x1="141" x2="141" y1="119.8906" y2="140.1875"/><line style="stroke:#000000;stroke-width:1.0;" x1="10" x2="196" y1="140.1875" y2="140.1875"/><text fill="#000000" font-family="sans-serif" font-size="14" font-weight="bold" lengthAdjust="spacing" textLength="64" x="15" y="155.1826">children</text><text fill="#000000" font-family="sans-serif" font-size="14" lengthAdjust="spacing" textLength="12" x="146" y="155.1826">&#160;&#160;&#160;</text><line style="stroke:#000000;stroke-width:1.0;" x1="141" x2="141" y1="140.1875" y2="160.4844"/><line style="stroke:#000000;stroke-width:1.0;" x1="10" x2="196" y1="160.4844" y2="160.4844"/><text fill="#000000" font-family="sans-serif" font-size="14" font-weight="bold" lengthAdjust="spacing" textLength="58" x="15" y="175.4795">spouse</text><text fill="#000000" font-family="sans-serif" font-size="14" lengthAdjust="spacing" textLength="11" x="146" y="175.4795">&#9216;</text><line style="stroke:#000000;stroke-width:1.0;" x1="141" x2="141" y1="160.4844" y2="180.7813"/><rect fill="none" height="162.375" rx="5" ry="5" style="stroke:#000000;stroke-width:1.5;" width="186" x="10" y="18.4063"/><rect fill="#F1F1F1" height="81.1875" rx="5" ry="5" style="stroke:#F1F1F1;stroke-width:1.5;" width="229" x="233" y="10"/><text fill="#000000" font-family="sans-serif" font-size="14" font-weight="bold" lengthAdjust="spacing" textLength="114" x="238" y="24.9951">streetAddress</text><text fill="#000000" font-family="sans-serif" font-size="14" lengthAdjust="spacing" textLength="95" x="362" y="24.9951">21 2nd Street</text><line style="stroke:#000000;stroke-width:1.0;" x1="357" x2="357" y1="10" y2="30.2969"/><line style="stroke:#000000;stroke-width:1.0;" x1="233" x2="462" y1="30.2969" y2="30.2969"/><text fill="#000000" font-family="sans-serif" font-size="14" font-weight="bold" lengthAdjust="spacing" textLength="28" x="238" y="45.292">city</text><text fill="#000000" font-family="sans-serif" font-size="14" lengthAdjust="spacing" textLength="65" x="362" y="45.292">New York</text><line style="stroke:#000000;stroke-width:1.0;" x1="357" x2="357" y1="30.2969" y2="50.5938"/><line style="stroke:#000000;stroke-width:1.0;" x1="233" x2="462" y1="50.5938" y2="50.5938"/><text fill="#000000" font-family="sans-serif" font-size="14" font-weight="bold" lengthAdjust="spacing" textLength="40" x="238" y="65.5889">state</text><text fill="#000000" font-family="sans-serif" font-size="14" lengthAdjust="spacing" textLength="19" x="362" y="65.5889">NY</text><line style="stroke:#000000;stroke-width:1.0;" x1="357" x2="357" y1="50.5938" y2="70.8906"/><line style="stroke:#000000;stroke-width:1.0;" x1="233" x2="462" y1="70.8906" y2="70.8906"/><text fill="#000000" font-family="sans-serif" font-size="14" font-weight="bold" lengthAdjust="spacing" textLength="89" x="238" y="85.8857">postalCode</text><text fill="#000000" font-family="sans-serif" font-size="14" lengthAdjust="spacing" textLength="86" x="362" y="85.8857">10021-3100</text><line style="stroke:#000000;stroke-width:1.0;" x1="357" x2="357" y1="70.8906" y2="91.1875"/><rect fill="none" height="81.1875" rx="5" ry="5" style="stroke:#000000;stroke-width:1.5;" width="229" x="233" y="10"/><rect fill="#F1F1F1" height="40.5938" rx="5" ry="5" style="stroke:#F1F1F1;stroke-width:1.5;" width="22" x="336.5" y="109.0938"/><text fill="#000000" font-family="sans-serif" font-size="14" lengthAdjust="spacing" textLength="12" x="341.5" y="124.0889">&#160;&#160;&#160;</text><line style="stroke:#000000;stroke-width:1.0;" x1="336.5" x2="358.5" y1="129.3906" y2="129.3906"/><text fill="#000000" font-family="sans-serif" font-size="14" lengthAdjust="spacing" textLength="12" x="341.5" y="144.3857">&#160;&#160;&#160;</text><rect fill="none" height="40.5938" rx="5" ry="5" style="stroke:#000000;stroke-width:1.5;" width="22" x="336.5" y="109.0938"/><rect fill="#F1F1F1" height="40.5938" rx="5" ry="5" style="stroke:#F1F1F1;stroke-width:1.5;" width="180" x="499" y="79.0938"/><text fill="#000000" font-family="sans-serif" font-size="14" font-weight="bold" lengthAdjust="spacing" textLength="35" x="504" y="94.0889">type</text><text fill="#000000" font-family="sans-serif" font-size="14" lengthAdjust="spacing" textLength="40" x="575" y="94.0889">home</text><line style="stroke:#000000;stroke-width:1.0;" x1="570" x2="570" y1="79.0938" y2="99.3906"/><line style="stroke:#000000;stroke-width:1.0;" x1="499" x2="679" y1="99.3906" y2="99.3906"/><text fill="#000000" font-family="sans-serif" font-size="14" font-weight="bold" lengthAdjust="spacing" textLength="61" x="504" y="114.3857">number</text><text fill="#000000" font-family="sans-serif" font-size="14" lengthAdjust="spacing" textLength="99" x="575" y="114.3857">212 555-1234</text><line style="stroke:#000000;stroke-width:1.0;" x1="570" x2="570" y1="99.3906" y2="119.6875"/><rect fill="none" height="40.5938" rx="5" ry="5" style="stroke:#000000;stroke-width:1.5;" width="180" x="499" y="79.0938"/><rect fill="#F1F1F1" height="40.5938" rx="5" ry="5" style="stroke:#F1F1F1;stroke-width:1.5;" width="180" x="499" y="138.0938"/><text fill="#000000" font-family="sans-serif" font-size="14" font-weight="bold" lengthAdjust="spacing" textLength="35" x="504" y="153.0889">type</text><text fill="#000000" font-family="sans-serif" font-size="14" lengthAdjust="spacing" textLength="37" x="575" y="153.0889">office</text><line style="stroke:#000000;stroke-width:1.0;" x1="570" x2="570" y1="138.0938" y2="158.3906"/><line style="stroke:#000000;stroke-width:1.0;" x1="499" x2="679" y1="158.3906" y2="158.3906"/><text fill="#000000" font-family="sans-serif" font-size="14" font-weight="bold" lengthAdjust="spacing" textLength="61" x="504" y="173.3857">number</text><text fill="#000000" font-family="sans-serif" font-size="14" lengthAdjust="spacing" textLength="99" x="575" y="173.3857">646 555-4567</text><line style="stroke:#000000;stroke-width:1.0;" x1="570" x2="570" y1="158.3906" y2="178.6875"/><rect fill="none" height="40.5938" rx="5" ry="5" style="stroke:#000000;stroke-width:1.5;" width="180" x="499" y="138.0938"/><rect fill="#F1F1F1" height="15" rx="5" ry="5" style="stroke:#F1F1F1;stroke-width:1.5;" width="30" x="339.5" y="168.0938"/><rect fill="none" height="15" rx="5" ry="5" style="stroke:#000000;stroke-width:1.5;" width="30" x="339.5" y="168.0938"/><path d="M184,109.5938 L197,109.5938 C203.0231,109.5938 221.96,102.9208 244.4436,94.0633 " fill="none" style="stroke:#000000;stroke-width:1.0;stroke-dasharray:3.0,3.0;"/><path d="M245.5692,96.8957 L246.568,93.219 L243.318,91.2308 L251.5248,91.2492 L245.5692,96.8957 " fill="#000000" style="stroke:#000000;stroke-width:1.0;"/><ellipse cx="184" cy="109.5938" fill="#000000" rx="3" ry="3" style="stroke:#000000;stroke-width:1.0;"/><path d="M347,119.5938 L360,119.5938 C403.3929,119.5938 451.2452,115.9701 491.8985,111.8077 " fill="none" style="stroke:#000000;stroke-width:1.0;stroke-dasharray:3.0,3.0;"/><path d="M492.2116,114.8094 L494.1498,111.5728 L491.5854,108.8059 L499.4029,111.0249 L492.2116,114.8094 " fill="#000000" style="stroke:#000000;stroke-width:1.0;"/><ellipse cx="347" cy="119.5938" fill="#000000" rx="3" ry="3" style="stroke:#000000;stroke-width:1.0;"/><path d="M347,139.5938 L360,139.5938 C403.3768,139.5938 451.2267,143.0362 491.8826,146.9905 " fill="none" style="stroke:#000000;stroke-width:1.0;stroke-dasharray:3.0,3.0;"/><path d="M491.5851,149.9925 L494.134,147.2136 L492.18,143.9886 L499.3875,147.7341 L491.5851,149.9925 " fill="#000000" style="stroke:#000000;stroke-width:1.0;"/><ellipse cx="347" cy="139.5938" fill="#000000" rx="3" ry="3" style="stroke:#000000;stroke-width:1.0;"/><path d="M184,129.5938 L197,129.5938 C244.6725,129.5938 300.8676,129.5938 329.019,129.5938 " fill="none" style="stroke:#000000;stroke-width:1.0;stroke-dasharray:3.0,3.0;"/><path d="M329.019,132.7121 L331.3578,129.5938 L329.019,126.4754 L336.8149,129.5938 L329.019,132.7121 " fill="#000000" style="stroke:#000000;stroke-width:1.0;"/><ellipse cx="184" cy="129.5938" fill="#000000" rx="3" ry="3" style="stroke:#000000;stroke-width:1.0;"/><path d="M184,150.5938 L197,150.5938 C213.4924,150.5938 216.8113,156.4432 233,159.5938 C268.3301,166.4694 310.3699,171.5895 332.1942,174.0214 " fill="none" style="stroke:#000000;stroke-width:1.0;stroke-dasharray:3.0,3.0;"/><path d="M331.8645,177.0451 L334.462,174.2686 L332.5238,170.9976 L339.7536,174.8455 L331.8645,177.0451 " fill="#000000" style="stroke:#000000;stroke-width:1.0;"/><ellipse cx="184" cy="150.5938" fill="#000000" rx="3" ry="3" style="stroke:#000000;stroke-width:1.0;"/><!--SRC=[RP7BRi8m44Nt_efHLY018kPLPGMYfH82X4gfXAekJE8GjucD_A125V_UiGFjXasYENVc-jepDfPf-scK93y48Cg5DdR5AXub4CrL8QEMnoNxfvjAsAB6manASVBKQiS3OWTVqb5TP9dcnY3mvWYCrPpRoH-EQ0nKPh09F9XYLohisOih_WqxfRzk7BFQ466rkw6ZGbXELHPutEtIkDt3NuJo9MGu5ahobQlsNFiJtyDS7GTLUpw6oKBXvLetAaDxdO_2O31enxJNZu9yQTrtK7akqhiUm_umUFG7mz7L0xyV8LrQY18VG_faDJ57vOntbAuioOMCkSp2ViYwPD9kbmiuuLM4aX1tQ9VsEgF6J0jOiZDWs7YKq5xIfx1zdOANcwJnl5w0KKwd73A1An1xPt6-IURinE35IIigVZrm_hPCOEFss8QF3MzByiXpvaeBJp9LcP271ArdxGUoOFBWSDtNmQb27tskgry0]--></g></svg>