<?xml version="1.0" encoding="us-ascii" standalone="no"?><svg xmlns="http://www.w3.org/2000/svg" xmlns:xlink="http://www.w3.org/1999/xlink" contentStyleType="text/css" height="656px" preserveAspectRatio="none" style="width:652px;height:656px;background:#FFFFFF;" version="1.1" viewBox="0 0 652 656" width="652px" zoomAndPan="magnify"><defs><filter height="300%" id="f162jiatxpd8ww" width="300%" x="-1" y="-1"><feGaussianBlur result="blurOut" stdDeviation="2.0"/><feColorMatrix in="blurOut" result="blurOut2" type="matrix" values="0 0 0 0 0 0 0 0 0 0 0 0 0 0 0 0 0 0 .4 0"/><feOffset dx="4.0" dy="4.0" in="blurOut2" result="blurOut3"/><feBlend in="SourceGraphic" in2="blurOut3" mode="normal"/></filter></defs><g><ellipse cx="405.25" cy="32" fill="#A80036" filter="url(#f162jiatxpd8ww)" rx="10" ry="10" style="stroke:none;stroke-width:1.0;"/><g id="State1"><rect fill="#FEFECE" filter="url(#f162jiatxpd8ww)" height="50" rx="12.5" ry="12.5" style="stroke:#A80036;stroke-width:1.0;" width="65" x="450.75" y="7"/><line style="stroke:#A80036;stroke-width:1.0;" x1="450.75" x2="515.75" y1="33.2969" y2="33.2969"/><text fill="#000000" font-family="sans-serif" font-size="14" lengthAdjust="spacing" textLength="45" x="460.75" y="24.9951">State1</text></g><g id="State2"><rect fill="#FEFECE" filter="url(#f162jiatxpd8ww)" height="50" rx="12.5" ry="12.5" style="stroke:#A80036;stroke-width:1.0;" width="65" x="268.75" y="134"/><line style="stroke:#A80036;stroke-width:1.0;" x1="268.75" x2="333.75" y1="160.2969" y2="160.2969"/><text fill="#000000" font-family="sans-serif" font-size="14" lengthAdjust="spacing" textLength="45" x="278.75" y="151.9951">State2</text></g><ellipse cx="308.25" cy="632.19" fill="none" filter="url(#f162jiatxpd8ww)" rx="10" ry="10" style="stroke:#A80036;stroke-width:1.0;"/><ellipse cx="308.75" cy="632.69" fill="#A80036" rx="6" ry="6" style="stroke:none;stroke-width:1.0;"/><rect fill="none" filter="url(#f162jiatxpd8ww)" height="284.1869" rx="12.5" ry="12.5" style="stroke:#A80036;stroke-width:1.0;" width="308" x="147.25" y="261"/><path d="M159.75,261 L442.75,261 A12.5,12.5 0 0 1 455.25,273.5 L455.25,287.2969 L147.25,287.2969 L147.25,273.5 A12.5,12.5 0 0 1 159.75,261 " fill="#FEFECE" style="stroke:#FEFECE;stroke-width:1.0;"/><path d="M147.25,287.2969 L455.25,287.2969 L455.25,532.6869 A12.5,12.5 0 0 1 442.75,545.1869 L159.75,545.1869 A12.5,12.5 0 0 1 147.25,532.6869 L147.25,287.2969 " fill="#FEFECE" style="stroke:#FEFECE;stroke-width:1.0;"/><rect fill="none" height="284.1869" rx="12.5" ry="12.5" style="stroke:#A80036;stroke-width:1.0;" width="308" x="147.25" y="261"/><line style="stroke:#A80036;stroke-width:1.0;" x1="147.25" x2="455.25" y1="287.2969" y2="287.2969"/><text fill="#000000" font-family="sans-serif" font-size="14" lengthAdjust="spacing" textLength="45" x="278.75" y="278.9951">State3</text><g id="State3.long1"><rect fill="#FEFECE" filter="url(#f162jiatxpd8ww)" height="68.8906" rx="12.5" ry="12.5" style="stroke:#A80036;stroke-width:1.0;" width="195" x="159.25" y="355.2969"/><line style="stroke:#A80036;stroke-width:1.0;" x1="159.25" x2="354.25" y1="397.8906" y2="397.8906"/><text fill="#000000" font-family="sans-serif" font-size="14" lengthAdjust="spacing" textLength="175" x="169.25" y="373.292">Accumulate Enough Data</text><text fill="#000000" font-family="sans-serif" font-size="14" lengthAdjust="spacing" textLength="118" x="197.75" y="389.5889">Long State Name</text><text fill="#000000" font-family="sans-serif" font-size="14" lengthAdjust="spacing" textLength="68" x="164.25" y="415.8857">Just a test</text></g><ellipse cx="256.75" cy="308.2969" fill="#A80036" filter="url(#f162jiatxpd8ww)" rx="10" ry="10" style="stroke:none;stroke-width:1.0;"/><g id="State3.ProcessData"><rect fill="#FEFECE" filter="url(#f162jiatxpd8ww)" height="50" rx="12.5" ry="12.5" style="stroke:#A80036;stroke-width:1.0;" width="108" x="202.75" y="477.1869"/><line style="stroke:#A80036;stroke-width:1.0;" x1="202.75" x2="310.75" y1="503.4838" y2="503.4838"/><text fill="#000000" font-family="sans-serif" font-size="14" lengthAdjust="spacing" textLength="88" x="212.75" y="495.182">ProcessData</text></g><!--link *start*State3 to long1--><g id="link_*start*State3_long1"><path d="M256.75,318.7169 C256.75,326.3569 256.75,337.6569 256.75,348.9669 " fill="none" id="*start*State3-to-long1" style="stroke:#A80036;stroke-width:1.0;"/><polygon fill="#A80036" points="256.75,353.8569,260.75,344.8569,256.75,348.8569,252.75,344.8569,256.75,353.8569" style="stroke:#A80036;stroke-width:1.0;"/></g><!--link long1 to long1--><g id="link_long1_long1"><path d="M354.49,381.3869 C365.28,382.9769 372.25,385.7569 372.25,389.7369 C372.25,392.9769 367.65,395.4169 360.14,397.0769 " fill="none" id="long1-to-long1" style="stroke:#A80036;stroke-width:1.0;"/><polygon fill="#A80036" points="355.49,398.0969,365.0633,400.4101,360.4082,397.1962,363.6222,392.541,355.49,398.0969" style="stroke:#A80036;stroke-width:1.0;"/><text fill="#000000" font-family="sans-serif" font-size="13" lengthAdjust="spacing" textLength="62" x="378.25" y="394.3038">New Data</text></g><!--link long1 to ProcessData--><g id="link_long1_ProcessData"><path d="M256.75,424.4769 C256.75,439.2469 256.75,456.4369 256.75,470.7969 " fill="none" id="long1-to-ProcessData" style="stroke:#A80036;stroke-width:1.0;"/><polygon fill="#A80036" points="256.75,475.7669,260.75,466.7669,256.75,470.7669,252.75,466.7669,256.75,475.7669" style="stroke:#A80036;stroke-width:1.0;"/><text fill="#000000" font-family="sans-serif" font-size="13" lengthAdjust="spacing" textLength="83" x="257.75" y="455.2538">Enough Data</text></g><!--link *start* to State1--><g id="link_*start*_State1"><path d="M415.61,32 C425.24,32 434.87,32 444.5,32 " fill="none" id="*start*-to-State1" style="stroke:#A80036;stroke-width:1.0;"/><polygon fill="#A80036" points="449.49,32,440.49,28,444.49,32,440.49,36,449.49,32" style="stroke:#A80036;stroke-width:1.0;"/></g><!--link State1 to State2--><g id="link_State1_State2"><path d="M450.29,55.64 C418.86,77.23 371.56,109.72 338.71,132.28 " fill="none" id="State1-to-State2" style="stroke:#A80036;stroke-width:1.0;"/><polygon fill="#A80036" points="334.97,135.53,344.6554,133.7431,339.0948,132.704,340.1338,127.1434,334.97,135.53" style="stroke:#A80036;stroke-width:1.0;"/><text fill="#000000" font-family="sans-serif" font-size="13" lengthAdjust="spacing" textLength="71" x="403.25" y="100.0669">Succeeded</text></g><!--link State1 to *end*--><g id="link_State1_*end*"><path d="M496.12,57.47 C535.46,135.96 645.23,385.6 540.25,545.19 C491.2,619.76 368.94,629.93 324.62,631.12 " fill="none" id="State1-to-*end*" style="stroke:#A80036;stroke-width:1.0;"/><polygon fill="#A80036" points="319.67,631.24,328.7482,635.0592,324.669,631.14,328.5882,627.0608,319.67,631.24" style="stroke:#A80036;stroke-width:1.0;"/><text fill="#000000" font-family="sans-serif" font-size="13" lengthAdjust="spacing" textLength="51" x="562.25" y="227.0669">Aborted</text></g><!--link State2 to State3--><g id="link_State2_State3"><path d="M301.25,184.1 C301.25,201.74 301.25,227.31 301.25,254.78 " fill="none" id="State2-to-State3" style="stroke:#A80036;stroke-width:1.0;"/><polygon fill="#A80036" points="301.25,259.67,305.25,250.67,301.25,254.67,297.25,250.67,301.25,259.67" style="stroke:#A80036;stroke-width:1.0;"/><text fill="#000000" font-family="sans-serif" font-size="13" lengthAdjust="spacing" textLength="71" x="302.25" y="227.0669">Succeeded</text></g><!--link State2 to *end*--><g id="link_State2_*end*"><path d="M268.45,163.72 C217.1,171.5 119.18,194.68 76.25,261 C7.62,367.04 6,440.23 76.25,545.19 C125.9,619.36 247.79,629.79 291.95,631.08 " fill="none" id="State2-to-*end*" style="stroke:#A80036;stroke-width:1.0;"/><polygon fill="#A80036" points="296.88,631.21,287.9738,627.0054,291.8813,631.0957,287.7909,635.0033,296.88,631.21" style="stroke:#A80036;stroke-width:1.0;"/><text fill="#000000" font-family="sans-serif" font-size="13" lengthAdjust="spacing" textLength="51" x="77.25" y="407.6669">Aborted</text></g><!--link State3 to State3--><g id="link_State3_State3"><path d="M455.5,373.06 C476.36,378.09 490.25,388.11 490.25,403.1 C490.25,416.68 478.85,426.18 461.18,431.59 " fill="none" id="State3-to-State3" style="stroke:#A80036;stroke-width:1.0;"/><polygon fill="#A80036" points="456.5,433.14,466.2346,434.6359,461.3245,431.8268,464.1335,426.9167,456.5,433.14" style="stroke:#A80036;stroke-width:1.0;"/><text fill="#000000" font-family="sans-serif" font-size="13" lengthAdjust="spacing" textLength="37" x="496.25" y="407.6669">Failed</text></g><!--link State3 to *end*--><g id="link_State3_*end*"><path d="M194.37,545.66 C192.32,561.72 195.15,577.56 205.25,592.19 C225,620.79 268.63,628.44 292.27,630.47 " fill="none" id="State3-to-*end*" style="stroke:#A80036;stroke-width:1.0;"/><polygon fill="#A80036" points="297.1,630.89,288.4088,626.2572,292.1128,630.5327,287.8372,634.2367,297.1,630.89" style="stroke:#A80036;stroke-width:1.0;"/><text fill="#000000" font-family="sans-serif" font-size="13" lengthAdjust="spacing" textLength="158" x="206.25" y="588.2569">Succeeded / Save Result</text></g><!--link State3 to *end*--><g id="link_State3_*end*"><path d="M362.05,545.24 C364.9,555.26 367.36,565.3 369.25,575.19 C370.67,582.61 372.88,585.56 369.25,592.19 C359.55,609.9 338,620.75 323.29,626.36 " fill="none" id="State3-to-*end*-1" style="stroke:#A80036;stroke-width:1.0;"/><polygon fill="#A80036" points="318.84,628.33,328.6639,629.0303,323.5419,626.6293,325.9428,621.5073,318.84,628.33" style="stroke:#A80036;stroke-width:1.0;"/><text fill="#000000" font-family="sans-serif" font-size="13" lengthAdjust="spacing" textLength="51" x="371.25" y="588.2569">Aborted</text></g><!--SRC=[RL0z2y8m4DtpAnuT1P6sMmT1K0UH8dPKXnWFBRODz18TnFzksXfjqUcEzt5tx_YQLwWran2xqG7ZAJ8Z3OMYAnXx94A2p2f5TA9Jdsri2MP7NHjFH5zR_6kB_jYu8RpZ8O0E26PAsT8MJR-ej3rVC9T6xgkrhiwT7AaiAO1a50uBdRMjRlRAie648JOERTEvlKFL1t7wbExjz06vgRKYvWPtajuDuYdUvmwoBcLU-A1nB-Zd1vWWapV2bjWMvbVeF_82]--></g></svg>