<svg xmlns="http://www.w3.org/2000/svg" xmlns:xlink="http://www.w3.org/1999/xlink" version="1.1" class="marks" width="511" height="117" viewBox="0 0 511 117"><g fill="none" stroke-miterlimit="10" transform="translate(4,0)"><g class="mark-group role-frame root" role="graphics-object" aria-roledescription="group mark container"><g transform="translate(0,0)"><path class="background" aria-hidden="true" d="M0,0h500v100h-500Z"/><g><g class="mark-group role-axis" role="graphics-symbol" aria-roledescription="axis" aria-label="X-axis for a linear scale with values from 1 to 20"><g transform="translate(0.5,100.5)"><path class="background" aria-hidden="true" d="M0,0h0v0h0Z" pointer-events="none"/><g><g class="mark-rule role-axis-tick" pointer-events="none"><line transform="translate(0,0)" x2="0" y2="5" stroke="#888" stroke-width="1" opacity="1"/><line transform="translate(26,0)" x2="0" y2="5" stroke="#888" stroke-width="1" opacity="1"/><line transform="translate(53,0)" x2="0" y2="5" stroke="#888" stroke-width="1" opacity="1"/><line transform="translate(79,0)" x2="0" y2="5" stroke="#888" stroke-width="1" opacity="1"/><line transform="translate(105,0)" x2="0" y2="5" stroke="#888" stroke-width="1" opacity="1"/><line transform="translate(132,0)" x2="0" y2="5" stroke="#888" stroke-width="1" opacity="1"/><line transform="translate(158,0)" x2="0" y2="5" stroke="#888" stroke-width="1" opacity="1"/><line transform="translate(184,0)" x2="0" y2="5" stroke="#888" stroke-width="1" opacity="1"/><line transform="translate(211,0)" x2="0" y2="5" stroke="#888" stroke-width="1" opacity="1"/><line transform="translate(237,0)" x2="0" y2="5" stroke="#888" stroke-width="1" opacity="1"/><line transform="translate(263,0)" x2="0" y2="5" stroke="#888" stroke-width="1" opacity="1"/><line transform="translate(289,0)" x2="0" y2="5" stroke="#888" stroke-width="1" opacity="1"/><line transform="translate(316,0)" x2="0" y2="5" stroke="#888" stroke-width="1" opacity="1"/><line transform="translate(342,0)" x2="0" y2="5" stroke="#888" stroke-width="1" opacity="1"/><line transform="translate(368,0)" x2="0" y2="5" stroke="#888" stroke-width="1" opacity="1"/><line transform="translate(395,0)" x2="0" y2="5" stroke="#888" stroke-width="1" opacity="1"/><line transform="translate(421,0)" x2="0" y2="5" stroke="#888" stroke-width="1" opacity="1"/><line transform="translate(447,0)" x2="0" y2="5" stroke="#888" stroke-width="1" opacity="1"/><line transform="translate(474,0)" x2="0" y2="5" stroke="#888" stroke-width="1" opacity="1"/><line transform="translate(500,0)" x2="0" y2="5" stroke="#888" stroke-width="1" opacity="1"/></g><g class="mark-text role-axis-label" pointer-events="none"><text text-anchor="middle" transform="translate(0,15)" font-family="sans-serif" font-size="10px" fill="#000" opacity="1">1</text><text text-anchor="middle" transform="translate(26,15)" font-family="sans-serif" font-size="10px" fill="#000" opacity="1">2</text><text text-anchor="middle" transform="translate(53,15)" font-family="sans-serif" font-size="10px" fill="#000" opacity="1">3</text><text text-anchor="middle" transform="translate(79,15)" font-family="sans-serif" font-size="10px" fill="#000" opacity="1">4</text><text text-anchor="middle" transform="translate(105,15)" font-family="sans-serif" font-size="10px" fill="#000" opacity="1">5</text><text text-anchor="middle" transform="translate(132,15)" font-family="sans-serif" font-size="10px" fill="#000" opacity="1">6</text><text text-anchor="middle" transform="translate(158,15)" font-family="sans-serif" font-size="10px" fill="#000" opacity="1">7</text><text text-anchor="middle" transform="translate(184,15)" font-family="sans-serif" font-size="10px" fill="#000" opacity="1">8</text><text text-anchor="middle" transform="translate(211,15)" font-family="sans-serif" font-size="10px" fill="#000" opacity="1">9</text><text text-anchor="middle" transform="translate(237,15)" font-family="sans-serif" font-size="10px" fill="#000" opacity="1">10</text><text text-anchor="middle" transform="translate(263,15)" font-family="sans-serif" font-size="10px" fill="#000" opacity="1">11</text><text text-anchor="middle" transform="translate(289,15)" font-family="sans-serif" font-size="10px" fill="#000" opacity="1">12</text><text text-anchor="middle" transform="translate(316,15)" font-family="sans-serif" font-size="10px" fill="#000" opacity="1">13</text><text text-anchor="middle" transform="translate(342,15)" font-family="sans-serif" font-size="10px" fill="#000" opacity="1">14</text><text text-anchor="middle" transform="translate(368,15)" font-family="sans-serif" font-size="10px" fill="#000" opacity="1">15</text><text text-anchor="middle" transform="translate(395,15)" font-family="sans-serif" font-size="10px" fill="#000" opacity="1">16</text><text text-anchor="middle" transform="translate(421,15)" font-family="sans-serif" font-size="10px" fill="#000" opacity="1">17</text><text text-anchor="middle" transform="translate(447,15)" font-family="sans-serif" font-size="10px" fill="#000" opacity="1">18</text><text text-anchor="middle" transform="translate(474,15)" font-family="sans-serif" font-size="10px" fill="#000" opacity="1">19</text><text text-anchor="middle" transform="translate(500,15)" font-family="sans-serif" font-size="10px" fill="#000" opacity="1">20</text></g><g class="mark-rule role-axis-domain" pointer-events="none"><line transform="translate(0,0)" x2="500" y2="0" stroke="#888" stroke-width="1" opacity="1"/></g></g><path class="foreground" aria-hidden="true" d="" pointer-events="none" display="none"/></g></g><g class="mark-group role-scope" role="graphics-object" aria-roledescription="group mark container"><g transform="translate(0,0)"><path class="background" aria-hidden="true" d="M0,0h500v100h-500Z"/><g clip-path="url(#clip1)"><g class="mark-group role-scope" role="graphics-object" aria-roledescription="group mark container"><g transform="translate(0,0)"><path class="background" aria-hidden="true" d="M0,0h0v0h0Z"/><g><g class="mark-area role-mark" role="graphics-symbol" aria-roledescription="area mark container"><path d="M0,144C8.667,117,17.333,90,26,90C35,90,44,114,53,114C61.667,114,70.333,18,79,18C87.667,18,96.333,25.786,105,38C114,50.684,123,72.851,132,94C140.667,114.365,149.333,162,158,162C166.667,162,175.333,26,184,26C193,26,202,90.462,211,96C219.667,101.333,228.333,98.667,237,104C245.667,109.333,254.333,152,263,152C271.667,152,280.333,122.458,289,102C298,80.755,307,26,316,26C324.667,26,333.333,44.667,342,68C350.667,91.333,359.333,166,368,166C377,166,386,159.333,395,146C403.667,133.16,412.333,64,421,64C429.667,64,438.333,168,447,168C456,168,465,102,474,102C482.667,102,491.333,136,500,170L500,200C491.333,200,482.667,200,474,200C465,200,456,200,447,200C438.333,200,429.667,200,421,200C412.333,200,403.667,200,395,200C386,200,377,200,368,200C359.333,200,350.667,200,342,200C333.333,200,324.667,200,316,200C307,200,298,200,289,200C280.333,200,271.667,200,263,200C254.333,200,245.667,200,237,200C228.333,200,219.667,200,211,200C202,200,193,200,184,200C175.333,200,166.667,200,158,200C149.333,200,140.667,200,132,200C123,200,114,200,105,200C96.333,200,87.667,200,79,200C70.333,200,61.667,200,53,200C44,200,35,200,26,200C17.333,200,8.667,200,0,200Z" fill="steelblue" fill-opacity="0.6299605249474366"/></g></g><path class="foreground" aria-hidden="true" d="" display="none"/></g><g transform="translate(0,-100)"><path class="background" aria-hidden="true" d="M0,0h0v0h0Z"/><g><g class="mark-area role-mark" role="graphics-symbol" aria-roledescription="area mark container"><path d="M0,144C8.667,117,17.333,90,26,90C35,90,44,114,53,114C61.667,114,70.333,18,79,18C87.667,18,96.333,25.786,105,38C114,50.684,123,72.851,132,94C140.667,114.365,149.333,162,158,162C166.667,162,175.333,26,184,26C193,26,202,90.462,211,96C219.667,101.333,228.333,98.667,237,104C245.667,109.333,254.333,152,263,152C271.667,152,280.333,122.458,289,102C298,80.755,307,26,316,26C324.667,26,333.333,44.667,342,68C350.667,91.333,359.333,166,368,166C377,166,386,159.333,395,146C403.667,133.16,412.333,64,421,64C429.667,64,438.333,168,447,168C456,168,465,102,474,102C482.667,102,491.333,136,500,170L500,200C491.333,200,482.667,200,474,200C465,200,456,200,447,200C438.333,200,429.667,200,421,200C412.333,200,403.667,200,395,200C386,200,377,200,368,200C359.333,200,350.667,200,342,200C333.333,200,324.667,200,316,200C307,200,298,200,289,200C280.333,200,271.667,200,263,200C254.333,200,245.667,200,237,200C228.333,200,219.667,200,211,200C202,200,193,200,184,200C175.333,200,166.667,200,158,200C149.333,200,140.667,200,132,200C123,200,114,200,105,200C96.333,200,87.667,200,79,200C70.333,200,61.667,200,53,200C44,200,35,200,26,200C17.333,200,8.667,200,0,200Z" fill="steelblue" fill-opacity="0.6299605249474366"/></g></g><path class="foreground" aria-hidden="true" d="" display="none"/></g></g></g><path class="foreground" aria-hidden="true" d="" display="none"/></g></g></g><path class="foreground" aria-hidden="true" d="" display="none"/></g></g></g><defs><clipPath id="clip1"><rect x="0" y="0" width="500" height="100"/></clipPath></defs></svg>