<?xml version="1.0" encoding="UTF-8" standalone="no"?>
<!DOCTYPE svg PUBLIC "-//W3C//DTD SVG 1.1//EN"
 "http://www.w3.org/Graphics/SVG/1.1/DTD/svg11.dtd">
<!-- Generated by graphviz version 8.0.4 (20230422.2207)
 -->
<!-- Title: finite_state_machine Pages: 1 -->
<svg width="573pt" height="256pt"
 viewBox="0.00 0.00 573.00 256.00" xmlns="http://www.w3.org/2000/svg" xmlns:xlink="http://www.w3.org/1999/xlink">
<g id="graph0" class="graph" transform="scale(1 1) rotate(0) translate(4 252)">
<title>finite_state_machine</title>
<polygon fill="white" stroke="none" points="-4,4 -4,-252 569,-252 569,4 -4,4"/>
<!-- 0 -->
<g id="node1" class="node">
<title>0</title>
<ellipse fill="none" stroke="black" cx="22" cy="-77" rx="18" ry="18"/>
<ellipse fill="none" stroke="black" cx="22" cy="-77" rx="22" ry="22"/>
<text text-anchor="middle" x="22" y="-72.1" font-family="Times,serif" font-size="14.00">0</text>
</g>
<!-- 2 -->
<g id="node5" class="node">
<title>2</title>
<ellipse fill="none" stroke="black" cx="131" cy="-106" rx="18" ry="18"/>
<text text-anchor="middle" x="131" y="-101.1" font-family="Times,serif" font-size="14.00">2</text>
</g>
<!-- 0&#45;&gt;2 -->
<g id="edge1" class="edge">
<title>0&#45;&gt;2</title>
<path fill="none" stroke="black" d="M43.63,-82.59C60.51,-87.17 84.51,-93.67 102.93,-98.66"/>
<polygon fill="black" stroke="black" points="101.73,-102.23 112.3,-101.47 103.56,-95.48 101.73,-102.23"/>
<text text-anchor="middle" x="78.5" y="-98.5" font-family="Times,serif" font-size="14.00">SS(B)</text>
</g>
<!-- 1 -->
<g id="node6" class="node">
<title>1</title>
<ellipse fill="none" stroke="black" cx="131" cy="-50" rx="18" ry="18"/>
<text text-anchor="middle" x="131" y="-45.1" font-family="Times,serif" font-size="14.00">1</text>
</g>
<!-- 0&#45;&gt;1 -->
<g id="edge2" class="edge">
<title>0&#45;&gt;1</title>
<path fill="none" stroke="black" d="M42.54,-68.09C48.67,-65.57 55.53,-63.02 62,-61.2 74.96,-57.56 89.67,-54.95 102.08,-53.18"/>
<polygon fill="black" stroke="black" points="102.27,-56.55 111.72,-51.77 101.35,-49.61 102.27,-56.55"/>
<text text-anchor="middle" x="78.5" y="-65.5" font-family="Times,serif" font-size="14.00">SS(S)</text>
</g>
<!-- 3 -->
<g id="node2" class="node">
<title>3</title>
<ellipse fill="none" stroke="black" cx="250" cy="-22" rx="18" ry="18"/>
<ellipse fill="none" stroke="black" cx="250" cy="-22" rx="22" ry="22"/>
<text text-anchor="middle" x="250" y="-17.1" font-family="Times,serif" font-size="14.00">3</text>
</g>
<!-- 4 -->
<g id="node3" class="node">
<title>4</title>
<ellipse fill="none" stroke="black" cx="250" cy="-226" rx="18" ry="18"/>
<ellipse fill="none" stroke="black" cx="250" cy="-226" rx="22" ry="22"/>
<text text-anchor="middle" x="250" y="-221.1" font-family="Times,serif" font-size="14.00">4</text>
</g>
<!-- 8 -->
<g id="node4" class="node">
<title>8</title>
<ellipse fill="none" stroke="black" cx="543" cy="-114" rx="18" ry="18"/>
<ellipse fill="none" stroke="black" cx="543" cy="-114" rx="22" ry="22"/>
<text text-anchor="middle" x="543" y="-109.1" font-family="Times,serif" font-size="14.00">8</text>
</g>
<!-- 6 -->
<g id="node7" class="node">
<title>6</title>
<ellipse fill="none" stroke="black" cx="250" cy="-133" rx="18" ry="18"/>
<text text-anchor="middle" x="250" y="-128.1" font-family="Times,serif" font-size="14.00">6</text>
</g>
<!-- 8&#45;&gt;6 -->
<g id="edge13" class="edge">
<title>8&#45;&gt;6</title>
<path fill="none" stroke="black" d="M521.46,-119.76C515.53,-121.28 509.04,-122.83 503,-124 427.54,-138.61 407.74,-146.3 331,-142 313.65,-141.03 294.29,-138.88 278.96,-136.92"/>
<polygon fill="black" stroke="black" points="279.49,-133.33 269.12,-135.49 278.57,-140.27 279.49,-133.33"/>
<text text-anchor="middle" x="396.5" y="-145.5" font-family="Times,serif" font-size="14.00">S(b)</text>
</g>
<!-- 5 -->
<g id="node8" class="node">
<title>5</title>
<ellipse fill="none" stroke="black" cx="349" cy="-80" rx="18" ry="18"/>
<text text-anchor="middle" x="349" y="-75.1" font-family="Times,serif" font-size="14.00">5</text>
</g>
<!-- 8&#45;&gt;5 -->
<g id="edge14" class="edge">
<title>8&#45;&gt;5</title>
<path fill="none" stroke="black" d="M520.64,-112.66C490.17,-110.4 432.63,-104.87 385,-93 382.15,-92.29 379.21,-91.42 376.31,-90.48"/>
<polygon fill="black" stroke="black" points="377.74,-86.92 367.14,-86.85 375.39,-93.51 377.74,-86.92"/>
<text text-anchor="middle" x="444" y="-109.5" font-family="Times,serif" font-size="14.00">S(a)</text>
</g>
<!-- 2&#45;&gt;4 -->
<g id="edge6" class="edge">
<title>2&#45;&gt;4</title>
<path fill="none" stroke="black" d="M143.86,-119.14C150.57,-126.51 159.17,-135.85 167,-144 186.65,-164.47 209.52,-187.26 226.1,-203.6"/>
<polygon fill="black" stroke="black" points="223.11,-205.56 232.7,-210.07 228.02,-200.56 223.11,-205.56"/>
<text text-anchor="middle" x="188.5" y="-189.5" font-family="Times,serif" font-size="14.00">S(A)</text>
</g>
<!-- 2&#45;&gt;6 -->
<g id="edge4" class="edge">
<title>2&#45;&gt;6</title>
<path fill="none" stroke="black" d="M149.01,-109.93C167.99,-114.31 198.96,-121.45 221.42,-126.63"/>
<polygon fill="black" stroke="black" points="220.44,-130.23 230.97,-129.07 222.01,-123.41 220.44,-130.23"/>
<text text-anchor="middle" x="188.5" y="-126.5" font-family="Times,serif" font-size="14.00">SS(b)</text>
</g>
<!-- 2&#45;&gt;5 -->
<g id="edge5" class="edge">
<title>2&#45;&gt;5</title>
<path fill="none" stroke="black" d="M148.92,-102.53C168.04,-98.72 200.13,-92.7 228,-89.2 259.36,-85.26 295.55,-82.77 319.92,-81.38"/>
<polygon fill="black" stroke="black" points="320.06,-84.83 329.86,-80.79 319.68,-77.84 320.06,-84.83"/>
<text text-anchor="middle" x="250" y="-92.5" font-family="Times,serif" font-size="14.00">SS(a)</text>
</g>
<!-- 1&#45;&gt;3 -->
<g id="edge3" class="edge">
<title>1&#45;&gt;3</title>
<path fill="none" stroke="black" d="M149.01,-45.93C167.01,-41.62 195.81,-34.73 217.89,-29.45"/>
<polygon fill="black" stroke="black" points="218.51,-32.66 227.42,-26.93 216.88,-25.85 218.51,-32.66"/>
<text text-anchor="middle" x="188.5" y="-44.5" font-family="Times,serif" font-size="14.00">S($end)</text>
</g>
<!-- 6&#45;&gt;6 -->
<g id="edge9" class="edge">
<title>6&#45;&gt;6</title>
<path fill="none" stroke="black" d="M241.11,-148.92C238.79,-159.15 241.75,-169 250,-169 255.16,-169 258.25,-165.15 259.27,-159.77"/>
<polygon fill="black" stroke="black" points="262.74,-159.79 258.89,-149.92 255.75,-160.03 262.74,-159.79"/>
<text text-anchor="middle" x="250" y="-172.5" font-family="Times,serif" font-size="14.00">S(b)</text>
</g>
<!-- 6&#45;&gt;5 -->
<g id="edge10" class="edge">
<title>6&#45;&gt;5</title>
<path fill="none" stroke="black" d="M266.16,-124.72C281.37,-116.41 305.07,-103.46 323.06,-93.63"/>
<polygon fill="black" stroke="black" points="324.53,-96.26 331.63,-88.4 321.18,-90.12 324.53,-96.26"/>
<text text-anchor="middle" x="301.5" y="-114.5" font-family="Times,serif" font-size="14.00">S(a)</text>
</g>
<!-- 5&#45;&gt;5 -->
<g id="edge8" class="edge">
<title>5&#45;&gt;5</title>
<path fill="none" stroke="black" d="M340.72,-96.29C338.73,-106.39 341.49,-116 349,-116 353.7,-116 356.54,-112.25 357.52,-106.96"/>
<polygon fill="black" stroke="black" points="361,-107.21 357.28,-97.29 354,-107.37 361,-107.21"/>
<text text-anchor="middle" x="349" y="-119.5" font-family="Times,serif" font-size="14.00">S(a)</text>
</g>
<!-- 7 -->
<g id="node9" class="node">
<title>7</title>
<ellipse fill="none" stroke="black" cx="444" cy="-60" rx="18" ry="18"/>
<text text-anchor="middle" x="444" y="-55.1" font-family="Times,serif" font-size="14.00">7</text>
</g>
<!-- 5&#45;&gt;7 -->
<g id="edge7" class="edge">
<title>5&#45;&gt;7</title>
<path fill="none" stroke="black" d="M367.06,-76.33C380.56,-73.43 399.69,-69.31 415.37,-65.94"/>
<polygon fill="black" stroke="black" points="416.01,-69.17 425.05,-63.65 414.54,-62.33 416.01,-69.17"/>
<text text-anchor="middle" x="396.5" y="-75.5" font-family="Times,serif" font-size="14.00">S(b)</text>
</g>
<!-- 7&#45;&gt;8 -->
<g id="edge11" class="edge">
<title>7&#45;&gt;8</title>
<path fill="none" stroke="black" d="M461.58,-65.2C473.51,-69.28 489.76,-75.54 503,-83.2 507.91,-86.04 512.88,-89.46 517.55,-92.97"/>
<polygon fill="black" stroke="black" points="515.04,-96.24 525.05,-99.7 519.38,-90.75 515.04,-96.24"/>
<text text-anchor="middle" x="491.5" y="-86.5" font-family="Times,serif" font-size="14.00">S(b)</text>
</g>
<!-- 7&#45;&gt;5 -->
<g id="edge12" class="edge">
<title>7&#45;&gt;5</title>
<path fill="none" stroke="black" d="M427.84,-51.41C415.91,-45.82 399.01,-40.54 385,-46.2 378.52,-48.82 372.58,-53.27 367.5,-58.1"/>
<polygon fill="black" stroke="black" points="365.57,-55.1 361.28,-64.79 370.67,-59.9 365.57,-55.1"/>
<text text-anchor="middle" x="396.5" y="-50.5" font-family="Times,serif" font-size="14.00">S(a)</text>
</g>
</g>
</svg>
