<svg version="1.1" xmlns="http://www.w3.org/2000/svg" viewBox="0 0 673.5 175" width="673.5" height="175">
  <!-- svg-source:excalidraw -->
  
  <defs>
    <style class="style-fonts">
      @font-face {
        font-family: "Virgil";
        src: url("https://unpkg.com/@excalidraw/excalidraw@0.15.2/dist/excalidraw-assets/Virgil.woff2");
      }
      @font-face {
        font-family: "Cascadia";
        src: url("https://unpkg.com/@excalidraw/excalidraw@0.15.2/dist/excalidraw-assets/Cascadia.woff2");
      }
    </style>
  </defs>
  <rect x="0" y="0" width="673.5" height="175" fill="#ffffff"></rect><g stroke-linecap="round" transform="translate(10 10) rotate(0 124.5 77)"><path d="M0.96 2.81 C61.63 -2.79, 123.01 -2.29, 248.79 0.92 M-0.95 0.4 C94.64 3.57, 188.16 2.82, 249.95 -1.16 M245.02 -1.24 C249.23 50.45, 243.55 96.66, 252.2 153.75 M250.96 -0.96 C246.69 49.67, 248.15 100.46, 249.21 153.86 M247.71 153.87 C162.21 151.56, 72.96 148.97, 0.77 155.23 M248.26 152.44 C150.01 153.41, 52.03 152.72, -1.28 152.89 M3.65 157.96 C3.53 114.11, 5.25 73.95, 1.94 2.11 M1.47 153.62 C-1.44 121.12, -1.14 90.14, -0.11 0.99" stroke="#000000" stroke-width="1" fill="none"></path></g><g transform="translate(85 72) rotate(0 49.5 12.5)"><text x="0" y="0" font-family="Virgil, Segoe UI Emoji" font-size="20px" fill="#000000" text-anchor="start" style="white-space: pre;" direction="ltr" dominant-baseline="text-before-edge">niolesk.top</text></g><g stroke-linecap="round" transform="translate(414.5 11) rotate(0 124.5 77)"><path d="M0.3 0.79 C96.92 -2.2, 192.92 -2.58, 251.6 -1.6 M0.19 1.4 C60.72 -0.35, 123.87 -2.16, 249.05 -1.3 M251.67 3.78 C242.93 45.7, 249.13 84.53, 250.25 150.83 M249.13 -1.34 C253.61 39.36, 252.23 81.71, 250.14 155.57 M251.11 153.62 C188.61 150.86, 125.48 155.06, 3.07 155.82 M248.05 153.26 C172.54 148.69, 96.59 148.99, -0.64 153.19 M2.01 154.26 C0.92 108.96, -0.87 65.56, -3.96 2.94 M0.82 152.07 C-1.14 108.09, -2.37 67.08, 0.7 -1.24" stroke="#ff1111" stroke-width="1" fill="none"></path></g><g transform="translate(503.5 74) rotate(0 32 12.5)"><text x="0" y="0" font-family="Virgil, Segoe UI Emoji" font-size="20px" fill="#ff1111" text-anchor="start" style="white-space: pre;" direction="ltr" dominant-baseline="text-before-edge">kroki.io</text></g><g stroke-linecap="round"><g transform="translate(260.0000000000002 81.0035626602882) rotate(0 76.49999999999989 -1.0037786365171115)"><path d="M0.67 0.3 C25.96 -0.11, 128.59 -2.18, 154.11 -2.19 M-2.41 -2 C22.39 -1.97, 126.67 1.69, 152.47 1.34" stroke="#000000" stroke-width="1" fill="none"></path></g><g transform="translate(260.0000000000002 81.0035626602882) rotate(0 76.49999999999989 -1.0037786365171115)"><path d="M124.57 12.78 C134.79 8.38, 149.15 1.5, 150.34 -0.98 M123.24 12 C134.47 6.1, 142.57 2.73, 151.97 -0.65" stroke="#000000" stroke-width="1" fill="none"></path></g><g transform="translate(260.0000000000002 81.0035626602882) rotate(0 76.49999999999989 -1.0037786365171115)"><path d="M124.85 -7.74 C135 -4.22, 149.25 -3.18, 150.34 -0.98 M123.52 -8.52 C134.71 -7.75, 142.72 -4.46, 151.97 -0.65" stroke="#000000" stroke-width="1" fill="none"></path></g></g><mask></mask><g transform="translate(316 48) rotate(0 16.5 12.5)"><text x="0" y="0" font-family="Virgil, Segoe UI Emoji" font-size="20px" fill="#000000" text-anchor="start" style="white-space: pre;" direction="ltr" dominant-baseline="text-before-edge">use</text></g></svg>