<svg xmlns="http://www.w3.org/2000/svg" width="576" height="592" class="svgbob">
  <style>
    .svgbob line, .svgbob path, .svgbob circle, .svgbob rect, .svgbob polygon {
    stroke: black;
    stroke-width: 2;
    stroke-opacity: 1;
    fill-opacity: 1;
    stroke-linecap: round;
    stroke-linejoin: miter;
}
.svgbob text {
    white-space: pre;
    fill: black;
    font-family: Iosevka Fixed, monospace;
    font-size: 14px;
}
.svgbob rect.backdrop {
    stroke: none;
    fill: white;
}
.svgbob .broken {
    stroke-dasharray: 8;
}
.svgbob .filled {
    fill: black;
}
.svgbob .bg_filled {
    fill: white;
    stroke-width: 1;
}
.svgbob .nofill {
    fill: white;
}
.svgbob .end_marked_arrow {
    marker-end: url(#arrow);
}
.svgbob .start_marked_arrow {
    marker-start: url(#arrow);
}
.svgbob .end_marked_diamond {
    marker-end: url(#diamond);
}
.svgbob .start_marked_diamond {
    marker-start: url(#diamond);
}
.svgbob .end_marked_circle {
    marker-end: url(#circle);
}
.svgbob .start_marked_circle {
    marker-start: url(#circle);
}
.svgbob .end_marked_open_circle {
    marker-end: url(#open_circle);
}
.svgbob .start_marked_open_circle {
    marker-start: url(#open_circle);
}
.svgbob .end_marked_big_open_circle {
    marker-end: url(#big_open_circle);
}
.svgbob .start_marked_big_open_circle {
    marker-start: url(#big_open_circle);
}
    <!--separator-->
    
  </style>
  <defs>
    <marker id="arrow" viewBox="-2 -2 8 8" refX="4" refY="2" markerWidth="7" markerHeight="7" orient="auto-start-reverse">
      <polygon points="0,0 0,4 4,2 0,0"></polygon>
    </marker>
    <marker id="diamond" viewBox="-2 -2 8 8" refX="4" refY="2" markerWidth="7" markerHeight="7" orient="auto-start-reverse">
      <polygon points="0,2 2,0 4,2 2,4 0,2"></polygon>
    </marker>
    <marker id="circle" viewBox="0 0 8 8" refX="4" refY="4" markerWidth="7" markerHeight="7" orient="auto-start-reverse">
      <circle cx="4" cy="4" r="2" class="filled"></circle>
    </marker>
    <marker id="open_circle" viewBox="0 0 8 8" refX="4" refY="4" markerWidth="7" markerHeight="7" orient="auto-start-reverse">
      <circle cx="4" cy="4" r="2" class="bg_filled"></circle>
    </marker>
    <marker id="big_open_circle" viewBox="0 0 8 8" refX="4" refY="4" markerWidth="7" markerHeight="7" orient="auto-start-reverse">
      <circle cx="4" cy="4" r="3" class="bg_filled"></circle>
    </marker>
  </defs>
  <rect class="backdrop" x="0" y="0" width="576" height="592"></rect>
  <rect x="68" y="40" width="56" height="32" class="solid nofill" rx="0"></rect>
  <rect x="156" y="40" width="56" height="32" class="solid nofill" rx="4"></rect>
  <path d="M 88,196 A 20,20 0,0,0 68,216" class="nofill"></path>
  <circle cx="444" cy="296" r="24" class="nofill"></circle>
  <circle cx="520" cy="296" r="28" class="nofill"></circle>
  <path d="M 160,276 A 20,20 0,0,0 140,296" class="nofill"></path>
  <circle cx="208" cy="296" r="20" class="nofill"></circle>
  <circle cx="264" cy="296" r="20" class="nofill"></circle>
  <path d="M 272,288 A 16,16 0,0,0 272,304" class="nofill"></path>
  <circle cx="360" cy="296" r="20" class="nofill"></circle>
  <circle cx="76" cy="296" r="8" class="nofill"></circle>
  <circle cx="100" cy="384" r="36" class="nofill"></circle>
  <circle cx="192" cy="384" r="40" class="nofill"></circle>
  <circle cx="296" cy="392" r="44" class="nofill"></circle>
  <circle cx="420" cy="392" r="48" class="nofill"></circle>
  <circle cx="128" cy="496" r="52" class="nofill"></circle>
  <line x1="56" y1="8" x2="64" y2="8" class="solid"></line>
  <line x1="72" y1="8" x2="80" y2="8" class="solid"></line>
  <line x1="88" y1="8" x2="96" y2="8" class="solid"></line>
  <line x1="104" y1="8" x2="112" y2="8" class="solid"></line>
  <line x1="120" y1="8" x2="128" y2="8" class="solid"></line>
  <line x1="136" y1="8" x2="144" y2="8" class="solid"></line>
  <line x1="152" y1="8" x2="160" y2="8" class="solid"></line>
  <line x1="168" y1="8" x2="176" y2="8" class="solid"></line>
  <line x1="184" y1="8" x2="192" y2="8" class="solid"></line>
  <line x1="200" y1="8" x2="208" y2="8" class="solid"></line>
  <line x1="216" y1="8" x2="224" y2="8" class="solid"></line>
  <line x1="232" y1="8" x2="240" y2="8" class="solid"></line>
  <line x1="248" y1="8" x2="256" y2="8" class="solid"></line>
  <line x1="264" y1="8" x2="272" y2="8" class="solid"></line>
  <line x1="280" y1="8" x2="288" y2="8" class="solid"></line>
  <line x1="296" y1="8" x2="304" y2="8" class="solid"></line>
  <line x1="312" y1="8" x2="320" y2="8" class="solid"></line>
  <line x1="328" y1="8" x2="336" y2="8" class="solid"></line>
  <line x1="344" y1="8" x2="352" y2="8" class="solid"></line>
  <line x1="360" y1="8" x2="368" y2="8" class="solid"></line>
  <line x1="376" y1="8" x2="384" y2="8" class="solid"></line>
  <line x1="392" y1="8" x2="400" y2="8" class="solid"></line>
  <line x1="408" y1="8" x2="416" y2="8" class="solid"></line>
  <line x1="424" y1="8" x2="432" y2="8" class="solid"></line>
  <line x1="440" y1="8" x2="448" y2="8" class="solid"></line>
  <line x1="456" y1="8" x2="464" y2="8" class="solid"></line>
  <text x="458" y="28" >.</text>
  <text x="426" y="60" >.</text>
  <text x="490" y="60" >.</text>
  <text x="458" y="92" >.</text>
  <line x1="472" y1="8" x2="480" y2="8" class="solid"></line>
  <line x1="488" y1="8" x2="496" y2="8" class="solid"></line>
  <line x1="504" y1="8" x2="512" y2="8" class="solid"></line>
  <line x1="520" y1="8" x2="528" y2="8" class="solid"></line>
  <line x1="536" y1="8" x2="544" y2="8" class="solid"></line>
  <polygon points="519,60 526,52 526,63" class="filled"></polygon>
  <line x1="522" y1="60" x2="502" y2="100" class="solid"></line>
  <polygon points="550.8,76 550.8,68 545.2,68 545.2,76" class="filled"></polygon>
  <line x1="546" y1="76" x2="526" y2="116" class="solid"></line>
  <polygon points="519,92 526,84 526,95" class="filled"></polygon>
  <line x1="522" y1="92" x2="504" y2="128" class="solid"></line>
  <polygon points="502.8,108 502.8,100 497.2,100 497.2,108" class="filled"></polygon>
  <polygon points="529,116 522,124 522,113" class="filled"></polygon>
  <rect x="416" y="84" width="8" height="8" class="solid filled" rx="0"></rect>
  <line x1="420" y1="92" x2="420" y2="132" class="solid"></line>
  <polygon points="416,132 424,132 420,144" class="filled"></polygon>
  <line x1="360" y1="104" x2="348" y2="104" class="solid end_marked_open_circle"></line>
  <line x1="360" y1="104" x2="384" y2="104" class="solid"></line>
  <polygon points="384,100 392,104 384,108" class="filled"></polygon>
  <polygon points="352,116 344,120 352,124" class="filled"></polygon>
  <line x1="352" y1="120" x2="384" y2="120" class="solid"></line>
  <rect x="384" y="116" width="8" height="8" class="solid filled" rx="0"></rect>
  <polygon points="432,108 436,96 440,108" class="filled"></polygon>
  <line x1="436" y1="108" x2="436" y2="152" class="solid end_marked_open_circle"></line>
  <polygon points="456,124 460,112 464,124" class="filled"></polygon>
  <line x1="460" y1="124" x2="460" y2="160" class="broken"></line>
  <line x1="476" y1="112" x2="476" y2="148" class="broken"></line>
  <polygon points="472,148 480,148 476,160" class="filled"></polygon>
  <text x="314" y="156" >o.</text>
  <line x1="324" y1="152" x2="340" y2="168" class="broken"></line>
  <text x="338" y="172" >.</text>
  <text x="394" y="188" >.</text>
  <line x1="412" y1="204" x2="412" y2="208" class="solid"></line>
  <polygon points="465,204 458,196 458,207" class="filled"></polygon>
  <line x1="462" y1="204" x2="484" y2="248" class="solid end_marked_circle"></line>
  <text x="410" y="220" >:</text>
  <line x1="412" y1="224" x2="412" y2="228" class="solid"></line>
  <text x="418" y="236" >.</text>
  <line x1="424" y1="232" x2="456" y2="232" class="broken"></line>
  <polygon points="456,228 464,232 456,236" class="filled"></polygon>
  <line x1="478" y1="188" x2="476" y2="184" class="solid end_marked_big_open_circle"></line>
  <line x1="480" y1="192" x2="498" y2="228" class="solid"></line>
  <polygon points="495,228 502,236 502,225" class="filled"></polygon>
  <text x="74" y="236" >&#39;</text>
  <polygon points="240,228 248,232 240,236" class="filled"></polygon>
  <polygon points="272,196 264,200 272,204" class="filled"></polygon>
  <polygon points="336,196 344,200 336,204" class="filled"></polygon>
  <polygon points="360,228 352,232 360,236" class="filled"></polygon>
  <text x="146" y="316" >&#39;</text>
  <text x="378" y="476" >.--------------.</text>
  <text x="378" y="492" >| Don&#39;t draw me|</text>
  <text x="378" y="508" >|              |</text>
  <text x="378" y="524" >&#39;--------------&#39;</text>
  <g>
    <path d="M 40,8 A 4,4 0,0,0 36,12" class="nofill"></path>
    <line x1="36" y1="12" x2="36" y2="564" class="broken"></line>
    <line x1="40" y1="8" x2="48" y2="8" class="solid"></line>
    <path d="M 36,564 A 4,4 0,0,0 40,568" class="nofill"></path>
    <line x1="40" y1="568" x2="560" y2="568" class="broken"></line>
    <line x1="552" y1="8" x2="560" y2="8" class="solid"></line>
    <path d="M 560,8 A 4,4 0,0,1 564,12" class="nofill"></path>
    <line x1="564" y1="12" x2="564" y2="564" class="broken"></line>
    <path d="M 564,564 A 4,4 0,0,1 560,568" class="nofill"></path>
  </g>
  <g>
    <line x1="460" y1="24" x2="428" y2="56" class="broken"></line>
    <line x1="460" y1="24" x2="492" y2="56" class="broken"></line>
    <line x1="428" y1="56" x2="460" y2="88" class="broken"></line>
    <line x1="492" y1="56" x2="460" y2="88" class="broken"></line>
  </g>
  <g>
    <line x1="80" y1="96" x2="136" y2="96" class="solid"></line>
    <line x1="80" y1="96" x2="64" y2="128" class="solid"></line>
    <line x1="136" y1="96" x2="152" y2="128" class="solid"></line>
    <line x1="64" y1="128" x2="80" y2="160" class="solid"></line>
    <line x1="152" y1="128" x2="136" y2="160" class="solid"></line>
    <line x1="80" y1="160" x2="136" y2="160" class="solid"></line>
  </g>
  <g>
    <path d="M 256,40 A 8,8 0,0,0 250,44" class="nofill"></path>
    <line x1="250" y1="44" x2="248" y2="48" class="solid"></line>
    <line x1="256" y1="40" x2="304" y2="40" class="solid"></line>
    <path d="M 304,40 A 8,8 0,0,1 310,44" class="nofill"></path>
    <line x1="310" y1="44" x2="312" y2="48" class="solid"></line>
    <path d="M 248,48 A 16,16 0,0,0 248,64" class="nofill"></path>
    <path d="M 312,48 A 16,16 0,0,1 312,64" class="nofill"></path>
    <line x1="248" y1="64" x2="250" y2="68" class="solid"></line>
    <path d="M 250,68 A 8,8 0,0,0 256,72" class="nofill"></path>
    <line x1="256" y1="72" x2="304" y2="72" class="solid"></line>
    <line x1="312" y1="64" x2="310" y2="68" class="solid"></line>
    <path d="M 310,68 A 8,8 0,0,1 304,72" class="nofill"></path>
  </g>
  <g>
    <line x1="232" y1="96" x2="296" y2="96" class="solid"></line>
    <line x1="232" y1="96" x2="240" y2="112" class="solid"></line>
    <line x1="296" y1="96" x2="304" y2="112" class="solid"></line>
    <path d="M 240,112 A 16,16 0,0,1 240,128" class="nofill"></path>
    <path d="M 304,112 A 16,16 0,0,1 304,128" class="nofill"></path>
    <line x1="240" y1="128" x2="232" y2="144" class="solid"></line>
    <line x1="232" y1="144" x2="296" y2="144" class="solid"></line>
    <line x1="304" y1="128" x2="296" y2="144" class="solid"></line>
  </g>
  <g>
    <line x1="368" y1="32" x2="350" y2="68" class="solid"></line>
    <line x1="368" y1="32" x2="386" y2="68" class="solid"></line>
    <path d="M 350,68 A 3,3 0,0,0 352,72" class="nofill"></path>
    <line x1="352" y1="72" x2="384" y2="72" class="solid"></line>
    <path d="M 386,68 A 3,3 0,0,1 384,72" class="nofill"></path>
  </g>
  <g>
    <line x1="200" y1="96" x2="184" y2="128" class="solid"></line>
    <line x1="200" y1="96" x2="216" y2="128" class="solid"></line>
    <line x1="184" y1="128" x2="200" y2="160" class="solid"></line>
    <line x1="216" y1="128" x2="200" y2="160" class="solid"></line>
  </g>
  <g>
    <line x1="344" y1="168" x2="380" y2="168" class="broken"></line>
    <path d="M 380,168 A 8,8 0,0,1 388,176" class="nofill"></path>
    <line x1="380" y1="168" x2="412" y2="200" class="broken"></line>
  </g>
  <g>
    <line x1="88" y1="200" x2="168" y2="200" class="solid"></line>
    <path d="M 168,200 A 8,8 0,0,1 174,204" class="nofill"></path>
    <line x1="174" y1="204" x2="176" y2="208" class="solid"></line>
    <path d="M 176,208 A 16,16 0,0,1 176,224" class="nofill"></path>
    <line x1="176" y1="224" x2="174" y2="228" class="solid"></line>
    <path d="M 144,232 A 8,8 0,0,0 138,236" class="nofill"></path>
    <line x1="138" y1="236" x2="128" y2="256" class="solid"></line>
    <line x1="144" y1="232" x2="168" y2="232" class="solid"></line>
    <path d="M 174,228 A 8,8 0,0,1 168,232" class="nofill"></path>
  </g>
  <g>
    <line x1="80" y1="232" x2="124" y2="232" class="solid"></line>
    <line x1="124" y1="232" x2="124" y2="260" class="solid"></line>
  </g>
  <g>
    <line x1="104" y1="288" x2="120" y2="288" class="solid"></line>
    <path d="M 104,288 A 16,16 0,0,0 104,304" class="nofill"></path>
    <line x1="104" y1="304" x2="120" y2="304" class="solid"></line>
    <path d="M 120,288 A 16,16 0,0,1 120,304" class="nofill"></path>
  </g>
  <g>
    <path d="M 240,200 A 8,8 0,0,0 234,204" class="nofill"></path>
    <line x1="234" y1="204" x2="232" y2="208" class="solid"></line>
    <path d="M 232,208 A 16,16 0,0,0 232,224" class="nofill"></path>
    <line x1="232" y1="224" x2="234" y2="228" class="solid"></line>
    <path d="M 234,228 A 8,8 0,0,0 240,232" class="nofill"></path>
  </g>
  <g>
    <path d="M 272,200 A 8,8 0,0,1 278,204" class="nofill"></path>
    <line x1="278" y1="204" x2="280" y2="208" class="solid"></line>
    <path d="M 280,208 A 16,16 0,0,1 280,224" class="nofill"></path>
    <line x1="280" y1="224" x2="278" y2="228" class="solid"></line>
    <path d="M 278,228 A 8,8 0,0,1 272,232" class="nofill"></path>
  </g>
  <g>
    <path d="M 336,200 A 8,8 0,0,0 330,204" class="nofill"></path>
    <line x1="330" y1="204" x2="328" y2="208" class="solid"></line>
    <path d="M 328,208 A 16,16 0,0,0 328,224" class="nofill"></path>
    <line x1="328" y1="224" x2="330" y2="228" class="solid"></line>
    <path d="M 330,228 A 8,8 0,0,0 336,232" class="nofill"></path>
  </g>
  <g>
    <path d="M 360,200 A 8,8 0,0,1 366,204" class="nofill"></path>
    <line x1="366" y1="204" x2="368" y2="208" class="solid"></line>
    <path d="M 368,208 A 16,16 0,0,1 368,224" class="nofill"></path>
    <line x1="368" y1="224" x2="366" y2="228" class="solid"></line>
    <path d="M 366,228 A 8,8 0,0,1 360,232" class="nofill"></path>
  </g>
  <g>
    <path d="M 160,280 A 8,8 0,0,1 166,284" class="nofill"></path>
    <line x1="166" y1="284" x2="168" y2="288" class="solid"></line>
    <path d="M 168,288 A 16,16 0,0,1 168,304" class="nofill"></path>
    <line x1="168" y1="304" x2="166" y2="308" class="solid"></line>
    <line x1="152" y1="312" x2="160" y2="312" class="solid"></line>
    <path d="M 166,308 A 8,8 0,0,1 160,312" class="nofill"></path>
  </g>
  <g>
    <line x1="280" y1="280" x2="296" y2="280" class="solid"></line>
    <path d="M 296,280 A 8,8 0,0,1 302,284" class="nofill"></path>
    <line x1="302" y1="284" x2="304" y2="288" class="solid"></line>
    <path d="M 304,288 A 16,16 0,0,1 304,304" class="nofill"></path>
    <line x1="304" y1="304" x2="302" y2="308" class="solid"></line>
    <line x1="280" y1="312" x2="296" y2="312" class="solid"></line>
    <path d="M 302,308 A 8,8 0,0,1 296,312" class="nofill"></path>
  </g>
  <g>
    <path d="M 216,472 A 3,3 0,0,0 214,476" class="nofill"></path>
    <line x1="214" y1="476" x2="236" y2="520" class="solid"></line>
    <line x1="216" y1="472" x2="256" y2="472" class="solid"></line>
    <path d="M 256,472 A 3,3 0,0,1 258,476" class="nofill"></path>
    <line x1="258" y1="476" x2="236" y2="520" class="solid"></line>
  </g>
  <g>
    <path d="M 280,472 A 3,3 0,0,0 278,476" class="nofill"></path>
    <line x1="278" y1="476" x2="298" y2="516" class="solid"></line>
    <line x1="280" y1="472" x2="312" y2="472" class="solid"></line>
    <path d="M 312,472 A 8,8 0,0,1 318,476" class="nofill"></path>
    <line x1="318" y1="476" x2="338" y2="516" class="solid"></line>
    <path d="M 298,516 A 8,8 0,0,0 304,520" class="nofill"></path>
    <line x1="304" y1="520" x2="336" y2="520" class="solid"></line>
    <path d="M 338,516 A 3,3 0,0,1 336,520" class="nofill"></path>
  </g>
</svg>
